<svg version="1" xmlns="http://www.w3.org/2000/svg" width="36" height="22.229" viewBox="0 0 36 22.229"><path fill-rule="evenodd" clip-rule="evenodd" fill="#081F38" d="M34.273 1.63c0-.827-1.147-1.225-2.756-1.378-7.543-.714-26.124.29-27.281.551-1.404.318-2.198 1.197-2.383 2.972-.183 1.775-.667 7.483-.045 10.525.226 1.115.402 2.349 1.103 3.031 2.047 1.996 6.613 1.584 9.576 1.584-1.172.941-2.168 2.923-1.348 3.287.817.365 3.578-3.16 6.032-3.287 3.995-.207 8.394-.049 11.729-.338 1.585-.138 3.376-.344 4.064-.689.689-.344 1.567-1.501 1.653-2.41.246-2.657-.344-13.021-.344-13.848z"/><g fill="#EEAE5E"><path d="M11.615 8.946l.303-.314c.607-.708.888-1.58.769-2.393-.23-1.572-1.332-3.329-5.135-3.172l-.189-.048c-.164-.008-.315.031-.457.093l-.319.027c-.572.064-.984.581-.92 1.153.04.358.266.638.562.793-.13 3.362-.138 6.946-.138 10.155 0 .576.467 1.043 1.044 1.043.1 0 .19-.03.282-.057.092.026.182.057.283.057h.002c2.423-.004 5.233-.409 5.475-3.531.049-.635.015-1.859-.761-2.939-.241-.334-.506-.621-.801-.867zm-.992-2.404c.022.156-.039.44-.289.73-.138.161-.391.389-.81.542l-.088-.021c-.253-.055-.729-.126-1.199-.109.019-.855.045-1.702.078-2.542 2.109.069 2.249 1.006 2.308 1.4zm.474 6.049c-.052.676-.122 1.506-2.918 1.596.001-1.371.005-2.749.019-4.126l.37.004c.29-.001.573-.025.846-.072l.313.19.259.16c.287.17.521.389.735.688.403.562.397 1.278.376 1.56zM21.206 6.504l.007-2.395c0-.577-.467-1.044-1.043-1.044-.577 0-1.043.467-1.043 1.044l-.008 2.385c-.01 2.112-.021 4.296.064 6.458.042 1.077-.352 1.097-.734 1.115-.431.025-.868-.146-1.068-.326-.138-.122-.178-.275-.191-.716-.006-.223-.056-.849-.113-1.606-.093-1.182-.218-2.8-.226-3.467-.006-.629.057-1.261.122-1.931.063-.648.129-1.319.129-1.995 0-.577-.467-1.043-1.043-1.043-.577 0-1.044.467-1.044 1.043 0 .574-.059 1.166-.118 1.792-.069.694-.14 1.412-.133 2.153.008.739.133 2.33.231 3.609.055.712.103 1.301.108 1.508.015.472.041 1.453.882 2.205.6.54 1.501.862 2.388.862l.182-.005c1.777-.088 2.791-1.315 2.713-3.281-.082-2.114-.073-4.275-.062-6.365zM29.112 3.856c-.092-.568-.62-.95-1.198-.86-.568.094-.953.631-.859 1.2.106.648.012 1.318-.087 2.026-.072.516-.147 1.05-.147 1.603l.003.166.013.622c.001.001-.114.035-.421-.041l-.316-.104-.021-.178-.045-.346c-.097-.585-.121-1.175-.147-1.8-.029-.712-.061-1.449-.196-2.285-.093-.568-.631-.963-1.197-.863-.568.093-.954.629-.863 1.197.116.712.145 1.386.172 2.037.027.66.057 1.343.174 2.056l.028.223c.082.763.324 1.516 1.436 1.939-.018.529-.021 1.118-.023 1.736-.004 1.114-.009 2.267-.101 3.008-.071.571.334 1.094.906 1.164l.13.009c.519 0 .968-.387 1.033-.914.11-.866.114-2.083.117-3.259.003-.58.007-1.13.021-1.614.211-.074.408-.176.583-.316.846-.682.816-1.833.805-2.325l-.002-.113c0-.407.062-.847.127-1.313.108-.793.235-1.693.075-2.655z"/></g></svg>