<svg version="1.2" baseProfile="tiny" xmlns="http://www.w3.org/2000/svg" width="33" height="33" viewBox="1.333 1.333 33 33"><path fill="#1D354D" d="M34.332 4.737c-.047-.891-.664-1.636-1.476-1.877-4.245-1.229-10.272-1.714-15.235-1.461-4.964.251-10.912 1.345-15.009 2.998-.783.323-1.322 1.127-1.276 2.018l.014.152c.842 9.644 12.121 24.967 15.56 26.965.817.477 1.593.822 2.392.801.794-.061 1.529-.483 2.295-1.039 3.218-2.336 12.877-18.726 12.734-28.403v-.154h.001z"/><path fill="#081F38" d="M31.635 6.35c.116 8.343-7.845 22.474-10.495 24.489-.63.478-1.238.841-1.892.894-.659.02-1.296-.281-1.97-.69-2.832-1.722-12.127-14.934-12.823-23.247l-.01-.131c-.038-.768.404-1.462 1.051-1.739 3.376-1.426 8.277-2.369 12.368-2.584 4.093-.219 9.058.199 12.556 1.259.668.207 1.177.85 1.217 1.621l-.002.128z"/><path fill="#1D354D" d="M26.473 14.981c-.175-.292-.46-.5-.79-.58l-1.464-.351c1.324-2.598 1.787-5.438 1.355-7.859-.536-2.996-2.469-4.858-5.051-4.858-.339 0-.692.032-1.048.095-2.915.52-5.214 2.692-6.473 6.118-.165.449-.311.914-.436 1.392-.134-.309-.392-.565-.733-.689-.568-.205-1.161-.311-1.761-.311-.313 0-.632.028-.949.085-4.388.782-6.14 4.663-5.56 7.915.491 2.756 2.854 5.974 7.903 5.974.729 0 1.498-.071 2.284-.211l.167-.031c.718 1.143 1.593 1.989 2.576 2.505-.11.136-.215.276-.313.428-.942 1.438-1.118 3.399-.807 4.512.601 2.14 2.366 3.521 4.5 3.521.312 0 .634-.028.959-.088 4.601-.822 5.266-5.068 5.329-8.673.037-2.165-.025-3.887-.065-4.916l-.025-.89.546-2.118c.083-.328.031-.679-.144-.97zm-14.923 3.242c-3.126 0-3.812-1.953-3.962-2.792-.136-.758-.015-1.553.331-2.178.231-.419.667-.947 1.432-1.083.133-.023.258-.035.381-.035.242 0 .481.046.775.15.137.048.28.072.423.072.2 0 .398-.047.581-.141.252-.129.452-.339.57-.593-.189 1.797-.13 3.67.19 5.468.063.359.139.717.227 1.074-.328.038-.646.058-.948.058zm5.427-1.724c-.837-4.792.333-10.942 3.055-11.427l.055-.006c.184 0 .635.521.85 1.724.486 2.742-.489 7.246-3.96 9.709zm3.342 12.399l-.125.012c-.25 0-.354-.145-.363-.198-.223-1.229.353-1.521.6-1.646.559-.282.828-.927.635-1.521l-.339-1.057c.32-.094.622-.207.907-.34-.039 3.264-.232 4.559-1.315 4.75zm-.437-7.932l-.28.025c-.539 0-.976-.36-1.316-.833 1.349-.73 2.519-1.646 3.506-2.681-.273 2.188-.599 3.255-1.91 3.489z"/><path fill="#DCE3B2" d="M24.807 17.883l.578-2.247-1.946-.467c-.66 2.446-.037 6.458-3.334 7.045-.173.03-.34.046-.503.046-1.352 0-2.375-1.027-3.061-2.672 6.131-2.582 8.527-8.995 7.781-13.172-.396-2.226-1.692-3.814-3.799-3.814-.263 0-.536.024-.825.077-5.417.965-7.204 8.454-6.181 14.189.143.812.352 1.589.594 2.293-.245.063-.514.114-.786.163-.64.114-1.232.167-1.778.167-3.232 0-4.856-1.849-5.211-3.837-.373-2.098.691-4.361 2.79-4.735.211-.038.411-.055.603-.055.421 0 .805.084 1.199.223l.474-1.646c-.425-.154-.869-.234-1.33-.234-.237 0-.479.021-.726.065-3.499.624-5.028 3.667-4.533 6.442.457 2.566 2.659 4.926 6.653 4.926.641 0 1.328-.06 2.062-.19.361-.064.694-.147 1.029-.23.962 1.93 2.423 3.281 4.343 3.281.249 0 .506-.021.771-.069 1.693-.303 2.688-1.108 3.255-2.117-.081 5.021.301 8.352-2.383 8.832l-.349.03c-.849 0-1.493-.57-1.612-1.248-.129-.7-.242-2.229 1.276-2.999l-.625-1.936c-2.521.354-2.965 3.613-2.639 4.777.378 1.346 1.496 2.595 3.278 2.595.233 0 .479-.021.736-.066 3.316-.593 4.211-3.407 4.283-7.447.059-3.34-.128-5.566-.084-5.97zm-9.071-1.108c-.919-5.169.282-12.277 4.073-12.952l.276-.025c1.052 0 1.805 1.127 2.099 2.771.627 3.521-.874 9.47-6.056 11.883-.16-.508-.286-1.091-.392-1.677z"/></svg>