<svg version="1.2" baseProfile="tiny" xmlns="http://www.w3.org/2000/svg" width="943" height="512" viewBox="-529.5 291.5 943 512"><g fill="#86201A"><path d="M-8.322 644.403c.486-1.199 1.095-1.521 2.36-1.402 1.267.119 2.024.429 3.264.791 1.308.41 1.39.993 1.378 2.602.029 1.899-.265 9.973-.472 16.961 2.819-9.141 6.695-20.93 8.138-24.642.654-1.698 1.187-1.713 2.552-1.311 1.124.378 2.147.889 3.203 1.632 1.14.911 1.104 2.344.649 3.775-2.784 8.125-8.003 24.324-10.38 32.81-.445 1.49-1.222 1.896-2.912 1.718-1.866-.155-2.548-.355-4.097-.793-1.432-.453-2.071-1.612-2.201-2.962-.369-2.626-.94-7.959-1.114-12.157-2.221 5.784-4.886 13.059-6.161 16.688-.562 1.508-1.253 1.663-2.453 1.595-1.565-.137-3.098-.458-4.404-.868-1.241-.361-1.589-1.146-1.719-2.911-.632-7.884-.521-23.188.041-32.309.079-1.558.604-2.047 1.93-1.937 1.624.129 2.906.364 4.121.968 1.349.702 1.436 2.594 1.341 4.035-.106 2.632-.703 11.937-1.011 19.06 2.659-7.751 6.532-18.288 7.947-21.343zM37.118 641.954c1.435 7.895-.192 21.056-5.957 28.395-1.942 2.449-4.262 3.343-7.171 3.361-1.899.008-4.211-.406-5.866-1.261-1.274-.668-2.764-2.08-3.523-3.823-3.592-8.032-.424-23.531 6.83-31.299 1.514-1.621 4.053-2.662 5.96-2.611 2.5.033 5.148.761 6.666 1.932 1.781 1.373 2.658 3.101 3.061 5.306zm-15 11.741c-1.343 5.697-1.495 13.262.78 13.859 2.217.604 4.891-4.909 6.331-12.165 1.116-5.609 1.368-13.781-.577-14.124-1.887-.35-5.197 6.673-6.534 12.43zM46.453 669.629c-.212 1.27-.595 1.551-1.857 1.396-1.269-.211-2.428-.495-3.313-.987-1.141-.642-1.351-1.447-1.244-3.119.5-5.512 2.439-16.109 4.176-24.846-.568-.824-1.28-1.87-1.737-2.767-.693-1.404-.715-2.112.435-2.955 5.371-3.87 16.116-7.938 20.121-4.004 1.604 1.596 3.145 3.675 3.934 6.964.782 3.232-.435 6.098-2.465 8.582-2.082 2.549-5.16 5.211-8.752 7.516 2.231 2.949 5.819 6.87 8.344 9.252 1.056.947.83 1.565.09 2.361-.902.932-1.415 1.109-2.377 1.516-1.072.477-2.471.695-4.225-.646-2.45-1.739-6.292-5.81-8.956-9.42-.812 3.828-1.565 7.648-2.174 11.157zm3.987-19.19c6.608-3.419 10.512-9.259 9.83-11.078-.445-1.313-3.815-1.228-7.355 1.013-.8 2.878-1.592 6.348-2.475 10.065zM89.132 662.336c.686 1.001.511 1.669-.484 2.412-.665.478-1.746.932-2.546 1.244-1.316.478-2.788.557-4.132-1.151-1.145-1.491-3.934-5.372-5.933-9.03-.8 4.098-1.568 7.897-2.121 10.849-.23 1.324-.62 1.597-1.885 1.359-1.265-.236-2.786-.685-3.854-1.354-1.069-.669-1.316-1.415-1.124-3.149.782-6.818 4.194-25.361 6.153-32.882.396-1.457 1.137-1.763 2.407-1.468 1.328.29 3.24 1.117 4.373 1.839 1.261.829 1.48 1.281 1.078 2.68-.75 2.732-1.63 6.602-2.589 10.894 4.278-5.489 9.812-12.752 12.202-16.29.781-1.138 1.427-1.198 2.395-.343.903.803 1.786 2.022 2.259 3.281.392 1.028.32 2.159-.476 3.771-2.143 4.284-7.628 11.424-12.041 16.747 2.012 3.776 4.743 8.313 6.318 10.591zM98.249 655.767c3.689 2.804 7.111 3.56 8.487 2.16 1.601-1.534-4.779-4.793-8.154-8.15-2.357-2.369-3.697-6.17-2.07-10.601 1.368-3.939 4.691-8.612 8.055-11.102 1.292-.921 3.461-1.964 5.992-1.263 1.933.57 4.146 1.767 5.356 2.979 1.778 1.702 1.747 3.713 1.686 5.312-.215 2.732-1.351 7.423-2.409 9.922-.507 1.16-1.077 1.437-2.17 1.045-3.091-1.075-4.574-2.799-4.217-5.188.317-2.15 1.756-6.744 1.024-7.047-1.285-.615-8.302 7.693-4.817 11.752 3.8 4.332 11.599 6.778 9.226 12.326-1.109 2.621-3.632 6.939-9.558 7.487-3.87.4-7.771-1.266-11.404-5.728-1.879-2.286-1.708-3.185-.635-3.854 1.753-1.069 4.297-1.017 5.608-.05zM137.493 662.068c-.288 1.312-.688 1.567-1.941 1.276s-2.631-.693-3.673-1.468c-1.041-.773-1.253-1.472-.985-3.195.355-2.319 1.023-5.479 1.794-8.94-2.042.457-4.202.919-6.241 1.435-1.082 4.302-2.059 8.362-2.785 11.525-.289 1.312-.748 1.571-2.001 1.28-1.194-.294-2.698-.869-3.733-1.523-1.098-.712-1.312-1.469-1.046-3.193.362-2.2 1.021-5.538 1.836-9.295-.459-.921-.81-2.024-1.016-2.604-.412-1.159-.07-1.413.856-1.754l1.218-.414c1.551-6.744 3.316-13.913 4.587-17.988.512-1.56 1.209-1.771 2.469-1.362 1.318.406 3.189 1.256 4.29 2.027 1.224.883 1.368 1.406.966 2.783-.969 3.057-2.274 7.605-3.563 12.509 2.049-.339 4.038-.674 5.915-.887 1.471-5.973 3.054-12.069 4.312-16.381.45-1.615 1.212-1.713 2.527-1.364 1.256.35 2.824 1.038 4.049 1.921 1.101.771 1.311 1.409.907 2.786-2.487 8.087-6.206 22.197-8.742 32.826zM170.889 632.311c.623 7.998-2.338 20.926-8.821 27.637-2.181 2.238-4.58 2.891-7.476 2.613-1.891-.187-4.147-.833-5.707-1.854-1.199-.793-2.537-2.351-3.115-4.161-2.754-8.357 1.977-23.451 9.985-30.44 1.672-1.458 4.303-2.234 6.195-1.989 2.483.289 5.043 1.282 6.435 2.602 1.632 1.547 2.328 3.355 2.504 5.592zm-16.118 10.147c-1.918 5.531-2.84 13.041-.638 13.867 2.144.828 5.366-4.384 7.538-11.455 1.684-5.467 2.767-13.569.866-14.108-1.84-.542-5.85 6.105-7.766 11.696zM177.635 661.137c-.407 1.238-.818 1.476-2.057 1.188-1.12-.349-2.596-.932-3.542-1.634-1.004-.763-1.185-1.586-.839-3.236 1.095-5.426 4.173-15.749 6.786-24.243-.417-.823-1.011-1.939-1.368-2.939-.596-1.47-.481-2.178.753-2.89 5.759-3.266 16.88-6.143 20.434-1.799 1.422 1.762 2.728 3.994 3.154 7.35.428 3.297-1.27 5.897-3.438 8.263-3.518 3.963-10.629 7.823-16.806 9.677-1.104 3.538-2.208 7.018-3.077 10.263zm16.543-28.881c-.182-1.296-3.6-1.339-7.304.386-1.047 2.832-2.211 6.195-3.432 9.794 7.235-2.683 11.159-7.826 10.736-10.18zM203.459 652.219c3.435 3.11 6.778 4.157 8.27 2.882 1.727-1.392-4.35-5.185-7.424-8.821-2.145-2.562-3.152-6.465-1.15-10.739 1.701-3.807 5.413-8.176 8.979-10.367 1.366-.805 3.616-1.659 6.079-.741 1.875.731 3.978 2.114 5.08 3.427 1.624 1.849 1.42 3.85 1.222 5.438-.448 2.704-1.983 7.279-3.253 9.678-.604 1.111-1.197 1.339-2.25.853-2.988-1.336-4.318-3.181-3.756-5.53.5-2.114 2.328-6.568 1.625-6.931-1.227-.724-8.932 6.949-5.809 11.293 3.414 4.644 10.973 7.75 8.131 13.074-1.33 2.515-4.213 6.6-10.165 6.638-3.89.065-7.634-1.931-10.869-6.687-1.675-2.438-1.428-3.319-.301-3.894 1.839-.92 4.368-.65 5.591.427z"/></g><g fill="#0D838C"><path d="M-1278.92 169.002l-17.267-4.156-.199.736c-1.362 5.066-2.042 10.826-2.759 16.926-2.086 17.734-4.243 36.072-23.588 39.521-11.535 2.049-21.167-4.949-27.693-20.061 28.502-12.248 44.017-33.105 52.025-48.512 10.014-19.262 13.915-40.632 10.708-58.631-3.517-19.741-15.295-31.526-31.507-31.526-2.195 0-4.494.212-6.836.63-42.669 7.604-59.517 65.997-50.656 115.739 1.077 6.037 2.613 12.046 4.572 17.872-1.753.432-3.661.778-5.485 1.098-4.984.889-9.783 1.338-14.26 1.34-17.387 0-37.39-7.986-41.384-30.404-2.782-15.612 4.816-34.354 21.94-37.413 4.841-.863 9.017-.483 14.164 1.335l.781.275 4.287-14.821-.692-.249c-5.464-1.964-11.219-2.436-17.044-1.397-13.493 2.403-24.208 9.28-30.989 19.887-6.089 9.525-8.398 21.614-6.34 33.168 1.972 11.067 7.816 21.079 16.457 28.191 13.25 10.908 32.646 14.736 54.98 10.756 2.728-.486 5.299-1.108 7.786-1.717 11.085 21.815 25.438 26.418 35.567 26.418 2.077 0 4.221-.192 6.371-.577 11.457-2.043 19.982-7.107 25.386-15.073-.054 4.252-.074 8.35-.092 12.275-.151 31.523-.25 52.35-18.527 55.605-.896.159-1.78.24-2.625.24-6.902.002-10.257-5.092-11.033-9.452-.9-5.039 1.381-11.547 8.52-13.932l.734-.246-5.507-17.081-.685.138c-16.494 3.332-22.879 17.67-20.663 30.11 1.92 10.776 10.664 21.653 25.866 21.654h.003c1.997 0 4.082-.19 6.197-.57 30.277-5.389 34.85-33.87 35.327-61.02.295-17.233-.218-31.005-.526-39.232-.177-4.745-.293-7.879-.189-8.896l4.875-18.948zm-75.386 22.257c-1.049-3.485-1.996-7.624-2.885-12.617-7.079-39.72 1.796-98.469 32.333-103.915.706-.125 1.408-.19 2.092-.19 7.73 0 13.794 8.137 16.221 21.765 4.935 27.698-6.67 75.267-47.761 94.957zM-994.121 163.677l-.535-.544-13.43 12.614.516.569c5.51 6.117 8.004 14.373 6.834 22.651-1.518 10.761-9.699 22.344-24.088 22.345-1.271.001-2.586-.094-3.902-.278-5.898-.831-24.854-5.513-21.281-30.872 1.191-8.459 5.924-16.997 10.502-25.256 3.869-6.974 7.518-13.562 8.307-19.133 1.424-10.113-4.74-18.48-9.699-25.207l-.752-1.025c4.164-8.962 6.869-17.56 9.305-29.532l.123-.611-14.48-6.553-.328.697c-4.18 8.915-6.637 16.244-7.502 22.41-.777 5.517-.424 10.747 1.088 15.98-3.516 9.741-7.168 18.057-11.176 25.416l-.111.454c-.018.137-.018.27-.002.396h-.191l-.188.51c-7.299 19.559-16.41 29.898-26.371 29.898-3.697 0-6.504-1.822-8.346-5.418-1.67-3.264-2.553-8.049-2.547-13.84v-2.125c20.684-3.623 33.037-20.615 33.053-35.141.002-9.72-5.766-16.008-14.693-16.022-17.857 0-30.102 21.655-34.035 42.003l-.193.022-.141.511c-5.916 21.705-10.883 32.465-15.189 32.896l-.328.018c-1.734 0-2.791-1.756-3.135-5.222-.719-7.213 1.166-16.248 3.162-25.813 2.123-10.174 4.32-20.692 3.416-29.669-.877-8.857-5.529-13.469-12.863-12.737-6.98.696-13.578 5.706-18.848 14.221.238-2.189.451-4.306.598-6.431 9.699-14.701 23.457-41.96 21.924-57.349-.82-8.206-5.785-11.947-14.758-11.06-5.295.531-12.029 4.363-15.032 13.525-5.904 18.06-9.518 64.454-11.707 97.667-1.563 7.312-6.327 29.566-11.012 30.351l-.204.018c-.65 0-2.891-.756-4.511-10.475-1.115-6.655-1.794-16.228-2.081-29.155.832-6.896 1.497-14.092 2.031-21.969 3.917-.661 6.348-1.085 7.049-1.389l.458-.2.249-10.435-1.021.291c-.837.238-2.998.817-6.037 1.373.596-14.601.128-28.512-1.46-43.685l-.086-.827-14.434 2.412-.037.624c-1.118 19.143-1.453 31.905-1.714 44.245-2.092.337-3.945.585-5.358.773-.994.133-1.773.238-2.273.324l-.66.114.177 10.186.917.065c.922 0 3.31-.381 7.1-1.018-.531 10.08-.511 20.161.058 29.988l-.132.026-.086.539c-3.991 25.021-9.757 34.138-11.047 34.489-.181 0-.821-.567-1.367-3.101-.263-1.24-.563-2.646-.627-4.673-1.462-20.71-2.025-41.072-1.774-64.078l.01-.979-14.472 3.107.127 7.493c-3.168-5.766-7.688-7.964-13.716-6.669-8.187 1.75-14.557 11.478-17.939 27.392-2.958 13.92-3.076 30.605-.305 43.54 3.255 15.195 9.89 22.776 18.383 20.97 8.456-1.814 13.888-9.01 16.537-21.949 2.712 11.133 7.136 15.918 13.384 14.584 6.587-1.406 11.644-9.983 15.804-26.893 3.029 15.006 8.437 22.043 15.866 20.791 4.794-.797 8.328-3.389 11.216-8.299.128 1.159.285 2.333.532 3.492l.148.685 16.338-1.636.017-.689c1.104-45.791 7.374-73.69 16.765-74.63 1.922-.192 2.377 1.838 2.459 2.693.584 5.854-1.119 13.627-2.926 21.859-2.258 10.297-4.816 21.969-3.711 33.061.73 7.361 4.779 15.957 13.791 15.957.418 0 .836-.02 1.26-.062 10.869-1.087 16.928-12.447 20.963-23.208 2.738 14.135 10.664 21.873 22.572 21.882 19.045 0 28.594-20.854 37.473-44.085l.055-.279v-.064l.412.129-.434-.292-.006-.026 9.199-16.799c1.045 3.309 1.826 7.26 1.154 12.057-.541 3.834-3.428 8.695-6.771 14.324-4.676 7.88-9.98 16.811-11.389 26.783-3.494 24.84 15.842 41.236 35.814 44.054 2.365.333 4.725.502 7.01.502h.002c24.258 0 37.854-18.11 40.221-34.935 1.767-12.541-2.219-24.802-10.938-33.639zm-91.394-44.538h.006c.631 0 1.141.306 1.521.909.432.696.664 1.716.664 2.951-.008 6.481-5.688 18.314-18.266 25.113 2.389-14.269 9.211-28.973 16.075-28.973zm-66.557-58.996v.771c.49 0 .9.707 1.002 1.719.771 7.749-3.893 21.067-7.838 31.247 2.609-22.111 4.391-32.727 6.777-32.963l.059-.774zm-100.157 80.568c3.695 0 5.552 6.088 6.33 9.719 1.709 7.981 1.75 19.993.106 30.601-1.698 10.943-4.856 18.192-8.245 18.919-2.03.42-3.711-2.436-4.901-8.011-3.604-16.84-.74-49.713 5.897-51.138.278-.06.551-.09.813-.09zM-1116.082 212.273c23.031-1.221 44.912 20.276 52.635 32.812l-1.566.966c-5.422-5.155-19.725-16.902-44.076-15.613-42.395 2.245-84.259 22.85-118.294 24.652-23.764 1.258-37.241-11.562-37.241-11.562l.679-1.066s14.146 6.02 26.47 5.367c43.715-2.315 78.41-33.28 121.393-35.556z"/></g><g fill="#EFAD5F"><path d="M-1284.563 163.359l-17.267-4.156-.199.736c-1.362 5.066-2.042 10.827-2.759 16.926-2.086 17.734-4.243 36.072-23.587 39.521-11.536 2.049-21.167-4.949-27.693-20.061 28.502-12.248 44.017-33.105 52.025-48.512 10.013-19.261 13.915-40.631 10.708-58.631-3.517-19.741-15.296-31.526-31.507-31.526-2.195 0-4.494.212-6.835.63-42.669 7.604-59.517 65.997-50.657 115.74 1.077 6.036 2.613 12.045 4.572 17.871-1.753.432-3.661.778-5.484 1.098-4.984.889-9.784 1.338-14.26 1.34-17.388 0-37.39-7.986-41.385-30.403-2.781-15.612 4.816-34.355 21.941-37.414 4.84-.862 9.016-.483 14.164 1.335l.781.276 4.287-14.821-.691-.249c-5.464-1.964-11.219-2.436-17.045-1.398-13.493 2.403-24.208 9.28-30.989 19.887-6.088 9.526-8.398 21.615-6.339 33.168 1.972 11.067 7.815 21.079 16.457 28.191 13.25 10.908 32.646 14.736 54.98 10.756 2.728-.486 5.299-1.107 7.786-1.717 11.085 21.816 25.438 26.418 35.567 26.418 2.077 0 4.221-.192 6.372-.576 11.457-2.044 19.982-7.107 25.386-15.074-.054 4.252-.075 8.35-.093 12.275-.151 31.524-.25 52.35-18.527 55.605-.896.159-1.78.24-2.625.24-6.902.002-10.257-5.092-11.033-9.452-.9-5.038 1.381-11.547 8.52-13.932l.734-.245-5.507-17.082-.685.139c-16.494 3.332-22.878 17.669-20.663 30.109 1.92 10.777 10.664 21.653 25.867 21.654h.002c1.997 0 4.083-.19 6.197-.57 30.277-5.389 34.85-33.87 35.328-61.02.294-17.233-.219-31.005-.526-39.232-.177-4.744-.293-7.879-.19-8.896l4.872-18.948zm-75.385 22.257c-1.048-3.485-1.996-7.624-2.885-12.616-7.079-39.721 1.796-98.469 32.333-103.916.706-.125 1.408-.19 2.092-.19 7.731 0 13.794 8.137 16.221 21.766 4.934 27.697-6.67 75.267-47.761 94.956zM-999.763 158.034l-.535-.544-13.428 12.614.514.569c5.512 6.117 8.004 14.373 6.834 22.651-1.518 10.761-9.699 22.344-24.088 22.345-1.271.001-2.586-.094-3.9-.278-5.9-.831-24.855-5.513-21.283-30.872 1.191-8.459 5.926-16.997 10.502-25.256 3.869-6.974 7.518-13.562 8.307-19.133 1.424-10.112-4.74-18.48-9.699-25.207l-.752-1.025c4.164-8.962 6.869-17.56 9.305-29.532l.123-.611-14.48-6.553-.328.697c-4.18 8.915-6.635 16.244-7.502 22.41-.777 5.517-.424 10.747 1.088 15.98-3.516 9.742-7.168 18.057-11.176 25.416l-.111.454c-.018.137-.018.27-.002.396h-.191l-.188.51c-7.299 19.559-16.41 29.898-26.371 29.898-3.697 0-6.504-1.822-8.346-5.418-1.668-3.264-2.553-8.049-2.547-13.84v-2.125c20.684-3.623 33.037-20.615 33.053-35.141.002-9.72-5.766-16.008-14.693-16.022-17.857 0-30.102 21.655-34.035 42.003l-.193.022-.139.511c-5.916 21.705-10.885 32.465-15.191 32.896l-.328.018c-1.732 0-2.791-1.756-3.135-5.222-.719-7.213 1.166-16.248 3.162-25.813 2.123-10.174 4.32-20.692 3.416-29.669-.877-8.857-5.529-13.468-12.863-12.737-6.979.696-13.578 5.706-18.848 14.221.238-2.189.451-4.306.598-6.431 9.699-14.701 23.457-41.96 21.924-57.349-.818-8.205-5.785-11.947-14.757-11.059-5.296.531-12.031 4.363-15.033 13.525-5.904 18.06-9.517 64.454-11.707 97.667-1.563 7.312-6.327 29.567-11.013 30.351l-.204.018c-.649 0-2.891-.756-4.51-10.475-1.116-6.655-1.794-16.227-2.081-29.154.832-6.897 1.497-14.093 2.031-21.97 3.917-.661 6.348-1.085 7.049-1.389l.458-.2.249-10.435-1.022.291c-.836.238-2.998.817-6.037 1.373.596-14.6.128-28.512-1.46-43.684l-.086-.828-14.434 2.413-.037.624c-1.118 19.144-1.453 31.905-1.713 44.245-2.092.337-3.945.585-5.358.773-.994.133-1.773.238-2.273.324l-.659.114.177 10.186.918.066c.921 0 3.309-.381 7.1-1.019-.532 10.08-.512 20.161.058 29.989l-.132.025-.086.539c-3.991 25.021-9.756 34.138-11.047 34.489-.181 0-.821-.566-1.367-3.101-.263-1.24-.563-2.646-.627-4.673-1.462-20.709-2.025-41.071-1.774-64.078l.01-.979-14.472 3.107.127 7.493c-3.168-5.766-7.688-7.964-13.716-6.669-8.187 1.75-14.557 11.478-17.939 27.392-2.958 13.92-3.076 30.605-.305 43.54 3.256 15.195 9.89 22.777 18.384 20.97 8.456-1.814 13.888-9.01 16.537-21.949 2.712 11.133 7.136 15.918 13.384 14.584 6.587-1.406 11.644-9.983 15.804-26.893 3.029 15.006 8.438 22.043 15.866 20.791 4.794-.797 8.328-3.389 11.216-8.299.128 1.159.285 2.333.532 3.492l.148.685 16.339-1.636.016-.689c1.104-45.79 7.374-73.69 16.765-74.63 1.922-.192 2.377 1.838 2.459 2.693.584 5.855-1.119 13.627-2.926 21.859-2.258 10.297-4.816 21.969-3.711 33.061.73 7.361 4.779 15.957 13.791 15.957.42 0 .838-.02 1.26-.062 10.869-1.087 16.928-12.447 20.963-23.208 2.738 14.135 10.666 21.873 22.572 21.883 19.045 0 28.594-20.855 37.473-44.086l.055-.279v-.064l.412.13-.434-.293-.006-.026 9.199-16.799c1.045 3.31 1.826 7.26 1.154 12.057-.539 3.834-3.428 8.695-6.771 14.324-4.676 7.88-9.98 16.811-11.389 26.783-3.494 24.84 15.844 41.236 35.814 44.054 2.365.333 4.725.502 7.01.502h.002c24.258 0 37.854-18.11 40.221-34.935 1.764-12.542-2.223-24.804-10.941-33.641zm-91.395-44.538h.006c.631 0 1.141.306 1.521.91.432.696.664 1.716.664 2.95-.006 6.482-5.688 18.314-18.266 25.113 2.389-14.269 9.212-28.973 16.075-28.973zm-66.556-58.996v.772c.489 0 .899.706 1.001 1.719.771 7.749-3.893 21.067-7.838 31.247 2.609-22.111 4.392-32.727 6.778-32.963l.059-.775zm-100.158 80.568c3.695 0 5.552 6.089 6.33 9.719 1.708 7.981 1.75 19.994.105 30.601-1.698 10.944-4.855 18.192-8.244 18.919-2.03.42-3.711-2.436-4.902-8.011-3.604-16.84-.74-49.713 5.897-51.138.279-.059.552-.09.814-.09z"/></g><path fill="#DCE3B2" d="M-1121.724 206.631c23.031-1.221 44.912 20.276 52.637 32.812l-1.568.965c-5.422-5.155-19.725-16.902-44.076-15.613-42.395 2.246-84.258 22.85-118.294 24.652-23.764 1.258-37.241-11.562-37.241-11.562l.679-1.066s14.146 6.02 26.47 5.367c43.715-2.315 78.409-33.28 121.393-35.555z"/><g fill="#DCE3B2"><path d="M-1119.377 85.427c.668-.087 1.043.17 1.377.721.295.458.646 1.201.789 1.735.211.626.033.802-.6.918-2.062.365-5.654 1.242-7.373 1.834-1.191.389-1.561.194-1.914-.194-.42-.415-1.199-1.283-1.604-1.893-.299-.49-.646-1.201.102-1.874 4.744-4.446 10.723-12.597 9.795-13.324-.586-.465-1.98.937-3.428 2.504-.918.944-2.52 1.013-3.643.656-.596-.208-.896-.729-.057-2.215 1.316-2.359 3.35-4.2 5.328-4.784 2.385-.713 4.439.789 5.189 2.078 1.127 1.964.539 3.781-.598 5.966-1.361 2.589-4.096 6.065-6.691 8.499 1.135-.317 2.469-.523 3.328-.627zM-1100.453 72.277c.617 4.323-.6 11.371-3.887 15.148-1.115 1.282-2.367 1.708-3.945 1.68-1.031-.043-2.244-.329-3.125-.867-.643-.365-1.416-1.168-1.783-2.103-1.652-4.397.316-12.826 4.432-16.705.896-.814 2.242-1.281 3.246-1.203 1.357.081 2.805.476 3.568 1.151.934.791 1.332 1.723 1.494 2.899zm-8.441 6.008c-.92 3.228-.99 7.029.199 7.412 1.154.354 2.746-2.542 3.652-6.35.721-2.954 1.064-7.324.08-7.564-1.019-.268-3.011 3.241-3.931 6.502zM-1094.642 87.327c-.135.719-.348.865-1.033.729-.688-.136-1.379-.336-1.988-.704-.574-.338-.742-.806-.596-1.75.359-2.636 1.551-8.812 2.549-13.044-.977-.529-1.248-.701-.809-1.605.465-1.002 1.201-2.19 1.715-2.973.486-.715.768-.835 1.488-.669.689.167 1.453.458 2.137.947.65.461.768.709.543 1.5-1.161 4.212-3.141 12.899-4.006 17.569zM-1079.142 77.356c2.15 1.88 1.885 4.506.609 6.575-1.504 2.408-3.557 3.254-5.822 3.475-1.787.149-3.762-.396-5.654-2.264-1.119-1.097-.906-1.629-.393-2.025.84-.713 2.137-.596 2.91-.177 2.258 1.228 3.705.849 4.9-.633 1.105-1.41 1.014-2.913.525-3.355-.518-.44-1.127-.42-2.074-.214-1.199.294-2.484-.469-3.213-1.888-.307-.584-.25-1.071.338-1.346 5.145-2.324 7.109-4.61 6.562-5.401-.404-.609-1.805.343-2.771 1.099-1.145.931-2.832.75-3.799-.038-.484-.41-.459-.894-.115-1.405.887-1.328 2.688-2.86 4.504-3.462 1.314-.431 3.191-.684 4.846 1.431 1.836 2.355 1.184 4.95-.049 6.372-.793.902-1.854 1.698-3.115 2.381.654.135 1.287.404 1.811.875z"/></g><g fill="#86201A"><path d="M-179.516 546.094l-34.526-8.311-.397 1.471c-2.724 10.131-4.083 21.648-5.517 33.844-4.172 35.461-8.482 72.129-47.165 79.025-23.064 4.098-42.323-9.896-55.374-40.111 56.992-24.49 88.014-66.195 104.027-97.002 20.022-38.514 27.824-81.246 21.411-117.236-7.031-39.473-30.584-63.037-63-63.037-4.388 0-8.985.424-13.668 1.26-85.318 15.203-119.007 131.963-101.29 231.426 2.152 12.072 5.225 24.086 9.142 35.734-3.505.865-7.32 1.559-10.967 2.197-9.968 1.775-19.562 2.676-28.515 2.68-34.767 0-74.763-15.971-82.75-60.797-5.562-31.217 9.63-68.693 43.87-74.809 9.681-1.725 18.029-.965 28.322 2.668l1.562.553 8.572-29.637-1.384-.496c-10.925-3.928-22.433-4.871-34.081-2.795-26.979 4.805-48.405 18.557-61.965 39.764-12.175 19.047-16.792 43.221-12.677 66.322 3.943 22.131 15.628 42.148 32.907 56.371 26.494 21.811 65.277 29.465 109.937 21.506 5.454-.971 10.596-2.217 15.566-3.432 22.166 43.621 50.866 52.824 71.12 52.824 4.153 0 8.439-.387 12.739-1.156 22.908-4.084 39.956-14.211 50.761-30.139-.108 8.502-.148 16.697-.185 24.547-.302 63.031-.501 104.676-37.047 111.184-1.79.32-3.56.482-5.249.482-13.8.004-20.51-10.182-22.061-18.902-1.801-10.074 2.763-23.088 17.036-27.855l1.467-.492-11.011-34.154-1.369.275c-32.98 6.662-45.748 35.332-41.317 60.207 3.84 21.549 21.323 43.297 51.721 43.299h.006c3.992 0 8.162-.381 12.391-1.141 60.542-10.775 69.685-67.725 70.639-122.012.59-34.459-.437-61.994-1.052-78.447-.354-9.488-.587-15.754-.38-17.789l9.751-37.889zm-150.739 44.502c-2.097-6.969-3.99-15.244-5.768-25.229-14.155-79.422 3.591-196.893 64.65-207.781 1.411-.25 2.816-.381 4.184-.381 15.458 0 27.583 16.27 32.436 43.521 9.868 55.383-13.337 150.501-95.502 189.87zM389.956 535.445l-1.07-1.088-26.855 25.221 1.031 1.141c11.016 12.23 16.004 28.74 13.664 45.291-3.035 21.518-19.391 44.68-48.164 44.682-2.543.002-5.172-.189-7.801-.559-11.797-1.66-49.695-11.023-42.555-61.73 2.383-16.912 11.844-33.986 21-50.5 7.738-13.943 15.031-27.117 16.609-38.256 2.848-20.221-9.477-36.953-19.395-50.402l-1.504-2.049c8.328-17.922 13.734-35.113 18.605-59.051l.246-1.223-28.953-13.104-.656 1.395c-8.359 17.826-13.27 32.482-15.004 44.811-1.551 11.031-.844 21.488 2.176 31.953-7.027 19.479-14.332 36.105-22.344 50.818l-.223.91c-.035.273-.035.537-.004.791h-.383l-.375 1.021c-14.594 39.107-32.812 59.781-52.73 59.781-7.395 0-13.008-3.643-16.688-10.834-3.34-6.525-5.105-16.094-5.094-27.672v-4.248c41.359-7.246 66.059-41.223 66.09-70.268.004-19.436-11.527-32.01-29.379-32.037-35.707 0-60.188 43.301-68.055 83.986l-.387.045-.281 1.021c-11.828 43.4-21.762 64.914-30.371 65.779-.215.021-.438.035-.656.035-3.469 0-5.582-3.512-6.27-10.441-1.438-14.422 2.332-32.49 6.324-51.615 4.246-20.342 8.637-41.375 6.828-59.324-1.754-17.711-11.055-26.932-25.719-25.469-13.957 1.391-27.152 11.408-37.688 28.434.477-4.377.902-8.609 1.195-12.859 19.395-29.395 46.902-83.902 43.836-114.672-1.641-16.408-11.566-23.889-29.508-22.115-10.586 1.062-24.051 8.727-30.059 27.045-11.805 36.111-19.027 128.879-23.41 195.291-3.12 14.62-12.644 59.12-22.015 60.688-.137.023-.273.035-.406.035-1.297 0-5.781-1.512-9.02-20.945-2.23-13.309-3.586-32.447-4.16-58.297 1.664-13.789 2.992-28.178 4.062-43.93 7.832-1.32 12.691-2.17 14.094-2.775l.918-.4.496-20.865-2.043.58c-1.676.477-5.992 1.633-12.07 2.746 1.191-29.195.254-57.012-2.922-87.35l-.172-1.654-28.859 4.822-.074 1.248c-2.234 38.277-2.907 63.795-3.429 88.469-4.182.676-7.889 1.172-10.713 1.547-1.986.266-3.546.475-4.545.646l-1.319.229.355 20.367 1.834.131c1.844 0 6.618-.762 14.196-2.035-1.062 20.154-1.021 40.312.115 59.963l-.264.053-.174 1.076c-7.979 50.033-19.508 68.26-22.088 68.963-.362 0-1.642-1.133-2.732-6.199-.527-2.479-1.127-5.289-1.254-9.344-2.924-41.408-4.05-82.125-3.548-128.127l.021-1.959-28.937 6.213.254 14.982c-6.334-11.529-15.373-15.926-27.427-13.336-16.369 3.498-29.106 22.951-35.87 54.771-5.915 27.834-6.15 61.197-.609 87.061 6.509 30.385 19.775 45.543 36.758 41.93 16.907-3.627 27.77-18.016 33.066-43.889 5.423 22.262 14.27 31.83 26.762 29.162 13.172-2.812 23.282-19.963 31.602-53.773 6.055 30.004 16.867 44.076 31.727 41.572 9.582-1.594 16.652-6.775 22.426-16.594.254 2.316.566 4.664 1.062 6.982l.297 1.369 32.668-3.271.035-1.377c2.207-91.561 14.746-147.348 33.523-149.227 3.844-.385 4.75 3.674 4.914 5.385 1.168 11.707-2.238 27.248-5.848 43.707-4.516 20.592-9.633 43.928-7.422 66.105 1.461 14.721 9.559 31.908 27.578 31.908.832 0 1.668-.039 2.52-.123 21.73-2.174 33.844-24.891 41.914-46.406 5.477 28.264 21.324 43.738 45.137 43.756 38.078 0 57.172-41.701 74.926-88.152l.109-.559v-.129l.824.26-.867-.584-.012-.055 18.395-33.59c2.09 6.617 3.652 14.518 2.309 24.107-1.082 7.668-6.855 17.389-13.539 28.643-9.352 15.756-19.957 33.613-22.773 53.555-6.988 49.67 31.676 82.455 71.613 88.088 4.73.664 9.445 1.004 14.016 1.004h.004c48.504 0 75.691-36.213 80.426-69.854 3.535-25.073-4.434-49.589-21.868-67.259zm-182.75-89.056h.012c1.262 0 2.281.611 3.043 1.818.863 1.391 1.328 3.432 1.328 5.898-.016 12.961-11.375 36.621-36.523 50.217 4.777-28.533 18.418-57.933 32.14-57.933zm-133.082-117.965v1.543c.98 0 1.801 1.412 2.004 3.438 1.543 15.494-7.785 42.125-15.672 62.48 5.215-44.213 8.777-65.439 13.551-65.912l.117-1.549zm-200.27 161.101c7.389 0 11.101 12.172 12.656 19.432 3.417 15.959 3.499 39.977.212 61.186-3.396 21.883-9.71 36.377-16.485 37.832-4.059.838-7.421-4.873-9.801-16.02-7.205-33.672-1.48-99.402 11.792-102.252.555-.119 1.101-.178 1.626-.178z"/></g><g fill="#EFAD5F"><path d="M-190.807 534.801l-34.527-8.311-.396 1.473c-2.724 10.131-4.082 21.65-5.517 33.844-4.171 35.461-8.482 72.129-47.164 79.025-23.066 4.098-42.324-9.896-55.375-40.111 56.992-24.49 88.014-66.195 104.028-97.002 20.021-38.514 27.822-81.244 21.411-117.236-7.032-39.473-30.585-63.037-63.001-63.037-4.388 0-8.985.422-13.668 1.26-85.319 15.203-119.007 131.963-101.291 231.426 2.153 12.072 5.225 24.086 9.143 35.734-3.505.865-7.321 1.559-10.968 2.197-9.966 1.775-19.562 2.676-28.513 2.68-34.769 0-74.764-15.971-82.752-60.793-5.561-31.221 9.631-68.697 43.872-74.812 9.68-1.725 18.028-.965 28.322 2.67l1.562.551 8.571-29.635-1.382-.498c-10.926-3.928-22.434-4.871-34.082-2.795-26.979 4.805-48.405 18.557-61.965 39.764-12.174 19.047-16.793 43.221-12.676 66.322 3.943 22.129 15.627 42.148 32.906 56.371 26.494 21.811 65.276 29.465 109.936 21.506 5.455-.971 10.596-2.215 15.567-3.432 22.165 43.623 50.866 52.822 71.119 52.822 4.154 0 8.44-.385 12.741-1.152 22.908-4.086 39.955-14.211 50.761-30.141-.108 8.502-.149 16.695-.187 24.547-.302 63.033-.5 104.676-37.046 111.184-1.79.318-3.559.48-5.249.48-13.801.004-20.51-10.18-22.061-18.9-1.8-10.074 2.761-23.088 17.035-27.855l1.469-.492-11.012-34.154-1.37.277c-32.979 6.662-45.746 35.33-41.317 60.205 3.841 21.551 21.323 43.297 51.723 43.299h.005c3.993 0 8.163-.381 12.391-1.141 60.541-10.775 69.684-67.725 70.64-122.012.588-34.459-.438-61.996-1.053-78.447-.354-9.486-.586-15.754-.38-17.787l9.75-37.894zm-156.506 19.277c-14.154-79.424 3.592-196.895 64.65-207.783 1.411-.25 2.815-.381 4.184-.381 15.459 0 27.582 16.271 32.435 43.521 9.867 55.383-13.336 150.5-95.501 189.869-2.096-6.968-3.991-15.243-5.768-25.226zM378.663 524.154l-1.07-1.088-26.848 25.221 1.027 1.141c11.02 12.23 16.004 28.738 13.664 45.291-3.035 21.518-19.395 44.678-48.164 44.68-2.543.002-5.172-.188-7.801-.557-11.797-1.66-49.699-11.023-42.555-61.73 2.379-16.912 11.848-33.984 21-50.5 7.734-13.943 15.031-27.119 16.605-38.258 2.848-20.219-9.477-36.951-19.391-50.4l-1.508-2.051c8.328-17.92 13.738-35.111 18.609-59.049l.246-1.223-28.957-13.104-.652 1.395c-8.359 17.824-13.27 32.48-15.004 44.811-1.555 11.029-.848 21.488 2.176 31.953-7.031 19.479-14.332 36.105-22.348 50.818l-.223.91c-.035.273-.035.537-.004.791h-.379l-.375 1.021c-14.598 39.107-32.816 59.781-52.734 59.781-7.391 0-13.004-3.643-16.688-10.834-3.336-6.525-5.102-16.094-5.09-27.674v-4.246c41.355-7.246 66.059-41.223 66.09-70.268.004-19.436-11.531-32.01-29.383-32.037-35.707 0-60.188 43.301-68.055 83.986l-.387.045-.277 1.021c-11.828 43.4-21.762 64.914-30.375 65.777-.215.023-.438.035-.656.035-3.465 0-5.578-3.512-6.266-10.439-1.441-14.424 2.328-32.49 6.32-51.615 4.246-20.344 8.641-41.375 6.832-59.324-1.754-17.711-11.059-26.932-25.723-25.469-13.953 1.391-27.148 11.408-37.688 28.434.477-4.377.902-8.609 1.195-12.859 19.395-29.395 46.906-83.902 43.84-114.672-1.637-16.406-11.57-23.889-29.508-22.113-10.59 1.061-24.059 8.723-30.059 27.043-11.799 36.112-19.022 128.88-23.404 195.292-3.125 14.619-12.652 59.121-22.02 60.688-.137.023-.273.035-.406.035-1.301 0-5.781-1.512-9.02-20.945-2.234-13.307-3.586-32.445-4.164-58.297 1.668-13.789 2.996-28.178 4.066-43.93 7.832-1.32 12.691-2.168 14.09-2.777l.922-.4.496-20.863-2.047.58c-1.672.477-5.992 1.633-12.07 2.746 1.191-29.195.258-57.012-2.922-87.35l-.172-1.656-28.858 4.824-.074 1.248c-2.235 38.277-2.906 63.797-3.427 88.469-4.184.676-7.889 1.17-10.715 1.545-1.986.268-3.545.477-4.544.648l-1.318.229.354 20.367 1.835.131c1.843 0 6.617-.762 14.197-2.035-1.062 20.154-1.022 40.312.115 59.963l-.265.051-.173 1.078c-7.979 50.033-19.509 68.26-22.088 68.963-.362 0-1.642-1.131-2.734-6.199-.526-2.479-1.125-5.289-1.253-9.344-2.924-41.408-4.051-82.125-3.548-128.127l.021-1.959-28.937 6.213.254 14.982c-6.335-11.529-15.373-15.926-27.426-13.336-16.37 3.498-29.106 22.951-35.871 54.771-5.915 27.834-6.15 61.197-.609 87.061 6.51 30.385 19.774 45.545 36.759 41.93 16.907-3.627 27.77-18.016 33.065-43.889 5.424 22.262 14.27 31.828 26.762 29.162 13.172-2.812 23.283-19.963 31.603-53.773 6.055 30.004 16.868 44.076 31.724 41.572 9.586-1.594 16.652-6.777 22.43-16.594.254 2.316.566 4.664 1.062 6.982l.297 1.369 32.668-3.271.031-1.377c2.211-91.561 14.746-147.348 33.523-149.227 3.844-.385 4.754 3.676 4.918 5.385 1.168 11.707-2.238 27.248-5.852 43.707-4.516 20.592-9.633 43.928-7.422 66.105 1.461 14.719 9.559 31.908 27.578 31.908.84 0 1.676-.039 2.52-.123 21.73-2.172 33.848-24.891 41.914-46.404 5.477 28.262 21.328 43.734 45.137 43.754 38.082 0 57.172-41.701 74.926-88.152l.109-.559v-.129l.824.262-.867-.586-.012-.055 18.395-33.59c2.09 6.617 3.652 14.518 2.309 24.107-1.074 7.668-6.852 17.389-13.539 28.643-9.348 15.758-19.957 33.613-22.77 53.555-6.988 49.67 31.68 82.455 71.613 88.088 4.727.664 9.445 1.002 14.016 1.002h.004c48.504 0 75.688-36.213 80.422-69.852 3.539-25.074-4.434-49.59-21.868-67.26zm-182.746-89.056h.012c1.262 0 2.281.611 3.039 1.818.863 1.393 1.328 3.432 1.328 5.898-.012 12.961-11.371 36.621-36.523 50.217 4.777-28.533 18.418-57.933 32.144-57.933zm-133.199-116.416l.117-1.549v1.543c.977 0 1.797 1.412 2 3.438 1.543 15.494-7.781 42.125-15.672 62.48 5.219-44.213 8.782-65.44 13.555-65.912zm-187.287 240.17c-3.396 21.885-9.709 36.377-16.485 37.832-4.058.838-7.42-4.873-9.801-16.02-7.205-33.672-1.479-99.404 11.792-102.252.555-.119 1.102-.178 1.626-.178 7.389 0 11.102 12.172 12.657 19.432 3.416 15.959 3.499 39.979.211 61.186z"/></g><g fill="#DCE3B2"><path d="M-13.202 639.523c.486-1.199 1.095-1.521 2.36-1.402 1.267.119 2.024.429 3.264.791 1.308.41 1.39.993 1.378 2.602.029 1.899-.265 9.973-.472 16.961 2.819-9.141 6.695-20.93 8.138-24.642.653-1.698 1.187-1.713 2.552-1.311 1.124.378 2.147.889 3.203 1.632 1.14.911 1.104 2.344.649 3.775-2.784 8.125-8.003 24.324-10.38 32.81-.445 1.49-1.222 1.896-2.912 1.718-1.866-.155-2.548-.355-4.097-.793-1.432-.453-2.071-1.612-2.201-2.962-.369-2.626-.94-7.959-1.114-12.157-2.221 5.784-4.886 13.059-6.161 16.688-.562 1.508-1.253 1.663-2.453 1.595-1.565-.137-3.098-.458-4.404-.868-1.241-.361-1.589-1.146-1.719-2.911-.632-7.884-.521-23.188.041-32.309.079-1.558.604-2.047 1.93-1.937 1.624.129 2.906.364 4.121.968 1.349.702 1.436 2.594 1.341 4.035-.106 2.632-.703 11.937-1.011 19.06 2.659-7.751 6.532-18.288 7.947-21.343zM32.238 637.074c1.435 7.895-.192 21.056-5.957 28.395-1.942 2.449-4.262 3.343-7.171 3.361-1.899.008-4.211-.406-5.866-1.261-1.274-.668-2.764-2.08-3.523-3.823-3.592-8.032-.424-23.531 6.83-31.299 1.514-1.621 4.053-2.662 5.96-2.611 2.5.033 5.148.761 6.666 1.932 1.78 1.374 2.657 3.101 3.061 5.306zm-15 11.741c-1.343 5.697-1.495 13.262.78 13.859 2.217.604 4.891-4.909 6.331-12.165 1.116-5.609 1.368-13.781-.577-14.124-1.887-.35-5.198 6.673-6.534 12.43zM41.573 664.749c-.212 1.27-.595 1.551-1.857 1.396-1.269-.211-2.428-.495-3.313-.987-1.141-.642-1.351-1.447-1.244-3.119.5-5.512 2.439-16.109 4.176-24.846-.568-.824-1.28-1.87-1.737-2.767-.693-1.404-.715-2.112.435-2.955 5.371-3.87 16.116-7.938 20.121-4.004 1.604 1.596 3.145 3.675 3.934 6.964.782 3.232-.435 6.098-2.465 8.582-2.082 2.549-5.16 5.211-8.752 7.516 2.231 2.949 5.819 6.87 8.344 9.252 1.056.947.83 1.565.09 2.361-.902.932-1.415 1.109-2.377 1.516-1.072.477-2.471.695-4.225-.646-2.45-1.739-6.292-5.81-8.956-9.42-.812 3.828-1.565 7.648-2.174 11.157zm3.987-19.189c6.608-3.419 10.512-9.259 9.83-11.078-.445-1.313-3.815-1.228-7.355 1.013-.8 2.877-1.592 6.347-2.475 10.065zM84.251 657.456c.686 1.001.511 1.669-.484 2.412-.665.478-1.746.932-2.546 1.244-1.316.478-2.788.557-4.132-1.151-1.145-1.491-3.934-5.372-5.933-9.03-.8 4.098-1.568 7.897-2.121 10.849-.23 1.324-.62 1.597-1.885 1.359-1.265-.236-2.786-.685-3.854-1.354-1.069-.669-1.316-1.415-1.124-3.149.782-6.818 4.194-25.361 6.153-32.882.396-1.457 1.137-1.763 2.407-1.468 1.328.29 3.24 1.117 4.373 1.839 1.261.829 1.48 1.281 1.078 2.68-.75 2.732-1.63 6.602-2.589 10.894 4.278-5.489 9.812-12.752 12.202-16.29.781-1.138 1.427-1.198 2.395-.343.903.803 1.786 2.022 2.259 3.281.392 1.028.32 2.159-.476 3.771-2.143 4.284-7.628 11.424-12.041 16.747 2.013 3.776 4.744 8.313 6.318 10.591zM93.368 650.887c3.689 2.804 7.111 3.56 8.487 2.16 1.601-1.534-4.779-4.793-8.154-8.15-2.357-2.369-3.697-6.17-2.07-10.601 1.368-3.939 4.691-8.612 8.055-11.102 1.292-.921 3.461-1.964 5.992-1.263 1.933.57 4.146 1.767 5.356 2.979 1.778 1.702 1.747 3.713 1.686 5.312-.215 2.732-1.351 7.423-2.409 9.922-.507 1.16-1.077 1.437-2.17 1.045-3.091-1.075-4.574-2.799-4.217-5.188.317-2.15 1.756-6.744 1.024-7.047-1.285-.615-8.302 7.693-4.817 11.752 3.8 4.332 11.599 6.778 9.226 12.326-1.109 2.621-3.632 6.939-9.558 7.487-3.87.4-7.771-1.266-11.404-5.728-1.879-2.286-1.708-3.185-.635-3.854 1.754-1.069 4.298-1.017 5.608-.05zM132.613 657.188c-.288 1.312-.688 1.567-1.941 1.276s-2.631-.693-3.673-1.468c-1.041-.773-1.253-1.472-.985-3.195.355-2.319 1.023-5.479 1.794-8.94-2.042.457-4.202.919-6.241 1.435-1.082 4.302-2.059 8.362-2.785 11.525-.289 1.312-.748 1.571-2.001 1.28-1.194-.294-2.698-.869-3.733-1.523-1.098-.712-1.312-1.469-1.046-3.193.362-2.2 1.021-5.538 1.836-9.295-.459-.921-.81-2.024-1.016-2.604-.412-1.159-.07-1.413.856-1.754l1.218-.414c1.551-6.744 3.316-13.913 4.587-17.988.512-1.56 1.209-1.771 2.469-1.362 1.318.406 3.189 1.256 4.29 2.027 1.224.883 1.368 1.406.966 2.783-.969 3.057-2.274 7.605-3.563 12.509 2.049-.339 4.038-.674 5.915-.887 1.471-5.973 3.054-12.069 4.312-16.381.45-1.615 1.212-1.713 2.527-1.364 1.256.35 2.824 1.038 4.049 1.921 1.101.771 1.311 1.409.907 2.786-2.488 8.087-6.206 22.198-8.742 32.826zM166.009 627.431c.623 7.998-2.338 20.926-8.821 27.637-2.181 2.238-4.58 2.891-7.476 2.613-1.891-.187-4.147-.833-5.707-1.854-1.199-.793-2.537-2.351-3.115-4.161-2.754-8.357 1.977-23.451 9.985-30.44 1.672-1.458 4.303-2.234 6.195-1.989 2.483.289 5.043 1.282 6.435 2.602 1.632 1.547 2.327 3.355 2.504 5.592zm-16.118 10.147c-1.918 5.531-2.84 13.041-.638 13.867 2.144.828 5.366-4.384 7.538-11.455 1.684-5.467 2.767-13.569.866-14.108-1.84-.542-5.85 6.105-7.766 11.696zM172.754 656.257c-.407 1.238-.818 1.476-2.057 1.188-1.12-.349-2.596-.932-3.542-1.634-1.004-.763-1.185-1.586-.839-3.236 1.095-5.426 4.173-15.749 6.786-24.243-.417-.823-1.011-1.939-1.368-2.939-.596-1.47-.481-2.178.753-2.89 5.759-3.266 16.88-6.143 20.434-1.799 1.422 1.762 2.728 3.994 3.154 7.35.428 3.297-1.27 5.897-3.438 8.263-3.518 3.963-10.629 7.823-16.806 9.677-1.103 3.538-2.208 7.018-3.077 10.263zm16.544-28.881c-.182-1.296-3.6-1.339-7.304.386-1.047 2.832-2.211 6.195-3.432 9.794 7.235-2.683 11.159-7.826 10.736-10.18zM198.578 647.339c3.435 3.11 6.778 4.157 8.27 2.882 1.727-1.392-4.35-5.185-7.424-8.821-2.145-2.562-3.152-6.465-1.15-10.739 1.701-3.807 5.413-8.176 8.979-10.367 1.366-.805 3.616-1.659 6.079-.741 1.875.731 3.978 2.114 5.08 3.427 1.624 1.849 1.42 3.85 1.222 5.438-.448 2.704-1.983 7.279-3.253 9.678-.604 1.111-1.197 1.339-2.25.853-2.988-1.336-4.318-3.181-3.756-5.53.5-2.114 2.328-6.568 1.625-6.931-1.227-.724-8.932 6.949-5.809 11.293 3.414 4.644 10.973 7.75 8.131 13.074-1.33 2.515-4.213 6.6-10.165 6.638-3.89.065-7.634-1.931-10.869-6.687-1.675-2.438-1.428-3.319-.301-3.894 1.839-.92 4.369-.65 5.591.427z"/></g></svg>