<svg version="1.2" baseProfile="tiny" xmlns="http://www.w3.org/2000/svg" width="943" height="512" viewBox="0 0 943 512"><g fill="#0D838C"><path d="M-1278.92 169.002l-17.268-4.156-.199.736c-1.361 5.066-2.042 10.826-2.759 16.926-2.086 17.734-4.243 36.072-23.588 39.521-11.535 2.049-21.167-4.949-27.693-20.061 28.502-12.248 44.018-33.105 52.025-48.512 10.014-19.262 13.915-40.632 10.708-58.631-3.517-19.741-15.295-31.526-31.507-31.526-2.195 0-4.494.212-6.836.63-42.669 7.604-59.518 65.997-50.656 115.739 1.077 6.037 2.613 12.046 4.572 17.872-1.753.432-3.661.778-5.485 1.098-4.983.889-9.783 1.338-14.26 1.34-17.387 0-37.39-7.986-41.384-30.404-2.782-15.612 4.815-34.354 21.939-37.413 4.841-.863 9.018-.483 14.164 1.335l.781.275 4.287-14.821-.692-.249c-5.464-1.964-11.219-2.436-17.044-1.397-13.493 2.403-24.208 9.28-30.989 19.887-6.089 9.525-8.397 21.614-6.34 33.168 1.973 11.067 7.816 21.079 16.457 28.191 13.25 10.908 32.646 14.736 54.98 10.756 2.728-.486 5.299-1.108 7.786-1.717 11.085 21.815 25.438 26.418 35.566 26.418 2.077 0 4.221-.192 6.371-.577 11.457-2.043 19.982-7.107 25.386-15.073-.054 4.252-.073 8.35-.092 12.275-.151 31.522-.25 52.351-18.527 55.604-.896.16-1.779.24-2.625.24-6.901.002-10.257-5.092-11.032-9.451-.9-5.039 1.381-11.547 8.52-13.933l.734-.246-5.507-17.081-.686.138c-16.494 3.332-22.879 17.67-20.663 30.11 1.92 10.776 10.664 21.653 25.866 21.654h.003c1.997 0 4.082-.189 6.197-.57 30.277-5.389 34.85-33.869 35.327-61.02.295-17.233-.218-31.005-.526-39.232-.177-4.745-.293-7.879-.188-8.896l4.877-18.947zm-75.386 22.257c-1.049-3.485-1.996-7.624-2.885-12.617-7.079-39.72 1.796-98.469 32.333-103.915.706-.125 1.408-.19 2.092-.19 7.73 0 13.794 8.137 16.222 21.765 4.934 27.698-6.671 75.267-47.762 94.957zM-994.121 163.677l-.535-.544-13.43 12.614.516.569c5.51 6.117 8.004 14.373 6.834 22.651-1.518 10.761-9.699 22.344-24.088 22.345-1.271.001-2.586-.094-3.902-.278-5.897-.831-24.854-5.513-21.28-30.872 1.19-8.459 5.924-16.997 10.502-25.256 3.868-6.974 7.518-13.562 8.307-19.133 1.424-10.113-4.74-18.48-9.699-25.207l-.752-1.025c4.164-8.962 6.869-17.56 9.306-29.532l.123-.611-14.48-6.553-.328.697c-4.18 8.915-6.637 16.244-7.502 22.41-.776 5.517-.424 10.747 1.088 15.98-3.516 9.741-7.168 18.057-11.176 25.416l-.111.454c-.018.137-.018.271-.002.396h-.19l-.188.51c-7.299 19.559-16.41 29.898-26.371 29.898-3.696 0-6.504-1.822-8.346-5.418-1.67-3.264-2.553-8.049-2.547-13.84v-2.125c20.684-3.623 33.037-20.615 33.053-35.141.002-9.72-5.766-16.008-14.692-16.022-17.857 0-30.103 21.655-34.035 42.003l-.193.022-.141.511c-5.916 21.705-10.883 32.465-15.189 32.896l-.328.018c-1.733 0-2.791-1.756-3.135-5.222-.719-7.213 1.166-16.248 3.162-25.813 2.123-10.174 4.32-20.692 3.416-29.669-.877-8.857-5.529-13.469-12.863-12.737-6.979.696-13.578 5.706-18.848 14.221.238-2.189.451-4.306.598-6.431 9.699-14.701 23.457-41.96 21.924-57.349-.819-8.206-5.784-11.947-14.758-11.06-5.295.531-12.029 4.363-15.032 13.525-5.903 18.06-9.518 64.454-11.707 97.667-1.562 7.312-6.326 29.566-11.012 30.351l-.204.018c-.649 0-2.891-.756-4.511-10.475-1.115-6.655-1.794-16.228-2.081-29.155.832-6.896 1.497-14.092 2.031-21.969 3.917-.661 6.348-1.085 7.049-1.389l.458-.2.249-10.435-1.021.291c-.837.238-2.998.817-6.036 1.373.596-14.601.128-28.512-1.46-43.685l-.087-.827-14.434 2.412-.037.624c-1.118 19.143-1.453 31.905-1.714 44.245-2.092.337-3.945.585-5.358.773-.993.133-1.772.238-2.272.324l-.66.114.177 10.186.917.065c.922 0 3.311-.381 7.101-1.018-.531 10.08-.512 20.161.058 29.988l-.132.026-.086.539c-3.991 25.021-9.757 34.138-11.047 34.489-.182 0-.821-.567-1.367-3.101-.263-1.24-.563-2.646-.627-4.673-1.462-20.71-2.025-41.072-1.774-64.078l.011-.979-14.473 3.107.127 7.493c-3.168-5.766-7.688-7.964-13.716-6.669-8.187 1.75-14.557 11.478-17.938 27.392-2.958 13.92-3.076 30.605-.306 43.54 3.255 15.195 9.891 22.776 18.383 20.97 8.456-1.814 13.889-9.01 16.537-21.949 2.712 11.133 7.137 15.918 13.385 14.584 6.587-1.406 11.644-9.983 15.804-26.893 3.029 15.006 8.437 22.043 15.866 20.791 4.794-.797 8.327-3.389 11.216-8.299.128 1.159.285 2.333.531 3.492l.148.685 16.338-1.636.017-.689c1.104-45.791 7.374-73.69 16.766-74.63 1.922-.192 2.377 1.838 2.459 2.693.584 5.854-1.119 13.627-2.926 21.859-2.259 10.297-4.816 21.969-3.712 33.061.73 7.361 4.779 15.957 13.791 15.957.418 0 .837-.02 1.261-.062 10.869-1.087 16.928-12.447 20.963-23.208 2.738 14.135 10.664 21.873 22.572 21.882 19.045 0 28.594-20.854 37.473-44.085l.055-.279v-.064l.412.129-.434-.292-.006-.026 9.198-16.799c1.046 3.309 1.826 7.26 1.154 12.057-.541 3.834-3.428 8.695-6.771 14.324-4.677 7.88-9.98 16.811-11.39 26.783-3.494 24.84 15.843 41.236 35.814 44.054 2.365.333 4.725.502 7.01.502h.002c24.258 0 37.854-18.11 40.221-34.935 1.762-12.541-2.224-24.802-10.943-33.639zm-91.394-44.538h.006c.632 0 1.142.306 1.521.909.432.696.664 1.716.664 2.951-.008 6.481-5.688 18.314-18.267 25.113 2.39-14.269 9.212-28.973 16.076-28.973zm-66.557-58.996v.771c.49 0 .9.707 1.002 1.719.771 7.749-3.893 21.067-7.838 31.247 2.608-22.111 4.391-32.727 6.776-32.963l.06-.774zm-100.157 80.568c3.695 0 5.552 6.088 6.33 9.719 1.709 7.981 1.75 19.993.106 30.601-1.698 10.943-4.856 18.192-8.245 18.919-2.03.42-3.711-2.436-4.901-8.011-3.604-16.84-.74-49.713 5.897-51.138.278-.06.551-.09.813-.09zM-1116.082 212.273c23.03-1.221 44.912 20.276 52.635 32.812l-1.566.966c-5.422-5.155-19.725-16.902-44.076-15.613-42.395 2.245-84.259 22.85-118.294 24.652-23.764 1.258-37.24-11.562-37.24-11.562l.679-1.066s14.146 6.02 26.47 5.367c43.714-2.315 78.409-33.28 121.392-35.556z"/></g><g fill="#EFAD5F"><path d="M-1284.563 163.359l-17.267-4.156-.199.736c-1.362 5.066-2.042 10.827-2.759 16.926-2.086 17.734-4.243 36.072-23.587 39.521-11.536 2.049-21.167-4.949-27.693-20.061 28.502-12.248 44.017-33.105 52.025-48.512 10.013-19.261 13.915-40.631 10.708-58.631-3.518-19.741-15.296-31.526-31.507-31.526-2.195 0-4.494.212-6.835.63-42.669 7.604-59.518 65.997-50.657 115.74 1.077 6.036 2.613 12.045 4.572 17.871-1.754.432-3.661.778-5.484 1.098-4.984.889-9.784 1.338-14.26 1.34-17.389 0-37.391-7.986-41.386-30.403-2.78-15.612 4.816-34.355 21.941-37.414 4.84-.862 9.016-.483 14.164 1.335l.781.276 4.287-14.821-.691-.249c-5.464-1.964-11.219-2.436-17.045-1.398-13.493 2.403-24.208 9.28-30.989 19.887-6.088 9.526-8.397 21.615-6.339 33.168 1.972 11.067 7.814 21.079 16.457 28.191 13.25 10.908 32.646 14.736 54.979 10.756 2.729-.486 5.3-1.107 7.786-1.717 11.085 21.816 25.438 26.418 35.567 26.418 2.077 0 4.221-.192 6.372-.576 11.457-2.044 19.981-7.107 25.386-15.074-.054 4.252-.075 8.35-.093 12.275-.151 31.524-.25 52.35-18.527 55.605-.896.159-1.78.24-2.625.24-6.901.002-10.257-5.092-11.033-9.452-.899-5.038 1.382-11.547 8.521-13.932l.734-.245-5.508-17.082-.685.139c-16.494 3.332-22.878 17.669-20.663 30.109 1.92 10.777 10.664 21.652 25.867 21.654h.002c1.997 0 4.083-.19 6.197-.57 30.276-5.389 34.85-33.87 35.327-61.02.294-17.233-.219-31.005-.525-39.232-.177-4.744-.293-7.879-.19-8.896l4.874-18.948zm-75.385 22.257c-1.048-3.485-1.996-7.624-2.885-12.616-7.079-39.721 1.796-98.469 32.333-103.916.706-.125 1.407-.19 2.092-.19 7.73 0 13.794 8.137 16.221 21.766 4.934 27.697-6.67 75.267-47.761 94.956zM-999.763 158.034l-.534-.544-13.429 12.614.515.569c5.512 6.117 8.004 14.373 6.834 22.651-1.519 10.761-9.699 22.344-24.088 22.345-1.271.001-2.587-.094-3.9-.278-5.9-.831-24.855-5.513-21.283-30.872 1.191-8.459 5.926-16.997 10.502-25.256 3.869-6.974 7.519-13.562 8.308-19.133 1.424-10.112-4.74-18.48-9.699-25.207l-.752-1.025c4.164-8.962 6.869-17.56 9.305-29.532l.123-.611-14.479-6.553-.328.697c-4.181 8.915-6.635 16.244-7.502 22.41-.777 5.517-.424 10.747 1.088 15.98-3.516 9.742-7.168 18.057-11.176 25.416l-.111.454c-.018.137-.018.27-.002.396h-.191l-.188.51c-7.299 19.559-16.41 29.898-26.371 29.898-3.697 0-6.504-1.822-8.346-5.418-1.668-3.264-2.553-8.049-2.547-13.84v-2.125c20.684-3.623 33.037-20.615 33.053-35.141.002-9.72-5.766-16.008-14.693-16.022-17.856 0-30.102 21.655-34.035 42.003l-.192.022-.14.511c-5.916 21.705-10.885 32.465-15.19 32.896l-.328.018c-1.732 0-2.791-1.756-3.135-5.222-.72-7.213 1.166-16.248 3.162-25.813 2.123-10.174 4.319-20.692 3.416-29.669-.877-8.857-5.529-13.468-12.863-12.737-6.979.696-13.578 5.706-18.849 14.221.238-2.189.451-4.306.599-6.431 9.699-14.701 23.457-41.96 21.924-57.349-.818-8.205-5.785-11.947-14.757-11.059-5.296.531-12.031 4.363-15.033 13.525-5.904 18.06-9.517 64.454-11.707 97.667-1.562 7.312-6.327 29.567-11.013 30.351l-.204.018c-.649 0-2.891-.756-4.51-10.475-1.116-6.655-1.794-16.227-2.081-29.154.832-6.897 1.497-14.093 2.03-21.97 3.917-.661 6.349-1.085 7.05-1.389l.458-.2.249-10.435-1.022.291c-.836.238-2.998.817-6.037 1.373.596-14.6.128-28.512-1.46-43.684l-.086-.828-14.434 2.413-.037.624c-1.118 19.144-1.453 31.905-1.713 44.245-2.093.337-3.945.585-5.358.773-.994.133-1.772.238-2.272.324l-.659.114.177 10.186.918.066c.921 0 3.309-.381 7.1-1.019-.531 10.08-.512 20.161.059 29.989l-.132.025-.087.539c-3.99 25.021-9.756 34.138-11.047 34.489-.181 0-.82-.566-1.366-3.101-.264-1.24-.563-2.646-.627-4.673-1.463-20.709-2.025-41.071-1.774-64.078l.01-.979-14.472 3.107.127 7.493c-3.168-5.766-7.688-7.964-13.716-6.669-8.188 1.75-14.558 11.478-17.939 27.392-2.958 13.92-3.076 30.605-.305 43.54 3.256 15.195 9.89 22.777 18.384 20.97 8.456-1.814 13.888-9.01 16.537-21.949 2.712 11.133 7.136 15.918 13.384 14.584 6.587-1.406 11.645-9.983 15.804-26.893 3.029 15.006 8.438 22.043 15.866 20.791 4.794-.797 8.328-3.389 11.216-8.299.128 1.159.285 2.333.532 3.492l.148.685 16.339-1.636.016-.689c1.104-45.79 7.374-73.69 16.765-74.63 1.923-.192 2.377 1.838 2.459 2.693.584 5.855-1.118 13.627-2.926 21.859-2.258 10.297-4.815 21.969-3.711 33.061.73 7.361 4.779 15.957 13.791 15.957.42 0 .838-.02 1.26-.062 10.869-1.087 16.929-12.447 20.963-23.208 2.738 14.135 10.666 21.873 22.572 21.883 19.045 0 28.594-20.855 37.474-44.086l.055-.279v-.064l.412.13-.435-.293-.006-.026 9.199-16.799c1.045 3.31 1.826 7.26 1.154 12.057-.539 3.834-3.428 8.695-6.771 14.324-4.676 7.88-9.979 16.811-11.389 26.783-3.494 24.84 15.844 41.236 35.813 44.054 2.365.333 4.726.502 7.011.502h.002c24.258 0 37.854-18.11 40.221-34.935 1.758-12.542-2.229-24.804-10.947-33.641zm-91.395-44.538h.006c.631 0 1.141.306 1.521.91.432.696.663 1.716.663 2.95-.006 6.482-5.688 18.314-18.266 25.113 2.39-14.269 9.213-28.973 16.076-28.973zm-66.556-58.996v.772c.488 0 .898.706 1.001 1.719.771 7.749-3.894 21.067-7.839 31.247 2.609-22.111 4.393-32.727 6.778-32.963l.06-.775zm-100.158 80.568c3.694 0 5.552 6.089 6.33 9.719 1.708 7.981 1.75 19.994.104 30.601-1.698 10.944-4.854 18.192-8.244 18.919-2.029.42-3.711-2.436-4.901-8.011-3.604-16.84-.74-49.713 5.896-51.138.28-.059.552-.09.815-.09z"/></g><path fill="#DCE3B2" d="M-1121.724 206.631c23.031-1.221 44.912 20.276 52.638 32.812l-1.568.965c-5.422-5.155-19.725-16.902-44.076-15.613-42.395 2.246-84.258 22.85-118.294 24.652-23.764 1.258-37.241-11.562-37.241-11.562l.68-1.066s14.146 6.02 26.47 5.367c43.713-2.315 78.407-33.28 121.391-35.555z"/><g fill="#DCE3B2"><path d="M-1119.377 85.427c.668-.087 1.043.17 1.377.721.295.458.646 1.201.789 1.735.211.626.032.802-.601.918-2.062.365-5.654 1.242-7.373 1.834-1.19.389-1.561.194-1.914-.194-.42-.415-1.198-1.283-1.604-1.893-.299-.49-.646-1.201.102-1.874 4.744-4.446 10.724-12.597 9.795-13.324-.586-.465-1.979.937-3.428 2.504-.918.944-2.52 1.013-3.643.656-.596-.208-.896-.729-.058-2.215 1.316-2.359 3.351-4.2 5.328-4.784 2.386-.713 4.439.789 5.189 2.078 1.127 1.964.539 3.781-.599 5.966-1.36 2.589-4.096 6.065-6.69 8.499 1.137-.317 2.471-.523 3.33-.627zM-1100.453 72.277c.617 4.323-.601 11.371-3.887 15.148-1.115 1.282-2.367 1.708-3.945 1.68-1.031-.043-2.244-.329-3.125-.867-.643-.365-1.416-1.168-1.783-2.104-1.651-4.396.316-12.826 4.433-16.705.896-.814 2.241-1.281 3.245-1.203 1.357.081 2.806.476 3.568 1.151.934.792 1.332 1.724 1.494 2.9zm-8.441 6.008c-.92 3.228-.99 7.029.199 7.412 1.154.354 2.746-2.542 3.652-6.35.721-2.954 1.063-7.324.079-7.564-1.018-.268-3.01 3.241-3.93 6.502zM-1094.642 87.327c-.135.719-.348.865-1.032.729-.688-.136-1.38-.336-1.988-.704-.574-.338-.742-.806-.596-1.75.358-2.636 1.551-8.812 2.549-13.044-.978-.529-1.248-.701-.81-1.605.465-1.002 1.201-2.19 1.715-2.973.486-.715.769-.835 1.488-.669.689.167 1.453.458 2.137.947.65.461.769.709.543 1.5-1.161 4.212-3.141 12.899-4.006 17.569zM-1079.142 77.356c2.15 1.88 1.886 4.506.609 6.575-1.504 2.408-3.557 3.254-5.822 3.475-1.787.149-3.762-.396-5.654-2.264-1.118-1.097-.905-1.629-.393-2.025.84-.713 2.137-.596 2.91-.177 2.258 1.228 3.705.849 4.9-.633 1.104-1.41 1.014-2.913.524-3.355-.518-.44-1.127-.42-2.074-.214-1.198.294-2.483-.469-3.213-1.888-.307-.584-.25-1.071.338-1.346 5.146-2.324 7.109-4.61 6.562-5.401-.404-.609-1.805.343-2.771 1.099-1.145.931-2.832.75-3.799-.038-.483-.41-.459-.894-.114-1.405.887-1.328 2.688-2.86 4.504-3.462 1.313-.431 3.19-.684 4.846 1.431 1.836 2.355 1.184 4.95-.049 6.372-.793.902-1.854 1.698-3.115 2.381.654.135 1.287.404 1.811.875z"/></g><g fill="#0B1421"><path d="M350.235 254.595l-34.526-8.311-.396 1.471c-2.725 10.131-4.083 21.648-5.518 33.844-4.172 35.461-8.481 72.129-47.165 79.025-23.063 4.098-42.322-9.896-55.374-40.111 56.992-24.489 88.015-66.194 104.027-97.002 20.022-38.514 27.824-81.246 21.411-117.236-7.031-39.473-30.584-63.037-63-63.037-4.388 0-8.985.425-13.668 1.261-85.318 15.203-119.007 131.963-101.29 231.426 2.152 12.072 5.225 24.086 9.142 35.734-3.505.865-7.319 1.559-10.967 2.197-9.968 1.774-19.562 2.676-28.515 2.68-34.768 0-74.764-15.971-82.75-60.797-5.562-31.217 9.63-68.693 43.87-74.81 9.681-1.725 18.028-.965 28.321 2.668l1.562.554 8.571-29.638-1.384-.496c-10.925-3.928-22.433-4.87-34.081-2.795-26.979 4.806-48.404 18.558-61.965 39.765-12.175 19.047-16.792 43.221-12.677 66.321 3.943 22.132 15.628 42.148 32.907 56.371 26.494 21.812 65.276 29.465 109.937 21.506 5.454-.971 10.596-2.217 15.566-3.432 22.166 43.621 50.866 52.824 71.12 52.824 4.152 0 8.438-.387 12.738-1.156 22.908-4.084 39.956-14.211 50.762-30.139-.108 8.502-.148 16.697-.186 24.547-.302 63.031-.501 104.676-37.047 111.184-1.79.32-3.56.482-5.249.482-13.8.004-20.51-10.182-22.061-18.902-1.802-10.074 2.763-23.088 17.036-27.854l1.467-.492-11.012-34.154-1.368.275c-32.98 6.662-45.748 35.332-41.317 60.207 3.84 21.549 21.323 43.297 51.721 43.299h.007c3.991 0 8.161-.381 12.391-1.141 60.542-10.775 69.685-67.726 70.639-122.013.59-34.459-.437-61.994-1.052-78.446-.354-9.488-.587-15.755-.38-17.789l9.753-37.89zm-150.74 44.502c-2.097-6.969-3.99-15.244-5.768-25.229-14.155-79.422 3.591-196.893 64.649-207.781 1.411-.25 2.816-.381 4.185-.381 15.458 0 27.583 16.27 32.436 43.521 9.868 55.383-13.337 150.501-95.502 189.87zM919.706 243.946l-1.07-1.088-26.854 25.221 1.031 1.141c11.016 12.23 16.004 28.74 13.663 45.291-3.034 21.519-19.391 44.681-48.163 44.683-2.544.002-5.173-.189-7.802-.56-11.797-1.66-49.694-11.022-42.555-61.729 2.383-16.912 11.844-33.986 21-50.5 7.738-13.943 15.031-27.117 16.609-38.256 2.848-20.222-9.478-36.953-19.396-50.402l-1.504-2.049c8.328-17.922 13.734-35.113 18.605-59.052l.245-1.223-28.952-13.104-.656 1.395c-8.359 17.826-13.27 32.482-15.004 44.811-1.551 11.031-.844 21.488 2.176 31.953-7.026 19.479-14.332 36.105-22.344 50.818l-.223.91c-.035.272-.035.537-.004.791h-.384l-.375 1.021c-14.594 39.107-32.812 59.781-52.73 59.781-7.396 0-13.008-3.643-16.688-10.834-3.34-6.524-5.104-16.094-5.094-27.672v-4.248c41.359-7.246 66.059-41.223 66.09-70.268.004-19.437-11.526-32.011-29.379-32.037-35.707 0-60.188 43.301-68.055 83.985l-.388.045-.28 1.021c-11.828 43.4-21.763 64.914-30.371 65.779-.215.021-.438.035-.656.035-3.469 0-5.582-3.513-6.27-10.441-1.438-14.422 2.332-32.49 6.323-51.615 4.246-20.342 8.638-41.375 6.828-59.324-1.754-17.711-11.055-26.932-25.719-25.469-13.957 1.392-27.152 11.408-37.688 28.435.478-4.378.902-8.609 1.195-12.859 19.396-29.396 46.902-83.901 43.836-114.672-1.641-16.408-11.565-23.89-29.508-22.115-10.586 1.062-24.051 8.728-30.059 27.045-11.801 36.112-19.023 128.88-23.405 195.292-3.125 14.619-12.649 59.119-22.021 60.688-.137.022-.272.034-.405.034-1.297 0-5.781-1.512-9.021-20.944-2.229-13.31-3.586-32.447-4.16-58.297 1.664-13.789 2.992-28.179 4.062-43.931 7.832-1.319 12.69-2.17 14.094-2.774l.918-.4.496-20.865-2.043.58c-1.676.478-5.992 1.633-12.07 2.746 1.191-29.195.254-57.012-2.922-87.35l-.172-1.654-28.859 4.822-.073 1.248c-2.234 38.277-2.907 63.795-3.429 88.469-4.182.676-7.889 1.172-10.713 1.547-1.985.266-3.546.476-4.545.646l-1.319.229.355 20.367 1.834.131c1.844 0 6.618-.762 14.196-2.035-1.062 20.154-1.021 40.312.115 59.963l-.265.054-.174 1.075c-7.979 50.033-19.508 68.261-22.088 68.964-.362 0-1.643-1.134-2.732-6.199-.526-2.479-1.127-5.289-1.254-9.344-2.924-41.408-4.05-82.125-3.548-128.128l.021-1.959-28.938 6.214.254 14.981c-6.334-11.529-15.373-15.926-27.427-13.336-16.369 3.498-29.106 22.951-35.87 54.771-5.915 27.834-6.15 61.196-.609 87.061 6.51 30.385 19.775 45.543 36.759 41.93 16.906-3.627 27.77-18.016 33.065-43.889 5.423 22.262 14.271 31.83 26.763 29.162 13.172-2.812 23.281-19.963 31.601-53.773 6.055 30.004 16.867 44.076 31.727 41.572 9.582-1.594 16.652-6.775 22.427-16.594.254 2.315.565 4.664 1.062 6.981l.297 1.369 32.668-3.271.035-1.377c2.207-91.562 14.746-147.349 33.523-149.228 3.844-.385 4.75 3.675 4.914 5.386 1.168 11.707-2.238 27.248-5.849 43.707-4.516 20.592-9.633 43.928-7.422 66.104 1.461 14.721 9.56 31.908 27.578 31.908.832 0 1.668-.039 2.52-.123 21.73-2.174 33.845-24.891 41.914-46.406 5.478 28.265 21.324 43.738 45.138 43.756 38.078 0 57.172-41.7 74.926-88.151l.109-.56v-.129l.823.26-.867-.584-.012-.055 18.396-33.59c2.09 6.617 3.651 14.518 2.309 24.106-1.082 7.668-6.854 17.39-13.539 28.644-9.352 15.756-19.957 33.613-22.772 53.555-6.989 49.67 31.676 82.455 71.612 88.088 4.73.664 9.445 1.004 14.016 1.004h.005c48.504 0 75.69-36.213 80.426-69.854 3.538-25.072-4.432-49.588-21.865-67.258zm-182.751-89.056h.012c1.263 0 2.281.611 3.044 1.818.862 1.391 1.327 3.432 1.327 5.898-.016 12.961-11.375 36.62-36.522 50.217 4.776-28.533 18.418-57.933 32.139-57.933zm-133.082-117.965v1.543c.98 0 1.801 1.412 2.004 3.438 1.543 15.494-7.785 42.125-15.672 62.48 5.215-44.213 8.777-65.439 13.551-65.912l.117-1.549zm-200.268 161.101c7.389 0 11.101 12.172 12.655 19.432 3.417 15.959 3.499 39.977.213 61.186-3.396 21.884-9.71 36.377-16.485 37.832-4.059.838-7.421-4.873-9.801-16.02-7.205-33.672-1.48-99.402 11.792-102.252.554-.119 1.1-.178 1.626-.178z"/></g><g fill="#EFAD5F"><path d="M338.944 243.302l-34.527-8.311-.396 1.473c-2.725 10.131-4.082 21.65-5.518 33.844-4.171 35.461-8.481 72.129-47.164 79.025-23.065 4.098-42.323-9.896-55.375-40.111 56.992-24.489 88.015-66.194 104.028-97.002 20.021-38.514 27.822-81.244 21.411-117.236-7.032-39.473-30.585-63.036-63.001-63.036-4.388 0-8.985.422-13.668 1.26-85.319 15.202-119.006 131.962-101.29 231.425 2.153 12.072 5.225 24.086 9.143 35.734-3.505.865-7.32 1.559-10.968 2.197-9.966 1.774-19.562 2.676-28.513 2.68-34.77 0-74.765-15.971-82.752-60.793-5.562-31.221 9.631-68.697 43.872-74.812 9.68-1.725 18.027-.965 28.321 2.67l1.562.552 8.571-29.636-1.383-.497c-10.926-3.929-22.434-4.871-34.082-2.796-26.979 4.806-48.404 18.558-61.965 39.765-12.173 19.046-16.792 43.22-12.675 66.322 3.943 22.129 15.627 42.147 32.906 56.37 26.494 21.812 65.275 29.466 109.936 21.507 5.455-.972 10.597-2.216 15.567-3.433 22.165 43.623 50.866 52.822 71.119 52.822 4.153 0 8.439-.385 12.741-1.152 22.907-4.086 39.954-14.211 50.761-30.141-.108 8.502-.149 16.695-.188 24.547-.302 63.033-.5 104.676-37.046 111.184-1.79.318-3.559.48-5.249.48-13.801.004-20.51-10.18-22.061-18.9-1.8-10.073 2.761-23.088 17.035-27.854l1.469-.492-11.012-34.154-1.37.277c-32.979 6.662-45.746 35.33-41.317 60.205 3.841 21.551 21.323 43.297 51.723 43.299h.006c3.992 0 8.162-.381 12.391-1.141 60.541-10.775 69.684-67.726 70.64-122.013.588-34.459-.438-61.995-1.053-78.446-.354-9.486-.586-15.754-.38-17.787l9.751-37.895zm-156.506 19.277c-14.154-79.424 3.592-196.895 64.649-207.783 1.411-.25 2.815-.381 4.185-.381 15.459 0 27.582 16.271 32.435 43.521 9.867 55.383-13.336 150.499-95.501 189.868-2.096-6.967-3.992-15.242-5.768-25.225zM908.413 232.655l-1.07-1.088-26.848 25.221 1.027 1.141c11.02 12.23 16.004 28.738 13.663 45.291-3.034 21.519-19.395 44.678-48.163 44.681-2.543.002-5.173-.188-7.802-.558-11.797-1.66-49.698-11.022-42.555-61.729 2.379-16.912 11.849-33.984 21-50.5 7.734-13.943 15.031-27.119 16.605-38.259 2.848-20.219-9.478-36.95-19.392-50.399l-1.508-2.051c8.328-17.921 13.738-35.111 18.609-59.05l.246-1.223-28.957-13.104-.652 1.395c-8.358 17.824-13.27 32.48-15.004 44.811-1.555 11.029-.848 21.488 2.176 31.953-7.03 19.479-14.332 36.105-22.348 50.818l-.223.91c-.035.273-.035.537-.005.791h-.379l-.375 1.021c-14.598 39.107-32.815 59.781-52.733 59.781-7.392 0-13.004-3.643-16.688-10.834-3.336-6.524-5.102-16.094-5.09-27.674v-4.246c41.355-7.246 66.06-41.223 66.09-70.268.004-19.437-11.53-32.011-29.383-32.038-35.707 0-60.188 43.302-68.055 83.986l-.388.045-.276 1.021c-11.828 43.4-21.762 64.914-30.375 65.777-.215.022-.438.034-.656.034-3.465 0-5.578-3.512-6.266-10.438-1.441-14.424 2.328-32.49 6.319-51.615 4.246-20.344 8.642-41.375 6.832-59.324-1.754-17.711-11.059-26.932-25.723-25.469-13.953 1.391-27.148 11.408-37.688 28.434.478-4.377.902-8.608 1.195-12.858 19.396-29.396 46.906-83.902 43.84-114.672-1.637-16.406-11.569-23.89-29.508-22.113-10.59 1.062-24.059 8.724-30.059 27.043-11.801 36.112-19.023 128.88-23.405 195.292-3.125 14.619-12.652 59.121-22.021 60.688-.137.022-.272.034-.405.034-1.302 0-5.781-1.512-9.021-20.944-2.233-13.308-3.586-32.445-4.164-58.297 1.668-13.789 2.996-28.179 4.066-43.931 7.832-1.319 12.69-2.168 14.09-2.776l.922-.4.496-20.863-2.047.58c-1.672.478-5.992 1.634-12.07 2.746 1.191-29.194.258-57.012-2.922-87.35l-.172-1.656-28.857 4.824-.073 1.248c-2.235 38.276-2.906 63.797-3.428 88.469-4.184.676-7.889 1.17-10.715 1.545-1.985.269-3.545.478-4.544.648l-1.317.229.354 20.367 1.835.131c1.843 0 6.617-.762 14.197-2.035-1.062 20.154-1.022 40.312.115 59.963l-.266.052-.173 1.078c-7.979 50.032-19.509 68.26-22.088 68.963-.362 0-1.642-1.131-2.734-6.199-.525-2.479-1.125-5.289-1.253-9.344-2.924-41.408-4.051-82.125-3.548-128.127l.021-1.959-28.938 6.213.254 14.981c-6.335-11.528-15.373-15.926-27.426-13.336-16.37 3.498-29.106 22.951-35.871 54.771-5.915 27.834-6.15 61.196-.609 87.061 6.511 30.385 19.774 45.545 36.76 41.931 16.906-3.628 27.77-18.017 33.064-43.89 5.424 22.263 14.271 31.828 26.763 29.162 13.172-2.812 23.282-19.963 31.603-53.772 6.054 30.004 16.867 44.075 31.723 41.571 9.586-1.594 16.652-6.776 22.431-16.594.254 2.316.565 4.664 1.062 6.982l.297 1.368 32.668-3.271.031-1.377c2.211-91.562 14.746-147.349 33.523-149.228 3.844-.385 4.754 3.677 4.918 5.386 1.168 11.707-2.238 27.248-5.853 43.707-4.516 20.592-9.633 43.928-7.422 66.104 1.461 14.719 9.56 31.908 27.578 31.908.84 0 1.676-.039 2.52-.123 21.73-2.172 33.849-24.891 41.914-46.404 5.478 28.263 21.328 43.734 45.138 43.754 38.082 0 57.172-41.7 74.926-88.151l.109-.56v-.129l.823.263-.866-.586-.013-.056 18.396-33.59c2.09 6.617 3.651 14.519 2.309 24.107-1.074 7.668-6.852 17.389-13.539 28.643-9.348 15.758-19.958 33.613-22.77 53.555-6.988 49.67 31.68 82.455 71.613 88.088 4.728.664 9.445 1.003 14.017 1.003h.004c48.504 0 75.688-36.214 80.422-69.853 3.542-25.072-4.432-49.588-21.865-67.258zm-182.747-89.056h.013c1.262 0 2.28.611 3.038 1.818.863 1.393 1.328 3.432 1.328 5.898-.012 12.961-11.371 36.62-36.522 50.217 4.776-28.533 18.418-57.933 32.143-57.933zm-133.199-116.416l.117-1.549v1.543c.978 0 1.797 1.412 2 3.438 1.543 15.493-7.78 42.124-15.672 62.479 5.219-44.212 8.783-65.439 13.555-65.911zm-187.285 240.17c-3.396 21.886-9.709 36.377-16.485 37.832-4.058.838-7.42-4.873-9.801-16.02-7.205-33.672-1.479-99.404 11.792-102.252.555-.119 1.102-.178 1.626-.178 7.389 0 11.102 12.172 12.657 19.432 3.416 15.959 3.499 39.979.211 61.186z"/></g><g fill="#0B1421"><path d="M669.587 95.456c1.5-.197 2.342.383 3.094 1.62.664 1.027 1.452 2.695 1.768 3.896.477 1.406.078 1.8-1.345 2.061-4.628.818-12.694 2.788-16.554 4.119-2.673.874-3.503.436-4.299-.437-.943-.931-2.693-2.883-3.601-4.25-.67-1.1-1.452-2.696.228-4.206 10.652-9.982 24.079-28.286 21.994-29.918-1.315-1.045-4.447 2.104-7.693 5.623-2.062 2.12-5.66 2.273-8.183 1.473-1.337-.468-2.014-1.639-.124-4.974 2.954-5.297 7.521-9.431 11.962-10.741 5.355-1.602 9.968 1.771 11.653 4.665 2.532 4.41 1.21 8.491-1.343 13.397-3.056 5.814-9.195 13.62-15.023 19.084 2.542-.715 5.535-1.179 7.466-1.412zM712.082 65.929c1.383 9.706-1.347 25.531-8.728 34.014-2.504 2.879-5.314 3.835-8.858 3.77-2.318-.098-5.042-.738-7.019-1.946-1.441-.819-3.18-2.623-4.004-4.72-3.708-9.873.712-28.8 9.953-37.511 2.014-1.829 5.033-2.875 7.288-2.7 3.046.18 6.296 1.067 8.013 2.584 2.095 1.776 2.991 3.867 3.355 6.509zm-18.955 13.49c-2.068 7.249-2.227 15.782.446 16.644 2.593.796 6.169-5.71 8.201-14.258 1.617-6.633 2.39-16.444.178-16.985-2.288-.601-6.761 7.279-8.825 14.599zM725.126 99.723c-.3 1.614-.779 1.942-2.319 1.638-1.543-.305-3.096-.754-4.463-1.581-1.291-.759-1.668-1.81-1.339-3.93.808-5.917 3.485-19.786 5.726-29.289-2.194-1.188-2.802-1.574-1.816-3.604 1.041-2.252 2.699-4.917 3.851-6.674 1.093-1.606 1.722-1.876 3.342-1.505 1.546.376 3.261 1.028 4.798 2.127 1.457 1.035 1.72 1.591 1.217 3.366-2.607 9.46-7.053 28.966-8.997 39.452zM764.543 76.807c.622 1.392.919 2.379 1.176 3.73.268 1.494-.048 2.026-1.55 2.222l-4.349.65c-1.293 5.307-2.393 10.31-3.159 14.128-.301 1.614-.851 1.948-2.392 1.642-1.25-.256-2.887-.843-4.184-1.673-1.302-.904-1.594-1.82-1.265-3.941.276-1.898.897-4.84 1.679-8.442-2.837.595-5.527 1.252-8 1.89-1.339.401-2.56.503-3.67-.705-1.334-1.262-2.63-2.958-3.705-4.604-.908-1.368-.729-2.683.216-4.349 4.09-7.272 12.663-18.816 18.186-24.474 1.334-1.338 2.11-1.548 3.664-1.1 1.62.372 6.279 2.583 7.815 3.684 1.459 1.033 1.655 1.667 1.147 3.37-1.173 4.141-2.78 9.981-4.289 16.17 1.371-.039 2.142.547 2.68 1.802zm-11.965-.594c1.191-4.793 2.508-9.812 3.721-14.318-4.299 4.762-9.058 10.934-12.607 15.996 2.623-.581 5.827-1.136 8.886-1.678z"/></g><g fill="#DCE3B2"><path d="M665.135 91.005c1.5-.197 2.342.383 3.094 1.62.664 1.027 1.452 2.695 1.768 3.896.477 1.406.078 1.8-1.345 2.061-4.628.818-12.694 2.788-16.554 4.119-2.673.874-3.503.436-4.299-.437-.943-.931-2.693-2.883-3.601-4.25-.67-1.1-1.452-2.696.227-4.206 10.652-9.982 24.079-28.286 21.994-29.918-1.315-1.045-4.447 2.104-7.693 5.623-2.062 2.12-5.66 2.273-8.183 1.473-1.337-.468-2.014-1.639-.124-4.974 2.954-5.297 7.521-9.431 11.962-10.741 5.355-1.602 9.968 1.771 11.653 4.665 2.532 4.41 1.21 8.491-1.343 13.397-3.056 5.814-9.195 13.62-15.023 19.084 2.543-.715 5.536-1.179 7.467-1.412zM707.63 61.478c1.384 9.706-1.347 25.53-8.728 34.014-2.504 2.879-5.314 3.835-8.858 3.77-2.318-.098-5.042-.738-7.019-1.946-1.441-.819-3.18-2.623-4.004-4.72-3.708-9.873.712-28.8 9.953-37.511 2.014-1.829 5.033-2.875 7.288-2.7 3.046.18 6.296 1.067 8.013 2.584 2.096 1.776 2.991 3.867 3.355 6.509zm-18.955 13.489c-2.068 7.249-2.227 15.782.446 16.644 2.593.796 6.169-5.71 8.201-14.258 1.617-6.633 2.39-16.444.178-16.985-2.288-.601-6.76 7.279-8.825 14.599zM720.674 95.272c-.3 1.614-.779 1.942-2.319 1.638-1.543-.305-3.096-.754-4.463-1.581-1.291-.759-1.668-1.81-1.339-3.93.808-5.917 3.485-19.786 5.726-29.289-2.194-1.188-2.802-1.574-1.816-3.604 1.041-2.252 2.699-4.917 3.851-6.674 1.093-1.606 1.722-1.876 3.342-1.505 1.546.376 3.261 1.028 4.798 2.127 1.458 1.035 1.72 1.591 1.217 3.366-2.606 9.46-7.053 28.965-8.997 39.452zM760.092 72.356c.621 1.392.919 2.379 1.176 3.73.268 1.494-.048 2.026-1.55 2.222l-4.348.65c-1.293 5.307-2.393 10.31-3.159 14.128-.302 1.614-.851 1.948-2.392 1.642-1.25-.256-2.887-.843-4.184-1.673-1.302-.904-1.594-1.82-1.265-3.941.276-1.898.897-4.84 1.68-8.442-2.837.595-5.527 1.252-8 1.89-1.339.401-2.56.503-3.67-.705-1.334-1.262-2.63-2.958-3.705-4.604-.908-1.368-.729-2.683.216-4.349 4.09-7.272 12.663-18.816 18.186-24.474 1.334-1.338 2.11-1.548 3.664-1.1 1.62.372 6.279 2.583 7.815 3.684 1.459 1.033 1.655 1.667 1.147 3.37-1.173 4.141-2.78 9.981-4.289 16.17 1.368-.04 2.139.547 2.678 1.802zm-11.966-.595c1.191-4.793 2.508-9.812 3.721-14.318-4.299 4.762-9.058 10.934-12.607 15.996 2.624-.58 5.827-1.135 8.886-1.678z"/></g></svg>