<svg version="1.2" baseProfile="tiny" xmlns="http://www.w3.org/2000/svg" width="153" height="153" viewBox="0 0 153 153"><path fill="none" d="M0 0h153v153h-153z"/><path fill-rule="evenodd" fill="#102A43" d="M0 0h153v153h-153z"/><path fill-rule="evenodd" fill="#041F3A" d="M0 6.754v5.667c4.01 0 7.3-3.358 7.3-7.555 0-2.663-1.27-3.473-1.424-4.866h-5.666c.093 2.703 1.538 3.341 1.538 4.866 0 1.049-.824 1.888-1.748 1.888zm76.501 0c-.928 0-1.748-.839-1.748-1.888 0-1.524 1.443-2.163 1.535-4.866h-5.666c-.152 1.393-1.422 2.203-1.422 4.866 0 4.197 3.289 7.555 7.301 7.555 4.008 0 7.299-3.358 7.299-7.555 0-2.663-1.27-3.472-1.424-4.866h-5.666c.094 2.703 1.538 3.341 1.538 4.866 0 1.049-.822 1.888-1.747 1.888zm9.444-6.754c-.166 1.394-1.527 2.203-1.527 4.866 0 4.197 3.291 7.555 7.301 7.555 4.113 0 7.402-3.358 7.402-7.555 0-2.663-1.361-3.472-1.525-4.866h-5.562c.092 2.703 1.535 3.341 1.535 4.866 0 1.049-.82 1.888-1.85 1.888-.926 0-1.748-.839-1.748-1.888 0-1.524 1.445-2.163 1.537-4.866h-5.563zm15.217 0c-.152 1.394-1.424 2.203-1.424 4.866 0 4.197 3.291 7.555 7.301 7.555 4.113 0 7.404-3.358 7.404-7.555 0-2.663-1.361-3.472-1.527-4.866h-5.562c.092 2.703 1.537 3.341 1.537 4.866 0 1.049-.822 1.888-1.852 1.888-.926 0-1.746-.839-1.746-1.888 0-1.524 1.346-2.163 1.434-4.866h-5.565zm15.424 0c-.164 1.394-1.525 2.203-1.525 4.866 0 4.197 3.289 7.555 7.402 7.555 4.01 0 7.301-3.358 7.301-7.555 0-2.663-1.271-3.472-1.424-4.866h-5.564c.086 2.703 1.436 3.341 1.436 4.866 0 1.049-.822 1.888-1.748 1.888-1.027 0-1.852-.839-1.852-1.888 0-1.524 1.445-2.163 1.539-4.866h-5.565zm15.32 0c-.164 1.394-1.527 2.203-1.527 4.866 0 4.197 3.291 7.555 7.404 7.555 4.01 0 7.301-3.358 7.301-7.555 0-2.663-1.361-3.472-1.525-4.866h-5.566c.096 2.703 1.541 3.341 1.541 4.866 0 1.049-.824 1.888-1.75 1.888-1.027 0-1.85-.839-1.85-1.888 0-1.524 1.443-2.163 1.537-4.866h-5.565zm15.219 0c-.152 1.394-1.424 2.203-1.424 4.866 0 4.197 3.289 7.555 7.299 7.555v-5.667c-.924 0-1.748-.839-1.748-1.888 0-1.524 1.445-2.163 1.539-4.866h-5.666zm-70.624 25.629c-.928 0-1.748-.839-1.748-1.889 0-1.575 1.541-2.204 1.541-5.143 0-4.093-3.289-7.451-7.404-7.451-4.111 0-7.402 3.358-7.402 7.451 0 2.939 1.543 3.568 1.543 5.143 0 1.05-.822 1.889-1.748 1.889-1.027 0-1.852-.839-1.852-1.889 0-1.575 1.545-2.204 1.545-5.143 0-4.093-3.293-7.451-7.406-7.451-4.01 0-7.301 3.358-7.301 7.451 0 2.939 1.44 3.568 1.44 5.143 0 1.05-.821 1.889-1.748 1.889-1.027 0-1.851-.839-1.851-1.889 0-1.575 1.542-2.204 1.542-5.143 0-4.093-3.289-7.451-7.403-7.451-4.113 0-7.403 3.358-7.403 7.451 0 2.939 1.543 3.568 1.543 5.143 0 1.05-.823 1.889-1.851 1.889-.926 0-1.748-.839-1.748-1.889 0-1.575 1.439-2.204 1.439-5.143 0-4.093-3.291-7.451-7.3-7.451-4.114 0-7.404 3.358-7.404 7.451 0 2.939 1.542 3.568 1.542 5.143 0 1.05-.821 1.889-1.849 1.889-.926 0-1.749-.839-1.749-1.889 0-1.575 1.542-2.204 1.542-5.143 0-4.093-3.29-7.451-7.402-7.451-4.113 0-7.404 3.358-7.404 7.451 0 2.939 1.543 3.568 1.543 5.143 0 1.05-.824 1.889-1.748 1.889v5.668c4.01 0 7.3-3.359 7.3-7.557 0-2.834-1.439-3.568-1.439-5.143 0-.944.72-1.783 1.748-1.783s1.85.839 1.85 1.783c0 1.575-1.542 2.309-1.542 5.143 0 4.198 3.29 7.557 7.301 7.557 4.111 0 7.403-3.359 7.403-7.557 0-2.834-1.544-3.568-1.544-5.143 0-.944.824-1.783 1.852-1.783.925 0 1.748.839 1.748 1.783 0 1.575-1.438 2.309-1.438 5.143 0 4.198 3.29 7.557 7.3 7.557 4.112 0 7.402-3.359 7.402-7.557 0-2.834-1.542-3.568-1.542-5.143 0-.944.821-1.783 1.851-1.783 1.028 0 1.85.839 1.85 1.783 0 1.575-1.542 2.309-1.542 5.143 0 4.198 3.291 7.557 7.403 7.557 4.01 0 7.3-3.359 7.3-7.557 0-2.834-1.438-3.568-1.438-5.143 0-.944.822-1.783 1.747-1.783 1.027 0 1.851.839 1.851 1.783 0 1.575-1.542 2.309-1.542 5.143 0 4.198 3.29 7.557 7.404 7.557 4.012 0 7.301-3.359 7.301-7.557 0-2.834-1.541-3.568-1.541-5.143 0-.944.82-1.783 1.848-1.783 1.029 0 1.75.839 1.75 1.783 0 1.575-1.439 2.309-1.439 5.143 0 4.198 3.289 7.557 7.301 7.557 4.008 0 7.299-3.359 7.299-7.557 0-2.834-1.439-3.568-1.439-5.143 0-.944.721-1.783 1.748-1.783s1.852.839 1.852 1.783c0 1.575-1.543 2.309-1.543 5.143 0 4.198 3.291 7.557 7.301 7.557 4.113 0 7.402-3.359 7.402-7.557 0-2.834-1.541-3.568-1.541-5.143 0-.944.822-1.783 1.85-1.783.926 0 1.75.839 1.75 1.783 0 1.575-1.441 2.309-1.441 5.143 0 4.198 3.291 7.557 7.301 7.557 4.113 0 7.404-3.359 7.404-7.557 0-2.834-1.543-3.568-1.543-5.143 0-.944.822-1.783 1.85-1.783 1.029 0 1.852.839 1.852 1.783 0 1.575-1.541 2.309-1.541 5.143 0 4.198 3.289 7.557 7.402 7.557 4.01 0 7.301-3.359 7.301-7.557 0-2.834-1.439-3.568-1.439-5.143 0-.944.822-1.783 1.748-1.783 1.027 0 1.85.839 1.85 1.783 0 1.575-1.543 2.309-1.543 5.143 0 4.198 3.291 7.557 7.404 7.557 4.01 0 7.301-3.359 7.301-7.557 0-2.834-1.543-3.568-1.543-5.143 0-.944.822-1.783 1.852-1.783 1.027 0 1.748.839 1.748 1.783 0 1.575-1.439 2.309-1.439 5.143 0 4.198 3.289 7.557 7.299 7.557v-5.668c-.924 0-1.748-.839-1.748-1.889 0-1.575 1.543-2.204 1.543-5.143 0-4.093-3.289-7.451-7.402-7.451s-7.404 3.358-7.404 7.451c0 2.939 1.545 3.568 1.545 5.143 0 1.05-.824 1.889-1.75 1.889-1.027 0-1.85-.839-1.85-1.889 0-1.575 1.541-2.204 1.541-5.143 0-4.093-3.289-7.451-7.402-7.451-4.012 0-7.301 3.358-7.301 7.451 0 2.939 1.439 3.568 1.439 5.143 0 1.05-.822 1.889-1.748 1.889-1.027 0-1.852-.839-1.852-1.889 0-1.575 1.543-2.204 1.543-5.143 0-4.093-3.289-7.451-7.404-7.451-4.111 0-7.4 3.358-7.4 7.451 0 2.939 1.541 3.568 1.541 5.143 0 1.05-.822 1.889-1.852 1.889-.926 0-1.746-.839-1.746-1.889 0-1.575 1.436-2.204 1.436-5.143 0-4.093-3.287-7.451-7.299-7.451-4.113 0-7.402 3.358-7.402 7.451 0 2.939 1.541 3.568 1.541 5.143 0 1.05-.82 1.889-1.85 1.889-.926 0-1.748-.839-1.748-1.889 0-1.575 1.543-2.204 1.543-5.143 0-4.093-3.291-7.451-7.404-7.451s-7.403 3.358-7.403 7.451c0 2.939 1.542 3.568 1.542 5.143-.006 1.051-.828 1.889-1.753 1.889zm0 19.118c-.928 0-1.748-.84-1.748-1.889 0-1.575 1.541-2.204 1.541-5.143 0-4.093-3.289-7.451-7.404-7.451-4.111 0-7.402 3.358-7.402 7.451 0 2.939 1.543 3.568 1.543 5.143 0 1.049-.822 1.889-1.748 1.889-1.027 0-1.852-.84-1.852-1.889 0-1.575 1.545-2.204 1.545-5.143 0-4.093-3.293-7.451-7.406-7.451-4.01 0-7.301 3.358-7.301 7.451 0 2.939 1.44 3.568 1.44 5.143 0 1.049-.821 1.889-1.748 1.889-1.027 0-1.851-.84-1.851-1.889 0-1.575 1.542-2.204 1.542-5.143 0-4.093-3.289-7.451-7.403-7.451-4.113 0-7.403 3.358-7.403 7.451 0 2.939 1.543 3.568 1.543 5.143 0 1.049-.823 1.889-1.851 1.889-.926 0-1.748-.84-1.748-1.889 0-1.575 1.439-2.204 1.439-5.143 0-4.093-3.291-7.451-7.3-7.451-4.114 0-7.404 3.358-7.404 7.451 0 2.939 1.542 3.568 1.542 5.143 0 1.049-.821 1.889-1.849 1.889-.926 0-1.749-.84-1.749-1.889 0-1.575 1.542-2.204 1.542-5.143 0-4.093-3.29-7.451-7.402-7.451-4.113 0-7.404 3.358-7.404 7.451 0 2.939 1.543 3.568 1.543 5.143 0 1.049-.824 1.889-1.748 1.889v5.666c4.01 0 7.3-3.358 7.3-7.555 0-2.833-1.439-3.569-1.439-5.143 0-.944.72-1.784 1.748-1.784s1.85.84 1.85 1.784c0 1.574-1.542 2.309-1.542 5.143 0 4.197 3.29 7.555 7.301 7.555 4.111 0 7.403-3.358 7.403-7.555 0-2.833-1.544-3.569-1.544-5.143 0-.944.824-1.784 1.852-1.784.925 0 1.748.84 1.748 1.784 0 1.574-1.438 2.309-1.438 5.143 0 4.197 3.29 7.555 7.3 7.555 4.112 0 7.402-3.358 7.402-7.555 0-2.833-1.542-3.569-1.542-5.143 0-.944.821-1.784 1.851-1.784 1.028 0 1.85.84 1.85 1.784 0 1.574-1.542 2.309-1.542 5.143 0 4.197 3.291 7.555 7.403 7.555 4.01 0 7.3-3.358 7.3-7.555 0-2.833-1.438-3.569-1.438-5.143 0-.944.822-1.784 1.747-1.784 1.027 0 1.851.84 1.851 1.784 0 1.574-1.542 2.309-1.542 5.143 0 4.197 3.29 7.555 7.404 7.555 4.012 0 7.301-3.358 7.301-7.555 0-2.833-1.541-3.569-1.541-5.143 0-.944.82-1.784 1.848-1.784 1.029 0 1.75.84 1.75 1.784 0 1.574-1.439 2.309-1.439 5.143 0 4.197 3.289 7.555 7.301 7.555v.001c4.008 0 7.299-3.359 7.299-7.556 0-2.833-1.439-3.569-1.439-5.143 0-.944.721-1.784 1.748-1.784s1.852.84 1.852 1.784c0 1.574-1.543 2.309-1.543 5.143 0 4.197 3.291 7.556 7.301 7.556 4.113 0 7.402-3.359 7.402-7.556 0-2.833-1.541-3.569-1.541-5.143 0-.944.822-1.784 1.85-1.784.926 0 1.75.84 1.75 1.784 0 1.574-1.441 2.309-1.441 5.143 0 4.197 3.291 7.556 7.301 7.556 4.113 0 7.404-3.359 7.404-7.556 0-2.833-1.543-3.569-1.543-5.143 0-.944.822-1.784 1.85-1.784 1.029 0 1.852.84 1.852 1.784 0 1.574-1.541 2.309-1.541 5.143 0 4.197 3.289 7.556 7.402 7.556 4.01 0 7.301-3.359 7.301-7.556 0-2.833-1.439-3.569-1.439-5.143 0-.944.822-1.784 1.748-1.784 1.027 0 1.85.84 1.85 1.784 0 1.574-1.543 2.309-1.543 5.143 0 4.197 3.291 7.556 7.404 7.556 4.01 0 7.301-3.359 7.301-7.556 0-2.833-1.543-3.569-1.543-5.143 0-.944.822-1.784 1.852-1.784 1.027 0 1.748.84 1.748 1.784 0 1.574-1.439 2.309-1.439 5.143 0 4.197 3.289 7.555 7.299 7.556v-5.667c-.924 0-1.748-.84-1.748-1.889 0-1.575 1.543-2.204 1.543-5.143 0-4.093-3.289-7.451-7.402-7.451s-7.404 3.358-7.404 7.451c0 2.939 1.545 3.568 1.545 5.143 0 1.049-.824 1.889-1.75 1.889-1.027 0-1.85-.84-1.85-1.889 0-1.575 1.541-2.204 1.541-5.143 0-4.093-3.289-7.451-7.402-7.451-4.012 0-7.301 3.358-7.301 7.451 0 2.939 1.439 3.568 1.439 5.143 0 1.049-.822 1.889-1.748 1.889-1.027 0-1.852-.84-1.852-1.889 0-1.575 1.543-2.204 1.543-5.143 0-4.093-3.289-7.451-7.404-7.451-4.111 0-7.4 3.358-7.4 7.451 0 2.939 1.541 3.568 1.541 5.143 0 1.049-.822 1.889-1.852 1.889-.926 0-1.746-.84-1.746-1.889 0-1.575 1.436-2.204 1.436-5.143 0-4.093-3.287-7.451-7.299-7.451-4.113 0-7.402 3.358-7.402 7.451 0 2.939 1.541 3.568 1.541 5.143 0 1.049-.82 1.889-1.85 1.889-.926 0-1.748-.84-1.748-1.889 0-1.575 1.543-2.204 1.543-5.143 0-4.093-3.291-7.451-7.404-7.451s-7.403 3.358-7.403 7.451c0 2.939 1.542 3.568 1.542 5.143-.006 1.049-.828 1.889-1.753 1.889zm0 18.874c-.928 0-1.748-.84-1.748-1.889 0-1.574 1.541-2.204 1.541-5.142 0-4.094-3.289-7.452-7.404-7.452-4.111 0-7.402 3.358-7.402 7.452 0 2.938 1.543 3.568 1.543 5.142 0 1.05-.822 1.889-1.748 1.889-1.027 0-1.852-.839-1.852-1.889 0-1.574 1.545-2.204 1.545-5.142 0-4.094-3.293-7.452-7.406-7.452-4.01 0-7.301 3.358-7.301 7.452 0 2.938 1.44 3.568 1.44 5.142 0 1.05-.821 1.889-1.748 1.889-1.027 0-1.851-.839-1.851-1.889 0-1.574 1.542-2.204 1.542-5.142 0-4.094-3.289-7.452-7.403-7.452-4.113 0-7.403 3.358-7.403 7.452 0 2.938 1.543 3.568 1.543 5.142 0 1.05-.823 1.889-1.851 1.889-.926 0-1.748-.839-1.748-1.889 0-1.574 1.439-2.204 1.439-5.142 0-4.094-3.291-7.452-7.3-7.452-4.114 0-7.404 3.358-7.404 7.452 0 2.938 1.542 3.568 1.542 5.142 0 1.05-.821 1.889-1.849 1.889-.926 0-1.749-.839-1.749-1.889 0-1.574 1.542-2.204 1.542-5.142 0-4.094-3.29-7.452-7.402-7.452-4.113 0-7.404 3.358-7.404 7.452 0 2.938 1.543 3.568 1.543 5.142 0 1.05-.824 1.889-1.748 1.889v5.667c4.01 0 7.3-3.357 7.3-7.556 0-2.833-1.439-3.568-1.439-5.142 0-.945.72-1.785 1.748-1.785s1.85.84 1.85 1.785c0 1.574-1.542 2.309-1.542 5.142 0 4.198 3.29 7.556 7.301 7.556 4.111 0 7.403-3.357 7.403-7.556 0-2.833-1.544-3.568-1.544-5.142 0-.945.824-1.785 1.852-1.785.925 0 1.748.84 1.748 1.785 0 1.574-1.438 2.309-1.438 5.142 0 4.198 3.29 7.556 7.3 7.556 4.112 0 7.402-3.357 7.402-7.556 0-2.833-1.542-3.568-1.542-5.142 0-.945.821-1.785 1.851-1.785 1.028 0 1.85.84 1.85 1.785 0 1.574-1.542 2.309-1.542 5.142 0 4.198 3.291 7.556 7.403 7.556 4.01 0 7.3-3.357 7.3-7.556 0-2.833-1.438-3.568-1.438-5.142 0-.945.822-1.785 1.747-1.785 1.027 0 1.851.84 1.851 1.785 0 1.574-1.542 2.309-1.542 5.142 0 4.198 3.29 7.556 7.404 7.556 4.012 0 7.301-3.357 7.301-7.556 0-2.833-1.541-3.568-1.541-5.142 0-.945.82-1.785 1.848-1.785 1.029 0 1.75.84 1.75 1.785 0 1.574-1.439 2.309-1.439 5.142 0 4.198 3.289 7.556 7.301 7.556 4.008 0 7.299-3.357 7.299-7.556 0-2.833-1.439-3.568-1.439-5.142 0-.945.721-1.785 1.748-1.785s1.852.84 1.852 1.785c0 1.574-1.543 2.309-1.543 5.142 0 4.198 3.291 7.556 7.301 7.556 4.113 0 7.402-3.357 7.402-7.556 0-2.833-1.541-3.568-1.541-5.142 0-.945.822-1.785 1.85-1.785.926 0 1.75.84 1.75 1.785 0 1.574-1.441 2.309-1.441 5.142 0 4.198 3.291 7.556 7.301 7.556 4.113 0 7.404-3.357 7.404-7.556 0-2.833-1.543-3.568-1.543-5.142 0-.945.822-1.785 1.85-1.785 1.029 0 1.852.84 1.852 1.785 0 1.574-1.541 2.309-1.541 5.142 0 4.198 3.289 7.556 7.402 7.556 4.01 0 7.301-3.357 7.301-7.556 0-2.833-1.439-3.568-1.439-5.142 0-.945.822-1.785 1.748-1.785 1.027 0 1.85.84 1.85 1.785 0 1.574-1.543 2.309-1.543 5.142 0 4.198 3.291 7.556 7.404 7.556 4.01 0 7.301-3.357 7.301-7.556 0-2.833-1.543-3.568-1.543-5.142 0-.945.822-1.785 1.852-1.785 1.027 0 1.748.84 1.748 1.785 0 1.574-1.439 2.309-1.439 5.142 0 4.198 3.289 7.556 7.299 7.556v-5.667c-.924 0-1.748-.84-1.748-1.889 0-1.574 1.543-2.204 1.543-5.142 0-4.094-3.289-7.452-7.402-7.452s-7.404 3.358-7.404 7.452c0 2.938 1.545 3.568 1.545 5.142 0 1.05-.824 1.889-1.75 1.889-1.027 0-1.85-.839-1.85-1.889 0-1.574 1.541-2.204 1.541-5.142 0-4.094-3.289-7.452-7.402-7.452-4.012 0-7.301 3.358-7.301 7.452 0 2.938 1.439 3.568 1.439 5.142 0 1.05-.822 1.889-1.748 1.889-1.027 0-1.852-.839-1.852-1.889 0-1.574 1.543-2.204 1.543-5.142 0-4.094-3.289-7.452-7.404-7.452-4.111 0-7.4 3.358-7.4 7.452 0 2.938 1.541 3.568 1.541 5.142 0 1.05-.822 1.889-1.852 1.889-.926 0-1.746-.839-1.746-1.889 0-1.574 1.436-2.204 1.436-5.142 0-4.094-3.287-7.452-7.299-7.452-4.113 0-7.402 3.358-7.402 7.452 0 2.938 1.541 3.568 1.541 5.142 0 1.05-.82 1.889-1.85 1.889-.926 0-1.748-.839-1.748-1.889 0-1.574 1.543-2.204 1.543-5.142 0-4.094-3.291-7.452-7.404-7.452s-7.403 3.358-7.403 7.452c0 2.938 1.542 3.568 1.542 5.142-.006 1.05-.828 1.889-1.753 1.889zm5.985 12.879c-.076-.248-.125-.507-.125-.793 0-.944.721-1.784 1.748-1.784s1.852.84 1.852 1.784c0 .286-.051.545-.135.793h.119c-.166 1.395-1.527 2.203-1.527 4.866 0 4.197 3.291 7.556 7.301 7.556 4.113 0 7.402-3.358 7.402-7.556 0-2.663-1.361-3.472-1.525-4.866h.119c-.084-.248-.135-.507-.135-.793 0-.944.822-1.784 1.85-1.784.926 0 1.75.84 1.75 1.784 0 .286-.049.545-.127.793h.109c-.152 1.395-1.424 2.203-1.424 4.866 0 4.197 3.291 7.556 7.301 7.556 4.113 0 7.404-3.358 7.404-7.556 0-2.663-1.361-3.472-1.527-4.866h.117c-.082-.248-.133-.507-.133-.793 0-.944.822-1.784 1.85-1.784 1.029 0 1.852.84 1.852 1.784 0 .286-.051.545-.135.793h.119c-.164 1.395-1.525 2.203-1.525 4.866 0 4.197 3.289 7.556 7.402 7.556 4.01 0 7.301-3.358 7.301-7.556 0-2.663-1.271-3.472-1.424-4.866h.109c-.078-.248-.125-.507-.125-.793 0-.944.822-1.784 1.748-1.784 1.027 0 1.85.84 1.85 1.784 0 .286-.051.545-.135.793h.119c-.164 1.395-1.527 2.203-1.527 4.866 0 4.197 3.291 7.556 7.404 7.556 4.01 0 7.301-3.358 7.301-7.556 0-2.663-1.361-3.472-1.525-4.866h.117c-.082-.248-.135-.507-.135-.793 0-.944.822-1.784 1.852-1.784 1.027 0 1.748.84 1.748 1.784 0 .286-.049.545-.125.793h.109c-.152 1.395-1.424 2.203-1.424 4.866 0 4.197 3.289 7.556 7.299 7.556v-5.667c-.924 0-1.748-.84-1.748-1.889 0-1.523 1.445-2.163 1.539-4.866h-.037c.027-.244.041-.509.041-.793 0-4.093-3.289-7.451-7.402-7.451s-7.404 3.358-7.404 7.451c0 .284.016.549.043.793h-.039c.096 2.703 1.541 3.343 1.541 4.866 0 1.049-.824 1.889-1.75 1.889-1.027 0-1.85-.84-1.85-1.889 0-1.523 1.443-2.163 1.537-4.866h-.037c.027-.244.041-.509.041-.793 0-4.093-3.289-7.451-7.402-7.451-4.012 0-7.301 3.358-7.301 7.451 0 .284.014.549.039.793h-.035c.086 2.703 1.436 3.343 1.436 4.866 0 1.049-.822 1.889-1.748 1.889-1.027 0-1.852-.84-1.852-1.889 0-1.523 1.445-2.163 1.539-4.866h-.035c.025-.244.039-.509.039-.793 0-4.093-3.289-7.451-7.404-7.451-4.111 0-7.4 3.358-7.4 7.451 0 .284.012.549.039.793h-.035c.092 2.703 1.537 3.343 1.537 4.866 0 1.049-.822 1.889-1.852 1.889-.926 0-1.746-.84-1.746-1.889 0-1.523 1.346-2.163 1.434-4.866h-.033c.023-.244.035-.509.035-.793 0-4.093-3.287-7.451-7.299-7.451-4.113 0-7.402 3.358-7.402 7.451 0 .284.014.549.041.793h-.035c.092 2.703 1.535 3.343 1.535 4.866 0 1.049-.82 1.889-1.85 1.889-.926 0-1.748-.84-1.748-1.889 0-1.523 1.445-2.163 1.537-4.866h-.035c.025-.244.041-.509.041-.793 0-4.093-3.291-7.451-7.404-7.451s-7.403 3.358-7.403 7.451c0 .284.014.549.041.793h-.039c.094 2.703 1.538 3.343 1.538 4.866 0 1.049-.822 1.889-1.747 1.889-.928 0-1.748-.84-1.748-1.889 0-1.523 1.443-2.163 1.535-4.866h-.035c.027-.244.041-.509.041-.793 0-4.093-3.289-7.451-7.404-7.451-4.111 0-7.402 3.358-7.402 7.451 0 .284.014.549.041.793h-.035c.094 2.703 1.537 3.343 1.537 4.866 0 1.049-.822 1.889-1.748 1.889-1.027 0-1.852-.84-1.852-1.889 0-1.523 1.445-2.163 1.539-4.866h-.037c.027-.244.043-.509.043-.793 0-4.093-3.293-7.451-7.406-7.451-4.01 0-7.301 3.358-7.301 7.451 0 .284.015.549.039.793h-.034c.088 2.703 1.436 3.343 1.436 4.866 0 1.049-.821 1.889-1.748 1.889-1.027 0-1.851-.84-1.851-1.889 0-1.523 1.445-2.163 1.537-4.866h-.035c.025-.244.04-.509.04-.793 0-4.093-3.289-7.451-7.403-7.451-4.113 0-7.403 3.358-7.403 7.451 0 .284.015.549.041.793h-.036c.092 2.703 1.537 3.343 1.537 4.866 0 1.049-.822 1.889-1.85 1.889-.926 0-1.748-.84-1.748-1.889 0-1.523 1.348-2.163 1.435-4.866h-.034c.024-.244.038-.509.038-.793 0-4.093-3.291-7.451-7.3-7.451-4.114 0-7.404 3.358-7.404 7.451 0 .284.017.549.042.793h-.036c.092 2.703 1.536 3.343 1.536 4.866 0 1.049-.821 1.889-1.849 1.889-.926 0-1.749-.84-1.749-1.889 0-1.523 1.444-2.163 1.537-4.866h-.035c.025-.244.04-.509.04-.793 0-4.093-3.29-7.451-7.402-7.451-4.113 0-7.404 3.358-7.404 7.451 0 .284.016.549.041.793h-.037c.093 2.703 1.538 3.343 1.538 4.866 0 1.049-.824 1.889-1.748 1.889v5.667c4.01 0 7.3-3.358 7.3-7.556 0-2.663-1.27-3.472-1.424-4.866h.11c-.076-.248-.125-.507-.125-.793 0-.944.72-1.784 1.748-1.784s1.85.84 1.85 1.784c0 .286-.051.545-.134.793h.119c-.166 1.395-1.526 2.203-1.526 4.866 0 4.197 3.29 7.556 7.301 7.556 4.111 0 7.403-3.358 7.403-7.556 0-2.663-1.362-3.472-1.526-4.866h.118c-.083-.248-.135-.507-.135-.793 0-.944.824-1.784 1.852-1.784.925 0 1.748.84 1.748 1.784 0 .286-.048.545-.126.793h.111c-.153 1.395-1.423 2.203-1.423 4.866 0 4.197 3.29 7.556 7.3 7.556 4.112 0 7.402-3.358 7.402-7.556 0-2.663-1.361-3.472-1.526-4.866h.12c-.084-.248-.135-.507-.135-.793 0-.944.821-1.784 1.851-1.784 1.028 0 1.85.84 1.85 1.784 0 .286-.05.545-.134.793h.117c-.164 1.395-1.525 2.203-1.525 4.866 0 4.197 3.291 7.556 7.403 7.556 4.01 0 7.3-3.358 7.3-7.556 0-2.663-1.27-3.472-1.424-4.866h.111c-.079-.248-.126-.507-.126-.793 0-.944.822-1.784 1.747-1.784 1.027 0 1.851.84 1.851 1.784 0 .286-.05.545-.135.793h.119c-.165 1.395-1.526 2.203-1.526 4.866 0 4.197 3.29 7.556 7.404 7.556 4.012 0 7.301-3.358 7.301-7.556 0-2.663-1.361-3.472-1.525-4.866h.117c-.084-.248-.133-.507-.133-.793 0-.944.82-1.784 1.848-1.784 1.029 0 1.75.84 1.75 1.784 0 .286-.049.545-.127.793h.109c-.152 1.395-1.422 2.203-1.422 4.866 0 4.197 3.289 7.556 7.301 7.556 4.008 0 7.299-3.358 7.299-7.556 0-2.663-1.27-3.472-1.424-4.866h.107zm-5.985 25.63c-.928 0-1.748-.839-1.748-1.89 0-1.573 1.541-2.202 1.541-5.142 0-4.093-3.289-7.451-7.404-7.451-4.111 0-7.402 3.358-7.402 7.451 0 2.939 1.543 3.568 1.543 5.142 0 1.051-.822 1.89-1.748 1.89-1.027 0-1.852-.839-1.852-1.89 0-1.573 1.545-2.202 1.545-5.142 0-4.093-3.293-7.451-7.406-7.451-4.01 0-7.301 3.358-7.301 7.451 0 2.939 1.44 3.568 1.44 5.142 0 1.051-.821 1.89-1.748 1.89-1.027 0-1.851-.839-1.851-1.89 0-1.573 1.542-2.202 1.542-5.142 0-4.093-3.289-7.451-7.403-7.451-4.113 0-7.403 3.358-7.403 7.451 0 2.939 1.542 3.568 1.542 5.142 0 1.051-.822 1.89-1.85 1.89-.926 0-1.748-.839-1.748-1.89 0-1.573 1.439-2.202 1.439-5.142 0-4.093-3.291-7.451-7.3-7.451-4.114 0-7.404 3.358-7.404 7.451 0 2.939 1.542 3.568 1.542 5.142 0 1.051-.821 1.89-1.849 1.89-.926 0-1.749-.839-1.749-1.89 0-1.573 1.542-2.202 1.542-5.142 0-4.093-3.29-7.451-7.402-7.451-4.113 0-7.404 3.358-7.404 7.451 0 2.939 1.543 3.568 1.543 5.142 0 1.051-.824 1.89-1.748 1.89v5.667c4.01 0 7.3-3.358 7.3-7.557 0-2.832-1.439-3.567-1.439-5.142 0-.944.72-1.784 1.748-1.784s1.85.84 1.85 1.784c0 1.574-1.542 2.31-1.542 5.142 0 4.198 3.29 7.557 7.301 7.557 4.111 0 7.403-3.358 7.403-7.557 0-2.832-1.544-3.567-1.544-5.142 0-.944.824-1.784 1.852-1.784.925 0 1.748.84 1.748 1.784 0 1.574-1.438 2.31-1.438 5.142 0 4.198 3.29 7.557 7.3 7.557 4.112 0 7.402-3.358 7.402-7.557 0-2.832-1.542-3.567-1.542-5.142 0-.944.821-1.784 1.851-1.784 1.028 0 1.85.84 1.85 1.784 0 1.574-1.542 2.31-1.542 5.142 0 4.198 3.291 7.557 7.403 7.557 4.01 0 7.3-3.358 7.3-7.557 0-2.832-1.438-3.567-1.438-5.142 0-.944.822-1.784 1.747-1.784 1.027 0 1.851.84 1.851 1.784 0 1.574-1.542 2.31-1.542 5.142 0 4.198 3.29 7.557 7.404 7.557 4.012 0 7.301-3.358 7.301-7.557 0-2.832-1.541-3.567-1.541-5.142 0-.944.82-1.784 1.848-1.784 1.029 0 1.75.84 1.75 1.784 0 1.574-1.439 2.31-1.439 5.142 0 4.198 3.289 7.557 7.301 7.557 4.008 0 7.299-3.358 7.299-7.557 0-2.832-1.439-3.567-1.439-5.142 0-.944.721-1.784 1.748-1.784s1.852.84 1.852 1.784c0 1.574-1.543 2.31-1.543 5.142 0 4.198 3.291 7.557 7.301 7.557 4.113 0 7.402-3.358 7.402-7.557 0-2.832-1.541-3.567-1.541-5.142 0-.944.822-1.784 1.85-1.784.926 0 1.75.84 1.75 1.784 0 1.574-1.441 2.31-1.441 5.142 0 4.198 3.291 7.557 7.301 7.557 4.113 0 7.404-3.358 7.404-7.557 0-2.832-1.543-3.567-1.543-5.142 0-.944.822-1.784 1.85-1.784 1.029 0 1.852.84 1.852 1.784 0 1.574-1.541 2.31-1.541 5.142 0 4.198 3.289 7.557 7.402 7.557 4.01 0 7.301-3.358 7.301-7.557 0-2.832-1.439-3.567-1.439-5.142 0-.944.822-1.784 1.748-1.784 1.027 0 1.85.84 1.85 1.784 0 1.574-1.543 2.31-1.543 5.142 0 4.198 3.291 7.557 7.404 7.557 4.01 0 7.301-3.358 7.301-7.557 0-2.832-1.543-3.567-1.543-5.142 0-.944.822-1.784 1.852-1.784 1.027 0 1.748.84 1.748 1.784 0 1.574-1.439 2.31-1.439 5.142 0 4.198 3.289 7.557 7.299 7.557v-5.667c-.924 0-1.748-.839-1.748-1.89 0-1.573 1.543-2.202 1.543-5.142 0-4.093-3.289-7.451-7.402-7.451s-7.404 3.358-7.404 7.451c0 2.939 1.545 3.568 1.545 5.142 0 1.051-.824 1.89-1.75 1.89-1.027 0-1.85-.839-1.85-1.89 0-1.573 1.541-2.202 1.541-5.142 0-4.093-3.289-7.451-7.402-7.451-4.012 0-7.301 3.358-7.301 7.451 0 2.939 1.439 3.568 1.439 5.142 0 1.051-.822 1.89-1.748 1.89-1.027 0-1.852-.839-1.852-1.89 0-1.573 1.543-2.202 1.543-5.142 0-4.093-3.289-7.451-7.404-7.451-4.111 0-7.4 3.358-7.4 7.451 0 2.939 1.541 3.568 1.541 5.142 0 1.051-.822 1.89-1.852 1.89-.926 0-1.746-.839-1.746-1.89 0-1.573 1.436-2.202 1.436-5.142 0-4.093-3.287-7.451-7.299-7.451-4.113 0-7.402 3.358-7.402 7.451 0 2.939 1.541 3.568 1.541 5.142 0 1.051-.82 1.89-1.85 1.89-.926 0-1.748-.839-1.748-1.89 0-1.573 1.543-2.202 1.543-5.142 0-4.093-3.291-7.451-7.404-7.451s-7.403 3.358-7.403 7.451c0 2.939 1.542 3.568 1.542 5.142-.006 1.051-.828 1.89-1.753 1.89zm0 19.117c-.928 0-1.748-.841-1.748-1.89 0-1.574 1.541-2.204 1.541-5.143 0-4.093-3.289-7.451-7.404-7.451-4.111 0-7.402 3.358-7.402 7.451 0 2.938 1.543 3.568 1.543 5.143 0 1.049-.822 1.89-1.748 1.89-1.027 0-1.852-.841-1.852-1.89 0-1.574 1.545-2.204 1.545-5.143 0-4.093-3.293-7.451-7.406-7.451-4.01 0-7.301 3.358-7.301 7.451 0 2.938 1.44 3.568 1.44 5.143 0 1.049-.821 1.89-1.748 1.89-1.027 0-1.851-.841-1.851-1.89 0-1.574 1.542-2.204 1.542-5.143 0-4.093-3.289-7.451-7.403-7.451-4.113 0-7.403 3.358-7.403 7.451 0 2.938 1.542 3.568 1.542 5.143 0 1.049-.822 1.89-1.85 1.89-.926 0-1.748-.841-1.748-1.89 0-1.574 1.439-2.204 1.439-5.143 0-4.093-3.291-7.451-7.3-7.451-4.114 0-7.404 3.358-7.404 7.451 0 2.938 1.542 3.568 1.542 5.143 0 1.049-.821 1.89-1.849 1.89-.926 0-1.749-.841-1.749-1.89 0-1.574 1.542-2.204 1.542-5.143 0-4.093-3.29-7.451-7.402-7.451-4.113 0-7.404 3.358-7.404 7.451 0 2.938 1.543 3.568 1.543 5.143 0 1.049-.824 1.89-1.748 1.89v5.666c4.01 0 7.3-3.357 7.3-7.556 0-2.834-1.439-3.568-1.439-5.143 0-.944.72-1.783 1.748-1.783s1.85.839 1.85 1.783c0 1.574-1.542 2.309-1.542 5.143 0 4.198 3.29 7.556 7.301 7.556 4.111 0 7.403-3.357 7.403-7.556 0-2.834-1.544-3.568-1.544-5.143 0-.944.824-1.783 1.852-1.783.925 0 1.748.839 1.748 1.783 0 1.574-1.438 2.309-1.438 5.143 0 4.198 3.29 7.556 7.3 7.556 4.112 0 7.402-3.357 7.402-7.556 0-2.834-1.542-3.568-1.542-5.143 0-.944.821-1.783 1.851-1.783 1.028 0 1.85.839 1.85 1.783 0 1.574-1.542 2.309-1.542 5.143 0 4.198 3.291 7.556 7.403 7.556 4.01 0 7.3-3.357 7.3-7.556 0-2.834-1.438-3.568-1.438-5.143 0-.944.822-1.783 1.747-1.783 1.027 0 1.851.839 1.851 1.783 0 1.574-1.542 2.309-1.542 5.143 0 4.198 3.29 7.556 7.404 7.556 4.012 0 7.301-3.357 7.301-7.556 0-2.834-1.541-3.568-1.541-5.143 0-.944.82-1.783 1.848-1.783 1.029 0 1.75.839 1.75 1.783 0 1.574-1.439 2.309-1.439 5.143 0 4.198 3.289 7.556 7.301 7.556 4.008 0 7.299-3.357 7.299-7.556 0-2.834-1.439-3.568-1.439-5.143 0-.944.721-1.783 1.748-1.783s1.852.839 1.852 1.783c0 1.574-1.543 2.309-1.543 5.143 0 4.198 3.291 7.556 7.301 7.556 4.113 0 7.402-3.357 7.402-7.556 0-2.834-1.541-3.568-1.541-5.143 0-.944.822-1.783 1.85-1.783.926 0 1.75.839 1.75 1.783 0 1.574-1.441 2.309-1.441 5.143 0 4.198 3.291 7.556 7.301 7.556 4.113 0 7.404-3.357 7.404-7.556 0-2.834-1.543-3.568-1.543-5.143 0-.944.822-1.783 1.85-1.783 1.029 0 1.852.839 1.852 1.783 0 1.574-1.541 2.309-1.541 5.143 0 4.198 3.289 7.556 7.402 7.556 4.01 0 7.301-3.357 7.301-7.556 0-2.834-1.439-3.568-1.439-5.143 0-.944.822-1.783 1.748-1.783 1.027 0 1.85.839 1.85 1.783 0 1.574-1.543 2.309-1.543 5.143 0 4.198 3.291 7.556 7.404 7.556 4.01 0 7.301-3.357 7.301-7.556 0-2.834-1.543-3.568-1.543-5.143 0-.944.822-1.783 1.852-1.783 1.027 0 1.748.839 1.748 1.783 0 1.574-1.439 2.309-1.439 5.143 0 4.198 3.289 7.556 7.299 7.556v-5.666c-.924 0-1.748-.841-1.748-1.89 0-1.574 1.543-2.204 1.543-5.143 0-4.093-3.289-7.451-7.402-7.451s-7.404 3.358-7.404 7.451c0 2.938 1.545 3.568 1.545 5.143 0 1.049-.824 1.89-1.75 1.89-1.027 0-1.85-.841-1.85-1.89 0-1.574 1.541-2.204 1.541-5.143 0-4.093-3.289-7.451-7.402-7.451-4.012 0-7.301 3.358-7.301 7.451 0 2.938 1.439 3.568 1.439 5.143 0 1.049-.822 1.89-1.748 1.89-1.027 0-1.852-.841-1.852-1.89 0-1.574 1.543-2.204 1.543-5.143 0-4.093-3.289-7.451-7.404-7.451-4.111 0-7.4 3.358-7.4 7.451 0 2.938 1.541 3.568 1.541 5.143 0 1.049-.822 1.89-1.852 1.89-.926 0-1.746-.841-1.746-1.89 0-1.574 1.436-2.204 1.436-5.143 0-4.093-3.287-7.451-7.299-7.451-4.113 0-7.402 3.358-7.402 7.451 0 2.938 1.541 3.568 1.541 5.143 0 1.049-.82 1.89-1.85 1.89-.926 0-1.748-.841-1.748-1.89 0-1.574 1.543-2.204 1.543-5.143 0-4.093-3.291-7.451-7.404-7.451s-7.403 3.358-7.403 7.451c0 2.938 1.542 3.568 1.542 5.143-.006 1.049-.828 1.89-1.753 1.89zm0 18.874c-.928 0-1.748-.84-1.748-1.889 0-1.574 1.541-2.203 1.541-5.142 0-4.093-3.289-7.451-7.404-7.451-4.111 0-7.402 3.358-7.402 7.451 0 2.938 1.543 3.567 1.543 5.142 0 1.049-.822 1.889-1.748 1.889-1.027 0-1.852-.84-1.852-1.889 0-1.574 1.545-2.203 1.545-5.142 0-4.093-3.293-7.451-7.406-7.451-4.01 0-7.301 3.358-7.301 7.451 0 2.938 1.44 3.567 1.44 5.142 0 1.049-.821 1.889-1.748 1.889-1.027 0-1.851-.84-1.851-1.889 0-1.574 1.542-2.203 1.542-5.142 0-4.093-3.289-7.451-7.403-7.451-4.113 0-7.403 3.358-7.403 7.451 0 2.938 1.542 3.567 1.542 5.142 0 1.049-.822 1.889-1.85 1.889-.926 0-1.748-.84-1.748-1.889 0-1.574 1.439-2.203 1.439-5.142 0-4.093-3.291-7.451-7.3-7.451-4.114 0-7.404 3.358-7.404 7.451 0 2.938 1.542 3.567 1.542 5.142 0 1.049-.821 1.889-1.849 1.889-.926 0-1.749-.84-1.749-1.889 0-1.574 1.542-2.203 1.542-5.142 0-4.093-3.29-7.451-7.402-7.451-4.113 0-7.404 3.358-7.404 7.451 0 2.938 1.543 3.567 1.543 5.142 0 1.049-.824 1.889-1.748 1.889v5.668c4.01 0 7.3-3.358 7.3-7.557 0-2.833-1.439-3.566-1.439-5.142 0-.945.72-1.784 1.748-1.784s1.85.839 1.85 1.784c0 1.575-1.542 2.309-1.542 5.142 0 4.198 3.29 7.557 7.301 7.557 4.111 0 7.403-3.358 7.403-7.557 0-2.833-1.544-3.566-1.544-5.142 0-.945.824-1.784 1.852-1.784.925 0 1.748.839 1.748 1.784 0 1.575-1.438 2.309-1.438 5.142 0 4.198 3.29 7.557 7.3 7.557 4.112 0 7.402-3.358 7.402-7.557 0-2.833-1.542-3.566-1.542-5.142 0-.945.821-1.784 1.851-1.784 1.028 0 1.85.839 1.85 1.784 0 1.575-1.542 2.309-1.542 5.142 0 4.198 3.291 7.557 7.403 7.557 4.01 0 7.3-3.358 7.3-7.557 0-2.833-1.438-3.566-1.438-5.142 0-.945.822-1.784 1.747-1.784 1.027 0 1.851.839 1.851 1.784 0 1.575-1.542 2.309-1.542 5.142 0 4.198 3.29 7.557 7.404 7.557 4.012 0 7.301-3.358 7.301-7.557 0-2.833-1.541-3.566-1.541-5.142 0-.945.82-1.784 1.848-1.784 1.029 0 1.75.839 1.75 1.784 0 1.575-1.439 2.309-1.439 5.142 0 4.198 3.289 7.556 7.301 7.557 4.008 0 7.299-3.358 7.299-7.557 0-2.833-1.439-3.566-1.439-5.142 0-.945.721-1.784 1.748-1.784s1.852.839 1.852 1.784c0 1.575-1.543 2.309-1.543 5.142 0 4.198 3.291 7.557 7.301 7.557 4.113 0 7.402-3.358 7.402-7.557 0-2.833-1.541-3.566-1.541-5.142 0-.945.822-1.784 1.85-1.784.926 0 1.75.839 1.75 1.784 0 1.575-1.441 2.309-1.441 5.142 0 4.198 3.291 7.557 7.301 7.557 4.113 0 7.404-3.358 7.404-7.557 0-2.833-1.543-3.566-1.543-5.142 0-.945.822-1.784 1.85-1.784 1.029 0 1.852.839 1.852 1.784 0 1.575-1.541 2.309-1.541 5.142 0 4.198 3.289 7.557 7.402 7.557 4.01 0 7.301-3.358 7.301-7.557 0-2.833-1.439-3.566-1.439-5.142 0-.945.822-1.784 1.748-1.784 1.027 0 1.85.839 1.85 1.784 0 1.575-1.543 2.309-1.543 5.142 0 4.198 3.291 7.557 7.404 7.557 4.01 0 7.301-3.358 7.301-7.557 0-2.833-1.543-3.566-1.543-5.142 0-.945.822-1.784 1.852-1.784 1.027 0 1.748.839 1.748 1.784 0 1.575-1.439 2.309-1.439 5.142 0 4.198 3.289 7.556 7.299 7.557v-5.668c-.924 0-1.748-.84-1.748-1.889 0-1.574 1.543-2.203 1.543-5.142 0-4.093-3.289-7.451-7.402-7.451s-7.404 3.358-7.404 7.451c0 2.938 1.545 3.567 1.545 5.142 0 1.049-.824 1.889-1.75 1.889-1.027 0-1.85-.84-1.85-1.889 0-1.574 1.541-2.203 1.541-5.142 0-4.093-3.289-7.451-7.402-7.451-4.012 0-7.301 3.358-7.301 7.451 0 2.938 1.439 3.567 1.439 5.142 0 1.049-.822 1.889-1.748 1.889-1.027 0-1.852-.84-1.852-1.889 0-1.574 1.543-2.203 1.543-5.142 0-4.093-3.289-7.451-7.404-7.451-4.111 0-7.4 3.358-7.4 7.451 0 2.938 1.541 3.567 1.541 5.142 0 1.049-.822 1.889-1.852 1.889-.926 0-1.746-.84-1.746-1.889 0-1.574 1.436-2.203 1.436-5.142 0-4.093-3.287-7.451-7.299-7.451-4.113 0-7.402 3.358-7.402 7.451 0 2.938 1.541 3.567 1.541 5.142 0 1.049-.82 1.889-1.85 1.889-.926 0-1.748-.84-1.748-1.889 0-1.574 1.543-2.203 1.543-5.142 0-4.093-3.291-7.451-7.404-7.451s-7.403 3.358-7.403 7.451c0 2.938 1.542 3.567 1.542 5.142-.006 1.049-.828 1.889-1.753 1.889zm5.985 12.879c-.076-.248-.125-.507-.125-.792 0-.945.721-1.785 1.748-1.785s1.852.84 1.852 1.785c0 .285-.051.544-.135.792h5.646c.025-.244.041-.508.041-.792 0-4.093-3.291-7.452-7.404-7.452s-7.403 3.359-7.403 7.452c0 .284.014.548.041.792h5.739zm15.229 0c-.084-.248-.135-.507-.135-.792 0-.945.822-1.785 1.85-1.785.926 0 1.75.84 1.75 1.785 0 .285-.049.544-.127.792h5.641c.023-.244.035-.508.035-.792 0-4.093-3.287-7.452-7.299-7.452-4.113 0-7.402 3.359-7.402 7.452 0 .284.014.548.041.792h5.646zm15.318 0c-.082-.248-.133-.507-.133-.792 0-.945.822-1.785 1.85-1.785 1.029 0 1.852.84 1.852 1.785 0 .285-.051.544-.135.792h5.648c.025-.244.039-.508.039-.792 0-4.093-3.289-7.452-7.404-7.452-4.111 0-7.4 3.359-7.4 7.452 0 .284.012.548.039.792h5.644zm15.416 0c-.078-.248-.125-.507-.125-.792 0-.945.822-1.785 1.748-1.785 1.027 0 1.85.84 1.85 1.785 0 .285-.051.544-.135.792h5.646c.027-.244.041-.508.041-.792 0-4.093-3.289-7.452-7.402-7.452-4.012 0-7.301 3.359-7.301 7.452 0 .284.014.548.039.792h5.639zm15.227 0c-.082-.248-.135-.507-.135-.792 0-.945.822-1.785 1.852-1.785 1.027 0 1.748.84 1.748 1.785 0 .285-.049.544-.125.792h5.738c.027-.244.041-.508.041-.792 0-4.093-3.289-7.452-7.402-7.452s-7.404 3.359-7.404 7.452c0 .284.016.548.043.792h5.644zm-137.69 0c-.076-.248-.125-.507-.125-.792 0-.945.72-1.785 1.748-1.785s1.85.84 1.85 1.785c0 .285-.051.544-.134.792h5.646c.025-.244.04-.508.04-.792 0-4.093-3.29-7.452-7.402-7.452-4.113 0-7.404 3.359-7.404 7.452 0 .284.016.548.041.792h5.74zm15.227 0c-.083-.248-.135-.507-.135-.792 0-.945.824-1.785 1.852-1.785.925 0 1.748.84 1.748 1.785 0 .285-.048.544-.126.792h5.641c.024-.244.038-.508.038-.792 0-4.093-3.291-7.452-7.3-7.452-4.114 0-7.404 3.359-7.404 7.452 0 .284.017.548.042.792h5.644zm15.322 0c-.084-.248-.135-.507-.135-.792 0-.945.821-1.785 1.851-1.785 1.028 0 1.85.84 1.85 1.785 0 .285-.05.544-.134.792h5.646c.025-.244.04-.508.04-.792 0-4.093-3.289-7.452-7.403-7.452-4.113 0-7.403 3.359-7.403 7.452 0 .284.015.548.041.792h5.647zm15.414 0c-.079-.248-.126-.507-.126-.792 0-.945.822-1.785 1.747-1.785 1.027 0 1.851.84 1.851 1.785 0 .285-.05.544-.135.792h5.647c.027-.244.043-.508.043-.792 0-4.093-3.293-7.452-7.406-7.452-4.01 0-7.301 3.359-7.301 7.452 0 .284.015.548.039.792h5.641zm15.226 0c-.084-.248-.133-.507-.133-.792 0-.945.82-1.785 1.848-1.785 1.029 0 1.75.84 1.75 1.785 0 .285-.049.544-.127.792h5.74c.027-.244.041-.508.041-.792 0-4.093-3.289-7.452-7.404-7.452-4.111 0-7.402 3.359-7.402 7.452 0 .284.014.548.041.792h5.646zm-57.731-153c-.166 1.393-1.527 2.203-1.527 4.866 0 4.197 3.29 7.555 7.301 7.555 4.111 0 7.403-3.358 7.403-7.555 0-2.663-1.362-3.473-1.526-4.866h-5.563c.092 2.703 1.536 3.341 1.536 4.866 0 1.049-.821 1.888-1.849 1.888-.926 0-1.749-.839-1.749-1.888 0-1.524 1.444-2.163 1.537-4.866h-5.563zm15.218 0c-.153 1.393-1.423 2.203-1.423 4.866 0 4.197 3.29 7.555 7.3 7.555 4.112 0 7.402-3.358 7.402-7.555 0-2.663-1.361-3.473-1.526-4.866h-5.563c.092 2.703 1.538 3.341 1.538 4.866 0 1.049-.823 1.888-1.851 1.888-.926 0-1.748-.839-1.748-1.888 0-1.524 1.348-2.163 1.435-4.866h-5.564zm15.422 0c-.164 1.393-1.525 2.203-1.525 4.866 0 4.197 3.291 7.555 7.403 7.555 4.01 0 7.3-3.358 7.3-7.555 0-2.663-1.27-3.473-1.424-4.866h-5.563c.088 2.703 1.436 3.341 1.436 4.866 0 1.049-.821 1.888-1.748 1.888-1.027 0-1.851-.839-1.851-1.888 0-1.524 1.445-2.163 1.537-4.866h-5.565zm15.321 0c-.165 1.393-1.526 2.203-1.526 4.866 0 4.197 3.29 7.555 7.404 7.555 4.012 0 7.301-3.358 7.301-7.555 0-2.663-1.361-3.473-1.525-4.866h-5.564c.094 2.703 1.537 3.341 1.537 4.866 0 1.049-.822 1.888-1.748 1.888-1.027 0-1.852-.839-1.852-1.888 0-1.524 1.445-2.163 1.539-4.866h-5.566z"/></svg>