<svg xmlns="http://www.w3.org/2000/svg" width="943" height="512" viewBox="0 0 943 512"><path fill="#86201A" d="M571.059 238.685l-34.526-8.311-.397 1.471c-2.724 10.131-4.082 21.648-5.517 33.844-4.172 35.461-8.481 72.129-47.165 79.025-23.064 4.098-42.323-9.896-55.374-40.111 56.992-24.489 88.015-66.194 104.027-97.002 20.022-38.514 27.823-81.246 21.411-117.235-7.031-39.474-30.584-63.037-63-63.037-4.389 0-8.985.424-13.668 1.26-85.318 15.203-119.007 131.963-101.291 231.426 2.152 12.072 5.225 24.086 9.142 35.734-3.505.865-7.32 1.559-10.967 2.197-9.968 1.774-19.562 2.676-28.515 2.68-34.767 0-74.763-15.971-82.75-60.797-5.562-31.217 9.63-68.693 43.87-74.81 9.681-1.725 18.029-.965 28.322 2.668l1.562.554 8.572-29.638-1.384-.496c-10.925-3.928-22.433-4.87-34.081-2.795-26.979 4.806-48.405 18.558-61.965 39.765-12.175 19.047-16.792 43.221-12.677 66.321 3.943 22.132 15.628 42.148 32.907 56.371 26.494 21.812 65.277 29.465 109.937 21.506 5.454-.971 10.596-2.217 15.566-3.432 22.166 43.621 50.866 52.824 71.12 52.824 4.153 0 8.439-.387 12.739-1.156 22.908-4.084 39.956-14.211 50.762-30.139-.108 8.502-.148 16.697-.186 24.547-.303 63.031-.501 104.676-37.047 111.184-1.79.32-3.561.482-5.249.482-13.8.004-20.51-10.182-22.061-18.902-1.801-10.074 2.763-23.088 17.037-27.854l1.467-.492-11.012-34.154-1.369.275c-32.98 6.662-45.748 35.332-41.317 60.207 3.84 21.549 21.323 43.297 51.721 43.299h.006c3.992 0 8.162-.381 12.391-1.141 60.543-10.775 69.686-67.726 70.64-122.013.59-34.459-.437-61.994-1.052-78.446-.354-9.488-.588-15.755-.381-17.789l9.752-37.89zm-150.74 44.502c-2.097-6.969-3.99-15.244-5.768-25.229-14.155-79.422 3.591-196.894 64.65-207.781 1.411-.25 2.816-.381 4.184-.381 15.459 0 27.584 16.27 32.437 43.521 9.867 55.383-13.338 150.5-95.503 189.87z"/><path fill="#EFAD5F" d="M559.768 227.392l-34.527-8.311-.396 1.473c-2.724 10.131-4.082 21.65-5.517 33.844-4.171 35.461-8.481 72.129-47.164 79.025-23.066 4.098-42.324-9.896-55.375-40.111 56.992-24.489 88.015-66.194 104.028-97.002 20.021-38.514 27.822-81.244 21.41-117.235-7.031-39.474-30.584-63.037-63-63.037-4.389 0-8.985.422-13.668 1.26-85.32 15.202-119.008 131.962-101.292 231.425 2.153 12.072 5.225 24.086 9.143 35.734-3.505.865-7.321 1.559-10.968 2.197-9.966 1.774-19.562 2.676-28.513 2.68-34.769 0-74.764-15.971-82.752-60.793-5.561-31.221 9.631-68.697 43.872-74.812 9.68-1.725 18.028-.965 28.322 2.67l1.562.552 8.571-29.636-1.382-.497c-10.926-3.929-22.434-4.871-34.082-2.796-26.979 4.806-48.405 18.558-61.965 39.765-12.174 19.047-16.793 43.221-12.676 66.322 3.943 22.129 15.627 42.147 32.906 56.37 26.494 21.812 65.276 29.466 109.936 21.507 5.455-.972 10.596-2.216 15.567-3.433 22.165 43.623 50.866 52.822 71.119 52.822 4.154 0 8.44-.385 12.741-1.152 22.908-4.086 39.955-14.211 50.761-30.141-.108 8.502-.149 16.695-.188 24.547-.302 63.033-.5 104.676-37.046 111.184-1.79.318-3.56.48-5.249.48-13.801.004-20.51-10.18-22.061-18.9-1.8-10.073 2.761-23.088 17.035-27.854l1.469-.492-11.012-34.154-1.37.277c-32.979 6.662-45.746 35.33-41.317 60.205 3.841 21.551 21.323 43.297 51.723 43.299h.005c3.993 0 8.163-.381 12.391-1.141 60.541-10.775 69.684-67.726 70.64-122.013.588-34.459-.438-61.995-1.053-78.446-.354-9.486-.586-15.754-.38-17.787l9.752-37.895zm-156.507 19.277c-14.154-79.424 3.592-196.896 64.65-207.783 1.411-.25 2.815-.381 4.185-.381 15.459 0 27.582 16.271 32.435 43.521 9.867 55.384-13.336 150.5-95.501 189.869-2.097-6.968-3.992-15.244-5.769-25.226zM437.586 112.444h-147.038l7.772-16.972-12.013-17.179h155.507l-10.701 17.182z"/><path fill="#86201A" d="M293.663 110.444h141.021l-5.794-15.184 9.324-14.967h-148.069l10.469 14.97z"/><path fill="#EFAD5F" d="M429.742 84.062h-130.45l7.376 10.828-4.118 10.824h123.93l-3.627-10.824z"/><g fill="#86201A"><path d="M310.486 88.099h4.877l1.971 6.689 2.25-6.729h4.021l2.25 6.729 1.971-6.689h4.798l-4.558 14.036h-4.062l-2.449-6.928-2.449 6.928h-4.06l-4.56-14.036zM334.844 88.099h4.658v13.938h-4.658v-13.938zM342.994 88.099h4.362l4.957 6.152v-6.152h4.617v13.938h-4.137l-5.178-6.434v6.434h-4.621v-13.938zM360.397 88.099h4.358l4.959 6.152v-6.152h4.617v13.938h-4.141l-5.177-6.434v6.434h-4.616v-13.938zM377.815 88.099h4.659v13.938h-4.659v-13.938zM385.968 88.099h4.358l4.96 6.152v-6.152h4.617v13.938h-4.142l-5.176-6.434v6.434h-4.618l.001-13.938zM410.646 102.332c-1.089 0-2.105-.171-3.057-.52-.948-.343-1.778-.831-2.486-1.472-.711-.636-1.268-1.4-1.674-2.288-.404-.891-.606-1.872-.606-2.946v-.041c0-1.036.191-1.996.575-2.887.389-.892.925-1.657 1.613-2.309.689-.652 1.504-1.158 2.44-1.523s1.953-.548 3.057-.548c1.207 0 2.291.187 3.254.558.959.37 1.82.889 2.578 1.556l-2.608 3.143c-.465-.383-.952-.684-1.454-.894-.506-.212-1.046-.318-1.633-.318-.449 0-.868.083-1.253.246-.388.168-.719.396-.997.688-.278.293-.494.638-.647 1.036-.152.396-.228.833-.228 1.312v.039c0 .49.084.942.248 1.354.167.41.396.766.689 1.056.293.293.639.518 1.043.678.407.16.853.238 1.343.238.399 0 .72-.025.956-.078.24-.054.453-.135.64-.239v-1.396h-2.391v-2.965h6.748v6.435c-.757.623-1.652 1.126-2.687 1.511-1.035.383-2.189.574-3.463.574z"/></g></svg>