<svg version="1.2" baseProfile="tiny" xmlns="http://www.w3.org/2000/svg" width="153" height="153" viewBox="0 0 153 153"><path fill="#BE5F3A" d="M0 0h153v153h-153z"/><path fill="#B84F2D" d="M.001 6.755v5.666c4.01 0 7.3-3.358 7.3-7.555 0-2.663-1.27-3.473-1.425-4.866h-5.665c.094 2.703 1.538 3.341 1.538 4.866 0 1.049-.823 1.889-1.748 1.889zm76.501 0c-.927 0-1.749-.84-1.749-1.888 0-1.524 1.443-2.164 1.536-4.866h-5.666c-.152 1.393-1.422 2.203-1.422 4.866 0 4.197 3.289 7.555 7.3 7.555 4.008 0 7.301-3.358 7.301-7.555 0-2.663-1.27-3.472-1.426-4.866h-5.666c.094 2.703 1.539 3.341 1.539 4.866.001 1.048-.823 1.888-1.747 1.888zm9.443-6.754c-.166 1.394-1.527 2.203-1.527 4.866 0 4.197 3.291 7.555 7.301 7.555 4.113 0 7.402-3.358 7.402-7.555-.002-2.663-1.361-3.473-1.525-4.866h-5.562c.092 2.703 1.535 3.341 1.535 4.866 0 1.049-.82 1.888-1.85 1.888-.926 0-1.748-.84-1.748-1.888 0-1.524 1.445-2.164 1.537-4.866h-5.563zm15.217 0c-.152 1.394-1.424 2.203-1.424 4.866 0 4.197 3.289 7.555 7.301 7.555 4.113 0 7.404-3.358 7.404-7.555 0-2.663-1.361-3.472-1.527-4.866h-5.564c.094 2.703 1.539 3.341 1.539 4.866 0 1.049-.822 1.888-1.852 1.888-.926 0-1.746-.84-1.746-1.888 0-1.524 1.348-2.164 1.432-4.866h-5.563zm15.422 0c-.162 1.394-1.523 2.203-1.523 4.866 0 4.197 3.289 7.555 7.404 7.555 4.008 0 7.299-3.358 7.299-7.555 0-2.663-1.271-3.472-1.426-4.866h-5.562c.086 2.703 1.436 3.341 1.436 4.866 0 1.049-.824 1.888-1.748 1.888-1.027 0-1.852-.84-1.852-1.888 0-1.524 1.443-2.164 1.539-4.866h-5.567zm15.322 0c-.164 1.394-1.527 2.203-1.527 4.866 0 4.197 3.291 7.555 7.404 7.555 4.01 0 7.299-3.358 7.299-7.555 0-2.663-1.359-3.472-1.523-4.866h-5.564c.094 2.703 1.539 3.341 1.539 4.866 0 1.049-.822 1.888-1.75 1.888-1.027 0-1.85-.84-1.85-1.888 0-1.524 1.445-2.164 1.537-4.866h-5.565zm15.219 0c-.154 1.394-1.426 2.203-1.426 4.866 0 4.197 3.291 7.555 7.301 7.555v-5.667c-.926 0-1.748-.84-1.748-1.888 0-1.524 1.445-2.164 1.537-4.866h-5.664zm-70.623 25.629c-.927 0-1.749-.839-1.749-1.888 0-1.575 1.543-2.205 1.543-5.143 0-4.093-3.291-7.45-7.405-7.45-4.113 0-7.402 3.357-7.402 7.45 0 2.938 1.542 3.568 1.542 5.143 0 1.05-.823 1.888-1.749 1.888-1.028 0-1.851-.839-1.851-1.888 0-1.575 1.543-2.205 1.543-5.143 0-4.093-3.292-7.45-7.404-7.45-4.009 0-7.3 3.357-7.3 7.45 0 2.938 1.439 3.568 1.439 5.143 0 1.05-.821 1.888-1.748 1.888-1.027 0-1.85-.839-1.85-1.888 0-1.575 1.542-2.205 1.542-5.143 0-4.093-3.29-7.45-7.404-7.45-4.113 0-7.403 3.357-7.403 7.45 0 2.938 1.543 3.568 1.543 5.143 0 1.05-.824 1.888-1.851 1.888-.927 0-1.748-.839-1.748-1.888 0-1.575 1.439-2.205 1.439-5.143 0-4.093-3.292-7.45-7.3-7.45-4.115 0-7.404 3.357-7.404 7.45 0 2.938 1.542 3.568 1.542 5.143 0 1.05-.821 1.888-1.849 1.888-.926 0-1.749-.839-1.749-1.888 0-1.575 1.542-2.205 1.542-5.143 0-4.093-3.29-7.45-7.402-7.45-4.113 0-7.405 3.357-7.405 7.45 0 2.938 1.543 3.568 1.543 5.143 0 1.05-.823 1.888-1.748 1.888v5.667c4.01 0 7.3-3.359 7.3-7.557 0-2.834-1.438-3.568-1.438-5.143 0-.944.72-1.783 1.748-1.783s1.85.839 1.85 1.783c0 1.575-1.542 2.309-1.542 5.143 0 4.198 3.29 7.557 7.301 7.557 4.111 0 7.404-3.359 7.404-7.557 0-2.834-1.544-3.568-1.544-5.143 0-.944.824-1.783 1.852-1.783.925 0 1.748.839 1.748 1.783 0 1.575-1.439 2.309-1.439 5.143 0 4.198 3.291 7.557 7.3 7.557 4.113 0 7.402-3.359 7.402-7.557 0-2.834-1.542-3.568-1.542-5.143 0-.944.821-1.783 1.85-1.783 1.028 0 1.85.839 1.85 1.783 0 1.575-1.542 2.309-1.542 5.143 0 4.198 3.291 7.557 7.403 7.557 4.01 0 7.3-3.359 7.3-7.557 0-2.834-1.438-3.568-1.438-5.143 0-.944.822-1.783 1.747-1.783 1.027 0 1.851.839 1.851 1.783 0 1.575-1.542 2.309-1.542 5.143 0 4.198 3.29 7.557 7.404 7.557 4.011 0 7.301-3.359 7.301-7.557 0-2.834-1.542-3.568-1.542-5.143 0-.944.822-1.783 1.849-1.783 1.028 0 1.749.839 1.749 1.783 0 1.575-1.438 2.309-1.438 5.143 0 4.198 3.289 7.557 7.301 7.557 4.008 0 7.299-3.359 7.299-7.557 0-2.834-1.439-3.568-1.439-5.143 0-.944.721-1.783 1.748-1.783s1.852.839 1.852 1.783c0 1.575-1.543 2.309-1.543 5.143 0 4.198 3.291 7.557 7.299 7.557 4.113 0 7.402-3.359 7.402-7.557 0-2.834-1.541-3.568-1.541-5.143 0-.944.822-1.783 1.85-1.783.928 0 1.75.839 1.75 1.783 0 1.575-1.439 2.309-1.439 5.143 0 4.198 3.289 7.557 7.301 7.557 4.113 0 7.404-3.359 7.404-7.557 0-2.834-1.543-3.568-1.543-5.143 0-.944.822-1.783 1.85-1.783s1.852.839 1.852 1.783c0 1.575-1.543 2.309-1.543 5.143 0 4.198 3.291 7.557 7.404 7.557 4.01 0 7.301-3.359 7.301-7.557 0-2.834-1.441-3.568-1.441-5.143 0-.944.824-1.783 1.748-1.783 1.029 0 1.852.839 1.852 1.783 0 1.575-1.543 2.309-1.543 5.143 0 4.198 3.291 7.557 7.402 7.557 4.012 0 7.301-3.359 7.301-7.557 0-2.834-1.541-3.568-1.541-5.143 0-.944.822-1.783 1.85-1.783 1.029 0 1.75.839 1.75 1.783 0 1.575-1.441 2.309-1.441 5.143 0 4.198 3.291 7.557 7.301 7.557v-5.667c-.926 0-1.748-.839-1.748-1.888 0-1.575 1.541-2.205 1.541-5.143 0-4.093-3.287-7.45-7.402-7.45-4.113 0-7.402 3.357-7.402 7.45 0 2.938 1.543 3.568 1.543 5.143 0 1.05-.822 1.888-1.75 1.888-1.027 0-1.85-.839-1.85-1.888 0-1.575 1.541-2.205 1.541-5.143 0-4.093-3.289-7.45-7.402-7.45-4.01 0-7.301 3.357-7.301 7.45 0 2.938 1.441 3.568 1.441 5.143 0 1.05-.826 1.888-1.748 1.888-1.029 0-1.852-.839-1.852-1.888 0-1.575 1.543-2.205 1.543-5.143 0-4.093-3.291-7.45-7.406-7.45-4.111 0-7.402 3.357-7.402 7.45 0 2.938 1.543 3.568 1.543 5.143 0 1.05-.822 1.888-1.852 1.888-.926 0-1.746-.839-1.746-1.888 0-1.575 1.436-2.205 1.436-5.143 0-4.093-3.287-7.45-7.299-7.45-4.113 0-7.402 3.357-7.402 7.45 0 2.938 1.541 3.568 1.541 5.143 0 1.05-.82 1.888-1.85 1.888-.926 0-1.748-.839-1.748-1.888 0-1.575 1.543-2.205 1.543-5.143 0-4.093-3.291-7.45-7.404-7.45s-7.404 3.357-7.404 7.45c0 2.938 1.543 3.568 1.543 5.143-.001 1.049-.825 1.888-1.749 1.888zm0 19.117c-.927 0-1.749-.84-1.749-1.889 0-1.575 1.543-2.204 1.543-5.143 0-4.092-3.291-7.45-7.405-7.45-4.113 0-7.402 3.358-7.402 7.45 0 2.939 1.542 3.568 1.542 5.143 0 1.049-.823 1.889-1.749 1.889-1.028 0-1.851-.84-1.851-1.889 0-1.575 1.543-2.204 1.543-5.143 0-4.092-3.292-7.45-7.404-7.45-4.009 0-7.3 3.358-7.3 7.45 0 2.939 1.439 3.568 1.439 5.143 0 1.049-.821 1.889-1.748 1.889-1.027 0-1.85-.84-1.85-1.889 0-1.575 1.542-2.204 1.542-5.143 0-4.092-3.29-7.45-7.404-7.45-4.113 0-7.403 3.358-7.403 7.45 0 2.939 1.543 3.568 1.543 5.143 0 1.049-.824 1.889-1.851 1.889-.927 0-1.748-.84-1.748-1.889 0-1.575 1.439-2.204 1.439-5.143 0-4.092-3.292-7.45-7.3-7.45-4.115 0-7.404 3.358-7.404 7.45 0 2.939 1.542 3.568 1.542 5.143 0 1.049-.821 1.889-1.849 1.889-.926 0-1.749-.84-1.749-1.889 0-1.575 1.542-2.204 1.542-5.143 0-4.092-3.29-7.45-7.402-7.45-4.113 0-7.405 3.358-7.405 7.45 0 2.939 1.543 3.568 1.543 5.143 0 1.049-.823 1.889-1.748 1.889v5.666c4.01 0 7.3-3.358 7.3-7.555 0-2.834-1.438-3.569-1.438-5.143 0-.943.72-1.784 1.748-1.784s1.85.84 1.85 1.784c0 1.574-1.542 2.309-1.542 5.143 0 4.197 3.29 7.555 7.301 7.555 4.111 0 7.404-3.358 7.404-7.555 0-2.834-1.544-3.569-1.544-5.143 0-.943.824-1.784 1.852-1.784.925 0 1.748.84 1.748 1.784 0 1.574-1.439 2.309-1.439 5.143 0 4.197 3.291 7.555 7.3 7.555 4.113 0 7.402-3.358 7.402-7.555 0-2.834-1.542-3.569-1.542-5.143 0-.943.821-1.784 1.85-1.784 1.028 0 1.85.84 1.85 1.784 0 1.574-1.542 2.309-1.542 5.143 0 4.197 3.291 7.555 7.403 7.555 4.01 0 7.3-3.358 7.3-7.555 0-2.834-1.438-3.569-1.438-5.143 0-.943.822-1.784 1.747-1.784 1.027 0 1.851.84 1.851 1.784 0 1.574-1.542 2.309-1.542 5.143 0 4.197 3.29 7.555 7.404 7.555 4.011 0 7.301-3.358 7.301-7.555 0-2.834-1.542-3.569-1.542-5.143 0-.943.822-1.784 1.849-1.784 1.028 0 1.749.84 1.749 1.784 0 1.574-1.438 2.309-1.438 5.143 0 4.197 3.289 7.555 7.301 7.555v.001c4.008 0 7.299-3.359 7.299-7.556 0-2.834-1.439-3.569-1.439-5.143 0-.943.721-1.784 1.748-1.784s1.852.84 1.852 1.784c0 1.574-1.543 2.309-1.543 5.143 0 4.197 3.291 7.556 7.299 7.556 4.113 0 7.402-3.359 7.402-7.556 0-2.834-1.541-3.569-1.541-5.143 0-.943.822-1.784 1.85-1.784.928 0 1.75.84 1.75 1.784 0 1.574-1.439 2.309-1.439 5.143 0 4.197 3.289 7.556 7.301 7.556 4.113 0 7.404-3.359 7.404-7.556 0-2.834-1.543-3.569-1.543-5.143 0-.943.822-1.784 1.85-1.784s1.852.84 1.852 1.784c0 1.574-1.543 2.309-1.543 5.143 0 4.197 3.291 7.556 7.404 7.556 4.01 0 7.301-3.359 7.301-7.556 0-2.834-1.441-3.569-1.441-5.143 0-.943.824-1.784 1.748-1.784 1.029 0 1.852.84 1.852 1.784 0 1.574-1.543 2.309-1.543 5.143 0 4.197 3.291 7.556 7.402 7.556 4.012 0 7.301-3.359 7.301-7.556 0-2.834-1.541-3.569-1.541-5.143 0-.943.822-1.784 1.85-1.784 1.029 0 1.75.84 1.75 1.784 0 1.574-1.441 2.309-1.441 5.143 0 4.197 3.291 7.555 7.301 7.556v-5.667c-.926 0-1.748-.84-1.748-1.889 0-1.575 1.541-2.204 1.541-5.143 0-4.092-3.287-7.45-7.402-7.45-4.113 0-7.402 3.358-7.402 7.45 0 2.939 1.543 3.568 1.543 5.143 0 1.049-.822 1.889-1.75 1.889-1.027 0-1.85-.84-1.85-1.889 0-1.575 1.541-2.204 1.541-5.143 0-4.092-3.289-7.45-7.402-7.45-4.01 0-7.301 3.358-7.301 7.45 0 2.939 1.441 3.568 1.441 5.143 0 1.049-.826 1.889-1.748 1.889-1.029 0-1.852-.84-1.852-1.889 0-1.575 1.543-2.204 1.543-5.143 0-4.092-3.291-7.45-7.406-7.45-4.111 0-7.402 3.358-7.402 7.45 0 2.939 1.543 3.568 1.543 5.143 0 1.049-.822 1.889-1.852 1.889-.926 0-1.746-.84-1.746-1.889 0-1.575 1.436-2.204 1.436-5.143 0-4.092-3.287-7.45-7.299-7.45-4.113 0-7.402 3.358-7.402 7.45 0 2.939 1.541 3.568 1.541 5.143 0 1.049-.82 1.889-1.85 1.889-.926 0-1.748-.84-1.748-1.889 0-1.575 1.543-2.204 1.543-5.143 0-4.092-3.291-7.45-7.404-7.45s-7.404 3.358-7.404 7.45c0 2.939 1.543 3.568 1.543 5.143-.001 1.049-.825 1.889-1.749 1.889zm0 18.876c-.927 0-1.749-.841-1.749-1.89 0-1.573 1.543-2.204 1.543-5.142 0-4.094-3.291-7.451-7.405-7.451-4.113 0-7.402 3.357-7.402 7.451 0 2.938 1.542 3.568 1.542 5.142 0 1.051-.823 1.89-1.749 1.89-1.028 0-1.851-.84-1.851-1.89 0-1.573 1.543-2.204 1.543-5.142 0-4.094-3.292-7.451-7.404-7.451-4.009 0-7.3 3.357-7.3 7.451 0 2.938 1.439 3.568 1.439 5.142 0 1.051-.821 1.89-1.748 1.89-1.027 0-1.85-.84-1.85-1.89 0-1.573 1.542-2.204 1.542-5.142 0-4.094-3.29-7.451-7.404-7.451-4.113 0-7.403 3.357-7.403 7.451 0 2.938 1.543 3.568 1.543 5.142 0 1.051-.824 1.89-1.851 1.89-.927 0-1.748-.84-1.748-1.89 0-1.573 1.439-2.204 1.439-5.142 0-4.094-3.292-7.451-7.3-7.451-4.115 0-7.404 3.357-7.404 7.451 0 2.938 1.542 3.568 1.542 5.142 0 1.051-.821 1.89-1.849 1.89-.926 0-1.749-.84-1.749-1.89 0-1.573 1.542-2.204 1.542-5.142 0-4.094-3.29-7.451-7.402-7.451-4.113 0-7.405 3.357-7.405 7.451 0 2.938 1.543 3.568 1.543 5.142 0 1.051-.823 1.89-1.748 1.89v5.666c4.01 0 7.3-3.357 7.3-7.557 0-2.832-1.438-3.568-1.438-5.142 0-.944.72-1.785 1.748-1.785s1.85.841 1.85 1.785c0 1.573-1.542 2.31-1.542 5.142 0 4.199 3.29 7.557 7.301 7.557 4.111 0 7.404-3.357 7.404-7.557 0-2.832-1.544-3.568-1.544-5.142 0-.944.824-1.785 1.852-1.785.925 0 1.748.841 1.748 1.785 0 1.573-1.439 2.31-1.439 5.142 0 4.199 3.291 7.557 7.3 7.557 4.113 0 7.402-3.357 7.402-7.557 0-2.832-1.542-3.568-1.542-5.142 0-.944.821-1.785 1.85-1.785 1.028 0 1.85.841 1.85 1.785 0 1.573-1.542 2.31-1.542 5.142 0 4.199 3.291 7.557 7.403 7.557 4.01 0 7.3-3.357 7.3-7.557 0-2.832-1.438-3.568-1.438-5.142 0-.944.822-1.785 1.747-1.785 1.027 0 1.851.841 1.851 1.785 0 1.573-1.542 2.31-1.542 5.142 0 4.199 3.29 7.557 7.404 7.557 4.011 0 7.301-3.357 7.301-7.557 0-2.832-1.542-3.568-1.542-5.142 0-.944.822-1.785 1.849-1.785 1.028 0 1.749.841 1.749 1.785 0 1.573-1.438 2.31-1.438 5.142 0 4.199 3.289 7.557 7.301 7.557 4.008 0 7.299-3.357 7.299-7.557 0-2.832-1.439-3.568-1.439-5.142 0-.944.721-1.785 1.748-1.785s1.852.841 1.852 1.785c0 1.573-1.543 2.31-1.543 5.142 0 4.199 3.291 7.557 7.299 7.557 4.113 0 7.402-3.357 7.402-7.557 0-2.832-1.541-3.568-1.541-5.142 0-.944.822-1.785 1.85-1.785.928 0 1.75.841 1.75 1.785 0 1.573-1.439 2.31-1.439 5.142 0 4.199 3.289 7.557 7.301 7.557 4.113 0 7.404-3.357 7.404-7.557 0-2.832-1.543-3.568-1.543-5.142 0-.944.822-1.785 1.85-1.785s1.852.841 1.852 1.785c0 1.573-1.543 2.31-1.543 5.142 0 4.199 3.291 7.557 7.404 7.557 4.01 0 7.301-3.357 7.301-7.557 0-2.832-1.441-3.568-1.441-5.142 0-.944.824-1.785 1.748-1.785 1.029 0 1.852.841 1.852 1.785 0 1.573-1.543 2.31-1.543 5.142 0 4.199 3.291 7.557 7.402 7.557 4.012 0 7.301-3.357 7.301-7.557 0-2.832-1.541-3.568-1.541-5.142 0-.944.822-1.785 1.85-1.785 1.029 0 1.75.841 1.75 1.785 0 1.573-1.441 2.31-1.441 5.142 0 4.199 3.291 7.557 7.301 7.557v-5.666c-.926 0-1.748-.841-1.748-1.89 0-1.573 1.541-2.204 1.541-5.142 0-4.094-3.287-7.451-7.402-7.451-4.113 0-7.402 3.357-7.402 7.451 0 2.938 1.543 3.568 1.543 5.142 0 1.051-.822 1.89-1.75 1.89-1.027 0-1.85-.84-1.85-1.89 0-1.573 1.541-2.204 1.541-5.142 0-4.094-3.289-7.451-7.402-7.451-4.01 0-7.301 3.357-7.301 7.451 0 2.938 1.441 3.568 1.441 5.142 0 1.051-.826 1.89-1.748 1.89-1.029 0-1.852-.84-1.852-1.89 0-1.573 1.543-2.204 1.543-5.142 0-4.094-3.291-7.451-7.406-7.451-4.111 0-7.402 3.357-7.402 7.451 0 2.938 1.543 3.568 1.543 5.142 0 1.051-.822 1.89-1.852 1.89-.926 0-1.746-.84-1.746-1.89 0-1.573 1.436-2.204 1.436-5.142 0-4.094-3.287-7.451-7.299-7.451-4.113 0-7.402 3.357-7.402 7.451 0 2.938 1.541 3.568 1.541 5.142 0 1.051-.82 1.89-1.85 1.89-.926 0-1.748-.84-1.748-1.89 0-1.573 1.543-2.204 1.543-5.142 0-4.094-3.291-7.451-7.404-7.451s-7.404 3.357-7.404 7.451c0 2.938 1.543 3.568 1.543 5.142-.001 1.05-.825 1.89-1.749 1.89zm5.984 12.877c-.078-.247-.125-.506-.125-.793 0-.943.721-1.783 1.748-1.783s1.852.84 1.852 1.783c0 .287-.051.547-.137.793h.119c-.164 1.395-1.525 2.205-1.525 4.867 0 4.197 3.291 7.557 7.299 7.557 4.113 0 7.402-3.359 7.402-7.557 0-2.662-1.359-3.471-1.523-4.867h.119c-.084-.247-.137-.506-.137-.793 0-.943.822-1.783 1.85-1.783.928 0 1.75.84 1.75 1.783 0 .287-.049.547-.125.793h.109c-.154 1.395-1.426 2.205-1.426 4.867 0 4.197 3.291 7.557 7.301 7.557 4.113 0 7.404-3.359 7.404-7.557 0-2.662-1.361-3.471-1.525-4.867h.117c-.082-.247-.133-.506-.133-.793 0-.943.82-1.783 1.848-1.783 1.029 0 1.852.84 1.852 1.783 0 .287-.051.547-.137.793h.119c-.162 1.395-1.523 2.205-1.523 4.867 0 4.197 3.289 7.557 7.404 7.557 4.008 0 7.299-3.359 7.299-7.557 0-2.662-1.271-3.471-1.426-4.867h.111c-.078-.247-.127-.506-.127-.793 0-.943.824-1.783 1.748-1.783 1.029 0 1.852.84 1.852 1.783 0 .287-.053.547-.135.793h.119c-.166 1.395-1.527 2.205-1.527 4.867 0 4.197 3.291 7.557 7.402 7.557 4.012 0 7.301-3.359 7.301-7.557 0-2.662-1.361-3.471-1.525-4.867h.119c-.082-.247-.135-.506-.135-.793 0-.943.822-1.783 1.85-1.783 1.029 0 1.75.84 1.75 1.783 0 .287-.049.547-.127.793h.109c-.152 1.395-1.424 2.205-1.424 4.867 0 4.197 3.289 7.557 7.299 7.557v-5.668c-.924 0-1.748-.84-1.748-1.889 0-1.523 1.445-2.162 1.539-4.867h-.035c.025-.243.037-.508.037-.793 0-4.092-3.287-7.449-7.4-7.449s-7.404 3.357-7.404 7.449c0 .285.016.551.043.793h-.039c.094 2.705 1.539 3.344 1.539 4.867 0 1.049-.822 1.889-1.75 1.889-1.025 0-1.85-.84-1.85-1.889 0-1.523 1.445-2.162 1.537-4.867h-.035c.025-.243.041-.508.041-.793 0-4.092-3.291-7.449-7.404-7.449-4.01 0-7.299 3.357-7.299 7.449 0 .285.014.551.039.793h-.035c.086 2.705 1.436 3.344 1.436 4.867 0 1.049-.824 1.889-1.748 1.889-1.027 0-1.852-.84-1.852-1.889 0-1.523 1.445-2.162 1.537-4.867h-.035c.025-.243.041-.508.041-.793 0-4.092-3.291-7.449-7.404-7.449s-7.402 3.357-7.402 7.449c0 .285.012.551.039.793h-.035c.094 2.705 1.537 3.344 1.537 4.867 0 1.049-.822 1.889-1.85 1.889-.926 0-1.748-.84-1.748-1.889 0-1.523 1.348-2.162 1.434-4.867h-.033c.023-.243.037-.508.037-.793 0-4.092-3.289-7.449-7.301-7.449-4.111 0-7.402 3.357-7.402 7.449 0 .285.016.551.043.793h-.037c.094 2.705 1.535 3.344 1.535 4.867 0 1.049-.82 1.889-1.85 1.889-.924 0-1.746-.84-1.746-1.889 0-1.523 1.443-2.162 1.537-4.867h-.037c.025-.243.041-.508.041-.793 0-4.092-3.289-7.449-7.404-7.449-4.111 0-7.402 3.357-7.402 7.449 0 .285.014.551.041.793h-.037c.094 2.705 1.539 3.344 1.539 4.867 0 1.049-.822 1.889-1.749 1.889-.926 0-1.748-.84-1.748-1.889 0-1.523 1.443-2.162 1.536-4.867h-.036c.027-.243.042-.508.042-.793 0-4.092-3.29-7.449-7.405-7.449-4.112 0-7.402 3.357-7.402 7.449 0 .285.014.551.041.793h-.035c.093 2.705 1.538 3.344 1.538 4.867 0 1.049-.824 1.889-1.75 1.889-1.027 0-1.851-.84-1.851-1.889 0-1.523 1.444-2.162 1.538-4.867h-.036c.027-.243.042-.508.042-.793 0-4.092-3.292-7.449-7.405-7.449-4.009 0-7.3 3.357-7.3 7.449 0 .285.015.551.039.793h-.035c.088 2.705 1.435 3.344 1.435 4.867 0 1.049-.821 1.889-1.748 1.889-1.027 0-1.85-.84-1.85-1.889 0-1.523 1.444-2.162 1.537-4.867h-.036c.026-.243.041-.508.041-.793 0-4.092-3.29-7.449-7.403-7.449s-7.404 3.357-7.404 7.449c0 .285.015.551.041.793h-.036c.093 2.705 1.537 3.344 1.537 4.867 0 1.049-.822 1.889-1.85 1.889-.927 0-1.748-.84-1.748-1.889 0-1.523 1.348-2.162 1.435-4.867h-.034c.024-.243.038-.508.038-.793 0-4.092-3.291-7.449-7.3-7.449-4.114 0-7.404 3.357-7.404 7.449 0 .285.017.551.042.793h-.035c.092 2.705 1.536 3.344 1.536 4.867 0 1.049-.821 1.889-1.849 1.889-.925 0-1.749-.84-1.749-1.889 0-1.523 1.444-2.162 1.537-4.867h-.034c.024-.243.039-.508.039-.793 0-4.092-3.29-7.449-7.402-7.449-4.114 0-7.405 3.357-7.405 7.449 0 .285.016.551.041.793h-.031c.094 2.705 1.538 3.344 1.538 4.867 0 1.049-.823 1.889-1.748 1.889v5.666c4.01 0 7.3-3.357 7.3-7.555 0-2.664-1.27-3.473-1.425-4.868h.11c-.076-.248-.125-.506-.125-.793 0-.943.72-1.784 1.748-1.784s1.85.841 1.85 1.784c0 .287-.051.545-.134.793h.118c-.166 1.395-1.526 2.204-1.526 4.868 0 4.197 3.29 7.555 7.301 7.555 4.111 0 7.404-3.357 7.404-7.555 0-2.664-1.362-3.473-1.526-4.868h.118c-.083-.248-.136-.506-.136-.793 0-.943.824-1.784 1.852-1.784.925 0 1.748.841 1.748 1.784 0 .287-.049.545-.126.793h.11c-.153 1.395-1.424 2.204-1.424 4.868 0 4.197 3.291 7.555 7.3 7.555 4.113 0 7.402-3.357 7.402-7.555 0-2.664-1.36-3.473-1.526-4.868h.12c-.085-.248-.135-.506-.135-.793 0-.943.821-1.784 1.851-1.784 1.027 0 1.849.841 1.849 1.784 0 .287-.049.545-.134.793h.118c-.165 1.395-1.525 2.204-1.525 4.868 0 4.197 3.291 7.555 7.403 7.555 4.01 0 7.3-3.357 7.3-7.555 0-2.664-1.269-3.473-1.425-4.868h.112c-.08-.248-.126-.506-.126-.793 0-.943.822-1.784 1.747-1.784 1.027 0 1.851.841 1.851 1.784 0 .287-.051.545-.135.793h.119c-.165 1.395-1.526 2.204-1.526 4.868 0 4.197 3.29 7.555 7.404 7.555 4.011 0 7.301-3.357 7.301-7.555 0-2.664-1.361-3.473-1.526-4.868h.118c-.083-.248-.134-.506-.134-.793 0-.943.822-1.784 1.849-1.784 1.028 0 1.749.841 1.749 1.784 0 .287-.049.545-.126.793h.109c-.152 1.395-1.423 2.204-1.423 4.868 0 4.197 3.29 7.555 7.3 7.555 4.008 0 7.299-3.357 7.299-7.555 0-2.664-1.268-3.473-1.424-4.868l.112.001zm-5.984 25.631c-.927 0-1.749-.84-1.749-1.889 0-1.574 1.543-2.203 1.543-5.143 0-4.092-3.291-7.451-7.405-7.451-4.113 0-7.402 3.359-7.402 7.451 0 2.939 1.542 3.568 1.542 5.143 0 1.049-.823 1.889-1.749 1.889-1.028 0-1.851-.84-1.851-1.889 0-1.574 1.543-2.203 1.543-5.143 0-4.092-3.292-7.451-7.404-7.451-4.009 0-7.3 3.359-7.3 7.451 0 2.939 1.439 3.568 1.439 5.143 0 1.049-.821 1.889-1.748 1.889-1.027 0-1.85-.84-1.85-1.889 0-1.574 1.542-2.203 1.542-5.143 0-4.092-3.29-7.451-7.404-7.451-4.113 0-7.403 3.359-7.403 7.451 0 2.939 1.542 3.568 1.542 5.143 0 1.049-.823 1.889-1.85 1.889-.927 0-1.748-.84-1.748-1.889 0-1.574 1.439-2.203 1.439-5.143 0-4.092-3.292-7.451-7.3-7.451-4.115 0-7.404 3.359-7.404 7.451 0 2.939 1.542 3.568 1.542 5.143 0 1.049-.821 1.889-1.849 1.889-.926 0-1.749-.84-1.749-1.889 0-1.574 1.542-2.203 1.542-5.143 0-4.092-3.29-7.451-7.402-7.451-4.113 0-7.405 3.359-7.405 7.451 0 2.939 1.543 3.568 1.543 5.143 0 1.049-.823 1.889-1.748 1.889v5.666c4.01 0 7.3-3.357 7.3-7.557 0-2.834-1.438-3.568-1.438-5.141 0-.945.72-1.785 1.748-1.785s1.85.84 1.85 1.785c0 1.572-1.542 2.307-1.542 5.141 0 4.199 3.29 7.557 7.301 7.557 4.111 0 7.404-3.357 7.404-7.557 0-2.834-1.544-3.568-1.544-5.141 0-.945.824-1.785 1.852-1.785.925 0 1.748.84 1.748 1.785 0 1.572-1.439 2.307-1.439 5.141 0 4.199 3.291 7.557 7.3 7.557 4.113 0 7.402-3.357 7.402-7.557 0-2.834-1.542-3.568-1.542-5.141 0-.945.821-1.785 1.85-1.785 1.028 0 1.85.84 1.85 1.785 0 1.572-1.542 2.307-1.542 5.141 0 4.199 3.291 7.557 7.403 7.557 4.01 0 7.3-3.357 7.3-7.557 0-2.834-1.438-3.568-1.438-5.141 0-.945.822-1.785 1.747-1.785 1.027 0 1.851.84 1.851 1.785 0 1.572-1.542 2.307-1.542 5.141 0 4.199 3.29 7.557 7.404 7.557 4.011 0 7.301-3.357 7.301-7.557 0-2.834-1.542-3.568-1.542-5.141 0-.945.822-1.785 1.849-1.785 1.028 0 1.749.84 1.749 1.785 0 1.572-1.438 2.307-1.438 5.141 0 4.199 3.289 7.557 7.301 7.557 4.008 0 7.299-3.357 7.299-7.557 0-2.834-1.439-3.568-1.439-5.141 0-.945.721-1.785 1.748-1.785s1.852.84 1.852 1.785c0 1.572-1.543 2.307-1.543 5.141 0 4.199 3.291 7.557 7.299 7.557 4.113 0 7.402-3.357 7.402-7.557 0-2.834-1.541-3.568-1.541-5.141 0-.945.822-1.785 1.85-1.785.928 0 1.75.84 1.75 1.785 0 1.572-1.439 2.307-1.439 5.141 0 4.199 3.289 7.557 7.301 7.557 4.113 0 7.404-3.357 7.404-7.557 0-2.834-1.543-3.568-1.543-5.141 0-.945.822-1.785 1.85-1.785s1.852.84 1.852 1.785c0 1.572-1.543 2.307-1.543 5.141 0 4.199 3.291 7.557 7.404 7.557 4.01 0 7.301-3.357 7.301-7.557 0-2.834-1.441-3.568-1.441-5.141 0-.945.824-1.785 1.748-1.785 1.029 0 1.852.84 1.852 1.785 0 1.572-1.543 2.307-1.543 5.141 0 4.199 3.291 7.557 7.402 7.557 4.012 0 7.301-3.357 7.301-7.557 0-2.834-1.541-3.568-1.541-5.141 0-.945.822-1.785 1.85-1.785 1.029 0 1.75.84 1.75 1.785 0 1.572-1.441 2.307-1.441 5.141 0 4.199 3.291 7.557 7.301 7.557v-5.666c-.926 0-1.748-.84-1.748-1.889 0-1.574 1.541-2.203 1.541-5.143 0-4.092-3.287-7.451-7.402-7.451-4.113 0-7.402 3.359-7.402 7.451 0 2.939 1.543 3.568 1.543 5.143 0 1.049-.822 1.889-1.75 1.889-1.027 0-1.85-.84-1.85-1.889 0-1.574 1.541-2.203 1.541-5.143 0-4.092-3.289-7.451-7.402-7.451-4.01 0-7.301 3.359-7.301 7.451 0 2.939 1.441 3.568 1.441 5.143 0 1.049-.826 1.889-1.748 1.889-1.029 0-1.852-.84-1.852-1.889 0-1.574 1.543-2.203 1.543-5.143 0-4.092-3.291-7.451-7.406-7.451-4.111 0-7.402 3.359-7.402 7.451 0 2.939 1.543 3.568 1.543 5.143 0 1.049-.822 1.889-1.852 1.889-.926 0-1.746-.84-1.746-1.889 0-1.574 1.436-2.203 1.436-5.143 0-4.092-3.287-7.451-7.299-7.451-4.113 0-7.402 3.359-7.402 7.451 0 2.939 1.541 3.568 1.541 5.143 0 1.049-.82 1.889-1.85 1.889-.926 0-1.748-.84-1.748-1.889 0-1.574 1.543-2.203 1.543-5.143 0-4.092-3.291-7.451-7.404-7.451s-7.404 3.359-7.404 7.451c0 2.939 1.543 3.568 1.543 5.143-.001 1.049-.825 1.889-1.749 1.889zm0 19.115c-.927 0-1.749-.84-1.749-1.887 0-1.576 1.543-2.205 1.543-5.143 0-4.094-3.291-7.451-7.405-7.451-4.113 0-7.402 3.357-7.402 7.451 0 2.938 1.542 3.566 1.542 5.143 0 1.049-.823 1.887-1.749 1.887-1.028 0-1.851-.84-1.851-1.887 0-1.576 1.543-2.205 1.543-5.143 0-4.094-3.292-7.451-7.404-7.451-4.009 0-7.3 3.357-7.3 7.451 0 2.938 1.439 3.566 1.439 5.143 0 1.049-.821 1.887-1.748 1.887-1.027 0-1.85-.84-1.85-1.887 0-1.576 1.542-2.205 1.542-5.143 0-4.094-3.29-7.451-7.404-7.451-4.113 0-7.403 3.357-7.403 7.451 0 2.938 1.542 3.566 1.542 5.143 0 1.049-.823 1.887-1.85 1.887-.927 0-1.748-.84-1.748-1.887 0-1.576 1.439-2.205 1.439-5.143 0-4.094-3.292-7.451-7.3-7.451-4.115 0-7.404 3.357-7.404 7.451 0 2.938 1.542 3.566 1.542 5.143 0 1.049-.821 1.887-1.849 1.887-.926 0-1.749-.84-1.749-1.887 0-1.576 1.542-2.205 1.542-5.143 0-4.094-3.29-7.451-7.402-7.451-4.113 0-7.405 3.357-7.405 7.451 0 2.938 1.543 3.566 1.543 5.143 0 1.049-.823 1.887-1.748 1.887v5.666c4.01 0 7.3-3.357 7.3-7.555 0-2.834-1.438-3.568-1.438-5.143 0-.943.72-1.783 1.748-1.783s1.85.84 1.85 1.783c0 1.574-1.542 2.309-1.542 5.143 0 4.197 3.29 7.555 7.301 7.555 4.111 0 7.404-3.357 7.404-7.555 0-2.834-1.544-3.568-1.544-5.143 0-.943.824-1.783 1.852-1.783.925 0 1.748.84 1.748 1.783 0 1.574-1.439 2.309-1.439 5.143 0 4.197 3.291 7.555 7.3 7.555 4.113 0 7.402-3.357 7.402-7.555 0-2.834-1.542-3.568-1.542-5.143 0-.943.821-1.783 1.85-1.783 1.028 0 1.85.84 1.85 1.783 0 1.574-1.542 2.309-1.542 5.143 0 4.197 3.291 7.555 7.403 7.555 4.01 0 7.3-3.357 7.3-7.555 0-2.834-1.438-3.568-1.438-5.143 0-.943.822-1.783 1.747-1.783 1.027 0 1.851.84 1.851 1.783 0 1.574-1.542 2.309-1.542 5.143 0 4.197 3.29 7.555 7.404 7.555 4.011 0 7.301-3.357 7.301-7.555 0-2.834-1.542-3.568-1.542-5.143 0-.943.822-1.783 1.849-1.783 1.028 0 1.749.84 1.749 1.783 0 1.574-1.438 2.309-1.438 5.143 0 4.197 3.289 7.555 7.301 7.555 4.008 0 7.299-3.357 7.299-7.555 0-2.834-1.439-3.568-1.439-5.143 0-.943.721-1.783 1.748-1.783s1.852.84 1.852 1.783c0 1.574-1.543 2.309-1.543 5.143 0 4.197 3.291 7.555 7.299 7.555 4.113 0 7.402-3.357 7.402-7.555 0-2.834-1.541-3.568-1.541-5.143 0-.943.822-1.783 1.85-1.783.928 0 1.75.84 1.75 1.783 0 1.574-1.439 2.309-1.439 5.143 0 4.197 3.289 7.555 7.301 7.555 4.113 0 7.404-3.357 7.404-7.555 0-2.834-1.543-3.568-1.543-5.143 0-.943.822-1.783 1.85-1.783s1.852.84 1.852 1.783c0 1.574-1.543 2.309-1.543 5.143 0 4.197 3.291 7.555 7.404 7.555 4.01 0 7.301-3.357 7.301-7.555 0-2.834-1.441-3.568-1.441-5.143 0-.943.824-1.783 1.748-1.783 1.029 0 1.852.84 1.852 1.783 0 1.574-1.543 2.309-1.543 5.143 0 4.197 3.291 7.555 7.402 7.555 4.012 0 7.301-3.357 7.301-7.555 0-2.834-1.541-3.568-1.541-5.143 0-.943.822-1.783 1.85-1.783 1.029 0 1.75.84 1.75 1.783 0 1.574-1.441 2.309-1.441 5.143 0 4.197 3.291 7.555 7.301 7.555v-5.666c-.926 0-1.748-.84-1.748-1.887 0-1.576 1.541-2.205 1.541-5.143 0-4.094-3.287-7.451-7.402-7.451-4.113 0-7.402 3.357-7.402 7.451 0 2.938 1.543 3.566 1.543 5.143 0 1.049-.822 1.887-1.75 1.887-1.027 0-1.85-.84-1.85-1.887 0-1.576 1.541-2.205 1.541-5.143 0-4.094-3.289-7.451-7.402-7.451-4.01 0-7.301 3.357-7.301 7.451 0 2.938 1.441 3.566 1.441 5.143 0 1.049-.826 1.887-1.748 1.887-1.029 0-1.852-.84-1.852-1.887 0-1.576 1.543-2.205 1.543-5.143 0-4.094-3.291-7.451-7.406-7.451-4.111 0-7.402 3.357-7.402 7.451 0 2.938 1.543 3.566 1.543 5.143 0 1.049-.822 1.887-1.852 1.887-.926 0-1.746-.84-1.746-1.887 0-1.576 1.436-2.205 1.436-5.143 0-4.094-3.287-7.451-7.299-7.451-4.113 0-7.402 3.357-7.402 7.451 0 2.938 1.541 3.566 1.541 5.143 0 1.049-.82 1.887-1.85 1.887-.926 0-1.748-.84-1.748-1.887 0-1.576 1.543-2.205 1.543-5.143 0-4.094-3.291-7.451-7.404-7.451s-7.404 3.357-7.404 7.451c0 2.938 1.543 3.566 1.543 5.143-.001 1.047-.825 1.887-1.749 1.887zm0 18.875c-.927 0-1.749-.84-1.749-1.889 0-1.572 1.543-2.203 1.543-5.141 0-4.094-3.291-7.451-7.405-7.451-4.113 0-7.402 3.357-7.402 7.451 0 2.938 1.542 3.568 1.542 5.141 0 1.051-.823 1.889-1.749 1.889-1.028 0-1.851-.84-1.851-1.889 0-1.572 1.543-2.203 1.543-5.141 0-4.094-3.292-7.451-7.404-7.451-4.009 0-7.3 3.357-7.3 7.451 0 2.938 1.439 3.568 1.439 5.141 0 1.051-.821 1.889-1.748 1.889-1.027 0-1.85-.84-1.85-1.889 0-1.572 1.542-2.203 1.542-5.141 0-4.094-3.29-7.451-7.404-7.451-4.113 0-7.403 3.357-7.403 7.451 0 2.938 1.542 3.568 1.542 5.141 0 1.051-.823 1.889-1.85 1.889-.927 0-1.748-.84-1.748-1.889 0-1.572 1.439-2.203 1.439-5.141 0-4.094-3.292-7.451-7.3-7.451-4.115 0-7.404 3.357-7.404 7.451 0 2.938 1.542 3.568 1.542 5.141 0 1.051-.821 1.889-1.849 1.889-.926 0-1.749-.84-1.749-1.889 0-1.572 1.542-2.203 1.542-5.141 0-4.094-3.29-7.451-7.402-7.451-4.113 0-7.405 3.357-7.405 7.451 0 2.938 1.543 3.568 1.543 5.141 0 1.051-.823 1.889-1.748 1.889v5.668c4.01 0 7.3-3.359 7.3-7.557 0-2.834-1.438-3.568-1.438-5.143 0-.943.72-1.783 1.748-1.783s1.85.84 1.85 1.783c0 1.574-1.542 2.309-1.542 5.143 0 4.197 3.29 7.557 7.301 7.557 4.111 0 7.404-3.359 7.404-7.557 0-2.834-1.544-3.568-1.544-5.143 0-.943.824-1.783 1.852-1.783.925 0 1.748.84 1.748 1.783 0 1.574-1.439 2.309-1.439 5.143 0 4.197 3.291 7.557 7.3 7.557 4.113 0 7.402-3.359 7.402-7.557 0-2.834-1.542-3.568-1.542-5.143 0-.943.821-1.783 1.85-1.783 1.028 0 1.85.84 1.85 1.783 0 1.574-1.542 2.309-1.542 5.143 0 4.197 3.291 7.557 7.403 7.557 4.01 0 7.3-3.359 7.3-7.557 0-2.834-1.438-3.568-1.438-5.143 0-.943.822-1.783 1.747-1.783 1.027 0 1.851.84 1.851 1.783 0 1.574-1.542 2.309-1.542 5.143 0 4.197 3.29 7.557 7.404 7.557 4.011 0 7.301-3.359 7.301-7.557 0-2.834-1.542-3.568-1.542-5.143 0-.943.822-1.783 1.849-1.783 1.028 0 1.749.84 1.749 1.783 0 1.574-1.438 2.309-1.438 5.143 0 4.197 3.289 7.557 7.301 7.557 4.008 0 7.299-3.359 7.299-7.557 0-2.834-1.439-3.568-1.439-5.143 0-.943.721-1.783 1.748-1.783s1.852.84 1.852 1.783c0 1.574-1.543 2.309-1.543 5.143 0 4.197 3.291 7.557 7.299 7.557 4.113 0 7.402-3.359 7.402-7.557 0-2.834-1.541-3.568-1.541-5.143 0-.943.822-1.783 1.85-1.783.928 0 1.75.84 1.75 1.783 0 1.574-1.439 2.309-1.439 5.143 0 4.197 3.289 7.557 7.301 7.557 4.113 0 7.404-3.359 7.404-7.557 0-2.834-1.543-3.568-1.543-5.143 0-.943.822-1.783 1.85-1.783s1.852.84 1.852 1.783c0 1.574-1.543 2.309-1.543 5.143 0 4.197 3.291 7.557 7.404 7.557 4.01 0 7.301-3.359 7.301-7.557 0-2.834-1.441-3.568-1.441-5.143 0-.943.824-1.783 1.748-1.783 1.029 0 1.852.84 1.852 1.783 0 1.574-1.543 2.309-1.543 5.143 0 4.197 3.291 7.557 7.402 7.557 4.012 0 7.301-3.359 7.301-7.557 0-2.834-1.541-3.568-1.541-5.143 0-.943.822-1.783 1.85-1.783 1.029 0 1.75.84 1.75 1.783 0 1.574-1.441 2.309-1.441 5.143 0 4.197 3.291 7.557 7.301 7.557v-5.668c-.926 0-1.748-.84-1.748-1.889 0-1.572 1.541-2.203 1.541-5.141 0-4.094-3.287-7.451-7.402-7.451-4.113 0-7.402 3.357-7.402 7.451 0 2.938 1.543 3.568 1.543 5.141 0 1.051-.822 1.889-1.75 1.889-1.027 0-1.85-.84-1.85-1.889 0-1.572 1.541-2.203 1.541-5.141 0-4.094-3.289-7.451-7.402-7.451-4.01 0-7.301 3.357-7.301 7.451 0 2.938 1.441 3.568 1.441 5.141 0 1.051-.826 1.889-1.748 1.889-1.029 0-1.852-.84-1.852-1.889 0-1.572 1.543-2.203 1.543-5.141 0-4.094-3.291-7.451-7.406-7.451-4.111 0-7.402 3.357-7.402 7.451 0 2.938 1.543 3.568 1.543 5.141 0 1.051-.822 1.889-1.852 1.889-.926 0-1.746-.84-1.746-1.889 0-1.572 1.436-2.203 1.436-5.141 0-4.094-3.287-7.451-7.299-7.451-4.113 0-7.402 3.357-7.402 7.451 0 2.938 1.541 3.568 1.541 5.141 0 1.051-.82 1.889-1.85 1.889-.926 0-1.748-.84-1.748-1.889 0-1.572 1.543-2.203 1.543-5.141 0-4.094-3.291-7.451-7.404-7.451s-7.404 3.357-7.404 7.451c0 2.938 1.543 3.568 1.543 5.141-.001 1.049-.825 1.889-1.749 1.889zm5.984 12.879c-.078-.248-.125-.508-.125-.793 0-.945.721-1.785 1.748-1.785s1.852.84 1.852 1.785c0 .285-.051.545-.137.793h5.646c.027-.244.041-.508.041-.793 0-4.092-3.289-7.451-7.404-7.451-4.111 0-7.402 3.359-7.402 7.451 0 .285.014.549.041.793h5.74zm15.229 0c-.084-.248-.137-.508-.137-.793 0-.945.822-1.785 1.85-1.785.928 0 1.75.84 1.75 1.785 0 .285-.049.545-.125.793h5.639c.023-.244.037-.508.037-.793 0-4.092-3.289-7.451-7.301-7.451-4.111 0-7.402 3.359-7.402 7.451 0 .285.016.549.043.793h5.646zm15.318 0c-.082-.248-.133-.508-.133-.793 0-.945.822-1.785 1.85-1.785s1.852.84 1.852 1.785c0 .285-.053.545-.137.793h5.648c.025-.244.041-.508.041-.793 0-4.092-3.291-7.451-7.406-7.451-4.111 0-7.402 3.359-7.402 7.451 0 .285.014.549.041.793h5.646zm15.416 0c-.078-.248-.127-.508-.127-.793 0-.945.824-1.785 1.748-1.785 1.029 0 1.852.84 1.852 1.785 0 .285-.053.545-.135.793h5.645c.027-.244.041-.508.041-.793 0-4.092-3.289-7.451-7.402-7.451-4.01 0-7.301 3.359-7.301 7.451 0 .285.016.549.039.793h5.64zm15.227 0c-.082-.248-.135-.508-.135-.793 0-.945.822-1.785 1.85-1.785 1.029 0 1.75.84 1.75 1.785 0 .285-.049.545-.127.793h5.74c.027-.244.039-.508.039-.793 0-4.092-3.287-7.451-7.402-7.451-4.113 0-7.402 3.359-7.402 7.451 0 .285.014.549.041.793h5.646zm-137.689 0c-.076-.248-.125-.508-.125-.793 0-.945.72-1.785 1.748-1.785s1.85.84 1.85 1.785c0 .285-.051.545-.134.793h5.646c.024-.244.04-.508.04-.793 0-4.092-3.29-7.451-7.402-7.451-4.113 0-7.405 3.359-7.405 7.451 0 .285.016.549.041.793h5.741zm15.227 0c-.083-.248-.136-.508-.136-.793 0-.945.824-1.785 1.852-1.785.925 0 1.748.84 1.748 1.785 0 .285-.049.545-.126.793h5.641c.024-.244.038-.508.038-.793 0-4.092-3.292-7.451-7.3-7.451-4.115 0-7.404 3.359-7.404 7.451 0 .285.016.549.042.793h5.645zm15.321 0c-.085-.248-.135-.508-.135-.793 0-.945.821-1.785 1.85-1.785 1.028 0 1.85.84 1.85 1.785 0 .285-.049.545-.134.793h5.646c.026-.244.041-.508.041-.793 0-4.092-3.29-7.451-7.403-7.451s-7.404 3.359-7.404 7.451c0 .285.015.549.041.793h5.648zm15.416 0c-.08-.248-.126-.508-.126-.793 0-.945.822-1.785 1.747-1.785 1.027 0 1.851.84 1.851 1.785 0 .285-.051.545-.135.793h5.647c.027-.244.042-.508.042-.793 0-4.092-3.292-7.451-7.404-7.451-4.009 0-7.3 3.359-7.3 7.451 0 .285.015.549.039.793h5.639zm15.225 0c-.083-.248-.133-.508-.133-.793 0-.945.821-1.785 1.849-1.785s1.749.84 1.749 1.785c0 .285-.048.545-.126.793h5.74c.027-.244.043-.508.043-.793 0-4.092-3.291-7.451-7.405-7.451-4.113 0-7.402 3.359-7.402 7.451 0 .285.014.549.041.793h5.644zm-57.732-152.999c-.165 1.393-1.526 2.203-1.526 4.866 0 4.197 3.29 7.555 7.301 7.555 4.111 0 7.404-3.358 7.404-7.555 0-2.663-1.362-3.473-1.526-4.866h-5.564c.093 2.703 1.536 3.341 1.536 4.866 0 1.049-.821 1.888-1.849 1.888-.926 0-1.75-.84-1.75-1.888 0-1.524 1.445-2.164 1.538-4.866h-5.564zm15.219 0c-.153 1.393-1.424 2.203-1.424 4.866 0 4.197 3.291 7.555 7.3 7.555 4.113 0 7.402-3.358 7.402-7.555 0-2.663-1.36-3.473-1.526-4.866h-5.562c.092 2.703 1.538 3.341 1.538 4.866 0 1.049-.824 1.888-1.851 1.888-.927 0-1.748-.84-1.748-1.888 0-1.524 1.348-2.164 1.435-4.866h-5.564zm15.422 0c-.165 1.393-1.525 2.203-1.525 4.866 0 4.197 3.291 7.555 7.403 7.555 4.01 0 7.3-3.358 7.3-7.555 0-2.663-1.27-3.473-1.425-4.866h-5.563c.088 2.703 1.435 3.341 1.435 4.866 0 1.049-.821 1.888-1.748 1.888-1.027 0-1.85-.84-1.85-1.888 0-1.524 1.445-2.164 1.537-4.866h-5.564zm15.321 0c-.166 1.393-1.526 2.203-1.526 4.866 0 4.197 3.29 7.555 7.404 7.555 4.011 0 7.301-3.358 7.301-7.555 0-2.663-1.361-3.473-1.526-4.866h-5.563c.094 2.703 1.538 3.341 1.538 4.866 0 1.049-.823 1.888-1.749 1.888-1.028 0-1.851-.84-1.851-1.888 0-1.524 1.444-2.164 1.538-4.866h-5.566z"/></svg>