<svg xmlns="http://www.w3.org/2000/svg" width="460" height="325.815" viewBox="-114.583 -80.746 460 325.815" enable-background="new -114.583 -80.746 460 325.815"><path fill="#F3BB71" d="M345.375 76.048c-.848 38.591-14.434 74.464-36.93 94.138-35.201 30.789-76.461 41.254-116.668 47.078-43.051 6.244-85.334 9.928-128.871 6.348-40.803-3.352-81.165-1.414-119.21-30.605-32.189-24.707-61.08-73.686-58.063-132.277 2.997-58.248 35.787-88.293 67.15-106.188 34.552-19.727 72.313-23.123 109.109-27.298 70.982-8.049 163.009-22.376 230.648 30.963 12.301 9.695 26.033 21.097 34.967 38.247 12.925 24.84 18.454 52.871 17.868 79.594z"/><path fill="#0B2A4A" d="M345.375 92.922c-.848 38.586-14.434 74.463-36.93 94.135-35.201 30.791-76.461 41.252-116.668 47.08-43.051 6.242-85.334 9.924-128.871 6.346-40.803-3.352-81.165-1.41-119.21-30.604-32.189-24.707-61.08-73.686-58.063-132.281 2.997-58.246 35.785-88.29 67.15-106.188 34.552-19.722 72.313-23.12 109.109-27.295 70.982-8.05 163.009-22.377 230.648 30.963 12.301 9.695 26.033 21.097 34.967 38.247 12.925 24.84 18.454 52.87 17.868 79.597z"/><path fill="#95352F" d="M345.375 83.742c-.848 38.584-14.434 74.463-36.93 94.135-35.201 30.789-76.461 41.25-116.668 47.08-43.051 6.242-85.334 9.924-128.871 6.346-40.803-3.352-81.165-1.412-119.21-30.609-32.189-24.703-61.08-73.68-58.063-132.274 2.997-58.248 35.787-88.292 67.15-106.188 34.552-19.727 72.313-23.123 109.109-27.298 70.982-8.049 163.009-22.376 230.648 30.963 12.301 9.695 26.033 21.098 34.967 38.247 12.925 24.84 18.454 52.872 17.868 79.598z"/><g fill="#DEDA83"><path d="M4.979 3.151c-1.17-3.365-3.75-7.221-7.075-9.77-4.389-3.32-10.198-1.805-15.878 1.186-10.517 5.659-28.268 21.755-26.75 38.593 1.144 12.657 21.25 18.524 28.262 23.469 1.853 1.321 2.701 3.845.822 6.367-1.477 1.498-3.978 2.593-7.419 2.903-7.992.721-16.923-4.918-22.194-8.406-3.562-2.405-8.702-3.056-12.648-1.465-1.073.467-1.487 1.369.01 2.848 19.216 19.33 40.391 15.066 46.999 5.922 4.842-6.756 4.946-12.464-.023-15.361-7.327-4.294-23.646-9.389-23.998-17.413-.772-15.418 27.767-36.95 32.331-33.025 3.228 2.808-5.069 13.84-7.119 19.974-2.06 6.01-.242 9.686 2.305 11.812 1.476 1.229 2.154.548 2.671-.612 1.442-3.228 4.438-9.818 7.248-14.408 1.61-2.749 4.129-7.809 2.456-12.614zM288.655 22.289c-.586-1.062-1.572-.975-2.1.064-4.549 8.588-12.637 19.231-22.881 19.659-6.549.221-10.199-7.256-7.283-18.919 9.234 6.229 17.18 2.292 22.539-5.627 4.594-6.73 4.9-14.319 2.424-17.067-2.209-2.529-4.59-4.173-7.826-5.738-6.471-3.009-18.426 4.513-24.988 21.088-1.904 4.816-2.65 9.473-2.412 13.638-4.225 8.262-10.686 15.352-15.783 15.387-5.576.006-5.143-10.315-1.312-22.805 10.293-8.114 22.729-24.104 25.176-39.564.953-5.91-.195-10.392-4.045-13.268-1.865-1.438-3.562-1.04-5.23 1.095-11.363 14.155-23.365 37.665-25.98 59.463-.061.509-.096.983-.137 1.469-3.898 8.159-8.928 15.478-13.631 16.127-4.402.645-5.359-4.472-2.795-11.766 2.258-6.522 7.572-16.295 9.777-22.069 2.396-6.412.928-11.731-1.117-13.777-1.094-1.141-1.93-.814-3.006 1.016-3.455 5.641-6.256 14.442-12.867 27.677-5.672 11.293-11.654 20.505-16.482 20.568-2.85.01-3.617-4.379-1.582-10.637 2.051-6.131 4.064-11.271 7.959-18.934 3.793-7.402 3.906-12.991.84-16.802-1.086-1.019-2.326-1.028-3.186.412-6.98 11.904-12.16 24.513-14.133 32.872-.16.677-.291 1.357-.408 2.038-3.531 7.239-8.344 13.532-12.545 14.117-4.154.627-4.486-4.427-1.811-11.854 4.969-13.581 14.939-34.924 19.885-46.027 4.332-9.683 4.221-15.001 2.135-18.901-.76-1.54-1.875-1.564-2.949.268-3.857 6.668-11.691 24.225-17.188 37.481-.287-4.555-3.09-8.146-8.127-7.693-6.145.557-15.477 6.975-23.902 22.105-2.97 5.316-4.482 10.586-4.779 15.211-4.725 7.098-11.504 13.912-19.659 14.253-6.549.216-10.199-7.257-7.283-18.92 9.234 6.229 17.18 2.291 22.538-5.628 4.595-6.731 4.902-14.319 2.425-17.069-2.211-2.525-4.59-4.169-7.828-5.736-6.468-3.008-18.427 4.513-24.985 21.087-2.177 5.504-2.853 10.803-2.253 15.389-3.274 6.655-7.895 12.837-11.914 13.398-4.524.655-5.66-5.067-3.231-12.471 2.248-6.646 7.34-16.151 9.556-21.802 2.631-6.557-1.735-12.358-5.957-12.474-3.352-.068-9.375 4.564-13.971 9.937 4.541-8.711 10.158-19.257 12.661-24.437 3.972-8.165 3.788-14.345 1.868-17.763-.748-1.42-1.988-1.433-2.962.143-8.459 12.743-28.661 55.033-33.17 69.74-4.585 6.824-11.234 13.534-19.362 14.17-7.262.532-10.765-9.438-5.258-23.934 4.521-11.685 13.029-20.382 15.275-18.849 1.842 1.195-1.37 6.812-2.321 11.358-1.224 5.686.831 9.22 3.913 10.425 1.677.72 2.135.306 2.494-1.211 1.858-6.86 6.188-13.818 3.142-18.749-1.73-2.69-3.874-4.481-7.369-6.148-6.481-3.132-18.296 4.625-24.764 20.82-6.559 16.575.101 31.338 15.687 29.684 6.325-.654 12.57-4.04 17.19-8.541.195 2.825 1.214 4.547 2.52 5.773.815.793 1.655.471 2.046-.682 2.271-7.762 6.043-16.774 9.813-24.424 6.076-12.32 18.717-21.888 20.526-21.06 2.068.929-7.47 14.677-10.452 26.966-2.722 11.022.533 18.289 10.856 17.356 5.922-.534 11.634-5.179 15.062-10.846 2.833 5.562 8.418 8.853 16.193 8.026 7.518-.778 14.713-5.059 19.604-10.783 1.441 5.121 5.063 8.312 10.45 7.826 5.773-.522 10.896-5.568 14.385-10.84.52 5.776 4.172 9.165 10.842 8.935 4.791-.17 9.695-3.81 13.125-8.416 1.023 3.597 3.494 6.094 8.129 6.003 6.928-.131 12.875-6.987 16.656-13.152-.342 7.218 3.311 11.969 11.299 11.249 5.807-.524 11.482-5.094 15.027-10.593 1.654 5.591 5.785 7.932 11.451 7.586 7.311-.479 13.621-6.655 16.963-11.383 2.715 5.976 8.408 9.593 16.498 8.734 9.453-.98 18.406-7.483 22.895-15.447 1.923-3.394 1.984-6.867 1.4-7.807zm-30.61-4.177c4.725-12.198 14.262-20.491 17.031-18.635 1.842 1.198-.283 7.831-3.754 13.348-3.141 4.993-7.705 10.731-14.07 7.463.19-.634.495-1.405.793-2.176zm-24.863-7.793c7.062-16.498 14.926-30.959 16.611-30.12 1.688.839-3.42 21.124-19.027 36.285.682-2.042 1.488-4.096 2.416-6.165zm-139.566 22.628c4.724-12.198 14.261-20.491 17.028-18.636 1.844 1.197-.283 7.831-3.751 13.349-3.142 4.991-7.705 10.73-14.07 7.464.189-.637.493-1.406.793-2.177zm53.031.419c-4.768 11.704-10.75 19.556-15.676 19.876-4.807.308-4.418-10.505 1.264-21.674 5.787-11.425 14.062-19.979 17.881-20.198 3.574-.2 2.429 7.713-3.469 21.996z"/></g><path fill="#F3BB71" d="M174.336 71.691c30.299-2.157 58.818 8.611 68.83 15.211l-2.062.65c-7.07-2.574-25.75-8.309-57.775-6.03-55.76 3.976-111.031 18.298-155.799 21.486-31.257 2.232-48.831-4.164-48.831-4.164l.907-.645s18.53 2.5 34.736 1.348c57.501-4.098 103.462-23.832 159.994-27.856z"/><g fill="#DEDA83"><path d="M-13.911 173.68c-1.437 3.557-2.735 6.932-3.826 9.869-.717 1.82-1.357 2.055-2.995 1.484-1.645-.65-2.937-1.094-4.225-2.281-1.291-1.189-1.415-2.336-.679-4.736 4.114-12.641 12.861-33.822 18.495-45.465.942-2.01 2.35-3.57 5.33-3.643 5.118-.217 7.857.562 10.662 1.174 2.047.527 2.434 1.816 2.328 3.895-.361 10.494-.12 30.459.451 45.746.122 1.895-.317 2.438-2.12 2.631-1.807.197-3.452.291-5.165-.189-1.711-.477-2.31-1.406-2.574-3.869-.285-2.623-.457-5.76-.672-9.299-5.152 1.464-10.95 3.085-15.01 4.683zm14.496-14.834c-.206-6.533-.276-13.328-.165-19.229-2.615 5.756-6.002 13.588-9.295 21.49 3.144-.836 6.367-1.679 9.46-2.261zM42.786 164.746c5.299 3.744 10.123 4.633 11.977 2.609 2.168-2.225-6.917-6.475-11.804-11.006-3.412-3.199-5.472-8.453-3.412-14.73 1.722-5.58 6.143-12.275 10.726-15.922 1.763-1.352 4.747-2.914 8.325-2.059 2.731.701 5.882 2.27 7.636 3.906 2.573 2.295 2.627 5.109 2.619 7.348-.17 3.836-1.53 10.451-2.889 14-.651 1.645-1.437 2.061-2.984 1.566-4.376-1.354-6.538-3.689-6.155-7.053.338-3.023 2.129-9.521 1.094-9.904-1.83-.799-11.241 11.166-6.168 16.674 5.526 5.873 16.556 8.914 13.508 16.795-1.424 3.721-4.74 9.883-13.008 10.941-5.392.748-10.933-1.393-16.233-7.459-2.739-3.102-2.546-4.371-1.074-5.359 2.4-1.585 5.959-1.636 7.842-.347zM74.009 126.539c-.508-1.605-.131-1.977 1.146-2.443 5.479-2.252 15.844-4.613 23.36-5.672 1.714-.27 2.868.436 3.447 1.947.76 1.664 1.139 2.865 1.477 4.486.28 1.797-.142 2.504-1.929 2.865-3.729.814-8.34 1.895-12.688 3.109-.866 3.496-1.928 7.508-2.973 11.684 2.012-.547 4.048-.934 6.255-1.256 1.795-.277 2.823.027 3.562 1.525.752 1.576 1.319 3.006 1.661 4.629.441 1.779.004 2.324-1.757 2.926-4.096 1.273-8.671 2.676-12.654 4.188-.629 2.639-1.258 5.277-1.737 7.734 3.29-1.018 6.195-1.746 9.697-2.369 1.786-.363 2.896-.066 3.64 1.43.841 1.652 1.407 3.084 1.75 4.705.441 1.777.092 2.396-1.67 3-4.555 1.572-9.684 3.285-13.978 4.99-2.938 1.23-4.164.615-5.261-.346-1.175-.863-2.175-1.674-3.662-3.17-1.115-1.127-1.803-2.875-1.558-5.227.853-7.473 3.979-22.328 6.421-33.537-1.07-1.458-2.063-3.758-2.549-5.198zM108.886 157.621c5.296 3.74 10.121 4.633 11.976 2.609 2.168-2.225-6.917-6.475-11.804-11.006-3.415-3.199-5.475-8.453-3.411-14.732 1.722-5.578 6.139-12.273 10.725-15.924 1.759-1.35 4.749-2.914 8.321-2.055 2.73.699 5.887 2.268 7.641 3.904 2.57 2.297 2.623 5.111 2.621 7.35-.172 3.836-1.531 10.451-2.891 13.998-.652 1.645-1.436 2.062-2.982 1.564-4.381-1.35-6.539-3.688-6.156-7.049.338-3.025 2.125-9.521 1.09-9.904-1.826-.799-11.242 11.166-6.167 16.674 5.528 5.873 16.56 8.914 13.511 16.793-1.428 3.723-4.744 9.885-13.008 10.943-5.396.744-10.933-1.393-16.234-7.459-2.741-3.105-2.547-4.373-1.078-5.359 2.399-1.585 5.963-1.638 7.846-.347zM142.59 153.986c5.299 3.742 10.123 4.633 11.975 2.607 2.17-2.223-6.916-6.471-11.803-11.006-3.412-3.197-5.473-8.451-3.412-14.729 1.721-5.576 6.143-12.275 10.725-15.92 1.764-1.352 4.748-2.916 8.326-2.059 2.732.699 5.883 2.268 7.635 3.904 2.574 2.293 2.629 5.111 2.619 7.352-.17 3.832-1.529 10.445-2.889 13.996-.65 1.646-1.436 2.061-2.982 1.566-4.375-1.354-6.539-3.689-6.154-7.053.336-3.021 2.127-9.52 1.088-9.906-1.824-.797-11.236 11.17-6.162 16.676 5.523 5.875 16.555 8.916 13.506 16.795-1.422 3.721-4.74 9.883-13.008 10.941-5.391.746-10.932-1.393-16.232-7.457-2.742-3.105-2.547-4.375-1.076-5.359 2.403-1.586 5.962-1.637 7.844-.348zM188.024 116.82c-2.676 10.572-7.129 33.121-9.199 45.457-.299 1.852-.92 2.25-2.697 1.947-1.771-.307-3.838-.996-5.338-1.83-1.59-.908-1.951-1.947-1.717-4.377.959-9.561 5.295-34.75 7.799-45.387.525-2.049 1.557-2.49 3.422-2.111 1.867.377 4.559 1.5 6.158 2.488 1.783 1.138 2.025 1.854 1.572 3.813zM223.235 117.17c1.779 11.092-.887 29.465-9.174 39.566-2.787 3.367-6.059 4.549-10.131 4.49-2.662-.043-5.883-.693-8.172-1.938-1.764-.973-3.809-2.994-4.82-5.451-4.789-11.346.1-32.949 10.48-43.605 2.166-2.225 5.748-3.605 8.418-3.477 3.496.121 7.182 1.215 9.271 2.9 2.456 1.974 3.63 4.419 4.128 7.515zm-21.338 15.986c-2.047 7.938-2.48 18.52.688 19.424 3.082.912 6.988-6.727 9.215-16.84 1.729-7.818 2.324-19.246-.391-19.783-2.631-.545-7.471 9.186-9.512 17.199zM256.006 104.1c.447-2.039 1.549-2.576 3.416-2.197 1.865.381 2.805.611 5.178 1.85 1.844.963 1.904 2.283 1.449 4.238-2.484 11.553-6.242 32.111-8.332 45.033-.213 1.848-1.457 2.646-3.232 2.338-1.766-.225-3.566-.777-5.131-1.436-1.557-.58-2.699-1.949-3.314-3.795-1.914-5.436-3.953-14.338-5.443-22.803-1.846 10.568-4.18 22.018-5.201 28.682-.215 1.846-.836 2.248-2.619 1.857-1.775-.307-3.916-.904-5.436-1.906-1.51-.912-1.795-2.043-1.551-4.395.785-7.301 5.301-33.17 8.016-44.912.52-2.133 1.867-2.688 3.641-2.385 2.201.428 4.506 1.01 6.854 2.004 1.982.695 2.607 1.875 2.98 4.57.551 4.338 2.031 14.213 3.404 22.363 1.444-10.442 3.585-21.37 5.321-29.106z"/></g></svg>