<?xml version="1.0" encoding="utf-8"?>
<!-- Generator: Adobe Illustrator 16.2.1, SVG Export Plug-In . SVG Version: 6.00 Build 0)  -->
<svg version="1.2" baseProfile="tiny" id="Layer_1" xmlns="http://www.w3.org/2000/svg" xmlns:xlink="http://www.w3.org/1999/xlink"
	 x="0px" y="0px" width="520px" height="399px" viewBox="0 0 520 399" xml:space="preserve">
<g>
	<g>
		<path fill="#081F38" d="M520,191.573c0,0-2.346-23.724-9.238-34.11c-8.414-12.719-26.463-17.822-26.463-17.822
			s-1.541-32.34-14.107-50.22c-11.848-16.906-23.211-26.257-42.65-33.177c-19.436-6.908-57.338-6.914-74.342-5.771
			c-16.998,1.128-36.736,2.254-55.666-0.708c-19.791-3.11-47.963,1.166-50.146-31.544c2.183,32.708-26.282,32.22-45.494,37.928
			c-18.372,5.448-38.094,6.96-55.088,8.086c-16.992,1.146-54.58,6.183-72.916,15.61c-18.321,9.438-28.354,20.212-37.874,38.538
			c-10.102,19.4-7.302,51.646-7.302,51.646s-17.208,7.465-23.876,21.19c-5.448,11.208-4.606,35.036-4.606,35.036L0,224.289
			c0,0,2.336,23.719,9.233,34.115c8.425,12.709,26.471,17.83,26.471,17.83s1.512,32.309,14.106,50.219
			c11.864,16.898,23.222,26.258,42.654,33.176c19.435,6.914,57.355,6.895,74.328,5.764c17.002-1.139,36.762-2.246,55.67,0.705
			c19.802,3.102,47.945-1.371,50.125,31.332c-2.18-32.703,26.305-32.004,45.525-37.723c18.357-5.43,38.094-6.953,55.098-8.084
			c16.969-1.137,54.568-6.158,72.9-15.592c18.342-9.438,28.357-20.213,37.867-38.547c10.104-19.422,7.299-51.652,7.299-51.652
			s17.215-7.473,23.863-21.18c5.471-11.223,4.619-35.043,4.619-35.043L520,191.573z"/>
	</g>
	<g>
		<path fill="#EEAE5E" d="M520,173.355c0,0-2.346-23.724-9.238-34.111c-8.414-12.719-26.463-17.826-26.463-17.826
			s-1.541-32.336-14.107-50.219c-11.848-16.905-23.211-26.256-42.65-33.174c-19.436-6.91-57.338-6.914-74.342-5.775
			c-16.998,1.131-36.736,2.257-55.666-0.706C277.742,28.432,249.571,32.708,247.388,0c2.183,32.71-26.282,32.221-45.494,37.931
			c-18.37,5.445-38.094,6.96-55.088,8.084c-16.992,1.144-54.58,6.182-72.916,15.609c-18.321,9.439-28.354,20.215-37.874,38.538
			c-10.1,19.401-7.302,51.647-7.302,51.647s-17.208,7.464-23.876,21.188c-5.448,11.214-4.606,35.042-4.606,35.042L0,206.068
			c0,0,2.336,23.725,9.233,34.115c8.425,12.711,26.471,17.832,26.471,17.832s1.512,32.309,14.106,50.219
			c11.864,16.9,23.222,26.258,42.654,33.176c19.435,6.912,57.355,6.893,74.328,5.766c17.002-1.141,36.762-2.246,55.67,0.703
			c19.802,3.105,47.945-1.375,50.125,31.33c-2.18-32.705,26.305-32.002,45.525-37.723c18.357-5.428,38.094-6.951,55.098-8.086
			c16.969-1.131,54.568-6.156,72.9-15.588c18.342-9.439,28.357-20.211,37.867-38.543c10.104-19.426,7.299-51.656,7.299-51.656
			s17.215-7.475,23.863-21.18c5.471-11.222,4.619-35.044,4.619-35.044L520,173.355z"/>
	</g>
	<g>
		<path fill="none" d="M491.561,176.168c0,0,0.75,21.502-4.459,31.639c-6.328,12.389-22.629,19.18-22.629,19.18
			s2.559,29.078-7.051,46.635c-9.037,16.57-18.539,26.32-35.914,34.896c-17.367,8.561-52.926,13.207-68.977,14.271
			c-16.09,1.074-34.752,2.514-52.131,7.457c-18.176,5.211-45.105,4.668-43.144,34.16c-1.96-29.492-28.586-25.379-47.308-28.125
			c-17.87-2.602-36.562-1.545-52.635-0.471c-16.061,1.078-51.914,1.197-70.269-4.979c-18.349-6.189-29.063-14.596-40.236-29.812
			c-11.863-16.123-13.195-45.279-13.195-45.279s-17.048-4.562-24.973-16.004c-6.496-9.355-8.64-30.766-8.64-30.766l0.212,1.781
			c0,0-0.716-21.491,4.458-31.633c6.344-12.406,22.647-19.184,22.647-19.184s-2.559-29.094,7.047-46.63
			c9.05-16.562,18.562-26.313,35.922-34.88c17.359-8.564,52.922-13.228,68.987-14.299c16.069-1.073,34.727-2.489,52.109-7.453
			c18.181-5.206,43.552-14.038,43.128-34.358c0.343,16.338,28.622,25.574,47.325,28.324c17.881,2.614,36.561,1.54,52.633,0.466
			c16.074-1.074,51.916-1.178,70.291,5c18.344,6.187,29.062,14.59,40.223,29.807c11.836,16.109,13.191,45.275,13.191,45.275
			s17.039,4.552,24.967,16.002c6.498,9.366,8.645,30.767,8.645,30.767L491.561,176.168z"/>
	</g>
	<g>
		<path fill="#94342E" d="M520,180.963c0,0-2.346-23.726-9.238-34.112c-8.414-12.718-26.463-17.824-26.463-17.824
			s-1.541-32.338-14.107-50.22c-11.848-16.906-23.211-26.258-42.65-33.176c-19.436-6.908-57.338-6.914-74.342-5.772
			c-16.998,1.13-36.736,2.254-55.666-0.708c-19.791-3.112-47.963,1.166-50.146-31.544c2.183,32.71-26.282,32.218-45.494,37.928
			c-18.373,5.447-38.095,6.96-55.089,8.085c-16.992,1.146-54.58,6.184-72.916,15.608c-18.321,9.444-28.354,20.216-37.874,38.54
			c-10.102,19.401-7.302,51.646-7.302,51.646s-17.208,7.467-23.876,21.189c-5.448,11.21-4.606,35.038-4.606,35.038L0,213.674
			c0,0,2.336,23.725,9.233,34.121c8.425,12.709,26.471,17.826,26.471,17.826s1.512,32.312,14.106,50.219
			c11.864,16.902,23.222,26.258,42.654,33.176c19.435,6.914,57.355,6.893,74.328,5.766c17.002-1.139,36.762-2.246,55.67,0.703
			c19.802,3.105,47.945-1.375,50.125,31.33c-2.18-32.705,26.305-32.002,45.525-37.721c18.357-5.43,38.094-6.949,55.098-8.082
			c16.969-1.135,54.568-6.156,72.9-15.59c18.342-9.438,28.357-20.219,37.867-38.547c10.104-19.426,7.299-51.656,7.299-51.656
			s17.215-7.475,23.863-21.178c5.471-11.223,4.619-35.045,4.619-35.045L520,180.963z"/>
	</g>
	<path fill="#B84F2D" d="M342.684,181.529c37.781-4.771,74.213,6.758,87.197,14.334l-2.541,0.958
		c-9.027-2.739-32.795-8.646-72.73-3.6c-69.521,8.778-137.724,30.485-193.546,37.53c-38.972,4.928-61.406-1.879-61.406-1.879
		l1.092-0.867c0,0,23.368,1.865,43.571-0.686C216.013,218.265,272.203,190.428,342.684,181.529z"/>
	<g>
		<path fill="#DEDA83" d="M106.828,302.117c5.799,4.096,11.079,5.074,13.11,2.854c2.37-2.434-7.573-7.082-12.919-12.041
			c-3.737-3.5-5.992-9.25-3.735-16.119c1.884-6.107,6.722-13.436,11.74-17.428c1.927-1.48,5.192-3.195,9.106-2.254
			c2.989,0.77,6.443,2.486,8.36,4.273c2.814,2.512,2.873,5.59,2.865,8.047c-0.184,4.193-1.672,11.436-3.16,15.314
			c-0.714,1.809-1.573,2.264-3.265,1.717c-4.79-1.48-7.154-4.039-6.733-7.715c0.37-3.311,2.327-10.42,1.191-10.842
			c-2.002-0.875-12.302,12.217-6.749,18.248c6.049,6.43,18.121,9.76,14.783,18.381c-1.559,4.072-5.19,10.816-14.234,11.975
			c-5.905,0.816-11.967-1.525-17.767-8.16c-2.999-3.402-2.786-4.787-1.178-5.867C100.873,300.761,104.771,300.707,106.828,302.117z"
			/>
		<path fill="#DEDA83" d="M173.983,264.099c1.945,12.137-0.971,32.246-10.04,43.299c-3.052,3.691-6.634,4.982-11.09,4.924
			c-2.91-0.055-6.437-0.762-8.944-2.125c-1.93-1.064-4.166-3.273-5.273-5.965c-5.243-12.422,0.108-36.059,11.468-47.725
			c2.371-2.434,6.295-3.947,9.215-3.809c3.827,0.133,7.86,1.332,10.146,3.176C172.15,258.035,173.435,260.711,173.983,264.099z
			 M150.631,281.601c-2.24,8.684-2.716,20.268,0.748,21.256c3.376,0.992,7.651-7.367,10.088-18.434
			c1.893-8.555,2.541-21.062-0.427-21.652C158.16,262.179,152.862,272.826,150.631,281.601z"/>
		<path fill="#DEDA83" d="M188.057,307.976c-3.563,1.475-4.558,0.674-5.761-0.377c-1.282-0.949-2.375-1.83-4.095-3.461
			c-1.222-1.229-1.955-2.967-1.667-5.357c1.403-11.408,6.043-34.881,9.594-47.428c0.665-2.252,1.801-2.646,3.754-2.223
			c2.042,0.418,4.95,1.283,6.811,2.535c1.86,1.254,2.126,2.041,1.542,4.193c-2.706,10.277-6.316,25.646-9.05,39.016
			c3.422-1.096,6.436-1.783,10.087-2.449c1.953-0.393,3.069-0.15,3.982,1.566c0.91,1.717,1.542,3.373,1.916,5.15
			c0.572,1.934,0.541,2.484-1.825,3.283C198.357,304.146,192.748,306.021,188.057,307.976z"/>
		<path fill="#DEDA83" d="M212.135,255.176c-1.131-2.057-1.167-3.234,0.692-4.521c8.253-5.975,27.12-11.186,34.467,3.91
			c6.523,13.367-0.573,38.463-24.607,50.496c-2.236,1.15-4.13,1.262-6.359-0.039c-2.148-1.402-3.63-2.514-5.628-4.203
			c-1.999-1.693-3.022-2.762-2.268-7.568c1.516-9.512,3.98-22.854,6.251-33.809C213.918,258.254,212.837,256.642,212.135,255.176z
			 M236.68,259.705c-1.277-2.59-4.801-4.117-9.283-1.906c-2.798,11.105-5.29,23.359-7.434,35.482
			C236.356,282.799,239.165,265.064,236.68,259.705z"/>
		<path fill="#DEDA83" d="M313.78,249.031c1.943,12.137-0.977,32.244-10.041,43.297c-3.053,3.688-6.637,4.982-11.092,4.92
			c-2.91-0.051-6.436-0.76-8.943-2.121c-1.932-1.064-4.166-3.273-5.275-5.969c-5.244-12.418,0.109-36.055,11.471-47.721
			c2.371-2.438,6.293-3.947,9.215-3.809c3.826,0.135,7.857,1.332,10.145,3.172C311.944,242.963,313.231,245.64,313.78,249.031z
			 M290.424,266.527c-2.242,8.686-2.717,20.268,0.75,21.258c3.373,0.994,7.646-7.365,10.086-18.432
			c1.893-8.557,2.541-21.064-0.428-21.652C297.953,247.105,292.655,257.754,290.424,266.527z"/>
		<path fill="#DEDA83" d="M325.166,237.724c0.578-2.24,1.715-2.635,3.766-2.133c1.961,0.518,4.145,1.371,5.732,2.654
			c1.98,1.51,2.453,3.363,1.725,5.898c-3.57,13.182-10.15,38.041-4.852,39.197c6.324,1.402,11.961-33.068,14.393-48.4
			c0.387-2.311,1.605-2.807,3.646-2.391s4.611,1.5,6.361,2.584c1.949,1.242,2.027,1.961,1.711,4.082
			c-3.92,25.119-7.717,43.775-15.613,50.529c-2.74,2.383-5.395,3.029-9.002,3.236c-3.432,0.191-6.439-0.758-8.768-2.141
			c-1.84-1.072-3.59-2.971-4.775-5.568C314.897,275.513,320.75,253.998,325.166,237.724z"/>
		<path fill="#DEDA83" d="M387.455,238.726c-3.338,14.523-7.035,33.262-9.467,47.777c-0.334,1.939-0.922,2.367-2.865,2.031
			c-1.945-0.334-4.104-1.012-5.848-2.002c-1.74-0.992-2.061-2.316-1.795-4.889c0.867-9.629,4.088-27.766,6.627-39.574
			c-2.027,0.58-4.23,1.184-5.535,1.688c-1.842,0.652-2.666,0.561-4.018-1.02c-1.348-1.578-2.574-4.531-3.209-6.191
			c-0.643-1.744-0.141-2.162,1.256-2.678c8.232-2.793,21.539-5.68,29.867-6.76c2.064-0.221,2.84,0.24,3.564,1.068
			c1.357,1.67,2.408,3.824,2.881,5.682c0.473,1.855,0.352,2.414-1.781,2.826C394.289,237.261,391.006,237.98,387.455,238.726z"/>
		<path fill="#DEDA83" d="M406.455,272.722c4.473,1.061,4.908,5.098,4.289,7.799c-0.412,2.041-2.648,5.73-6.316,6.219
			c-3.67,0.488-6.801-2.447-6.479-7.02C398.223,275.513,401.705,271.597,406.455,272.722z M421.559,229.236
			c-3.539,12.641-7.395,27.402-9.803,38.74c-0.416,2.039-1.107,2.385-2.947,2.131c-1.936-0.246-3.916-0.939-5.449-1.684
			c-1.73-0.9-2.215-2.031-1.777-4.711c1.648-10.801,5.686-28.938,8.111-39.275c0.566-2.332,1.504-2.885,3.736-2.4
			c1.953,0.422,4.68,1.311,6.541,2.562C421.83,225.853,422.145,227.09,421.559,229.236z"/>
	</g>
	<g>
		<path fill="#DEDA83" d="M168.926,167.006c-10.745-4.748-33.982-9.178-35.731-20.153c-3.492-21.075,32.346-55.17,39.241-50.495
			c4.879,3.351-4.789,19.825-6.638,28.578c-1.883,8.585,1.197,13.352,5.027,15.872c2.224,1.458,3.054,0.414,3.577-1.263
			c1.475-4.667,4.558-14.196,7.696-20.95c1.78-4.031,4.444-11.38,1.385-17.724c-2.139-4.44-6.291-9.335-11.268-12.314
			c-6.556-3.875-14.305-0.873-21.638,4.131c-13.565,9.436-35.431,34.364-30.688,57.27c3.563,17.221,32.126,22.118,42.547,27.807
			c2.754,1.524,4.319,4.86,2.133,8.627c-1.793,2.29-5.062,4.189-9.742,5.157c-10.87,2.25-24.037-4.093-31.833-8.06
			c-5.277-2.745-12.443-2.83-17.616-0.013c-1.398,0.812-1.825,2.121,0.464,3.914c29.459,23.542,57.895,14.341,65.538,0.733
			C176.972,178.069,176.216,170.205,168.926,167.006z"/>
		<path fill="#DEDA83" d="M234.381,142.646c0.494-0.974,0.321-1.812-0.849-1.571c-1.337,0.277-2.271,0.822-3.277,1.029
			c-0.108-1.372-0.35-2.544-0.458-3.914c-1.491-12.246-6.75-12.382-11.668-16.767c-4.277-3.823-7.4-4.574-12.547-3.331
			c-9.858,2.913-18.085,14.553-22.086,27.24c-4.754,14.932-4.25,30.001,5.112,38.175c8.49,7.309,16.987,6.249,22.591,2.995
			c11.509-6.743,18.547-25.81,19.115-40.749C231.951,145.24,233.487,144.225,234.381,142.646z M215.746,160.45
			c-5.006,17.082-13.995,25.045-19.474,22.167c-5.109-2.776-5.786-18.679-1.392-32.84c2.193-7.082,5.9-13.602,9.62-18.382
			c1.446,6.15,6.672,11.175,10.737,13.12c1.178,0.627,2.319,1.091,3.592,1.35C218.323,150.154,217.285,155.252,215.746,160.45z
			 M219.065,141.106c-3.194-1.952-6.036-6.421-6.136-11.108c-0.167-5.022,2.969-6.717,4.914-1.541
			C218.968,131.364,219.331,135.649,219.065,141.106z"/>
		<path fill="#DEDA83" d="M408.821,116.995c-0.678-1.603-2.148-1.124-2.742,0.222c-4.783,10.578-12.678,22.151-24.262,31.875
			c3.664-17.674,9.709-39.849,12.715-50.587c2.584-9.426-0.244-16.34-3.207-18.863c-1.779-1.025-2.881-0.45-3.938,2.035
			c-4.086,9.739-8.16,26.275-12.789,40.138c-5.518,16.311-11.66,28.745-18.285,29.592c-3.916,0.46-5.461-5.321-3.812-14.208
			c1.549-8.516,3.807-16.132,7.82-27.075c4.145-11.148,3.693-18.375-1.428-22.896c-1.516-1.428-3.223-1.249-4.178,0.865
			c-7.754,17.299-12.52,35.549-13.984,47.01c-0.457,3.466-0.531,6.956-0.104,10.124c-3.084,7.603-7.184,13.24-11.604,13.922
			c-4.885,0.837-8.24-5.269-7.365-14.52c0.877-9.247,6.891-21.476,12.646-31.563c3.707-6.519-1.83-13.045-5.732-15.9
			c-1.445-1.096-2.717-0.484-4.443,1.271c-5.289,5.627-10.418,9.478-15.633,11.254c2-11.398,1.33-21.371-3.82-20.134
			c-6.15,1.45-16.613,24.189-5.801,28.403c-4.352,10.143-12.301,28.181-14.621,36.333c-0.709,2.434-1.123,4.747-1.258,6.914
			c-2.752,5.265-6.051,8.908-9.549,9.447c-4.885,0.836-8.24-5.27-7.365-14.52c0.875-9.249,6.889-21.476,12.646-31.563
			c3.707-6.52-1.83-13.046-5.734-15.9c-1.447-1.095-2.715-0.484-4.445,1.272c-5.287,5.625-10.415,9.477-15.628,11.253
			c2-11.397,1.329-21.372-3.821-20.134c-6.152,1.45-16.613,24.189-5.802,28.403c-4.354,10.143-12.302,28.181-14.623,36.333
			c-2.749,9.462-1.157,17.153,4.73,21.166c1.815,1.192,2.648,0.15,2.669-1.423c0.026-15.875,11.164-42.942,15.093-55.959
			c5.017-1.039,11.896-4.031,18.248-10.407c-5.094,9.079-12.334,22.955-13.729,34.753c-1.583,13.407,5.551,23.437,17.694,21.446
			c3.904-0.655,7.678-2.751,10.842-5.779c1,2.392,2.584,4.38,4.76,5.864c1.818,1.192,2.648,0.148,2.672-1.425
			c0.027-15.875,11.162-42.94,15.094-55.958c5.016-1.039,11.896-4.031,18.248-10.407c-5.098,9.077-12.338,22.956-13.73,34.753
			c-1.584,13.406,5.547,23.437,17.693,21.446c5.646-0.947,11.014-4.912,14.664-10.35c2.209,2.998,5.646,4.671,10.656,4.061
			c6.791-0.882,12.246-6.546,16.322-12.968c-1.008,4.395-1.816,8.922-2.691,13.112c-15.203,9.948-27.34,22.921-29.242,39.008
			c-1.299,10.555,3.256,15.717,7.639,20.042c4.145,4.023,7.322,3.365,10.258,1.539c12.771-8.227,19.066-37.604,23.791-61.948
			c12.703-8.556,23.09-17.332,27.467-29.05C409.764,122.38,409.469,118.431,408.821,116.995z M348.473,210.396
			c-3.877-3.561-1.094-28.023,18.047-45.061C361.239,192.058,351.305,213.123,348.473,210.396z"/>
	</g>
</g>
</svg>
