<svg version="1" xmlns="http://www.w3.org/2000/svg" width="205.314" height="98.734" viewBox="0 0 205.314 98.734"><path fill="#DCE3B2" d="M2.996 85.767c-.057-19.135-.623-38.228-1.699-56.853-.953-7.23-1.373-14.498-1.285-22.244 3.696.257 7.9.033 12.095-.188 20.015.309 41.052.103 62.623-.13 22.058-.707 44.115-1.433 65.632-2.572 21.011-.65 41.97-2.225 62.929-3.779 1.394 33.174 1.709 65.946 2.023 98.734-4.231-.239-8.449-.469-12.173-1.188-20.541-.274-42.137-.488-63.776-1.622-22.633-.17-44.202.064-65.267-.189-21.012.658-41.524.826-62.014 1.47.286-4.119.598-7.776.912-11.439z"/></svg>