<svg version="1.2" baseProfile="tiny" xmlns="http://www.w3.org/2000/svg" width="520" height="399" viewBox="0 0 520 399"><path fill="#081F38" d="M520 191.573s-2.346-23.724-9.238-34.11c-8.414-12.719-26.463-17.822-26.463-17.822s-1.541-32.34-14.107-50.22c-11.848-16.906-23.211-26.257-42.65-33.177-19.436-6.908-57.338-6.914-74.342-5.771-16.998 1.128-36.736 2.254-55.666-.708-19.791-3.11-47.963 1.166-50.146-31.544 2.183 32.708-26.282 32.22-45.494 37.928-18.372 5.448-38.094 6.96-55.088 8.086-16.992 1.146-54.58 6.183-72.916 15.61-18.321 9.438-28.354 20.212-37.874 38.538-10.102 19.4-7.302 51.646-7.302 51.646s-17.208 7.465-23.876 21.19c-5.448 11.208-4.606 35.036-4.606 35.036l-.232-1.966s2.336 23.719 9.233 34.115c8.425 12.709 26.471 17.83 26.471 17.83s1.512 32.309 14.106 50.219c11.864 16.898 23.222 26.258 42.654 33.176 19.435 6.914 57.355 6.895 74.328 5.764 17.002-1.139 36.762-2.246 55.67.705 19.802 3.102 47.945-1.371 50.125 31.332-2.18-32.703 26.305-32.004 45.525-37.723 18.357-5.43 38.094-6.953 55.098-8.084 16.969-1.137 54.568-6.158 72.9-15.592 18.342-9.438 28.357-20.213 37.867-38.547 10.104-19.422 7.299-51.652 7.299-51.652s17.215-7.473 23.863-21.18c5.471-11.223 4.619-35.043 4.619-35.043l.242 1.964z"/><path fill="#EEAE5E" d="M520 173.355s-2.346-23.724-9.238-34.111c-8.414-12.719-26.463-17.826-26.463-17.826s-1.541-32.336-14.107-50.219c-11.848-16.905-23.211-26.256-42.65-33.174-19.436-6.91-57.338-6.914-74.342-5.775-16.998 1.131-36.736 2.257-55.666-.706-19.792-3.112-47.963 1.164-50.146-31.544 2.183 32.71-26.282 32.221-45.494 37.931-18.37 5.445-38.094 6.96-55.088 8.084-16.992 1.144-54.58 6.182-72.916 15.609-18.321 9.439-28.354 20.215-37.874 38.538-10.1 19.401-7.302 51.647-7.302 51.647s-17.208 7.464-23.876 21.188c-5.448 11.214-4.606 35.042-4.606 35.042l-.232-1.971s2.336 23.725 9.233 34.115c8.425 12.711 26.471 17.832 26.471 17.832s1.512 32.309 14.106 50.219c11.864 16.9 23.222 26.258 42.654 33.176 19.435 6.912 57.355 6.893 74.328 5.766 17.002-1.141 36.762-2.246 55.67.703 19.802 3.105 47.945-1.375 50.125 31.33-2.18-32.705 26.305-32.002 45.525-37.723 18.357-5.428 38.094-6.951 55.098-8.086 16.969-1.131 54.568-6.156 72.9-15.588 18.342-9.439 28.357-20.211 37.867-38.543 10.104-19.426 7.299-51.656 7.299-51.656s17.215-7.475 23.863-21.18c5.471-11.222 4.619-35.044 4.619-35.044l.242 1.966z"/><path d="M491.561 176.168s.75 21.502-4.459 31.639c-6.328 12.389-22.629 19.18-22.629 19.18s2.559 29.078-7.051 46.635c-9.037 16.57-18.539 26.32-35.914 34.896-17.367 8.561-52.926 13.207-68.977 14.271-16.09 1.074-34.752 2.514-52.131 7.457-18.176 5.211-45.105 4.668-43.144 34.16-1.96-29.492-28.586-25.379-47.308-28.125-17.87-2.602-36.562-1.545-52.635-.471-16.061 1.078-51.914 1.197-70.269-4.979-18.349-6.189-29.063-14.596-40.236-29.812-11.863-16.123-13.195-45.279-13.195-45.279s-17.048-4.562-24.973-16.004c-6.496-9.355-8.64-30.766-8.64-30.766l.212 1.781s-.716-21.491 4.458-31.633c6.344-12.406 22.647-19.184 22.647-19.184s-2.559-29.094 7.047-46.63c9.05-16.562 18.562-26.313 35.922-34.88 17.359-8.564 52.922-13.228 68.987-14.299 16.069-1.073 34.727-2.489 52.109-7.453 18.181-5.206 43.552-14.038 43.128-34.358.343 16.338 28.622 25.574 47.325 28.324 17.881 2.614 36.561 1.54 52.633.466 16.074-1.074 51.916-1.178 70.291 5 18.344 6.187 29.062 14.59 40.223 29.807 11.836 16.109 13.191 45.275 13.191 45.275s17.039 4.552 24.967 16.002c6.498 9.366 8.645 30.767 8.645 30.767l-.224-1.787z" fill="none"/><path fill="#94342E" d="M520 180.963s-2.346-23.726-9.238-34.112c-8.414-12.718-26.463-17.824-26.463-17.824s-1.541-32.338-14.107-50.22c-11.848-16.906-23.211-26.258-42.65-33.176-19.436-6.908-57.338-6.914-74.342-5.772-16.998 1.13-36.736 2.254-55.666-.708-19.791-3.112-47.963 1.166-50.146-31.544 2.183 32.71-26.282 32.218-45.494 37.928-18.373 5.447-38.095 6.96-55.089 8.085-16.992 1.146-54.58 6.184-72.916 15.608-18.321 9.444-28.354 20.216-37.874 38.54-10.102 19.401-7.302 51.646-7.302 51.646s-17.208 7.467-23.876 21.189c-5.448 11.21-4.606 35.038-4.606 35.038l-.231-1.967s2.336 23.725 9.233 34.121c8.425 12.709 26.471 17.826 26.471 17.826s1.512 32.312 14.106 50.219c11.864 16.902 23.222 26.258 42.654 33.176 19.435 6.914 57.355 6.893 74.328 5.766 17.002-1.139 36.762-2.246 55.67.703 19.802 3.105 47.945-1.375 50.125 31.33-2.18-32.705 26.305-32.002 45.525-37.721 18.357-5.43 38.094-6.949 55.098-8.082 16.969-1.135 54.568-6.156 72.9-15.59 18.342-9.438 28.357-20.219 37.867-38.547 10.104-19.426 7.299-51.656 7.299-51.656s17.215-7.475 23.863-21.178c5.471-11.223 4.619-35.045 4.619-35.045l.242 1.967z"/><path fill="#DEDA83" d="M331.86 138.296c9.446 18.576 33.884 29.887 53.2 21.567 22.079-9.511 40.591-40.749 22.333-62.63-14.138-16.942-45.623-14.899-62.73-3.757-14.343 9.343-20.702 29.284-12.803 44.82z"/><path fill="#B84F2D" d="M358.132 173.308c44.302-4.771 87.022 6.758 102.247 14.334l-2.98.958c-10.585-2.739-38.456-8.646-85.283-3.6-81.52 8.778-161.495 30.485-226.952 37.53-45.699 4.928-72.005-1.879-72.005-1.879l1.28-.867s27.401 1.865 51.091-.686c84.067-9.054 149.956-36.891 232.602-45.79z"/><g fill="#94342E"><path d="M347.756 131.454c1.208-6.199 5.236-16.506 7.652-21.137.596-1.075 1.13-1.395 1.879-.755 1.396 1.128 2.526 4.525 1.142 8.849-1.21 3.803-3.853 9.786-4.995 14.075-1.295 4.973-.685 8.192 1.876 7.591 3.638-.586 7.346-6.636 9.005-12.566.305-.786.883-.783 1.297-.179.828 1.207.82 2.944.127 5.106-1.737 5.362-6.374 9.474-10.914 10.102-6.163.852-8.421-4.124-7.069-11.086zm15.153-23.661c-.896 1.28-3.201 1.35-4.708-.589-1.6-2.01-1.531-4.498-.425-6.056 1.107-1.558 3.593-.91 4.949 1.134 1.346 1.963 1.082 4.229.184 5.511zM385.479 104.672c2.731.036 5.794 3.66 4.351 8.157-1.21 3.803-4.353 10.352-5.635 14.826-1.458 4.994-.445 8.737 2.452 8.171 3.302-.622 6.534-6.523 8.83-12.624.305-.786.872-.864 1.367-.272.69.813.787 2.701-.023 5.209-1.562 4.843-6.097 9.684-10.8 10.334-6.891.953-9.208-3.85-7.832-11.228 1.576-8.316 7.523-17.896 5.975-18.344-.855-.211-5.245 2.709-9.649 9.102-4.064 5.851-6.557 14.127-8.989 22.23-.223.773-.664 1.166-1.495.536-1.846-1.396-2.702-4.005-1.966-8.237.915-5.333 5.601-17.465 9.665-25.712.444-.971 1.104-.979 1.703-.235 1.496 1.858 1.796 4.626 1.308 7.668 3.11-4.395 8.007-9.617 10.738-9.581z"/></g><g fill="#DEDA83"><path d="M123.911 125.781c.947-2.25 2.104-2.845 4.491-2.588 2.387.258 3.809.862 6.142 1.575 2.457.808 2.597 1.911 2.534 4.946.007 3.586-.748 18.815-1.315 32.003 5.552-17.183 13.163-39.338 15.977-46.308 1.276-3.19 2.283-3.206 4.851-2.411 2.112.741 4.031 1.73 6.007 3.16 2.128 1.748 2.022 4.452 1.131 7.143-5.459 15.267-15.715 45.715-20.414 61.67-.877 2.802-2.353 3.551-5.538 3.17-3.52-.339-4.803-.735-7.715-1.599-2.69-.891-3.868-3.096-4.08-5.647-.631-4.964-1.575-15.046-1.798-22.976-4.337 10.864-9.551 24.53-12.047 31.349-1.098 2.83-2.408 3.109-4.67 2.947-2.952-.297-5.836-.94-8.293-1.749-2.332-.712-2.97-2.201-3.169-5.538-.995-14.895-.405-43.78.884-60.982.188-2.938 1.193-3.851 3.689-3.608 3.062.285 5.478.763 7.756 1.93 2.527 1.36 2.645 4.932 2.429 7.649-.266 4.967-1.624 22.515-2.383 35.951 5.21-14.561 12.784-34.356 15.531-40.087zM208.056 121.93c2.68 14.905-.443 39.74-11.354 53.569-3.673 4.615-8.056 6.292-13.546 6.317-3.586.007-7.946-.785-11.067-2.407-2.402-1.264-5.207-3.933-6.635-7.228-6.748-15.172-.71-44.414 13.013-59.048 2.862-3.055 7.659-5.009 11.26-4.905 4.717.072 9.713 1.456 12.572 3.671 3.356 2.601 5.004 5.866 5.757 10.031zm-28.356 22.099c-2.558 10.75-2.874 25.026 1.418 26.163 4.182 1.151 9.251-9.247 11.995-22.935 2.131-10.583 2.638-26.006-1.032-26.661-3.56-.669-9.837 12.571-12.381 23.433zM222.784 174.428c-.367 2.4-1.084 2.94-3.471 2.681-2.4-.367-4.595-.873-6.279-1.78-2.168-1.181-2.585-2.698-2.426-5.857.807-10.415 4.201-30.464 7.258-46.996-1.093-1.542-2.463-3.498-3.349-5.178-1.344-2.632-1.401-3.971.748-5.588 10.04-7.441 30.218-15.385 37.873-8.062 3.069 2.973 6.028 6.857 7.6 13.047 1.557 6.08-.667 11.52-4.437 16.257-3.866 4.864-9.608 9.964-16.33 14.405 4.287 5.51 11.157 12.821 15.979 17.252 2.018 1.762 1.606 2.936.229 4.455-1.679 1.782-2.644 2.129-4.449 2.919-2.012.928-4.646 1.374-7.988-1.115-4.669-3.218-12.022-10.803-17.14-17.552-1.432 7.244-2.755 14.475-3.818 21.112zm7.044-36.319c12.388-6.619 19.607-17.737 18.275-21.155-.874-2.467-7.232-2.22-13.858 2.097-1.436 5.452-2.845 12.02-4.417 19.058zM302.873 158.872c1.354 1.845 1.067 3.115-.764 4.581-1.226.94-3.237 1.868-4.726 2.506-2.453.984-5.226 1.225-7.867-1.915-2.254-2.74-7.758-9.888-11.757-16.667-1.254 7.782-2.467 14.999-3.324 20.602-.354 2.511-1.07 3.049-3.471 2.683-2.401-.368-5.299-1.121-7.356-2.316-2.058-1.196-2.571-2.589-2.316-5.871 1.051-12.914 6.332-48.111 9.559-62.421.656-2.774 2.034-3.398 4.449-2.919 2.524.463 6.184 1.903 8.365 3.196 2.431 1.485 2.873 2.325 2.203 4.988-1.245 5.203-2.664 12.557-4.207 20.712 7.73-10.623 17.717-24.67 22.007-31.494 1.402-2.195 2.615-2.349 4.494-.794 1.755 1.459 3.498 3.704 4.468 6.046.804 1.915.739 4.054-.661 7.146-3.777 8.216-13.681 22.029-21.674 32.348 4.028 6.999 9.466 15.388 12.578 19.589z"/></g><g fill="#DEDA83"><path d="M93.309 316.516c-.478 2.416-1.194 2.955-3.581 2.698-2.18-.396-5.078-1.148-7.011-2.248-2.058-1.196-2.585-2.699-2.315-5.872.806-10.415 4.201-30.465 7.147-46.981-.968-1.446-2.338-3.401-3.238-5.192-1.454-2.618-1.401-3.971.747-5.588 10.041-7.441 30.219-15.386 37.875-8.063 3.068 2.975 6.027 6.857 7.599 13.047 1.558 6.081-1.025 11.341-4.547 16.271-5.68 8.232-18.117 17.1-29.267 21.991-1.256 6.884-2.525 13.659-3.409 19.937zm24.367-57.912c-.64-2.385-7.053-1.683-13.596 2.399-1.312 5.548-2.721 12.116-4.183 19.141 12.939-6.689 19.112-17.226 17.779-21.54zM142.221 309.742c-.368 2.4-1.084 2.94-3.471 2.683-2.401-.367-4.595-.874-6.279-1.78-2.168-1.183-2.586-2.699-2.426-5.858.807-10.414 4.201-30.464 7.258-46.994-1.093-1.543-2.463-3.498-3.349-5.18-1.344-2.632-1.401-3.97.747-5.587 10.041-7.442 30.219-15.386 37.875-8.063 3.067 2.974 6.027 6.857 7.598 13.047 1.558 6.081-.666 11.52-4.436 16.258-3.866 4.863-9.608 9.964-16.33 14.404 4.287 5.51 11.157 12.821 15.979 17.252 2.018 1.763 1.606 2.936.229 4.455-1.679 1.782-2.645 2.129-4.449 2.919-2.012.929-4.646 1.375-7.988-1.114-4.669-3.219-12.021-10.804-17.14-17.552-1.432 7.243-2.755 14.472-3.818 21.11zm7.044-36.318c12.388-6.618 19.606-17.737 18.275-21.155-.874-2.467-7.232-2.219-13.858 2.098-1.437 5.45-2.845 12.019-4.417 19.057zM228.085 244.465c2.678 14.905-.444 39.74-11.355 53.569-3.673 4.614-8.056 6.291-13.546 6.317-3.586.007-7.946-.785-11.067-2.406-2.402-1.265-5.208-3.934-6.635-7.229-6.748-15.173-.71-44.413 13.013-59.048 2.863-3.054 7.658-5.008 11.259-4.905 4.718.073 9.714 1.456 12.574 3.671 3.356 2.601 5.005 5.867 5.757 10.031zm-28.356 22.098c-2.558 10.751-2.874 25.028 1.418 26.163 4.182 1.151 9.251-9.246 11.995-22.935 2.131-10.583 2.638-26.006-1.032-26.661-3.561-.667-9.838 12.573-12.381 23.433zM275.389 254.149c-6.29-.098-9.18-3.43-9.714-8.519-.38-3.875-.185-9.394-1.909-9.733-3.451-.684-9.95 11.688-13.648 24.938-3.163 11.276-3.107 24.945.978 26.221 3.381 1.026 7.671-5.796 10.441-13.995-5.584 1.045-8.583-1.375-10.03-7.47-.472-1.958.45-2.636 2.27-3.315 3.625-1.469 9.774-3.371 13.137-4.247 3.144-.848 4.868-.506 6.555 1.297 1.176 1.309 2.269 2.852 3.099 4.091 1.55 2.493 1.649 4.162.8 7.186-2.902 10.682-7.548 19.119-12.876 23.943-3.415 3.124-7.495 4.539-11.786 4.299-3.944-.17-7.547-1.17-10.902-2.874-2.526-1.359-5.346-4.142-6.663-7.449-6.321-15.339 1.395-47.259 16.291-61.481 3.098-2.973 7.261-3.726 10.407-3.677 4.262.02 9.493 1.484 12.601 3.893 2.984 2.311 4.135 5.192 4.75 9.148.629 4.067.312 11.282-.356 14.843-.412 2.068-1.086 2.939-3.445 2.901zM293.781 290.488c-.368 2.4-1.084 2.939-3.472 2.683-2.4-.368-4.595-.874-6.279-1.78-2.168-1.183-2.585-2.699-2.426-5.858.807-10.415 4.201-30.464 7.258-46.995-1.093-1.543-2.462-3.497-3.348-5.179-1.344-2.632-1.402-3.97.746-5.588 10.041-7.441 30.219-15.386 37.875-8.063 3.068 2.975 6.027 6.857 7.599 13.048 1.558 6.08-.667 11.519-4.437 16.257-3.866 4.863-9.607 9.964-16.33 14.405 4.287 5.51 11.157 12.82 15.98 17.252 2.018 1.762 1.605 2.936.229 4.455-1.68 1.782-2.644 2.129-4.449 2.919-2.013.929-4.646 1.374-7.988-1.114-4.669-3.219-12.022-10.804-17.14-17.553-1.433 7.244-2.756 14.474-3.818 21.111zm7.044-36.319c12.387-6.617 19.606-17.736 18.275-21.155-.874-2.467-7.232-2.219-13.858 2.099-1.437 5.449-2.845 12.018-4.417 19.056zM337.138 221.531c-.722-2.15-.227-2.662 1.482-3.328 7.332-3.173 21.243-6.622 31.351-8.241 2.302-.405 3.877.516 4.694 2.541 1.066 2.22 1.608 3.833 2.108 6.01.419 2.413-.131 3.381-2.53 3.908-5.004 1.198-11.194 2.769-17.025 4.519l-3.706 15.829c2.702-.793 5.432-1.364 8.396-1.854 2.413-.418 3.807-.033 4.845 1.964 1.054 2.108 1.857 4.024 2.357 6.202.64 2.386.062 3.131-2.295 3.991-5.486 1.818-11.62 3.831-16.954 5.965-.778 3.574-1.559 7.148-2.145 10.473 4.411-1.456 8.312-2.513 13.015-3.446 2.398-.528 3.902-.159 4.941 1.839 1.177 2.205 1.98 4.12 2.481 6.298.64 2.386.187 3.229-2.171 4.088-6.106 2.233-12.971 4.675-18.717 7.086-3.928 1.732-5.599.936-7.104-.331-1.603-1.141-2.97-2.2-5.016-4.183-1.534-1.485-2.505-3.829-2.235-7.002.96-10.099 4.796-30.204 7.799-45.383-1.479-1.942-2.878-5.016-3.571-6.945zM382.628 262.833c7.238 4.91 13.765 5.987 16.214 3.21 2.863-3.055-9.493-8.547-16.194-14.533-4.686-4.226-7.596-11.255-4.979-19.771 2.179-7.562 7.967-16.705 14.054-21.737 2.341-1.867 6.323-4.056 11.166-2.988 3.698.875 7.992 2.908 10.397 5.068 3.522 3.027 3.668 6.82 3.716 9.841-.127 5.174-1.792 14.128-3.534 18.946-.837 2.235-1.885 2.817-3.981 2.187-5.935-1.712-8.907-4.81-8.475-9.349.378-4.084 2.623-12.888 1.214-13.381-2.484-1.031-14.865 15.341-7.885 22.637 7.602 7.777 22.548 11.596 18.638 22.294-1.823 5.052-6.138 13.447-17.253 15.083-7.253 1.145-14.776-1.598-22.075-9.638-3.773-4.117-3.542-5.829-1.587-7.197 3.196-2.201 7.996-2.362 10.564-.672zM427.968 257.073c7.237 4.909 13.764 5.986 16.214 3.21 2.862-3.056-9.493-8.547-16.195-14.533-4.685-4.226-7.596-11.255-4.978-19.771 2.178-7.563 7.966-16.705 14.053-21.737 2.341-1.868 6.323-4.056 11.167-2.989 3.698.876 7.991 2.908 10.396 5.069 3.523 3.027 3.669 6.82 3.716 9.841-.127 5.173-1.792 14.128-3.534 18.946-.837 2.235-1.884 2.817-3.981 2.187-5.936-1.712-8.906-4.81-8.475-9.349.378-4.084 2.622-12.888 1.215-13.381-2.485-1.031-14.866 15.34-7.886 22.636 7.602 7.778 22.548 11.596 18.638 22.295-1.824 5.052-6.139 13.446-17.252 15.083-7.253 1.145-14.776-1.598-22.075-9.639-3.774-4.116-3.543-5.828-1.587-7.197 3.195-2.2 7.994-2.362 10.564-.671z"/></g></svg>