<svg xmlns="http://www.w3.org/2000/svg" viewBox="0 0 105.753 144.839" enable-background="new 0 0 105.753 144.839"><path fill="#081F38" d="M30.897 144.839l-.284-.036-.42-.107c-.507-.13-.861-.587-.861-1.11 0-.779-.017-1.559-.034-2.338-.038-1.724-.076-3.507.071-5.275.686-8.276 1.31-15.224 2.127-22.234.55-4.72 2.714-8.876 4.807-12.895l.212-.407c.288-.552.531-1.136.791-1.808-3.556 2.931-7.76 4.604-11.832 6.224l-1.035.412c-9.501 3.806-16.882 10.047-21.937 18.55-.236.397-.686.611-1.145.549-.457-.064-.832-.397-.949-.843-.725-2.758-.501-5.156.825-8.85 2.549-7.098 5.883-13.151 10.194-18.505l1.422-1.766c4.128-5.126 8.398-10.427 12.519-15.696 4.259-5.445 6.615-12.037 8.894-18.412l.625-1.745c.569-1.579 1.122-3.165 1.675-4.75 1.121-3.214 2.28-6.537 3.564-9.762 1.648-4.138 4.437-7.445 8.291-9.828 3.923-2.427 7.868-2.62 12.686-.569.423.18.697.595.697 1.054l.002 1.609c.002 1.157.003 2.286-.003 3.414-.011 1.977-.04 3.955-.069 5.933-.064 4.374-.13 8.896.009 13.324.104 3.298.433 6.662.751 9.916.188 1.925.376 3.851.522 5.778.051.668.126 1.344.201 2.021.233 2.106.475 4.283.034 6.377-1.061 5.042 1.637 8.727 4.247 12.29 1.789 2.443 3.755 4.843 5.836 7.384.993 1.213 2.027 2.476 3.106 3.82.236.293.312.684.205 1.045-.107.361-.386.646-.743.762l-.424.128c-.296.086-.603.175-.863.294-1.774.814-3.569 1.592-5.364 2.371-4.013 1.74-8.163 3.54-11.971 5.722-7.364 4.221-16.515 10.335-21.966 20.236-.848 1.54-1.599 3.192-2.326 4.79-.346.761-.692 1.522-1.051 2.277-.194.408-.602.656-1.036.656z"/><path fill="#B84F2D" d="M39.422 95.173c.301 0 .597.119.816.341.321.325.418.809.247 1.232-.268.665-.493 1.263-.7 1.811-.413 1.091-.769 2.035-1.237 2.935l-.213.408c-1.998 3.835-4.062 7.801-4.564 12.101-.813 6.979-1.436 13.905-2.12 22.158-.091 1.096-.105 2.225-.093 3.348.543-1.173 1.112-2.354 1.742-3.498 5.726-10.4 15.211-16.75 22.834-21.119 3.919-2.246 8.128-4.071 12.199-5.837 1.768-.767 3.536-1.534 5.285-2.336-.707-.872-1.395-1.711-2.064-2.528-2.101-2.566-4.086-4.99-5.912-7.482-2.772-3.784-5.913-8.073-4.641-14.117.365-1.735.154-3.638-.069-5.652-.078-.704-.156-1.407-.208-2.101-.145-1.911-.331-3.82-.518-5.729-.321-3.291-.654-6.694-.761-10.066-.141-4.482-.074-9.031-.01-13.431.029-1.971.058-3.942.069-5.913.007-1.122.005-2.246.003-3.397l-.001-.839c-3.774-1.44-6.786-1.226-9.886.691-3.426 2.118-5.904 5.055-7.366 8.727-1.266 3.178-2.417 6.478-3.53 9.668-.555 1.593-1.111 3.186-1.682 4.772l-.624 1.74c-2.34 6.546-4.759 13.316-9.247 19.053-4.131 5.281-8.406 10.589-12.539 15.721l-1.422 1.766c-4.148 5.152-7.361 10.988-9.822 17.842-.673 1.874-.996 3.257-1.082 4.428 5.215-7.542 12.359-13.164 21.278-16.736l1.04-.415c4.334-1.724 8.429-3.354 11.828-6.382.39-.348.819-.489 1.413-.685.296-.098.667-.22 1.141-.403.137-.051.277-.076.416-.076z"/><path fill="#081F38" d="M101.235 88.537l-.055-.001-35.804-1.736c-.528-.026-.97-.409-1.07-.928l-.119-.551c-.1-.442-.203-.899-.239-1.392-.153-2.111-.311-4.221-.47-6.332-.449-5.983-.914-12.169-1.24-18.267-.148-2.767-.1-5.57-.054-8.281.025-1.477.05-2.954.044-4.429-.011-3.083-.038-6.166-.064-9.249-.022-2.572-.044-5.144-.057-7.716-.013-2.636-.01-5.271-.007-7.919l.003-3.614c0-.617.489-1.124 1.107-1.146l18.65-.651c.637-.03 1.163.472 1.185 1.104l.374 10.28c.428 12.132.852 24.171 1.264 36.211l.005.137c.024.679.052 1.449-.208 2.195-.293.841-.175 1.279 1.105 2.214 5.877 4.292 10.531 9.855 15.032 15.235l1.479 1.764c.369.443.336.935.308 1.332-.011.153-.025.348-.025.596 0 .313-.129.613-.355.83-.212.2-.495.314-.789.314z"/><path fill="#B84F2D" d="M66.365 84.553l33.332 1.615-.836-.998c-4.413-5.274-8.975-10.727-14.626-14.854-.931-.68-2.867-2.095-1.918-4.82.118-.339.1-.856.081-1.357l-.005-.142c-.412-12.039-.836-24.078-1.26-36.117l-.336-9.225-16.401.573-.002 2.51c-.003 2.642-.007 5.273.007 7.904.013 2.57.035 5.139.057 7.708.026 3.087.053 6.174.064 9.26.006 1.491-.02 2.984-.045 4.476-.045 2.671-.092 5.434.051 8.121.325 6.073.789 12.247 1.237 18.217.158 2.112.317 4.225.471 6.338.017.246.068.512.129.791z"/><path fill="#081F38" d="M78.389 95.629c-.324-.044-.63.067-.868.265l.472-6.981c.035-.519-.284-.997-.777-1.164-.493-.166-1.037.021-1.323.456-.371.563-.674 1.338-.917 2.24v-.591c0-.309-.125-.605-.346-.821-.222-.215-.511-.352-.829-.325l-.85.022-.271.068v-.02c0-.373-.181-.722-.486-.937-.305-.214-.695-.269-1.046-.143l-.504.18c-.456.163-.76.595-.76 1.079v.634c-.097-.234-.264-.441-.481-.576-.266-.167-.626-.205-.931-.128l-.154.04c-.509.129-.865.587-.865 1.111v4.265c0 .316.13.618.36.835.213.201.495.312.786.312l.069-.002 1.118-.067.099-.028v1.842c0 .317.132.62.363.837.213.199.493.309.783.309l.077-.003.502-.034c.22-.014.41-.106.578-.226.117.684.297 1.372.586 2.063.181.432.602.704 1.057.704l.226-.022c.126-.025.242-.074.349-.136.102.861.243 1.622.422 2.21.148.486.597.812 1.096.812l.132-.007c.21-.024.391-.117.55-.238.134.604.314 1.23.556 1.931.162.468.601.772 1.083.772l.19-.016c.552-.093.957-.571.957-1.131v-8.256c-.003-.575-.431-1.062-1.003-1.135zM104.777 71.454c-.186-.455-.648-.747-1.129-.71l-.151.033.169-3.75c.014-.308-.097-.61-.309-.836-.212-.226-.505-.356-.814-.362l-.864-.017c-.317-.002-.605.113-.825.328-.22.215-.344.51-.344.818v.656l-.708-.051c-.132-.009-.262.018-.388.053-.006-.625-.51-1.132-1.136-1.136l-.496-.003h-.008l-.245.049c-.129-.253-.34-.462-.622-.564-.487-.174-1.028-.002-1.325.42-1.954 2.781-1.338 5.677-.794 8.231l.036.168c.113.533.583.908 1.121.908l.077-.003c.232-.015.434-.112.608-.244v1.458c0 .571.42 1.054.985 1.135l.496.071.161.011c.122 0 .241-.026.355-.064.118.482.521.854 1.038.88l.275.012v1.907c0 .631.509 1.143 1.14 1.146l.301.002h.006c.26 0 .501-.103.703-.263.237 1.198.607 2.241 1.141 2.99.218.306.568.48.933.48l.264-.031c.453-.107.796-.479.869-.939.766-4.911.552-10.168-.52-12.783zM93.47 67.582c0-.622-.515-1.131-1.137-1.146l-.778-.02c-.342-.029-.639.123-.863.359-.093.098-.153.217-.206.338-.064-.285-.229-.538-.473-.702-.255-.172-.567-.233-.867-.172l-1.082.219c-.346.071-.641.297-.798.613-.157.316-.16.688-.007 1.007l.823 1.711c.195.406.603.649 1.033.649.119 0 .239-.018.357-.057l.589-.193.027-.015c.049.628.246 1.342.761 2.137.213.33.578.523.962.523l.201-.018c.454-.081.815-.426.917-.877l.238-1.005c.137-.56.236-.964.282-1.407.051-.493.04-.962.029-1.416l-.008-.528zM87.146 60.853c-1.121-18.179-.076-36.15 0-54.393v-6.46l-1.223.082c-.606.038-1.077.542-1.075 1.15.101 21.444-1.358 42.457.289 63.831.048.624.591 1.097 1.211 1.056l.798-.046v-5.22z"/></svg>