<svg xmlns="http://www.w3.org/2000/svg" viewBox="0 0 235.564 124.509" enable-background="new 0 0 235.564 124.509"><path fill="#f1f1d3" d="M4.971 63.786c-.164-6.945.657-13.803 2.148-20.512 1.858-8.36 4.441-16.556 6.397-24.897 1.984-8.463 8.851-10.739 15.775-11.046 4.062-.18 8.14.059 12.207-.05 7.66-.205 15.316-.552 22.976-.792 9.363-.293 18.727-.653 28.093-.762 7.65-.089 15.305.276 22.956.209 8.119-.071 16.237-.364 24.353-.651 10.61-.375 21.212-.65 31.807.387 2.581.252 5.19.208 7.786.309 6.322.245 12.651.374 18.961.79 3.48.23 6.927.952 10.39 1.442 2.012.285 4.025.569 6.042.82 3.475.433 6.144 1.977 7.787 5.211 2.332 4.588 3.67 9.479 4.301 14.528 1.188 9.513 1.991 19.075 3.286 28.572.883 6.478-.004 12.845-.425 19.247-.132 1.999-.914 3.947-1.212 5.946-.915 6.135-1.501 12.334-3.939 18.139-1.394 3.32-2.654 6.701-4.168 9.965-1.934 4.169-5.445 6.113-9.936 6.324-5.067.238-10.143.292-15.206.589-7.647.448-15.281 1.145-22.93 1.531-5.523.278-11.062.305-16.593.295-8.067-.015-16.133-.237-24.199-.229-4.851.005-9.703.421-14.554.407-13.554-.038-27.108-.192-40.662-.322-11.973-.115-23.923-.545-35.8-2.264-4.906-.71-9.883-.943-14.779-1.706-5.037-.785-8.908-3.408-11.594-7.927-3.222-5.422-5.423-11.124-6.312-17.381-.507-3.568-1.603-7.062-1.979-10.638-.542-5.156-.672-10.354-.977-15.534zm134.729-63.447l-.718.026c-7.705.272-15.674.554-23.503.621-3.616.033-7.33-.036-10.92-.103l-.155-.003c-3.887-.073-7.906-.148-11.894-.102-7.434.086-14.927.332-22.175.57l-6.017.193c-3.316.103-6.631.227-9.957.351-4.331.162-8.663.324-12.995.441-1.777.047-3.595.025-5.354.003-2.251-.027-4.578-.055-6.941.049-14.105.627-18.865 8.428-20.373 14.862-.887 3.782-1.935 7.641-2.961 11.418-1.197 4.403-2.433 8.954-3.451 13.535-1.463 6.584-2.232 13.028-2.284 19.151-.007.849-.001 1.7.027 2.725.091 1.532.166 3.066.24 4.607.178 3.641.36 7.405.756 11.154.235 2.241.697 4.345 1.147 6.411.335 1.536.652 2.987.854 4.404.941 6.633 3.215 12.919 6.956 19.214 3.449 5.804 8.525 9.265 15.088 10.29 2.723.424 5.432.69 8.052.947 2.127.207 4.535.443 6.779.769 12.826 1.853 25.628 2.21 36.461 2.314l7.501.073c10.843.107 22.055.217 33.197.249 2.627.007 5.305-.108 7.778-.213 2.244-.096 4.564-.193 6.794-.195 4.265-.004 8.735.059 12.678.114 3.835.054 7.67.108 11.507.115 5.066.01 10.965-.005 16.853-.301 4.325-.218 8.655-.536 12.842-.841 3.373-.248 6.748-.495 10.127-.692 2.819-.165 5.706-.256 8.497-.344 2.219-.068 4.436-.138 6.652-.243 6.642-.311 11.551-3.488 14.196-9.185 1.05-2.266 1.965-4.537 2.85-6.732.457-1.136.916-2.271 1.388-3.397 2.317-5.513 3.109-11.132 3.876-16.573l.054-.382c.112-.79.223-1.581.342-2.371.089-.595.265-1.285.461-2.053.323-1.265.69-2.698.795-4.298.081-1.238.181-2.474.281-3.709l.017-.215c.24-2.948.487-5.998.514-9.104.022-2.609-.116-4.968-.421-7.212-.711-5.214-1.285-10.573-1.852-15.876l-.019-.182c-.438-4.081-.89-8.299-1.408-12.458-.737-5.904-2.351-11.341-4.799-16.16-2.318-4.559-6.216-7.211-11.588-7.88-1.977-.247-3.953-.527-5.963-.81-1.077-.151-2.153-.328-3.268-.51-2.41-.393-4.903-.798-7.489-.969-4.535-.299-9.116-.453-13.638-.606-1.82-.061-3.638-.122-5.457-.193-.884-.034-1.766-.052-2.658-.069-1.694-.035-3.296-.068-4.839-.219-10.787-1.054-21.511-.794-32.463-.406zm32.187 3.221c1.652.162 3.306.196 5.068.232.866.017 1.732.035 2.596.069 1.824.071 3.648.132 5.563.195 4.407.149 8.965.303 13.454.597 2.452.163 4.876.558 7.258.945 1.096.179 2.192.358 3.323.517 1.992.282 3.981.563 5.975.812 4.382.547 7.55 2.684 9.415 6.354 2.3 4.528 3.819 9.651 4.515 15.228.516 4.135.967 8.342 1.402 12.409l.033.304c.555 5.202 1.131 10.581 1.849 15.835.286 2.107.415 4.333.394 6.806-.025 3.004-.269 6.002-.503 8.9l-.018.215c-.1 1.249-.202 2.501-.283 3.752-.089 1.338-.42 2.636-.724 3.824-.204.801-.397 1.559-.507 2.295-.119.797-.232 1.595-.345 2.392l-.056.39c-.74 5.255-1.506 10.69-3.682 15.866-.476 1.138-.94 2.288-1.403 3.434-.872 2.164-1.772 4.401-2.792 6.6-2.172 4.68-6.24 7.291-11.764 7.551-2.2.103-4.403.173-6.607.241-2.81.088-5.717.179-8.573.346-3.392.199-6.781.447-10.168.694-4.172.306-8.487.623-12.779.839-5.82.292-11.675.306-16.706.296-3.823-.007-7.647-.061-11.471-.115-3.954-.056-8.435-.118-12.722-.115-2.289.003-4.637.102-7.022.202-2.332.1-4.975.213-7.539.207-11.131-.032-22.339-.142-33.178-.249l-7.5-.073c-10.738-.103-23.422-.455-36.083-2.286-2.308-.334-4.752-.573-6.909-.783-2.581-.253-5.25-.515-7.892-.926-5.69-.888-10.094-3.898-13.091-8.941-3.546-5.968-5.7-11.91-6.588-18.167-.216-1.521-.543-3.021-.897-4.639-.428-1.962-.872-3.991-1.092-6.075-.386-3.67-.567-7.394-.744-11-.074-1.545-.149-3.087-.239-4.583-.024-.942-.031-1.763-.024-2.582.05-5.926.795-12.171 2.215-18.561 1.005-4.518 2.232-9.037 3.433-13.454 1.019-3.754 2.074-7.637 2.973-11.469 1.285-5.479 5.408-12.129 17.746-12.676 2.282-.102 4.569-.075 6.78-.048 1.786.022 3.632.045 5.464-.005 4.343-.117 8.684-.279 13.035-.441 3.31-.124 6.62-.248 9.932-.351l6.018-.193c7.233-.237 14.712-.483 22.116-.568 3.945-.047 7.941.028 11.809.101l.153.003c3.61.068 7.342.137 10.997.104 7.868-.069 15.855-.351 23.579-.624l.718-.026c10.853-.382 21.476-.642 32.088.395z"/></svg>