<svg xmlns="http://www.w3.org/2000/svg" viewBox="0 0 61.949 61.752" enable-background="new 0 0 61.949 61.752"><path fill="#EFAD5F" d="M34.607 0c-.265 0-.531.009-.799.029l-.284.021c-.922.068-1.876.138-2.804.165l-.137.004c-1.531.044-3.114.089-4.703.285-1.896.234-3.398.574-4.727 1.071-5.553 2.077-10.054 5.28-13.377 9.52-.637.811-1.255 1.64-1.776 2.343-1.521 2.056-3.068 4.294-3.797 7.052-.199.753-.402 1.505-.606 2.257-.428 1.585-.871 3.224-1.27 4.851-.21.857-.32 1.79-.326 2.774-.017 2.991.144 6.501 1.47 9.859.186.471.353.948.521 1.425.415 1.181.845 2.403 1.548 3.559.305.502.599 1.011.893 1.52 1.197 2.073 2.435 4.216 4.42 5.887.231.195.456.422.694.663.418.423.849.859 1.397 1.206.546.345 1.086.7 1.626 1.055 1.862 1.222 3.786 2.487 5.952 3.358l.808.328c1.925.784 3.916 1.594 6.079 2.007 1.812.346 3.47.514 5.07.514 1.856 0 3.585-.225 5.286-.687 1.035-.281 2.073-.557 3.11-.832 1.778-.472 3.616-.96 5.419-1.472 1.333-.379 2.655-1.045 3.932-1.981.244-.179.483-.366.721-.553.31-.243.603-.472.905-.681 2.121-1.465 3.874-3.103 5.36-5.008.796-1.021 1.359-2.119 1.903-3.182.275-.536.534-1.043.822-1.541l.253-.399c.225-.342.48-.729.634-1.194.232-.699.509-1.409.778-2.096.579-1.481 1.177-3.013 1.437-4.685.1-.645.259-1.304.413-1.941.335-1.39.652-2.705.419-3.943-.041-3.647-.492-6.737-1.416-9.716-1.01-3.255-2.614-6.405-4.769-9.363-.727-.998-1.587-2.149-2.59-3.168-1.216-1.235-2.521-2.329-3.637-3.237-3.323-2.703-6.575-4.433-9.942-5.289-1.627-.414-3.224-.785-4.91-.785z"/><path fill="#081F38" d="M30.336 59.588l-.133-.008-.927-.102c-.747-.079-1.528-.162-2.303-.284-4.046-.635-7.84-2.086-11.274-4.313-.415-.269-.85-.509-1.283-.75l-.278-.154c-2.151-1.202-4.071-2.947-5.87-5.336-.95-1.262-1.582-2.705-2.193-4.103l-.047-.108c-.927-2.114-1.898-4.376-2.703-6.736-.823-2.415-1.16-4.971-1.003-7.598.083-1.378.35-2.766.842-4.365.209-.681.379-1.375.548-2.069.221-.902.449-1.835.764-2.75.508-1.477 1.127-2.798 1.841-3.928 1.728-2.736 3.705-5.58 6.449-7.841 1.434-1.181 3.083-2.292 5.189-3.498 1.995-1.142 4.147-2.29 6.59-2.682 1.345-.215 2.826-.399 4.661-.581 1.092-.108 2.385-.218 3.687-.218 4.722.011 8.604 1.045 11.922 3.161 1.87 1.191 3.509 2.645 5.095 4.05l.54.478c3.267 2.883 5.695 6.606 7.644 11.715.498 1.303.717 2.671.929 3.995l.155.948c.112.648.166 1.292.219 1.914.043.504.084 1.008.159 1.507.236 1.558.036 3.04-.17 4.309-.186 1.146-.428 2.338-.718 3.543-.472 1.948-1.2 3.843-2.229 5.793-.217.411-.396.842-.576 1.271-.259.616-.526 1.253-.895 1.865-.89 1.474-1.705 2.608-2.567 3.573-2.453 2.744-5.428 4.888-8.842 6.37-1.63.708-3.356 1.142-5.025 1.562l-.1.024c-1.776.446-3.63.776-5.266 1.066-.624.111-1.229.156-1.87.203l-.857.069-.105.008zm2.609-55.124c-1.253 0-2.474.105-3.511.208-1.789.176-3.226.355-4.523.563-2.062.331-3.926 1.327-5.812 2.407-1.991 1.139-3.538 2.18-4.869 3.277-2.494 2.055-4.342 4.72-5.968 7.294-.619.979-1.161 2.14-1.611 3.448-.28.815-.486 1.657-.704 2.548-.176.72-.358 1.464-.584 2.2-.437 1.419-.673 2.635-.745 3.826-.139 2.327.158 4.588.884 6.718.775 2.275 1.726 4.486 2.632 6.556l.048.109c.558 1.275 1.135 2.595 1.924 3.642 1.602 2.127 3.288 3.668 5.155 4.711l.272.152c.479.266.958.532 1.416.829 3.163 2.051 6.655 3.388 10.381 3.973.736.115 1.479.193 2.188.269l.832.09.782-.062c.58-.043 1.128-.083 1.636-.173 1.677-.299 3.41-.606 5.107-1.033l.099-.025c1.58-.397 3.214-.808 4.671-1.44 3.106-1.35 5.812-3.299 8.043-5.794.765-.854 1.499-1.881 2.312-3.228.282-.469.506-1.003.743-1.567.2-.478.407-.97.663-1.455.938-1.779 1.601-3.5 2.026-5.26.277-1.148.507-2.283.685-3.372.178-1.096.352-2.367.166-3.596-.083-.549-.131-1.104-.178-1.658-.05-.599-.098-1.165-.192-1.714l-.161-.977c-.202-1.264-.394-2.458-.806-3.539-1.811-4.748-4.04-8.183-7.017-10.81l-.544-.481c-1.589-1.408-3.089-2.738-4.806-3.832-2.939-1.878-6.417-2.794-10.634-2.804z"/><path fill-rule="evenodd" clip-rule="evenodd" fill="#081F38" d="M29.968 26.02c-.05.648-.216.793-.241 1.225-.022.432-.167.648-.216 1.418-.527-.914-.84-1.274.457-2.643zM29.126 32.311c.169-.599.601-.648.889-.696-.13.338-.387.655-.338.984.045.281.376.576.529.84-.26.349-1.368-.599-1.08-1.128zM29.534 36.395c-.083-.477.178-.921.385-1.178l.119 1.128c.097.266.41.504.511.862-.518.158-.934-.346-1.015-.812zM30.927 40.285c.047-.529.432-.849.633-.849-.036.889-.273 1.04.205 1.826-.622-.303-.813-.159-.838-.977zM32.981 24.034c2.832.169 8.06.227 9.486 2.112.054 1.097.173 1.207 0 2.229.853.7 1.225 1.882 1.013 3.647-.457.693-1.166 1.132-1.824 1.623.698.932 1.225 1.328 1.013 2.432-.252 1.328-1.914 1.981-2.855 2.549 3.103.711 3.069 3.537.912 4.949-1.211.793-5.825.72-6.773.912-4.026.241-7.734 1.355-10.499-.793-.745-5.172-1.684-8.851-1.418-14.189 1.425-2.112 2.911-4.422 3.242-7.702.326-3.24-.651-6.818 0-10.134 6.309-2.844 10.179 6.392 7.703 12.365zm-4.695-10.864c-.259-.509-1.175-.57-1.635-.576-.315 1.092.049 3.073.144 4.467.72-.049 1.585-.529 1.873-.817.233-.664.1-2.13-.382-3.074zm-1.387 4.578c-.05 2.805.144 5.622-.608 7.705-.617 1.704-2.285 3.058-2.569 4.96-.169 1.135.02 3.298.144 4.755.264 3.075.29 5.507 1.412 8.121 2.112.369 4.273.295 6.282 0 1.882-.277 6.099-.034 8.254-1.011.874-.396.766-1.011 1.013-1.626-1.058-1.288-6.885.004-7.979-1.209.277-.412.777-.495 1.49-.768 1.243-.477 3.339-.964 4.802-1.202 1.234-.198 1.779-1.119 2.11-1.801-.57-1.921-5.187-.196-7.682-.311-.883-.04-1.209-.867-1.398-1.396 2.038-1.205 8.34-.453 9.891-2.146.083-.894-.056-1.565-.405-2.026-1.495-.086-4.613.086-6.117.331-.338.054-2.278.443-2.643.529-1.099.259-1.493-.293-1.873-1.2 1.274-1.727 8.644.056 10.229-1.889-.651-2.808-7.716-2.06-10.093-2.112.14-.815.212-1.385.203-2.051-.16-.516-1.648.115-1.623-.585.16-.786 1.984.09 1.824-1.013-.045-.626-1.666.317-1.416-.608.149-1.002 1.094-.286 1.621-.608.885-3.157-1.139-5.048-2.229-6.892.589 2.495-.224 4.053-2.64 4.053z"/></svg>