<svg version="1.2" baseProfile="tiny" xmlns="http://www.w3.org/2000/svg" viewBox="0 0 98.1 39.8"><g fill="#F0F1D1"><path d="M66 29.9c0 1.6-1.4 2.7-3.4 2.7-1.4 0-2.4-.7-2.4-1.8v-.1c0-1.4 1.1-2.1 3-2.1 1 0 2 .2 2.7.6v.7zm4.1 5.4v-8.8c0-2-.5-3.7-1.6-4.8-1.1-1.1-2.8-1.7-5.1-1.7-2.5 0-4.1.5-5.8 1.2.6 1 1.2 2 1.6 3.1 1.1-.4 2.1-.6 3.5-.6 2.2 0 3.3 1 3.3 2.8v.3c-1.1-.4-2.2-.6-3.7-.6-3.6 0-6.1 1.5-6.1 4.8v.1c0 3 2.4 4.6 5.2 4.6 2.1 0 3.5-.8 4.6-1.9v1.6h4.1zM30.2 29.9c0 1.6-1.4 2.7-3.4 2.7-1.4 0-2.4-.7-2.4-1.8v-.1c0-1.4 1.1-2.1 3-2.1 1 0 2 .2 2.7.6v.7zm4 5.4v-8.8c0-2-.5-3.7-1.6-4.8-1.1-1.1-2.8-1.7-5.1-1.7-2.5 0-4.1.5-5.8 1.2.6 1 1.2 2 1.6 3.1 1.1-.4 2.1-.6 3.5-.6 2.2 0 3.3 1 3.3 2.8v.3c-1.1-.5-2.2-.8-3.7-.8-3.6 0-6.1 1.5-6.1 4.8v.1c0 3 2.4 4.6 5.2 4.6 2.1 0 3.5-.8 4.6-1.9v1.6h4.1zM94 29.9c0 1.6-1.4 2.7-3.4 2.7-1.4 0-2.4-.7-2.4-1.8v-.1c0-1.4 1.1-2.1 3-2.1 1 0 2 .2 2.8.6v.7zm4.1 5.4v-8.8c0-2-.5-3.7-1.6-4.8-1.1-1.1-2.8-1.7-5.1-1.7-2.5 0-4.1.5-5.8 1.2.6 1 1.2 2 1.6 3.1 1.1-.4 2.1-.6 3.5-.6 2.2 0 3.3 1 3.3 2.8v.3c-1.1-.4-2.2-.6-3.7-.6-3.6 0-6.1 1.5-6.1 4.8v.1c0 3 2.4 4.6 5.2 4.6 2.1 0 3.5-.8 4.6-1.9v1.6h4.1zM73.8 35.3h4.3v-5.6c0-3.6 1.8-5.4 4.6-5.4h.2v-4.5c-2.6-.1-4 1.2-4.8 3.3v-3.1h-4.3v15.3zm-28-3.4c-2 0-3.7-1.7-3.7-4.2v-.1c0-2.5 1.7-4.2 3.7-4.2s3.7 1.7 3.7 4.2v.1c0 2.6-1.7 4.2-3.7 4.2m-7.9 7.9h4.3v-6.5c1 1.2 2.4 2.3 4.7 2.3 3.6 0 6.9-2.8 6.9-7.9v-.1c0-5.1-3.4-7.9-6.9-7.9-2.2 0-3.7 1-4.7 2.5v-2.2h-4.3v19.8zm-37.9-4.5h4.4v-8h8.1v8h4.4v-19.8h-4.4v7.9h-8.1v-7.9h-4.4v19.8zM46.8 12.3l4-11-4.9-1.3-2.2 11.5c1 .2 2.1.4 3.1.8M52 15l5.3-7.3-4.2-2.7-4.1 8.2c1.1.5 2.1 1.1 3 1.8"/><path d="M61.5 14.8l-2.9-3.2-4.6 5c.8.7 1.6 1.5 2.3 2.4l5.2-4.2zM41 11.1l.6-9.4h-4.8l.9 9.5 1.3-.1h2M35.3 11.5l-1.6-7.1-4.3 1.3 2.7 6.8c1.1-.4 2.1-.7 3.2-1"/></g></svg>