<?xml version="1.0" encoding="UTF-8" standalone="no"?>
<svg width="144px" height="35px" viewBox="0 0 144 35" version="1.1" xmlns="http://www.w3.org/2000/svg" xmlns:xlink="http://www.w3.org/1999/xlink">
    <!-- Generator: Sketch 3.7.2 (28276) - http://www.bohemiancoding.com/sketch -->
    <title>crown</title>
    <desc>Created with Sketch.</desc>
    <defs></defs>
    <g id="Page-1" stroke="none" stroke-width="1" fill="none" fill-rule="evenodd">
        <g id="crown" transform="translate(1.000000, 1.000000)">
            <path d="M0.0561702128,17.5531915 C0.0561702128,17.5531915 0.0561702128,17.3569468 0.0835531915,17.1884362 C0.112340426,17.0195745 0.252414894,16.8236809 0.252414894,16.8236809 L10.1945426,2.10638298 C10.1945426,2.10638298 11.9361702,0.0273829787 13.6216277,0.0273829787 L22.4680851,0.0273829787 C22.4680851,0.0273829787 27.3268085,0.0561702128 27.3268085,4.88751064 L27.3268085,15.3070851 C27.3268085,15.3070851 27.2994255,17.1034787 25.5290106,17.1034787 L21.8221277,17.1034787 C21.8221277,17.1034787 20.0243298,17.0760957 20.0243298,15.3070851 L20.0243298,8.22928723 C20.0243298,8.22928723 20.0243298,6.43148936 18.2279362,6.43148936 L16.8510638,6.43148936 C16.8510638,6.43148936 15.8965213,6.37531915 15.1943936,7.3298617 C14.5761702,8.2005 8.95914894,16.5698617 7.77957447,18.3676596 C7.55489362,18.7050319 7.55489362,19.1259574 7.55489362,19.1259574 L7.55489362,24.4059574 C7.55489362,24.4059574 7.55489362,26.2037553 9.35269149,26.2037553 L27.972766,26.2037553 C27.972766,26.2037553 29.7705638,26.2037553 29.7705638,24.4059574 L29.7705638,0.0273829787 L44.1778723,0.0273829787 C44.1778723,0.0273829787 49.0365957,0.0561702128 49.0365957,4.88751064 L49.0365957,15.3070851 C49.0365957,15.3070851 49.0365957,16.092766 49.4013511,17.1034787 C49.7675106,18.1155957 56.4787979,32.7475851 56.4787979,32.7475851 L48.9239043,32.7475851 L42.1276596,17.1034787 C42.1276596,17.1034787 42.0153191,16.7948936 42.0153191,16.2051064 L42.0153191,8.22928723 C42.0153191,8.22928723 41.9879362,6.43148936 40.2175213,6.43148936 L37.4939681,6.43148936 C37.4939681,6.43148936 37.212766,6.43148936 37.212766,6.71269149 L37.212766,27.8888617 C37.212766,27.8888617 37.1004255,32.7475851 32.3540426,32.7475851 L4.9422766,32.7475851 C4.9422766,32.7475851 0.0561702128,32.7475851 0.0561702128,27.9165957 L0.0561702128,17.5531915 Z" id="Fill-1" fill="#F1F1D3"></path>
            <path d="M0.0561702128,17.5531915 C0.0561702128,17.5531915 0.0561702128,17.3569468 0.0835531915,17.1884362 C0.112340426,17.0195745 0.252414894,16.8236809 0.252414894,16.8236809 L10.1945426,2.10638298 C10.1945426,2.10638298 11.9361702,0.0273829787 13.6216277,0.0273829787 L22.4680851,0.0273829787 C22.4680851,0.0273829787 27.3268085,0.0561702128 27.3268085,4.88751064 L27.3268085,15.3070851 C27.3268085,15.3070851 27.2994255,17.1034787 25.5290106,17.1034787 L21.8221277,17.1034787 C21.8221277,17.1034787 20.0243298,17.0760957 20.0243298,15.3070851 L20.0243298,8.22928723 C20.0243298,8.22928723 20.0243298,6.43148936 18.2279362,6.43148936 L16.8510638,6.43148936 C16.8510638,6.43148936 15.8965213,6.37531915 15.1943936,7.3298617 C14.5761702,8.2005 8.95914894,16.5698617 7.77957447,18.3676596 C7.55489362,18.7050319 7.55489362,19.1259574 7.55489362,19.1259574 L7.55489362,24.4059574 C7.55489362,24.4059574 7.55489362,26.2037553 9.35269149,26.2037553 L27.972766,26.2037553 C27.972766,26.2037553 29.7705638,26.2037553 29.7705638,24.4059574 L29.7705638,0.0273829787 L44.1778723,0.0273829787 C44.1778723,0.0273829787 49.0365957,0.0561702128 49.0365957,4.88751064 L49.0365957,15.3070851 C49.0365957,15.3070851 49.0365957,16.092766 49.4013511,17.1034787 C49.7675106,18.1155957 56.4787979,32.7475851 56.4787979,32.7475851 L48.9239043,32.7475851 L42.1276596,17.1034787 C42.1276596,17.1034787 42.0153191,16.7948936 42.0153191,16.2051064 L42.0153191,8.22928723 C42.0153191,8.22928723 41.9879362,6.43148936 40.2175213,6.43148936 L37.4939681,6.43148936 C37.4939681,6.43148936 37.212766,6.43148936 37.212766,6.71269149 L37.212766,27.8888617 C37.212766,27.8888617 37.1004255,32.7475851 32.3540426,32.7475851 L4.9422766,32.7475851 C4.9422766,32.7475851 0.0561702128,32.7475851 0.0561702128,27.9165957 L0.0561702128,17.5531915 Z" id="Stroke-2" stroke="#F1F1D3" stroke-width="0.8"></path>
            <path d="M51.9848298,17.132266 L51.9848298,4.91489362 C51.9848298,4.91489362 52.013617,0.0561702128 56.8449574,0.0561702128 L74.1169468,0.0561702128 C74.1169468,0.0561702128 79.0030532,0.0273829787 79.0030532,4.91489362 L79.0030532,27.9165957 C79.0030532,27.9165957 78.9756702,32.7749681 74.1443298,32.7749681 L61.253617,32.7749681 C61.253617,32.7749681 59.0622766,32.7749681 57.6868085,30.3312128 C56.3099362,27.8888617 51.9848298,17.132266 51.9848298,17.132266 Z M60.9165957,6.43148936 L69.9041809,6.43148936 C69.9041809,6.43148936 71.7005745,6.40270213 71.7005745,8.22928723 L71.7005745,24.4059574 C71.7005745,24.4059574 71.6444043,26.2037553 69.9041809,26.2037553 L60.9165957,26.2037553 C60.9165957,26.2037553 59.1184468,26.2311383 59.1184468,24.4059574 L59.1184468,8.22928723 C59.1184468,8.22928723 59.1184468,6.43148936 60.9165957,6.43148936 Z" id="Combined-Shape" fill="#F1F1D3"></path>
            <path d="M51.9848298,17.132266 L51.9848298,4.91489362 C51.9848298,4.91489362 52.013617,0.0561702128 56.8449574,0.0561702128 L74.1169468,0.0561702128 C74.1169468,0.0561702128 79.0030532,0.0273829787 79.0030532,4.91489362 L79.0030532,27.9165957 C79.0030532,27.9165957 78.9756702,32.7749681 74.1443298,32.7749681 L61.253617,32.7749681 C61.253617,32.7749681 59.0622766,32.7749681 57.6868085,30.3312128 C56.3099362,27.8888617 51.9848298,17.132266 51.9848298,17.132266 L51.9848298,17.132266 Z" id="Stroke-5" stroke="#F1F1D3" stroke-width="0.8"></path>
            <path d="M81.5865319,0.0273829787 L88.8890106,0.0273829787 L88.8890106,24.4059574 C88.8890106,24.4059574 88.8890106,26.2037553 90.6868085,26.2037553 L91.7263085,26.2037553 C91.7263085,26.2037553 93.5227021,26.2311383 93.5227021,24.4059574 L93.5227021,0.0273829787 L100.235745,0.0273829787 L100.235745,24.4059574 C100.235745,24.4059574 100.264532,26.2037553 102.033543,26.2037553 L103.073043,26.2037553 C103.073043,26.2037553 104.869436,26.2311383 104.869436,24.4059574 L104.869436,0.0273829787 L112.200702,0.0273829787 L112.200702,27.8888617 C112.200702,27.8888617 112.171915,32.7475851 107.341979,32.7475851 L86.5014255,32.7475851 C86.5014255,32.7475851 81.6430532,32.7475851 81.6430532,27.8888617 C81.6430532,23.0304894 81.5865319,0.0273829787 81.5865319,0.0273829787 L81.5865319,0.0273829787 Z" id="Fill-7" fill="#F1F1D3"></path>
            <path d="M81.5865319,0.0273829787 L88.8890106,0.0273829787 L88.8890106,24.4059574 C88.8890106,24.4059574 88.8890106,26.2037553 90.6868085,26.2037553 L91.7263085,26.2037553 C91.7263085,26.2037553 93.5227021,26.2311383 93.5227021,24.4059574 L93.5227021,0.0273829787 L100.235745,0.0273829787 L100.235745,24.4059574 C100.235745,24.4059574 100.264532,26.2037553 102.033543,26.2037553 L103.073043,26.2037553 C103.073043,26.2037553 104.869436,26.2311383 104.869436,24.4059574 L104.869436,0.0273829787 L112.200702,0.0273829787 L112.200702,27.8888617 C112.200702,27.8888617 112.171915,32.7475851 107.341979,32.7475851 L86.5014255,32.7475851 C86.5014255,32.7475851 81.6430532,32.7475851 81.6430532,27.8888617 C81.6430532,23.0304894 81.5865319,0.0273829787 81.5865319,0.0273829787 L81.5865319,0.0273829787 Z" id="Stroke-8" stroke="#F1F1D3" stroke-width="0.8"></path>
            <path d="M114.952691,0.0273829787 L127.534819,0.0273829787 C127.534819,0.0273829787 129.949787,0.0561702128 131.522904,2.079 C133.123053,4.07304255 140.313191,14.5484362 140.313191,14.5484362 C140.313191,14.5484362 141.942128,16.7113404 141.942128,19.4345426 L141.942128,30.9771702 C141.942128,30.9771702 141.91334,32.7749681 140.14433,32.7749681 L136.577521,32.7749681 C136.577521,32.7749681 134.781128,32.8037553 134.781128,30.9771702 L134.781128,20.4452553 C134.781128,20.4452553 134.781128,18.8451064 134.02283,17.5805745 C133.264532,16.2886596 127.197447,7.72340426 127.197447,7.72340426 C127.197447,7.72340426 126.664181,6.43148936 125.597298,6.43148936 L122.478798,6.43148936 C122.478798,6.43148936 122.114043,6.40270213 122.114043,6.79624468 L122.114043,30.9771702 C122.114043,30.9771702 122.14283,32.7475851 120.345032,32.7475851 L116.721702,32.7475851 C116.721702,32.7475851 114.923904,32.7749681 114.923904,30.9497872 C114.923904,29.1246064 114.952691,0.0273829787 114.952691,0.0273829787 L114.952691,0.0273829787 Z" id="Fill-10" fill="#F1F1D3"></path>
            <path d="M114.952691,0.0273829787 L127.534819,0.0273829787 C127.534819,0.0273829787 129.949787,0.0561702128 131.522904,2.079 C133.123053,4.07304255 140.313191,14.5484362 140.313191,14.5484362 C140.313191,14.5484362 141.942128,16.7113404 141.942128,19.4345426 L141.942128,30.9771702 C141.942128,30.9771702 141.91334,32.7749681 140.14433,32.7749681 L136.577521,32.7749681 C136.577521,32.7749681 134.781128,32.8037553 134.781128,30.9771702 L134.781128,20.4452553 C134.781128,20.4452553 134.781128,18.8451064 134.02283,17.5805745 C133.264532,16.2886596 127.197447,7.72340426 127.197447,7.72340426 C127.197447,7.72340426 126.664181,6.43148936 125.597298,6.43148936 L122.478798,6.43148936 C122.478798,6.43148936 122.114043,6.40270213 122.114043,6.79624468 L122.114043,30.9771702 C122.114043,30.9771702 122.14283,32.7475851 120.345032,32.7475851 L116.721702,32.7475851 C116.721702,32.7475851 114.923904,32.7749681 114.923904,30.9497872 C114.923904,29.1246064 114.952691,0.0273829787 114.952691,0.0273829787 L114.952691,0.0273829787 Z" id="Stroke-11" stroke="#F1F1D3" stroke-width="0.8"></path>
            <path d="M60.9165957,6.43148936 L69.9041809,6.43148936 C69.9041809,6.43148936 71.7005745,6.40270213 71.7005745,8.22928723 L71.7005745,24.4059574 C71.7005745,24.4059574 71.6444043,26.2037553 69.9041809,26.2037553 L60.9165957,26.2037553 C60.9165957,26.2037553 59.1184468,26.2311383 59.1184468,24.4059574 L59.1184468,8.22928723 C59.1184468,8.22928723 59.1184468,6.43148936 60.9165957,6.43148936 L60.9165957,6.43148936 Z" id="Stroke-14" stroke="#F1F1D3" stroke-width="0.8"></path>
        </g>
    </g>
</svg>