<?xml version="1.0" encoding="UTF-8" standalone="no"?>
<svg width="179px" height="39px" viewBox="0 0 179 39" version="1.1" xmlns="http://www.w3.org/2000/svg" xmlns:xlink="http://www.w3.org/1999/xlink">
    <!-- Generator: Sketch 3.8.3 (29802) - http://www.bohemiancoding.com/sketch -->
    <title>kotahinet</title>
    <desc>Created with Sketch.</desc>
    <defs></defs>
    <g id="Page-1" stroke="none" stroke-width="1" fill="none" fill-rule="evenodd">
        <path d="M16.2,38 L6.75,20.8 L6.6,20.8 L6.6,38 L0.6,38 L0.6,2.6 L6.6,2.6 L6.6,17.95 L6.75,17.95 L15.75,2.6 L22.5,2.6 L12.1,18.9 L23.15,38 L16.2,38 Z M41.5,25.3 C41.5,27.30001 41.2750023,29.133325 40.825,30.8 C40.3749978,32.466675 39.7250043,33.8916608 38.875,35.075 C38.0249958,36.2583392 37.000006,37.18333 35.8,37.85 C34.599994,38.51667 33.233341,38.85 31.7,38.85 C30.166659,38.85 28.800006,38.51667 27.6,37.85 C26.399994,37.18333 25.3750042,36.2583392 24.525,35.075 C23.6749957,33.8916608 23.0250023,32.466675 22.575,30.8 C22.1249978,29.133325 21.9,27.30001 21.9,25.3 C21.9,23.2666565 22.1249978,21.4083417 22.575,19.725 C23.0250023,18.0416582 23.6666625,16.600006 24.5,15.4 C25.3333375,14.199994 26.3583273,13.2750033 27.575,12.625 C28.7916728,11.9749967 30.166659,11.65 31.7,11.65 C33.233341,11.65 34.599994,11.9749967 35.8,12.625 C37.000006,13.2750033 38.0249958,14.199994 38.875,15.4 C39.7250043,16.600006 40.3749978,18.0416582 40.825,19.725 C41.2750023,21.4083417 41.5,23.2666565 41.5,25.3 L41.5,25.3 Z M35.9,25.25 C35.9,24.0166605 35.8166675,22.8750052 35.65,21.825 C35.4833325,20.7749948 35.2250017,19.8583372 34.875,19.075 C34.5249983,18.2916628 34.0916692,17.6750023 33.575,17.225 C33.0583307,16.7749978 32.433337,16.55 31.7,16.55 C30.966663,16.55 30.3416692,16.7749978 29.825,17.225 C29.3083307,17.6750023 28.883335,18.2916628 28.55,19.075 C28.216665,19.8583372 27.9666675,20.7749948 27.8,21.825 C27.6333325,22.8750052 27.55,24.0166605 27.55,25.25 C27.55,26.450006 27.6333325,27.583328 27.8,28.65 C27.9666675,29.716672 28.216665,30.6333295 28.55,31.4 C28.883335,32.1666705 29.3083307,32.7749978 29.825,33.225 C30.3416692,33.6750023 30.966663,33.9 31.7,33.9 C32.433337,33.9 33.066664,33.6750023 33.6,33.225 C34.133336,32.7749978 34.566665,32.1666705 34.9,31.4 C35.233335,30.6333295 35.4833325,29.716672 35.65,28.65 C35.8166675,27.583328 35.9,26.450006 35.9,25.25 L35.9,25.25 Z M50.5,16.85 L50.5,29.95 C50.5,31.350007 50.7083313,32.3666635 51.125,33 C51.5416687,33.6333365 52.183329,33.95 53.05,33.95 C53.3500015,33.95 53.6583318,33.916667 53.975,33.85 C54.2916682,33.783333 54.5666655,33.683334 54.8,33.55 L54.9,37.95 C54.499998,38.150001 53.96667,38.316666 53.3,38.45 C52.63333,38.583334 51.96667,38.65 51.3,38.65 C49.1333225,38.65 47.5750048,38.0083398 46.625,36.725 C45.6749952,35.4416603 45.2,33.600012 45.2,31.2 L45.2,16.85 L42,16.85 L42,12.5 L45.2,12.5 L45.2,6 L50.5,6 L50.5,12.5 L54.95,12.5 L54.95,16.85 L50.5,16.85 Z M67.35,26.05 L65.7,26.05 C64.9999965,26.05 64.3250033,26.1083328 63.675,26.225 C63.0249968,26.3416673 62.4500025,26.566665 61.95,26.9 C61.4499975,27.233335 61.0500015,27.6916637 60.75,28.275 C60.4499985,28.8583362 60.3,29.5999955 60.3,30.5 C60.3,31.83334 60.5916638,32.8166635 61.175,33.45 C61.7583363,34.0833365 62.4333295,34.4 63.2,34.4 C63.9666705,34.4 64.616664,34.1833355 65.15,33.75 C65.683336,33.3166645 66.1083318,32.76667 66.425,32.1 C66.7416682,31.43333 66.9749992,30.6916707 67.125,29.875 C67.2750008,29.0583293 67.35,28.2666705 67.35,27.5 L67.35,26.05 Z M67.55,34.2 C67.1833315,35.600007 66.5166715,36.6916627 65.55,37.475 C64.5833285,38.2583372 63.300008,38.65 61.7,38.65 C60.966663,38.65 60.2166705,38.516668 59.45,38.25 C58.6833295,37.983332 57.9916698,37.5416697 57.375,36.925 C56.7583303,36.3083303 56.250002,35.5083382 55.85,34.525 C55.449998,33.5416618 55.25,32.350007 55.25,30.95 C55.25,29.149991 55.5749968,27.6750057 56.225,26.525 C56.8750033,25.3749942 57.7083283,24.46667 58.725,23.8 C59.7416718,23.13333 60.8749938,22.6750013 62.125,22.425 C63.3750063,22.1749987 64.599994,22.05 65.8,22.05 L67.2,22.05 L67.2,21.25 C67.2,19.5499915 66.8583368,18.3250037 66.175,17.575 C65.4916632,16.8249963 64.583339,16.45 63.45,16.45 C62.4833285,16.45 61.6083372,16.6749977 60.825,17.125 C60.0416628,17.5750023 59.3666695,18.166663 58.8,18.9 L56.1,15.35 C57.033338,14.1833275 58.2166595,13.2750033 59.65,12.625 C61.0833405,11.9749967 62.499993,11.65 63.9,11.65 C65.4666745,11.65 66.7916613,11.8999975 67.875,12.4 C68.9583388,12.9000025 69.83333,13.6249952 70.5,14.575 C71.16667,15.5250047 71.6416653,16.699993 71.925,18.1 C72.2083348,19.500007 72.35,21.0833245 72.35,22.85 L72.35,38 L67.65,38 L67.65,34.2 L67.55,34.2 Z M89.65,38 L89.65,22 C89.65,21.3666635 89.616667,20.7250032 89.55,20.075 C89.483333,19.4249967 89.3416677,18.833336 89.125,18.3 C88.9083323,17.766664 88.5916687,17.3416682 88.175,17.025 C87.7583313,16.7083317 87.21667,16.55 86.55,16.55 C85.283327,16.55 84.2750037,17.183327 83.525,18.45 C82.7749963,19.716673 82.4,21.316657 82.4,23.25 L82.4,38 L76.75,38 L76.75,0.2 L82.4,0.2 L82.4,16.45 L82.5,16.45 C82.9333355,15.1499935 83.6749947,14.0250047 84.725,13.075 C85.7750052,12.1249952 87.099992,11.65 88.7,11.65 C90.100007,11.65 91.233329,11.9416637 92.1,12.525 C92.966671,13.1083362 93.633331,13.8833285 94.1,14.85 C94.566669,15.8166715 94.8833325,16.9249937 95.05,18.175 C95.2166675,19.4250063 95.3,20.6999935 95.3,22 L95.3,38 L89.65,38 Z M106,5.1 C106,6.100005 105.683336,6.93333 105.05,7.6 C104.416664,8.26667 103.633338,8.6 102.7,8.6 C101.733329,8.6 100.94167,8.26667 100.325,7.6 C99.7083303,6.93333 99.4,6.100005 99.4,5.1 C99.4,4.1333285 99.7083303,3.3000035 100.325,2.6 C100.94167,1.8999965 101.733329,1.55 102.7,1.55 C103.666672,1.55 104.45833,1.8999965 105.075,2.6 C105.69167,3.3000035 106,4.1333285 106,5.1 L106,5.1 Z M99.9,38 L99.9,12.5 L105.5,12.5 L105.5,38 L99.9,38 Z M116.45,34.75 C116.45,35.7833385 116.125003,36.6499965 115.475,37.35 C114.824997,38.0500035 114.000005,38.4 113,38.4 C111.999995,38.4 111.183336,38.0500035 110.55,37.35 C109.916664,36.6499965 109.6,35.7833385 109.6,34.75 C109.6,33.749995 109.916664,32.883337 110.55,32.15 C111.183336,31.416663 111.999995,31.05 113,31.05 C114.000005,31.05 114.824997,31.416663 115.475,32.15 C116.125003,32.883337 116.45,33.749995 116.45,34.75 L116.45,34.75 Z M136.25,38 L126.2,13 L126.05,13 L126.15,38 L120.75,38 L120.75,2.6 L127.6,2.6 L137.55,27.75 L137.7,27.75 L137.65,2.6 L142.85,2.6 L142.85,38 L136.25,38 Z M151.9,26.7 C151.9,27.700005 151.999999,28.6416622 152.2,29.525 C152.400001,30.4083377 152.691665,31.1749967 153.075,31.825 C153.458335,32.4750032 153.924997,32.9916648 154.475,33.375 C155.025003,33.7583352 155.666663,33.95 156.4,33.95 C157.433338,33.95 158.25833,33.61667 158.875,32.95 C159.49167,32.28333 159.983332,31.516671 160.35,30.65 L164.5,33.05 C163.766663,34.8166755 162.725007,36.2249947 161.375,37.275 C160.024993,38.3250053 158.30001,38.85 156.2,38.85 C153.233318,38.85 150.850009,37.683345 149.05,35.35 C147.249991,33.016655 146.35,29.6666885 146.35,25.3 C146.35,23.2666565 146.583331,21.4083417 147.05,19.725 C147.516669,18.0416582 148.183329,16.600006 149.05,15.4 C149.916671,14.199994 150.941661,13.2750033 152.125,12.625 C153.308339,11.9749967 154.633326,11.65 156.1,11.65 C157.733342,11.65 159.124994,11.98333 160.275,12.65 C161.425006,13.31667 162.35833,14.2249943 163.075,15.375 C163.79167,16.5250057 164.316665,17.8833255 164.65,19.45 C164.983335,21.0166745 165.15,22.7166575 165.15,24.55 L165.15,26.7 L151.9,26.7 Z M159.75,22.6 C159.75,20.6999905 159.450003,19.1583393 158.85,17.975 C158.249997,16.7916608 157.316673,16.2 156.05,16.2 C155.316663,16.2 154.691669,16.4166645 154.175,16.85 C153.658331,17.2833355 153.241668,17.8249967 152.925,18.475 C152.608332,19.1250032 152.366668,19.8249963 152.2,20.575 C152.033333,21.3250037 151.95,21.999997 151.95,22.6 L159.75,22.6 Z M173.95,16.85 L173.95,29.95 C173.95,31.350007 174.158331,32.3666635 174.575,33 C174.991669,33.6333365 175.633329,33.95 176.5,33.95 C176.800002,33.95 177.108332,33.916667 177.425,33.85 C177.741668,33.783333 178.016666,33.683334 178.25,33.55 L178.35,37.95 C177.949998,38.150001 177.41667,38.316666 176.75,38.45 C176.08333,38.583334 175.41667,38.65 174.75,38.65 C172.583323,38.65 171.025005,38.0083398 170.075,36.725 C169.124995,35.4416603 168.65,33.600012 168.65,31.2 L168.65,16.85 L165.45,16.85 L165.45,12.5 L168.65,12.5 L168.65,6 L173.95,6 L173.95,12.5 L178.4,12.5 L178.4,16.85 L173.95,16.85 Z" id="kotahinet" fill="#F1F1D3"></path>
    </g>
</svg>