<?xml version="1.0" encoding="UTF-8" standalone="no"?>
<svg width="261px" height="69px" viewBox="0 0 261 69" version="1.1" xmlns="http://www.w3.org/2000/svg" xmlns:xlink="http://www.w3.org/1999/xlink">
    <!-- Generator: Sketch 3.8.3 (29802) - http://www.bohemiancoding.com/sketch -->
    <title>pushpay</title>
    <desc>Created with Sketch.</desc>
    <defs></defs>
    <g id="Page-1" stroke="none" stroke-width="1" fill="none" fill-rule="evenodd">
        <g id="pushpay" fill="#F1F1D3">
            <path d="M34.1167941,2.04243902 C16.3568529,2.04243902 1.96091176,16.4521951 1.96091176,34.2253659 C1.96091176,51.9985366 16.3568529,66.4065854 34.1167941,66.4065854 C51.8750294,66.4065854 66.2709706,51.9985366 66.2709706,34.2253659 C66.2709706,16.4521951 51.8750294,2.04243902 34.1167941,2.04243902 M68.2327353,34.2253659 C68.2327353,53.0809756 52.9582647,68.37 34.1167941,68.37 C15.2753235,68.37 0.000852941177,53.0809756 0.000852941177,34.2253659 C0.000852941177,15.3680488 15.2753235,0.0790243902 34.1167941,0.0790243902 C52.9582647,0.0790243902 68.2327353,15.3680488 68.2327353,34.2253659" id="Fill-1"></path>
            <path d="M19.8472588,18.5062683 L14.2587882,49.4599268 L16.0789647,49.4599268 L21.7970824,18.5062683 L19.8472588,18.5062683 Z M45.2324941,28.261878 C45.0567882,29.2572439 44.5416118,30.0733415 43.6869647,30.711878 C42.8323176,31.3487073 41.4897882,31.6679756 39.6542588,31.6679756 L37.3240235,31.6679756 L38.5334941,24.7943171 L41.2441412,24.7943171 C43.0216706,24.7943171 44.1748471,25.1306585 44.7002588,25.8033415 C45.2239647,26.4760244 45.4030824,27.2955366 45.2324941,28.261878 L45.2324941,28.261878 Z M53.2040824,20.9887073 C51.7762588,19.3496829 49.3402588,18.5301707 45.8960824,18.5301707 L30.0825529,18.5301707 L24.6527294,49.3455366 L34.2090824,49.3455366 L36.2237294,37.9116341 L41.4334941,37.9116341 C45.2683176,37.9116341 48.2774941,37.0357805 50.4542,35.2823659 C52.6309059,33.5323659 53.9939059,31.1011463 54.5432,27.9887073 C55.0754353,24.9616341 54.6284941,22.6277317 53.2040824,20.9887073 L53.2040824,20.9887073 Z M24.7840824,18.5062683 L19.1973176,49.4599268 L21.0174941,49.4599268 L26.7339059,18.5062683 L24.7840824,18.5062683 Z" id="Fill-3"></path>
            <path d="M101.263735,33.0406585 C102.045029,33.0406585 102.792206,32.9843171 103.512088,32.8699268 C104.231971,32.7538293 104.863147,32.5301707 105.407324,32.1989512 C105.953206,31.869439 106.395029,31.4050488 106.725971,30.7955366 C107.055206,30.1911463 107.220676,29.4023659 107.220676,28.4206585 C107.220676,27.4440732 107.055206,26.6535854 106.725971,26.0457805 C106.395029,25.4448049 105.953206,24.977 105.407324,24.6423659 C104.863147,24.3162683 104.231971,24.0926098 103.512088,23.9782195 C102.792206,23.8604146 102.045029,23.8006585 101.263735,23.8006585 L96.0079118,23.8006585 L96.0079118,33.0406585 L101.263735,33.0406585 Z M103.126559,18.5387073 C105.049088,18.5387073 106.683324,18.8187073 108.041206,19.3787073 C109.390559,19.9404146 110.490853,20.6848049 111.342088,21.6016341 C112.188206,22.521878 112.805735,23.571878 113.191265,24.7533415 C113.580206,25.9330976 113.779794,27.1572439 113.779794,28.4206585 C113.779794,29.6635854 113.580206,30.8740732 113.191265,32.0691951 C112.805735,33.2643171 112.188206,34.3228537 111.342088,35.2430976 C110.490853,36.1633415 109.390559,36.9077317 108.041206,37.4660244 C106.683324,38.029439 105.049088,38.3111463 103.126559,38.3111463 L96.0079118,38.3111463 L96.0079118,49.3609024 L89.2355588,49.3609024 L89.2355588,18.5387073 L103.126559,18.5387073 Z" id="Fill-5"></path>
            <path d="M130.728076,49.3609024 L130.728076,46.2501707 L130.601841,46.2501707 C129.820547,47.5477317 128.814076,48.4816341 127.579018,49.0587073 C126.342253,49.6306585 125.074782,49.9226098 123.781724,49.9226098 C122.140665,49.9226098 120.798135,49.7040732 119.747312,49.2738293 C118.698194,48.8435854 117.874253,48.2306585 117.272076,47.4401707 C116.663076,46.6496829 116.238312,45.6833415 115.999488,44.544561 C115.750429,43.4074878 115.632724,42.1509024 115.632724,40.7713902 L115.632724,27.044561 L121.758547,27.044561 L121.758547,39.6462683 C121.758547,41.4901707 122.041724,42.8611463 122.618312,43.769439 C123.189782,44.6743171 124.211606,45.131878 125.678665,45.131878 C127.350429,45.131878 128.553076,44.6333415 129.305371,43.6396829 C130.047429,42.6477317 130.424429,41.012122 130.424429,38.7396829 L130.424429,27.044561 L136.550253,27.044561 L136.550253,49.3609024 L130.728076,49.3609024 Z" id="Fill-7"></path>
            <path d="M144.636476,43.8112683 C144.906006,44.2859024 145.259124,44.6751707 145.690712,44.9773659 C146.1223,45.2778537 146.620418,45.5015122 147.181653,45.6466341 C147.744594,45.7917561 148.322888,45.8651707 148.926771,45.8651707 C149.356653,45.8651707 149.813829,45.8139512 150.286359,45.7149268 C150.758888,45.6090732 151.188771,45.4554146 151.579418,45.236878 C151.968359,45.0234634 152.290771,44.7315122 152.550065,44.3729756 C152.811065,44.014439 152.940712,43.5637073 152.940712,43.0156585 C152.940712,42.092 152.326594,41.4022439 151.105182,40.9378537 C149.880359,40.482 148.177888,40.0193171 145.992653,39.5617561 C145.100476,39.3585854 144.232182,39.119561 143.386065,38.8498049 C142.536535,38.5766341 141.780829,38.2146829 141.115535,37.7690732 C140.457065,37.3217561 139.928241,36.7600488 139.523947,36.0856585 C139.123065,35.4112683 138.923476,34.5780976 138.923476,33.6015122 C138.923476,32.1673659 139.203241,30.9824878 139.762771,30.0622439 C140.324006,29.1454146 141.060947,28.4163902 141.983829,27.8802927 C142.9033,27.3510244 143.935359,26.9754146 145.090241,26.7637073 C146.2383,26.546878 147.422182,26.4359024 148.624829,26.4359024 C149.832594,26.4359024 151.002829,26.552 152.140653,26.7841951 C153.278476,27.0129756 154.290065,27.4022439 155.183947,27.946878 C156.0693,28.4949268 156.813065,29.2205366 157.405006,30.1254146 C157.993535,31.0337073 158.344947,32.1776098 158.457535,33.5605366 L152.638771,33.5605366 C152.550065,32.3807805 152.103124,31.5817561 151.299653,31.1634634 C150.494476,30.7485854 149.546006,30.5351707 148.452535,30.5351707 C148.106241,30.5351707 147.737771,30.5624878 147.333476,30.6051707 C146.925771,30.6461463 146.564124,30.7400488 146.231476,30.8834634 C145.900535,31.0285854 145.619065,31.236878 145.390476,31.5066341 C145.161888,31.7815122 145.0493,32.152 145.0493,32.609561 C145.0493,33.1559024 145.245476,33.6015122 145.649771,33.9515122 C146.048947,34.2912683 146.572653,34.5746829 147.222594,34.7932195 C147.872535,35.0066341 148.611182,35.2012683 149.443653,35.3737073 C150.274418,35.5461463 151.127359,35.7322439 151.988829,35.9354146 C152.882712,36.136878 153.747594,36.3827317 154.600535,36.6661463 C155.448359,36.9546829 156.200653,37.337122 156.864241,37.8100488 C157.522712,38.2880976 158.058359,38.8754146 158.457535,39.5822439 C158.861829,40.2873659 159.064829,41.1563902 159.064829,42.1978537 C159.064829,43.6610244 158.769712,44.8937073 158.177771,45.8839512 C157.585829,46.8776098 156.8233,47.6783415 155.871418,48.2810244 C154.922947,48.882 153.838006,49.3088293 152.6183,49.5546829 C151.393476,49.797122 150.151594,49.9234634 148.885829,49.9234634 C147.589359,49.9234634 146.3253,49.792 145.090241,49.5341951 C143.855182,49.2729756 142.753182,48.844439 141.787653,48.2400488 C140.827241,47.6305366 140.034006,46.8315122 139.419888,45.8378537 C138.797241,44.8510244 138.459476,43.6046829 138.403182,42.1090732 L144.227065,42.1090732 C144.227065,42.7680976 144.363535,43.3400488 144.636476,43.8112683" id="Fill-9"></path>
            <path d="M167.040341,18.538878 L167.040341,30.1503415 L167.169988,30.1503415 C167.949576,28.8510732 168.940694,27.9137561 170.151871,27.3247317 C171.354518,26.7322927 172.533282,26.4352195 173.686459,26.4352195 C175.320694,26.4352195 176.666635,26.658878 177.720871,27.1061951 C178.766576,27.5535122 179.593929,28.171561 180.197812,28.9603415 C180.799988,29.7542439 181.224753,30.7171707 181.468694,31.8559512 C181.710929,32.9930244 181.837165,34.2496098 181.837165,35.6342439 L181.837165,49.3610732 L175.709635,49.3610732 L175.709635,36.7542439 C175.709635,34.918878 175.424753,33.5393659 174.848165,32.6310732 C174.271576,31.7261951 173.254871,31.2737561 171.787812,31.2737561 C170.119459,31.2737561 168.909988,31.7671707 168.162812,32.7608293 C167.415635,33.7527805 167.040341,35.3883902 167.040341,37.6608293 L167.040341,49.3610732 L160.917929,49.3610732 L160.917929,18.538878 L167.040341,18.538878 Z" id="Fill-11"></path>
            <path d="M198.547988,44.7415854 C199.223518,44.3369512 199.767694,43.8110976 200.189047,43.1640244 C200.605282,42.5186585 200.9004,41.7606098 201.070988,40.8967073 C201.241576,40.0345122 201.330282,39.1569512 201.330282,38.2691463 C201.330282,37.3728049 201.236459,36.4952439 201.050518,35.6347561 C200.864576,34.7708537 200.5524,34.002561 200.120812,33.3213415 C199.689224,32.6452439 199.141635,32.1006098 198.459282,31.6789024 C197.787165,31.2640244 196.959812,31.0557317 195.984047,31.0557317 C194.975871,31.0557317 194.136576,31.2640244 193.461047,31.6789024 C192.782106,32.1006098 192.236224,32.640122 191.821694,33.3008537 C191.403753,33.965 191.110341,34.7230488 190.939753,35.5869512 C190.767459,36.4491463 190.678753,37.3437805 190.678753,38.2691463 C190.678753,39.1569512 190.772576,40.0345122 190.958518,40.8967073 C191.144459,41.7606098 191.4464,42.5186585 191.862635,43.1640244 C192.278871,43.8110976 192.833282,44.3369512 193.522459,44.7415854 C194.215047,45.1428049 195.050929,45.3442683 196.024988,45.3442683 C197.033165,45.3442683 197.874165,45.1428049 198.547988,44.7415854 L198.547988,44.7415854 Z M190.591753,27.0452439 L190.591753,29.8930488 L190.678753,29.8930488 C191.425929,28.6808537 192.376106,27.8015854 193.522459,27.2586585 C194.673929,26.7106098 195.937988,26.4357317 197.316341,26.4357317 C199.0734,26.4357317 200.583106,26.7703659 201.845459,27.4293902 C203.112929,28.0952439 204.162047,28.9728049 204.997929,30.0620732 C205.832106,31.1581707 206.451341,32.4267073 206.850518,33.8813415 C207.254812,35.3376829 207.456106,36.8554878 207.456106,38.4381707 C207.456106,39.9354878 207.254812,41.3747561 206.850518,42.7508537 C206.451341,44.1354878 205.838929,45.3613415 205.0184,46.4215854 C204.196165,47.4869512 203.177753,48.3389024 201.961459,48.9706098 C200.734929,49.6057317 199.298576,49.9232927 197.666047,49.9232927 C196.284282,49.9232927 195.011694,49.6432927 193.844871,49.0815854 C192.681459,48.519878 191.727871,47.6867073 190.980694,46.5991463 L190.897106,46.5991463 L190.897106,57.172561 L184.771282,57.172561 L184.771282,27.0452439 L190.591753,27.0452439 Z" id="Fill-13"></path>
            <path d="M222.312294,38.9805854 C221.926765,39.1052195 221.505412,39.2127805 221.063588,39.301561 C220.618353,39.3852195 220.152647,39.4586341 219.663059,39.5149756 C219.168353,39.576439 218.682176,39.6447317 218.194294,39.7335122 C217.732,39.8222927 217.279941,39.9349756 216.833,40.0766829 C216.387765,40.2218049 216.002235,40.4181463 215.671294,40.658878 C215.338647,40.906439 215.072529,41.2137561 214.871235,41.5893659 C214.673353,41.961561 214.569294,42.4344878 214.569294,43.0166829 C214.569294,43.5647317 214.673353,44.018878 214.871235,44.3961951 C215.072529,44.7683902 215.348882,45.0654634 215.690059,45.278878 C216.038059,45.4974146 216.438941,45.6459512 216.901235,45.7347317 C217.361824,45.8183902 217.836059,45.8644878 218.323941,45.8644878 C219.528294,45.8644878 220.468235,45.6613171 221.126706,45.2566829 C221.786882,44.8554634 222.273059,44.3722927 222.590353,43.8105854 C222.907647,43.2522927 223.105529,42.6854634 223.177176,42.1083902 C223.247118,41.5330244 223.282941,41.0737561 223.282941,40.7237561 L223.282941,38.4376585 C223.027059,38.6681463 222.701235,38.8508293 222.312294,38.9805854 M210.214176,30.3227805 C210.847059,29.3718049 211.652235,28.6069268 212.629706,28.031561 C213.608882,27.4596098 214.709176,27.0498537 215.930588,26.804 C217.152,26.5598537 218.380235,26.4352195 219.618706,26.4352195 C220.737765,26.4352195 221.875588,26.5137561 223.027059,26.6759512 C224.175118,26.8313171 225.224235,27.1420488 226.172706,27.6013171 C227.124588,28.0622927 227.897353,28.7025366 228.499529,29.5220488 C229.106824,30.3432683 229.408765,31.429122 229.408765,32.7813171 L229.408765,44.3961951 C229.408765,45.4018049 229.465059,46.3681463 229.581059,47.2866829 C229.693647,48.2086341 229.896647,48.9000976 230.188353,49.3610732 L223.970412,49.3610732 C223.857824,49.0127805 223.765706,48.6593659 223.692353,48.3008293 C223.619,47.9422927 223.571235,47.5752195 223.542235,47.1996098 C222.566471,48.2086341 221.411588,48.9137561 220.087824,49.3149756 C218.769176,49.7196098 217.418118,49.9227805 216.038059,49.9227805 C214.973588,49.9227805 213.984176,49.7913171 213.066412,49.5335122 C212.140118,49.2722927 211.334941,48.8727805 210.645765,48.3230244 C209.958294,47.7766829 209.414118,47.0869268 209.030294,46.2503415 C208.641353,45.418878 208.448588,44.4252195 208.448588,43.2710732 C208.448588,42.0076585 208.672059,40.9644878 209.113882,40.1432683 C209.559118,39.3237561 210.135706,38.6681463 210.841941,38.1798537 C211.543059,37.6898537 212.348235,37.3210732 213.255765,37.0786341 C214.161588,36.8327805 215.072529,36.641561 215.993706,36.4947317 C216.916588,36.3496098 217.820706,36.2352195 218.712882,36.1532683 C219.601647,36.0661951 220.394882,35.9347317 221.085765,35.764 C221.778353,35.586439 222.320824,35.3371707 222.721706,35.0059512 C223.126,34.6781463 223.311941,34.1949756 223.282941,33.5598537 C223.282941,32.9008293 223.177176,32.3698537 222.958824,31.9857073 C222.743882,31.596439 222.455588,31.2942439 222.099059,31.0757073 C221.740824,30.864 221.319471,30.7171707 220.846941,30.6454634 C220.376118,30.5771707 219.860941,30.5344878 219.315059,30.5344878 C218.103882,30.5344878 217.160529,30.7957073 216.469647,31.316439 C215.778765,31.8286341 215.374471,32.6976585 215.261882,33.9098537 L209.132647,33.9098537 C209.223059,32.4637561 209.581294,31.2737561 210.214176,30.3227805" id="Fill-15"></path>
            <path d="M240.665029,56.0069756 C239.486265,56.7872195 237.845206,57.1730732 235.746971,57.1730732 C235.114088,57.1730732 234.489735,57.150878 233.872206,57.1099024 C233.254676,57.0672195 232.628618,57.016 231.999147,56.9596585 L231.999147,51.9077073 C232.570618,51.9640488 233.160853,52.0238049 233.763029,52.0801463 C234.366912,52.1364878 234.9725,52.153561 235.576382,52.121122 C236.379853,52.0374634 236.978618,51.7216098 237.367559,51.173561 C237.754794,50.6238049 237.949265,50.021122 237.949265,49.3603902 C237.949265,48.8738049 237.862265,48.411122 237.689971,47.9791707 L229.887265,27.0440488 L236.396912,27.0440488 L241.442912,42.3262439 L241.524794,42.3262439 L246.401912,27.0440488 L252.740971,27.0440488 L243.426853,52.121122 C242.761559,53.9342927 241.842088,55.2352683 240.665029,56.0069756" id="Fill-17"></path>
            <path d="M257.768547,21.0064634 C258.237665,21.0064634 258.561782,20.7896341 258.561782,20.4106098 L258.561782,20.3935366 C258.561782,20.040122 258.273488,19.8147561 257.795841,19.8147561 L256.811547,19.8147561 L256.811547,21.0064634 L257.768547,21.0064634 Z M256.316841,19.3640244 L257.8129,19.3640244 C258.237665,19.3640244 258.589076,19.4989024 258.805724,19.7157317 C258.967782,19.8693902 259.076959,20.0947561 259.076959,20.3662195 L259.076959,20.3832927 C259.076959,20.9245122 258.715312,21.2506098 258.210371,21.3684146 L259.247547,22.7120732 L258.633429,22.7120732 L257.669606,21.4486585 L256.811547,21.4486585 L256.811547,22.7120732 L256.316841,22.7120732 L256.316841,19.3640244 Z M260.564488,21.1328049 L260.564488,21.1140244 C260.564488,19.4818293 259.293606,18.145 257.606488,18.145 C255.910841,18.145 254.629724,19.4989024 254.629724,21.1328049 L254.629724,21.1515854 C254.629724,22.7837805 255.900606,24.1206098 257.587724,24.1206098 C259.283371,24.1206098 260.564488,22.7667073 260.564488,21.1328049 L260.564488,21.1328049 Z M254.3329,21.1515854 L254.3329,21.1328049 C254.3329,19.3554878 255.776076,17.865 257.606488,17.865 C259.4369,17.865 260.861312,19.3367073 260.861312,21.1140244 L260.861312,21.1328049 C260.861312,22.9118293 259.418135,24.4006098 257.587724,24.4006098 C255.757312,24.4006098 254.3329,22.9289024 254.3329,21.1515854 L254.3329,21.1515854 Z" id="Fill-19"></path>
        </g>
    </g>
</svg>