<?xml version="1.0" encoding="UTF-8" standalone="no"?>
<svg width="248px" height="67px" viewBox="0 0 248 67" version="1.1" xmlns="http://www.w3.org/2000/svg" xmlns:xlink="http://www.w3.org/1999/xlink">
    <!-- Generator: Sketch 3.8.3 (29802) - http://www.bohemiancoding.com/sketch -->
    <title>safestack</title>
    <desc>Created with Sketch.</desc>
    <defs>
        <polygon id="path-1" points="0 66.7342149 247.934942 66.7342149 247.934942 0 0 0"></polygon>
    </defs>
    <g id="Page-1" stroke="none" stroke-width="1" fill="none" fill-rule="evenodd">
        <g id="safestack">
            <path d="M25.4801094,62.1340835 C25.2104233,61.4773727 24.9401812,60.8095876 24.680504,60.1528769 L24.6604861,60.1528769 C24.4102619,60.7796868 24.1605937,61.3976372 23.8608807,62.1241165 L23.1207731,63.9159512 L26.2102081,63.9159512 L25.4801094,62.1340835 L25.4801094,62.1340835 Z M24.380791,59.4158769 L24.9607552,59.4158769 L27.9901363,66.6241909 L27.3301004,66.6241909 L26.4398583,64.4735463 L22.8905668,64.4735463 L22.0008807,66.6241909 L21.3708717,66.6241909 L24.380791,59.4158769 L24.380791,59.4158769 Z" id="Fill-1" fill="#F1F1D3"></path>
            <path d="M34.4628251,59.3064066 C35.3024664,59.3064066 36.0225561,59.5350926 36.5925112,59.8640017 L36.5925112,60.5611339 C36.032565,60.153043 35.2830045,59.8739686 34.4433632,59.8739686 C32.5433274,59.8739686 31.2833094,61.2676793 31.2833094,63.0202 C31.2833094,64.7522331 32.5133004,66.1763983 34.4533722,66.1763983 C35.102843,66.1763983 35.722843,66.017481 36.1927085,65.7483736 L36.1927085,63.7272992 L34.3527265,63.7272992 L34.3527265,63.1697041 L36.8026996,63.1697041 L36.8026996,66.0573488 C36.1726906,66.464886 35.2924574,66.7339934 34.4033274,66.7339934 C32.2436143,66.7339934 30.6733184,65.1309769 30.6733184,63.0301669 C30.6733184,60.939324 32.2035785,59.3064066 34.4628251,59.3064066" id="Fill-3" fill="#F1F1D3"></path>
            <mask id="mask-2" fill="white">
                <use xlink:href="#path-1"></use>
            </mask>
            <g id="Clip-6"></g>
            <polygon id="Fill-5" fill="#F1F1D3" mask="url(#mask-2)" points="40.8966457 66.6240248 41.5066368 66.6240248 41.5066368 59.4157107 40.8966457 59.4157107"></polygon>
            <polygon id="Fill-7" fill="#F1F1D3" mask="url(#mask-2)" points="45.7459354 59.4158215 46.3553704 59.4158215 46.3553704 66.0665405 49.9446978 66.0665405 49.9446978 66.6241355 45.7459354 66.6241355"></polygon>
            <polygon id="Fill-8" fill="#F1F1D3" mask="url(#mask-2)" points="53.516287 59.4158215 57.525435 59.4158215 57.525435 59.9734165 54.125722 59.9734165 54.125722 62.6019207 57.1356413 62.6019207 57.1356413 63.1595157 54.125722 63.1595157 54.125722 66.0665405 57.6155157 66.0665405 57.6155157 66.6241355 53.516287 66.6241355"></polygon>
            <path d="M69.8078296,62.1340835 C69.5375874,61.4773727 69.2679013,60.8095876 69.0076682,60.1528769 L68.9876502,60.1528769 C68.737426,60.7796868 68.4877578,61.3976372 68.1880448,62.1241165 L67.4473812,63.9159512 L70.5373722,63.9159512 L69.8078296,62.1340835 Z M68.7079552,59.4158769 L69.2873632,59.4158769 L72.3173004,66.6241909 L71.6572646,66.6241909 L70.7675785,64.4735463 L67.2177309,64.4735463 L66.3280448,66.6241909 L65.6980359,66.6241909 L68.7079552,59.4158769 Z" id="Fill-9" fill="#F1F1D3" mask="url(#mask-2)"></path>
            <path d="M77.6104879,63.0797802 C78.6402996,63.0797802 79.0806942,62.9507636 79.4399049,62.7015901 C79.8102368,62.4424496 80.0304341,62.0443256 80.0304341,61.5265983 C80.0304341,60.9595901 79.7802099,60.5708793 79.3904161,60.3222595 C78.9700395,60.0531521 78.4501291,59.9734165 77.6104879,59.9734165 L76.3704879,59.9734165 L76.3704879,63.0797802 L77.6104879,63.0797802 Z M75.7604969,59.4158215 L77.6505238,59.4158215 C78.5802457,59.4158215 79.2408377,59.5254579 79.7702009,59.8743008 C80.3001202,60.2225901 80.649878,60.7602512 80.649878,61.5072182 C80.649878,62.2336975 80.3201381,62.8012595 79.8002278,63.1501025 C79.2602996,63.5177719 78.5302009,63.617995 77.5404251,63.617995 L76.3704879,63.617995 L76.3704879,66.6241355 L75.7604969,66.6241355 L75.7604969,59.4158215 Z" id="Fill-10" fill="#F1F1D3" mask="url(#mask-2)"></path>
            <path d="M86.0756843,63.0797802 C87.105496,63.0797802 87.5458906,62.9507636 87.9051013,62.7015901 C88.2754332,62.4424496 88.4956305,62.0443256 88.4956305,61.5265983 C88.4956305,60.9595901 88.2454063,60.5708793 87.8556126,60.3222595 C87.4352359,60.0531521 86.9153256,59.9734165 86.0756843,59.9734165 L84.8356843,59.9734165 L84.8356843,63.0797802 L86.0756843,63.0797802 Z M84.2256933,59.4158215 L86.1157202,59.4158215 C87.0454422,59.4158215 87.7060341,59.5254579 88.2353973,59.8743008 C88.7653166,60.2225901 89.1150744,60.7602512 89.1150744,61.5072182 C89.1150744,62.2336975 88.7853345,62.8012595 88.2659803,63.1501025 C87.725496,63.5177719 86.9953973,63.617995 86.0056215,63.617995 L84.8356843,63.617995 L84.8356843,66.6241355 L84.2256933,66.6241355 L84.2256933,59.4158215 Z" id="Fill-11" fill="#F1F1D3" mask="url(#mask-2)"></path>
            <polygon id="Fill-12" fill="#F1F1D3" mask="url(#mask-2)" points="92.6910565 59.4158215 93.3010475 59.4158215 93.3010475 66.0665405 96.8909309 66.0665405 96.8909309 66.6241355 92.6910565 66.6241355"></polygon>
            <polygon id="Fill-13" fill="#F1F1D3" mask="url(#mask-2)" points="100.461686 66.6240248 101.071677 66.6240248 101.071677 59.4157107 100.461686 59.4157107"></polygon>
            <path d="M108.688169,59.3064066 C109.418267,59.3064066 110.067738,59.4858116 110.627684,59.764886 L110.627684,60.4415306 C110.097765,60.0926876 109.418267,59.8739686 108.688169,59.8739686 C106.798142,59.8739686 105.528671,61.2577124 105.528671,63.0202 C105.528671,64.7826876 106.798142,66.1664314 108.728204,66.1664314 C109.48833,66.1664314 110.187846,65.9377455 110.757801,65.5396215 L110.757801,66.2162661 C110.187846,66.5545884 109.457747,66.7339934 108.698178,66.7339934 C106.468402,66.7339934 104.91868,65.1210099 104.91868,63.0301669 C104.91868,60.9791917 106.408348,59.3064066 108.688169,59.3064066" id="Fill-14" fill="#F1F1D3" mask="url(#mask-2)"></path>
            <path d="M118.072244,62.1340835 C117.802558,61.4773727 117.532316,60.8095876 117.272639,60.1528769 L117.252621,60.1528769 C117.002396,60.7796868 116.752728,61.3976372 116.452459,62.1241165 L115.712908,63.9159512 L118.802343,63.9159512 L118.072244,62.1340835 Z M116.972926,59.4158769 L117.55289,59.4158769 L120.582271,66.6241909 L119.922235,66.6241909 L119.031993,64.4735463 L115.482701,64.4735463 L114.593015,66.6241909 L113.963006,66.6241909 L116.972926,59.4158769 Z" id="Fill-15" fill="#F1F1D3" mask="url(#mask-2)"></path>
            <polygon id="Fill-16" fill="#F1F1D3" mask="url(#mask-2)" points="124.952187 59.9733612 122.462734 59.9733612 122.462734 59.4157661 128.052187 59.4157661 128.052187 59.9733612 125.562178 59.9733612 125.562178 66.6240802 124.952187 66.6240802"></polygon>
            <polygon id="Fill-17" fill="#F1F1D3" mask="url(#mask-2)" points="131.589022 66.6240248 132.198457 66.6240248 132.198457 59.4157107 131.589022 59.4157107"></polygon>
            <path d="M139.69017,66.1665421 C141.450081,66.1665421 142.729561,64.7728314 142.729561,63.0203107 C142.729561,61.2677901 141.450081,59.8740793 139.69017,59.8740793 C137.93026,59.8740793 136.65078,61.2677901 136.65078,63.0203107 C136.65078,64.7728314 137.93026,66.1665421 139.69017,66.1665421 M139.69017,59.3065174 C141.769812,59.3065174 143.339552,60.9394347 143.339552,63.0203107 C143.339552,65.1011868 141.769812,66.7341041 139.69017,66.7341041 C137.610529,66.7341041 136.040789,65.1011868 136.040789,63.0203107 C136.040789,60.9394347 137.610529,59.3065174 139.69017,59.3065174" id="Fill-18" fill="#F1F1D3" mask="url(#mask-2)"></path>
            <path d="M147.190725,66.6243017 L147.190725,59.4159876 L147.770133,59.4159876 L151.079765,63.8069793 C151.559639,64.4437562 151.980016,65.0113182 152.439317,65.6386818 L152.459891,65.6287149 C152.449882,64.9321364 152.449882,64.1951364 152.449882,63.468657 L152.449882,59.4159876 L153.039299,59.4159876 L153.039299,66.6243017 L152.459891,66.6243017 L149.149702,62.2338636 C148.669828,61.5965331 148.250563,61.0289711 147.790151,60.4016074 L147.770133,60.4115744 C147.780698,61.1087066 147.780698,61.8451529 147.780698,62.572186 L147.780698,66.6243017 L147.190725,66.6243017 Z" id="Fill-19" fill="#F1F1D3" mask="url(#mask-2)"></path>
            <path d="M162.082902,65.4597752 C162.712911,65.9470479 163.532535,66.1663207 164.202579,66.1663207 C165.172337,66.1663207 165.882418,65.6989818 165.882418,64.762643 C165.882418,63.6972876 164.95214,63.4686017 164.012409,63.2094612 C162.972588,62.9204198 161.952786,62.5422298 161.952786,61.2382215 C161.952786,60.0034281 162.853037,59.3062959 164.162543,59.3062959 C164.842597,59.3062959 165.632194,59.4956678 166.19214,59.8738579 L166.19214,60.5311223 C165.582149,60.0931306 164.802561,59.8738579 164.152535,59.8738579 C163.212248,59.8738579 162.562777,60.3223702 162.562777,61.1983537 C162.562777,62.2238413 163.472481,62.4331471 164.372732,62.6817669 C165.402543,62.9702545 166.491853,63.3489983 166.491853,64.7327421 C166.491853,65.9974364 165.562687,66.7344364 164.202579,66.7344364 C163.48249,66.7344364 162.662866,66.5251306 162.082902,66.1369736 L162.082902,65.4597752 Z" id="Fill-20" fill="#F1F1D3" mask="url(#mask-2)"></path>
            <polygon id="Fill-21" fill="#F1F1D3" mask="url(#mask-2)" points="170.251333 59.4158215 174.260481 59.4158215 174.260481 59.9734165 170.860768 59.9734165 170.860768 62.6019207 173.870687 62.6019207 173.870687 63.1595157 170.860768 63.1595157 170.860768 66.0665405 174.350561 66.0665405 174.350561 66.6241355 170.251333 66.6241355"></polygon>
            <path d="M181.309853,59.3064066 C182.039396,59.3064066 182.689422,59.4858116 183.249369,59.764886 L183.249369,60.4415306 C182.720005,60.0926876 182.039396,59.8739686 181.309853,59.8739686 C179.419826,59.8739686 178.150355,61.2577124 178.150355,63.0202 C178.150355,64.7826876 179.419826,66.1664314 181.349889,66.1664314 C182.110014,66.1664314 182.80953,65.9377455 183.379485,65.5396215 L183.379485,66.2162661 C182.80953,66.5545884 182.079987,66.7339934 181.319306,66.7339934 C179.090086,66.7339934 177.540364,65.1210099 177.540364,63.0301669 C177.540364,60.9791917 179.030032,59.3064066 181.309853,59.3064066" id="Fill-22" fill="#F1F1D3" mask="url(#mask-2)"></path>
            <path d="M186.915265,63.1992727 L186.915265,59.4157107 L187.5247,59.4157107 L187.5247,63.1499917 C187.5247,64.2347273 187.645363,64.9617603 188.025148,65.4495868 C188.33487,65.8477107 188.874798,66.1666529 189.745022,66.1666529 C190.634709,66.1666529 191.224682,65.8277769 191.544413,65.3200165 C191.854135,64.8321901 191.934206,64.1549917 191.934206,63.1693719 L191.934206,59.4157107 L192.524735,59.4157107 L192.524735,63.1400248 C192.524735,64.2945289 192.42409,65.0713967 192.014278,65.6887934 C191.56443,66.3554711 190.784287,66.7342149 189.714996,66.7342149 C188.715211,66.7342149 188.004574,66.4053058 187.545274,65.8277769 C187.044825,65.2004132 186.915265,64.3543306 186.915265,63.1992727" id="Fill-23" fill="#F1F1D3" mask="url(#mask-2)"></path>
            <path d="M198.843119,62.8806628 C199.593236,62.8806628 200.07311,62.7516463 200.422868,62.462605 C200.733146,62.2034645 200.882725,61.8551752 200.882725,61.4271504 C200.882725,60.8994562 200.653074,60.5412 200.292752,60.3019934 C199.902958,60.0434066 199.423083,59.9730843 198.613469,59.9730843 L197.323424,59.9730843 L197.323424,62.8806628 L198.843119,62.8806628 Z M196.713989,59.416043 L198.653505,59.416043 C199.493146,59.416043 200.143173,59.5157124 200.653074,59.8440678 C201.142958,60.1630099 201.492716,60.6807372 201.492716,61.3978033 C201.492716,62.054514 201.193003,62.5921752 200.733146,62.9205306 C200.40285,63.1591835 200.013057,63.2787868 199.563209,63.3491091 L201.982599,66.624357 L201.242491,66.624357 L198.883155,63.3983901 L197.323424,63.3983901 L197.323424,66.624357 L196.713989,66.624357 L196.713989,59.416043 Z" id="Fill-24" fill="#F1F1D3" mask="url(#mask-2)"></path>
            <polygon id="Fill-25" fill="#F1F1D3" mask="url(#mask-2)" points="205.479677 66.6240248 206.089668 66.6240248 206.089668 59.4157107 205.479677 59.4157107"></polygon>
            <polygon id="Fill-26" fill="#F1F1D3" mask="url(#mask-2)" points="212.099387 59.9733612 209.609934 59.9733612 209.609934 59.4157661 215.199387 59.4157661 215.199387 59.9733612 212.709378 59.9733612 212.709378 66.6240802 212.099387 66.6240802"></polygon>
            <path d="M223.860536,59.4158215 L224.550599,59.4158215 L221.760877,63.3583008 L221.760877,66.6241355 L221.150886,66.6241355 L221.150886,63.3688215 L218.351711,59.4158215 L219.061236,59.4158215 L220.221164,61.0587058 C220.630976,61.6362347 221.041343,62.2237306 221.451155,62.8211934 L221.471173,62.8211934 C221.860967,62.2536314 222.280787,61.6561686 222.700608,61.0587058 L223.860536,59.4158215 Z" id="Fill-27" fill="#F1F1D3" mask="url(#mask-2)"></path>
            <path d="M41.773487,36.3609 C45.2254691,38.7479826 49.492626,39.7983876 52.3696484,39.7983876 C55.8694511,39.7983876 58.3144197,38.3182967 58.3144197,35.1670818 C58.3144197,31.3475281 54.6705991,30.8226025 50.163783,29.4859248 C45.1776484,27.958214 40.7670296,25.7621645 40.7670296,19.6983876 C40.7670296,13.3959579 45.4173076,9.62457769 52.4652897,9.62457769 C55.8216305,9.62457769 59.8491283,10.4839496 62.7734152,12.2026934 L62.7734152,18.3140901 C59.3214332,16.0698669 55.2461148,15.0676355 52.4174691,15.0676355 C49.1573256,15.0676355 46.8558188,16.3561397 46.8558188,19.2687017 C46.8558188,22.8972223 50.4996395,23.3745281 54.6705991,24.663586 C59.8007516,26.2394702 64.403209,28.4831397 64.403209,34.8331893 C64.403209,41.3260983 59.5610924,45.2408917 52.3212717,45.2408917 C48.9176664,45.2408917 44.8417919,44.3815198 41.773487,42.7103959 L41.773487,36.3609 Z" id="Fill-28" fill="#F1F1D3" mask="url(#mask-2)"></path>
            <path d="M81.1111247,39.2254545 L81.1111247,35.2624876 C80.0568466,34.9762149 78.6177794,34.7851818 77.467304,34.7851818 C75.0707121,34.7851818 72.7208287,35.549314 72.7208287,37.8406033 C72.7208287,39.7503802 74.3989991,40.6579256 76.4608466,40.6579256 C78.2346583,40.6579256 79.9606493,40.0366529 81.1111247,39.2254545 M69.5568825,43.6651736 C67.9265327,42.4719091 66.9195193,40.6097521 66.9195193,38.270843 C66.9195193,35.6927273 68.166748,33.7829504 69.9405596,32.5891322 C71.7138152,31.3958678 74.1115193,30.9656281 76.5564879,30.9656281 C78.1868377,30.9656281 79.6731695,31.1566612 81.1111247,31.4911074 L81.1111247,30.1062562 C81.1111247,28.6737851 80.7274475,27.6239339 79.9606493,26.9079752 C79.0982099,26.143843 77.7553399,25.7617769 75.9815283,25.7617769 C73.1528825,25.7617769 70.7073578,26.7169421 68.8857256,27.8625868 L68.8857256,22.6111157 C70.7551785,21.5607107 73.488183,20.7013388 76.8445238,20.7013388 C79.9128287,20.7013388 82.6452771,21.4172975 84.4196448,22.8973884 C86.002174,24.2340661 86.9124341,26.2390826 86.9124341,29.1516446 L86.9124341,38.1750496 C86.9124341,39.4641074 87.3923085,40.3710992 88.5427839,40.3710992 C88.9742816,40.3710992 89.4541561,40.227686 89.8372771,40.0366529 L89.8372771,44.572719 C89.1182996,44.9066116 88.1112861,45.1458182 86.9608108,45.1458182 C85.0429812,45.1458182 83.2207928,44.4774793 82.1181381,42.9968347 L82.0224969,42.9968347 C80.5839857,44.1430331 78.139017,45.2410579 75.0223354,45.2410579 C73.1045058,45.2410579 71.1388556,44.8113719 69.5568825,43.6651736" id="Fill-29" fill="#F1F1D3" mask="url(#mask-2)"></path>
            <path d="M93.8638852,26.143843 L90.3157058,26.143843 L90.3157058,21.2262645 L93.8638852,21.2262645 L93.8638852,17.2156777 C93.8638852,14.0644628 94.4394009,11.4387273 96.1653919,9.76760331 C97.747365,8.23989256 100.096136,7.71496694 102.254181,7.71496694 C103.596495,7.71496694 104.987186,7.906 106.041464,8.28806612 L106.041464,13.1574711 C105.130648,12.9188182 103.644316,12.7277851 102.78132,12.7277851 C100.192334,12.7277851 99.6651946,14.4465289 99.6651946,16.6907521 L99.6651946,21.2262645 L105.418127,21.2262645 L105.418127,26.143843 L99.6651946,26.143843 L99.6651946,44.7155785 L93.8638852,44.7155785 L93.8638852,26.143843 Z" id="Fill-30" fill="#F1F1D3" mask="url(#mask-2)"></path>
            <path d="M112.662007,30.536219 L124.408088,30.536219 C123.977146,27.002938 121.387604,25.3799876 118.750796,25.3799876 C116.065613,25.3799876 113.380985,27.002938 112.662007,30.536219 L112.662007,30.536219 Z M112.662007,34.5468058 C113.380985,38.4615992 116.497666,40.4666157 120.476787,40.4666157 C123.449451,40.4666157 126.230276,39.3685909 128.531227,37.7450868 L128.531227,43.0447314 C126.325917,44.4290289 122.970133,45.2413347 119.901272,45.2413347 C112.326151,45.2413347 106.7645,40.371376 106.7645,33.019095 C106.7645,25.5710207 112.373971,20.701062 118.798617,20.701062 C124.647747,20.701062 129.82572,24.6634752 129.82572,32.2067893 C129.82572,32.9709215 129.7779,33.9255331 129.682258,34.5468058 L112.662007,34.5468058 Z" id="Fill-31" fill="#F1F1D3" mask="url(#mask-2)"></path>
            <path d="M132.971205,36.3609 C136.423187,38.7479826 140.690344,39.7983876 143.567367,39.7983876 C147.06717,39.7983876 149.512138,38.3182967 149.512138,35.1670818 C149.512138,31.3475281 145.868317,30.8226025 141.361501,29.4859248 C136.375367,27.958214 131.964748,25.7621645 131.964748,19.6983876 C131.964748,13.3959579 136.615026,9.62457769 143.663008,9.62457769 C147.019349,9.62457769 151.046291,10.4839496 153.97169,12.2026934 L153.97169,18.3140901 C150.519152,16.0698669 146.443833,15.0676355 143.615187,15.0676355 C140.355044,15.0676355 138.054093,16.3561397 138.054093,19.2687017 C138.054093,22.8972223 141.697358,23.3745281 145.868317,24.663586 C150.99847,26.2394702 155.600927,28.4831397 155.600927,34.8331893 C155.600927,41.3260983 150.758811,45.2408917 143.51899,45.2408917 C140.115385,45.2408917 136.03951,44.3815198 132.971205,42.7103959 L132.971205,36.3609 Z" id="Fill-32" fill="#F1F1D3" mask="url(#mask-2)"></path>
            <path d="M160.66819,36.2174314 L160.66819,26.1436215 L156.544495,26.1436215 L156.544495,21.226043 L160.66819,21.226043 L160.66819,14.9717868 L166.468943,13.9690017 L166.468943,21.226043 L173.133804,21.226043 L173.133804,26.1436215 L166.468943,26.1436215 L166.468943,35.4062331 C166.468943,38.0314149 166.948818,40.2280182 169.585625,40.2280182 C170.832298,40.2280182 172.174612,39.7501587 173.133804,39.2252331 L173.133804,44.1428116 C172.078414,44.7635306 170.160585,45.2408364 168.339509,45.2408364 C166.277661,45.2408364 164.071796,44.6201174 162.58602,42.9495471 C161.387168,41.6599355 160.66819,39.7030926 160.66819,36.2174314" id="Fill-33" fill="#F1F1D3" mask="url(#mask-2)"></path>
            <path d="M189.717275,39.2254545 L189.717275,35.2624876 C188.661885,34.9762149 187.22393,34.7851818 186.073455,34.7851818 C183.675751,34.7851818 181.326979,35.549314 181.326979,37.8406033 C181.326979,39.7503802 183.00515,40.6579256 185.066441,40.6579256 C186.840809,40.6579256 188.5668,40.0366529 189.717275,39.2254545 M178.162477,43.6651736 C176.532127,42.4719091 175.52567,40.6097521 175.52567,38.270843 C175.52567,35.6927273 176.771787,33.7829504 178.546154,32.5891322 C180.319966,31.3958678 182.717114,30.9656281 185.162083,30.9656281 C186.792432,30.9656281 188.278208,31.1566612 189.717275,31.4911074 L189.717275,30.1062562 C189.717275,28.6737851 189.333598,27.6239339 188.5668,26.9079752 C187.703248,26.143843 186.360935,25.7617769 184.587123,25.7617769 C181.757921,25.7617769 179.312952,26.7169421 177.49132,27.8625868 L177.49132,22.6111157 C179.361329,21.5607107 182.093778,20.7013388 185.450118,20.7013388 C188.518423,20.7013388 191.251428,21.4172975 193.025239,22.8973884 C194.607213,24.2340661 195.518585,26.2390826 195.518585,29.1516446 L195.518585,38.1750496 C195.518585,39.4641074 195.997903,40.3710992 197.148378,40.3710992 C197.580432,40.3710992 198.059195,40.227686 198.442872,40.0366529 L198.442872,44.572719 C197.723894,44.9066116 196.716881,45.1458182 195.565849,45.1458182 C193.64802,45.1458182 191.826943,44.4774793 190.723733,42.9968347 L190.628091,42.9968347 C189.18958,44.1430331 186.744056,45.2410579 183.62793,45.2410579 C181.7101,45.2410579 179.745006,44.8113719 178.162477,43.6651736" id="Fill-34" fill="#F1F1D3" mask="url(#mask-2)"></path>
            <path d="M220.189747,43.474362 C218.032258,44.6681802 215.29981,45.2412793 212.807021,45.2412793 C205.231343,45.2412793 199.765891,40.0850479 199.765891,33.0666595 C199.765891,25.7138248 205.711218,20.7010066 213.093944,20.7010066 C215.63511,20.7010066 217.984994,21.3217256 219.80607,22.2287174 L219.80607,27.8628083 C217.744778,26.5255769 215.443272,25.7138248 213.190142,25.7138248 C208.635505,25.7138248 205.614465,28.9126595 205.614465,33.0190397 C205.614465,37.2201058 208.779523,40.1802876 213.285783,40.1802876 C215.779128,40.1802876 218.320294,39.3209157 220.189747,37.8408248 L220.189747,43.474362 Z" id="Fill-35" fill="#F1F1D3" mask="url(#mask-2)"></path>
            <polygon id="Fill-36" fill="#F1F1D3" mask="url(#mask-2)" points="224.825178 8.23989256 230.626488 8.23989256 230.626488 31.3476942 230.722685 31.3958678 240.119439 21.2262645 247.023959 21.2262645 237.147331 31.7297603 247.934775 44.7155785 240.791152 44.7155785 230.722685 32.3504793 230.626488 32.3980992 230.626488 44.7155785 224.825178 44.7155785"></polygon>
            <polygon id="Fill-37" fill="#F1F1D3" mask="url(#mask-2)" points="31.7725812 9.50082149 2.13880538 9.50082149 2.13880538 7.28705289 22.7055677 7.28705289 22.7055677 0.000110743802 0.000222421525 0.000110743802 0.000222421525 16.7877636 29.6339982 16.7877636 29.6339982 19.0015322 14.3013704 19.0015322 14.3013704 26.2879207 31.7725812 26.2879207"></polygon>
            <polygon id="Fill-38" fill="#F1F1D3" mask="url(#mask-2)" points="31.77247 28.5019661 2.13869417 28.5019661 2.13869417 26.2881975 12.015878 26.2881975 12.015878 19.0012554 0.000111210762 19.0012554 0.000111210762 35.7889083 29.633887 35.7889083 29.633887 38.0026769 9.06712466 38.0026769 9.06712466 45.2890653 31.77247 45.2890653"></polygon>
        </g>
    </g>
</svg>