<svg xmlns="http://www.w3.org/2000/svg" viewBox="0 0 120 119.607" enable-background="new 0 0 120 119.607"><path fill="#B84F2D" d="M119.844 61.375c-.067-7.266-.946-13.26-2.747-19.064-2.035-6.558-5.207-12.603-9.252-18.156-1.548-2.126-3.154-4.247-4.993-6.115-2.224-2.258-4.655-4.328-7.118-6.331-5.705-4.639-11.911-8.364-19.133-10.201-3.547-.903-7.084-1.726-10.784-1.455-2.088.153-4.177.316-6.269.376-3.174.091-6.322.173-9.502.564-3.108.383-6.142.961-9.006 2.032-10.24 3.831-19.087 9.722-25.903 18.415-1.199 1.529-2.364 3.086-3.52 4.649-3.059 4.135-5.934 8.37-7.276 13.438-1.252 4.73-2.579 9.442-3.746 14.193-.404 1.647-.584 3.388-.594 5.087-.037 6.465.39 12.877 2.803 18.988 1.281 3.242 2.141 6.629 3.991 9.672 3.06 5.033 5.572 10.427 10.213 14.335 1.363 1.148 2.483 2.642 3.966 3.58 4.844 3.062 9.475 6.506 14.848 8.668 4.387 1.766 8.694 3.664 13.414 4.565 6.669 1.273 13.243 1.478 19.831-.311 5.681-1.543 11.387-2.997 17.049-4.606 2.62-.745 5.027-2.036 7.234-3.654 1.114-.816 2.165-1.719 3.3-2.503 3.905-2.697 7.338-5.826 10.288-9.609 2.235-2.865 3.526-6.158 5.298-9.224.542-.938 1.275-1.81 1.608-2.816 1.462-4.413 3.632-8.594 4.354-13.252.643-4.13 2.318-8.127 1.646-11.265z"/><path fill="#081F38" d="M117.82 66.661c-.379 2.339-.87 4.762-1.46 7.202-.959 3.965-2.443 7.822-4.537 11.793-.417.791-.777 1.648-1.158 2.556-.528 1.257-1.073 2.557-1.83 3.813-1.806 2.997-3.467 5.31-5.227 7.278-4.997 5.59-11.054 9.954-18.003 12.97-3.317 1.44-6.822 2.322-10.212 3.174l-.211.053c-3.591.903-7.2 1.546-10.69 2.167-1.272.226-2.5.317-3.801.413-.565.042-1.145.084-1.745.14l-.239.011-.297-.017c-.614-.072-1.247-.139-1.893-.207-1.511-.16-3.073-.326-4.662-.575-8.233-1.292-15.953-4.245-22.944-8.777-.814-.528-1.677-1.007-2.591-1.515l-.559-.311c-4.389-2.454-8.304-6.012-11.969-10.877-1.94-2.576-3.226-5.513-4.47-8.354l-.099-.226c-1.88-4.291-3.851-8.882-5.485-13.676-1.677-4.921-2.365-10.131-2.045-15.485.168-2.812.714-5.641 1.717-8.901.416-1.353.753-2.728 1.109-4.183.448-1.834.912-3.73 1.553-5.594 1.035-3.009 2.298-5.704 3.754-8.01 3.514-5.563 7.535-11.346 13.121-15.949 2.912-2.399 6.264-4.659 10.55-7.113 4.063-2.325 8.447-4.663 13.437-5.462 2.726-.437 5.733-.812 9.462-1.18 2.225-.219 4.857-.444 7.499-.444h.113c9.501.023 17.408 2.13 24.173 6.443 3.804 2.425 7.133 5.376 10.352 8.229l1.099.972c6.651 5.87 11.595 13.445 15.557 23.836 1.017 2.666 1.463 5.456 1.895 8.155.102.638.204 1.276.313 1.908.229 1.323.339 2.632.445 3.897.089 1.061.174 2.063.322 3.043.483 3.185.076 6.214-.344 8.803z"/><path fill="#B84F2D" d="M58.707 115.679c-2.02-.236-4.251-.423-6.456-.769-7.908-1.241-15.228-4.039-21.951-8.397-1.064-.69-2.185-1.293-3.293-1.912-4.517-2.526-8.122-6.131-11.175-10.185-1.81-2.402-3.05-5.283-4.27-8.069-1.942-4.433-3.848-8.9-5.407-13.476-1.59-4.666-2.211-9.529-1.913-14.509.171-2.863.771-5.579 1.609-8.303.985-3.2 1.549-6.537 2.636-9.697.891-2.591 2.039-5.165 3.499-7.477 3.551-5.623 7.418-11.083 12.586-15.342 3.15-2.596 6.645-4.835 10.195-6.867 3.939-2.254 7.996-4.424 12.573-5.157 3.086-.495 6.197-.853 9.308-1.16 2.443-.241 4.903-.437 7.355-.431 8.118.019 15.832 1.597 22.807 6.043 4.05 2.582 7.556 5.805 11.134 8.963 7.072 6.242 11.565 14.188 14.861 22.832 1.153 3.023 1.521 6.364 2.078 9.588.393 2.271.413 4.605.759 6.887.41 2.708.088 5.365-.341 8.012-.381 2.352-.862 4.694-1.422 7.011-.947 3.916-2.43 7.631-4.314 11.202-1.071 2.03-1.738 4.286-2.916 6.242-1.457 2.417-3.068 4.796-4.944 6.894-4.782 5.349-10.551 9.48-17.116 12.33-3.191 1.386-6.638 2.24-10.029 3.093-3.465.872-6.994 1.503-10.515 2.129-1.682.299-3.408.344-5.338.525z"/><path fill="#F2F2D4" d="M14.582 44.382c.684.228 16.877.456 17.22.685-.685 1.026.228 2.965.912 3.763.57.798 1.368 1.597 2.053 2.395 1.824-.57 4.447.114 6.272.228l5.132.456 30.687 2.074c7.412.456 15.281 1.482 22.694.912-.228-.912-.342-3.193-.114-3.649 1.711 1.254 8.668 3.877 10.036 4.448l.114.913c-1.825 1.368-6.045 5.588-6.843 6.044-.685.342-1.597-.228-2.167.342l-.456-2.965-64.784-3.898-1.369.57c-5.93 2.167-4.676 2.395-10.035 5.702-.456 0-5.246-.684-7.413-.912-.912 0-4.79.114-3.193-1.711 1.368.228 7.07-5.474 7.64-6.044.456-.57.343-1.368.343-2.053.228-1.254-1.711-2.395-2.623-3.307-.685-.8-4.448-3.537-4.106-3.993zm1.597 15.966c2.736.342 4.561.57 7.299.456.228-.228 5.245-3.421 9.123-5.018-3.307-.57-6.614-1.14-9.922-1.254-1.711.456-5.018 4.789-6.5 5.816zm6.158-14.141c-1.597.114-3.422-.798-4.334-.114 1.141 1.482 2.851 2.053 3.878 3.649.113-.114.684.684.798 1.14 3.421.114 6.843 0 10.15.342 0-.912-.799-1.141-1.255-1.71l-.798-2.053c-.343-1.026-.913-1.14-1.939-1.254-2.167-.229-4.333-.229-6.5 0-1.597.114 1.14-.114 0 0zm85.425 10.398c-2.053-1.141-4.789-1.711-7.07-3.079.114 2.623 0 5.246 1.254 7.983 2.053-1.597 4.562-2.737 5.816-4.904z"/></svg>