<svg version="1.1" xmlns="http://www.w3.org/2000/svg" xmlns:xlink="http://www.w3.org/1999/xlink" x="0px" y="0px" viewBox="0 0 105.089 32.3" enable-background="new 0 0 105.089 32.3" xml:space="preserve"><path fill="#f1f1d3" d="M12.548 32.293C5.614 32.293 0 26.67 0 19.744l0 0C0 14.175 3.621 9.451 8.647 7.805l0 0C10.057 3.284 14.271 0 19.254 0l0 0c4.378 0 8.16 2.533 9.97 6.215l0 0c0.068 0.134 0.04 0.302-0.065 0.4l0 0c-0.106 0.108-0.264 0.124-0.4 0.056l0 0c-0.576-0.312-1.203-0.583-1.889-0.827l0 0c-1.346-0.473-2.84-0.705-4.473-0.705l0 0c-2.647 0-4.886 0.545-6.758 1.613l0 0c-1.87 1.084-3.306 2.584-4.296 4.56l0 0c-0.985 1.978-1.491 4.256-1.491 6.852l0 0c0 3.828 1.082 6.842 3.251 9.085l0 0c1.395 1.451 3.134 2.43 5.248 2.945l0 0c0.14 0.037 0.246 0.154 0.255 0.297l0 0c0.021 0.136-0.051 0.272-0.182 0.339l0 0c-1.749 0.934-3.748 1.472-5.871 1.472l0 0C12.548 32.293 12.548 32.293 12.548 32.293L12.548 32.293zM15.651 19.018c-0.026-0.314-0.037-0.63-0.037-0.955l0 0c0-2.629 0.594-4.74 1.817-6.302l0 0c1.217-1.564 2.875-2.364 4.869-2.364l0 0c1.37 0 2.533 0.318 3.458 0.964l0 0c0.903 0.625 1.753 1.562 2.547 2.772l0 0c0.429 0.597 0.814 1.02 1.124 1.262l0 0c0.286 0.223 0.641 0.339 1.124 0.339l0 0c0.74 0 1.339-0.243 1.854-0.709l0 0c0.512-0.48 0.744-1.021 0.751-1.709l0 0c0-0.676-0.229-1.425-0.719-2.264l0 0c-0.265-0.473-0.62-0.922-1.044-1.365l0 0c-0.108-0.113-0.122-0.286-0.042-0.415l0 0c0.086-0.136 0.248-0.192 0.398-0.152l0 0c4.324 1.306 7.475 5.314 7.475 10.075l0 0c0 4.97-3.443 9.123-8.065 10.221l0 0c-0.026 0.005-0.047 0.012-0.084 0.012l0 0c-0.117 0-0.244-0.075-0.304-0.189l0 0c-0.068-0.133-0.037-0.316 0.086-0.403l0 0c0.873-0.768 1.524-1.557 1.953-2.371l0 0c0.459-0.876 0.677-1.674 0.677-2.404l0 0c-0.004-0.59-0.211-1.131-0.691-1.692l0 0c-0.468-0.531-0.997-0.773-1.702-0.777l0 0c-0.587 0-1.049 0.182-1.442 0.536l0 0c-0.415 0.368-0.822 0.904-1.201 1.613l0 0c-0.726 1.259-1.573 2.219-2.551 2.851l0 0c-0.981 0.637-2.153 0.955-3.504 0.955l0 0c-0.993 0-1.927-0.194-2.783-0.59l0 0c-0.843-0.395-1.585-0.972-2.175-1.718l0 0c-0.597-0.761-1.047-1.664-1.355-2.718l0 0C15.85 20.724 15.706 19.891 15.651 19.018M31.549 8.769l0.101-0.33L31.549 8.769 31.549 8.769z"/><path fill="#f1f1d3" d="M54.415 15.93c0 0.407-0.12 0.848-0.365 1.309 -0.244 0.47-0.616 0.91-1.117 1.327 -0.501 0.422-1.13 0.765-1.892 1.016 -0.759 0.255-1.62 0.393-2.564 0.393 -2.029 0-3.603-0.592-4.745-1.782 -1.136-1.178-1.709-2.755-1.709-4.745 0-1.346 0.26-2.531 0.784-3.563 0.518-1.033 1.269-1.833 2.257-2.395 0.981-0.562 2.153-0.848 3.526-0.848 0.848 0 1.634 0.126 2.345 0.381 0.7 0.251 1.306 0.567 1.795 0.965 0.487 0.395 0.862 0.807 1.128 1.253 0.255 0.443 0.389 0.859 0.389 1.245 0 0.393-0.15 0.723-0.44 0.992 -0.29 0.274-0.648 0.402-1.058 0.402 -0.272 0-0.501-0.079-0.681-0.206 -0.182-0.136-0.382-0.365-0.608-0.681 -0.4-0.616-0.821-1.061-1.257-1.374 -0.433-0.304-0.99-0.454-1.664-0.454 -0.967 0-1.749 0.375-2.343 1.131 -0.592 0.758-0.885 1.789-0.885 3.102 0 0.616 0.075 1.184 0.225 1.697 0.155 0.522 0.377 0.962 0.66 1.32 0.293 0.37 0.639 0.642 1.049 0.836 0.407 0.182 0.857 0.283 1.344 0.283 0.663 0 1.22-0.159 1.693-0.466 0.466-0.307 0.88-0.765 1.245-1.391 0.189-0.37 0.407-0.658 0.644-0.869 0.241-0.204 0.518-0.316 0.85-0.316 0.4 0 0.73 0.161 0.995 0.464C54.282 15.261 54.415 15.588 54.415 15.93zM56.663 17.997V3.783c0-0.655 0.148-1.156 0.436-1.494 0.29-0.328 0.69-0.496 1.182-0.496 0.498 0 0.903 0.168 1.201 0.496 0.3 0.332 0.454 0.829 0.454 1.494v14.214c0 0.663-0.157 1.161-0.464 1.491 -0.307 0.328-0.705 0.496-1.196 0.496 -0.475 0-0.869-0.176-1.166-0.517C56.815 19.132 56.663 18.636 56.663 17.997zM75.586 13.327c0 0.976-0.15 1.871-0.456 2.697 -0.307 0.826-0.744 1.531-1.316 2.128 -0.58 0.592-1.269 1.047-2.072 1.36 -0.796 0.316-1.707 0.473-2.704 0.473 -0.983 0-1.878-0.159-2.671-0.478 -0.791-0.319-1.479-0.773-2.067-1.377 -0.571-0.594-1.016-1.29-1.316-2.107 -0.304-0.812-0.454-1.709-0.454-2.694 0-0.986 0.15-1.906 0.454-2.727 0.312-0.826 0.749-1.529 1.309-2.109 0.569-0.585 1.264-1.033 2.074-1.349 0.808-0.323 1.699-0.473 2.671-0.473 0.993 0 1.892 0.162 2.704 0.475 0.81 0.328 1.494 0.777 2.074 1.37s1.016 1.294 1.313 2.114C75.437 11.438 75.586 12.339 75.586 13.327zM72.305 13.327c0-1.344-0.299-2.383-0.885-3.123C70.83 9.46 70.043 9.08 69.046 9.08c-0.635 0-1.201 0.173-1.69 0.501 -0.485 0.328-0.864 0.824-1.128 1.465 -0.262 0.651-0.395 1.416-0.395 2.282 0 0.845 0.124 1.599 0.391 2.243 0.264 0.63 0.628 1.128 1.116 1.47 0.487 0.33 1.054 0.505 1.709 0.505 0.993 0 1.782-0.368 2.371-1.119C72.007 15.68 72.305 14.647 72.305 13.327zM86.683 18.138v-0.419c-0.398 0.499-0.808 0.91-1.234 1.252 -0.433 0.33-0.91 0.583-1.418 0.751 -0.508 0.169-1.091 0.253-1.753 0.253 -0.782 0-1.494-0.171-2.13-0.496 -0.625-0.328-1.119-0.768-1.459-1.351 -0.407-0.695-0.614-1.702-0.614-3.004V8.626c0-0.651 0.147-1.142 0.443-1.466 0.297-0.328 0.69-0.487 1.177-0.487 0.498 0 0.903 0.169 1.201 0.491 0.309 0.328 0.459 0.822 0.459 1.463v5.241c0 0.765 0.065 1.405 0.192 1.927 0.12 0.515 0.356 0.913 0.688 1.203 0.332 0.292 0.779 0.436 1.351 0.436 0.545 0 1.065-0.159 1.561-0.484 0.485-0.328 0.843-0.759 1.07-1.28 0.182-0.466 0.274-1.486 0.274-3.052V8.629c0-0.641 0.15-1.131 0.459-1.465 0.307-0.328 0.691-0.489 1.187-0.489 0.491 0 0.88 0.164 1.173 0.485 0.3 0.328 0.452 0.817 0.452 1.468v9.493c0 0.62-0.148 1.095-0.429 1.412 -0.283 0.311-0.651 0.468-1.095 0.468 -0.452 0-0.824-0.164-1.117-0.484C86.83 19.177 86.683 18.721 86.683 18.138zM101.997 18.116v-0.328c-0.44 0.512-0.873 0.917-1.301 1.236 -0.429 0.314-0.892 0.55-1.393 0.723 -0.499 0.159-1.049 0.243-1.637 0.243 -0.787 0-1.514-0.169-2.182-0.499 -0.665-0.328-1.245-0.807-1.732-1.418 -0.489-0.618-0.861-1.342-1.109-2.17 -0.255-0.836-0.382-1.732-0.382-2.702 0-2.055 0.496-3.647 1.491-4.79 1.006-1.14 2.322-1.713 3.963-1.713 0.939 0 1.737 0.169 2.385 0.487 0.651 0.328 1.276 0.822 1.896 1.491V3.837c0-0.669 0.131-1.18 0.4-1.526 0.267-0.337 0.658-0.513 1.147-0.513 0.498 0 0.88 0.152 1.147 0.473 0.262 0.325 0.4 0.78 0.4 1.398v14.45c0 0.621-0.143 1.095-0.429 1.414 -0.29 0.311-0.662 0.466-1.119 0.466 -0.447 0-0.817-0.162-1.114-0.48C102.144 19.177 101.997 18.714 101.997 18.116zM95.555 13.304c0 0.887 0.136 1.644 0.415 2.268 0.274 0.627 0.651 1.095 1.128 1.416 0.48 0.314 1.006 0.473 1.571 0.473 0.576 0 1.105-0.157 1.58-0.456 0.473-0.3 0.85-0.763 1.13-1.377 0.286-0.618 0.426-1.398 0.426-2.324 0-0.869-0.14-1.627-0.426-2.254 -0.279-0.63-0.669-1.11-1.143-1.438 -0.485-0.328-1.016-0.498-1.589-0.498 -0.613 0-1.136 0.18-1.61 0.508 -0.473 0.34-0.84 0.834-1.103 1.475C95.684 11.724 95.555 12.461 95.555 13.304z"/><path fill="#f1f1d3" d="M45.979 28.122c-0.332 0.265-0.67 0.468-0.981 0.597 -0.323 0.134-0.681 0.201-1.068 0.201 -0.361 0-0.681-0.07-0.951-0.213 -0.269-0.143-0.484-0.335-0.627-0.585 -0.147-0.243-0.222-0.505-0.222-0.789 0-0.388 0.115-0.714 0.365-0.983 0.248-0.265 0.58-0.454 1.002-0.545 0.093-0.017 0.314-0.07 0.665-0.136 0.351-0.075 0.655-0.134 0.91-0.192 0.255-0.065 0.531-0.131 0.824-0.222 -0.017-0.372-0.094-0.644-0.222-0.826 -0.136-0.168-0.405-0.255-0.827-0.255 -0.358 0-0.618 0.044-0.805 0.147 -0.18 0.108-0.332 0.255-0.466 0.456 -0.129 0.192-0.218 0.328-0.272 0.398 -0.052 0.068-0.168 0.1-0.342 0.1 -0.157 0-0.297-0.049-0.407-0.15 -0.108-0.108-0.176-0.236-0.176-0.389 0-0.255 0.091-0.491 0.26-0.723 0.18-0.239 0.456-0.426 0.827-0.58 0.365-0.157 0.834-0.229 1.381-0.229 0.618 0 1.105 0.072 1.459 0.218 0.349 0.147 0.606 0.382 0.749 0.691 0.147 0.323 0.222 0.733 0.222 1.262 0 0.328 0 0.613-0.004 0.836 0 0.234 0 0.484-0.004 0.765 0 0.264 0.037 0.545 0.127 0.836 0.087 0.279 0.127 0.473 0.127 0.545 0 0.147-0.063 0.276-0.202 0.4 -0.136 0.115-0.286 0.182-0.463 0.182 -0.143 0-0.283-0.066-0.426-0.199C46.292 28.583 46.142 28.388 45.979 28.122zM45.889 26.094c-0.196 0.07-0.505 0.155-0.901 0.236 -0.398 0.089-0.662 0.147-0.817 0.192 -0.15 0.037-0.297 0.113-0.428 0.227 -0.14 0.119-0.208 0.274-0.208 0.477 0 0.215 0.079 0.396 0.239 0.545 0.169 0.152 0.381 0.23 0.634 0.23 0.283 0 0.539-0.061 0.772-0.182 0.234-0.124 0.403-0.281 0.515-0.473 0.129-0.211 0.189-0.562 0.189-1.054L45.889 26.094 45.889 26.094zM53.743 27.173c0 0.182-0.049 0.367-0.157 0.567 -0.105 0.197-0.26 0.388-0.475 0.569 -0.215 0.178-0.478 0.326-0.805 0.433 -0.332 0.108-0.697 0.168-1.114 0.168 -0.869 0-1.545-0.255-2.032-0.765 -0.485-0.505-0.73-1.191-0.73-2.032 0-0.58 0.108-1.088 0.333-1.542 0.218-0.445 0.543-0.773 0.965-1.028 0.422-0.241 0.923-0.363 1.514-0.363 0.365 0 0.691 0.056 1 0.168 0.305 0.108 0.557 0.243 0.768 0.405 0.215 0.178 0.375 0.347 0.487 0.545 0.108 0.183 0.164 0.368 0.164 0.532 0 0.169-0.058 0.318-0.182 0.429 -0.124 0.108-0.278 0.176-0.456 0.176 -0.119 0-0.213-0.03-0.293-0.093 -0.079-0.058-0.168-0.155-0.258-0.29 -0.175-0.26-0.347-0.456-0.543-0.588 -0.182-0.131-0.421-0.194-0.711-0.194 -0.414 0-0.749 0.168-1.004 0.484 -0.255 0.328-0.384 0.77-0.384 1.337 0 0.258 0.037 0.506 0.101 0.728 0.065 0.222 0.161 0.403 0.283 0.566 0.124 0.155 0.274 0.271 0.447 0.353 0.182 0.08 0.368 0.119 0.58 0.119 0.283 0 0.522-0.065 0.723-0.189 0.199-0.131 0.382-0.333 0.536-0.599 0.089-0.161 0.182-0.286 0.276-0.375 0.1-0.094 0.222-0.133 0.368-0.133 0.171 0 0.323 0.065 0.426 0.19C53.687 26.891 53.743 27.026 53.743 27.173zM60.014 27.173c0 0.182-0.049 0.367-0.162 0.567 -0.106 0.197-0.257 0.388-0.473 0.569 -0.213 0.178-0.485 0.326-0.812 0.433 -0.328 0.108-0.697 0.168-1.107 0.168 -0.868 0-1.548-0.255-2.03-0.765 -0.491-0.505-0.735-1.191-0.735-2.032 0-0.58 0.108-1.088 0.333-1.542 0.225-0.445 0.543-0.773 0.969-1.028 0.422-0.241 0.93-0.363 1.51-0.363 0.368 0 0.7 0.056 1.002 0.168 0.307 0.108 0.567 0.243 0.77 0.405 0.211 0.178 0.381 0.347 0.48 0.545 0.11 0.183 0.175 0.368 0.175 0.532 0 0.169-0.063 0.318-0.183 0.429 -0.126 0.108-0.279 0.176-0.463 0.176 -0.11 0-0.208-0.03-0.29-0.093 -0.075-0.058-0.169-0.155-0.255-0.29 -0.18-0.26-0.356-0.456-0.545-0.588 -0.182-0.131-0.417-0.194-0.707-0.194 -0.422 0-0.759 0.168-1.002 0.484 -0.257 0.328-0.386 0.77-0.386 1.337 0 0.258 0.033 0.506 0.096 0.728 0.065 0.222 0.162 0.403 0.29 0.566 0.113 0.155 0.264 0.271 0.445 0.353 0.178 0.08 0.365 0.119 0.571 0.119 0.286 0 0.531-0.065 0.726-0.189 0.199-0.131 0.384-0.333 0.534-0.599 0.089-0.161 0.182-0.286 0.283-0.375 0.096-0.094 0.222-0.133 0.365-0.133 0.171 0 0.318 0.065 0.424 0.19C59.956 26.891 60.014 27.026 60.014 27.173zM66.502 26.062c0 0.415-0.063 0.805-0.192 1.156 -0.129 0.351-0.326 0.655-0.566 0.91 -0.25 0.255-0.543 0.45-0.89 0.588 -0.34 0.134-0.726 0.201-1.156 0.201s-0.808-0.066-1.152-0.204c-0.328-0.14-0.628-0.333-0.88-0.594 -0.25-0.255-0.443-0.552-0.569-0.91 -0.12-0.344-0.189-0.73-0.189-1.149 0-0.424 0.068-0.822 0.197-1.173 0.12-0.354 0.323-0.655 0.553-0.906 0.248-0.257 0.545-0.449 0.887-0.585 0.347-0.138 0.737-0.201 1.152-0.201 0.422 0 0.808 0.063 1.156 0.201 0.347 0.14 0.644 0.33 0.894 0.594 0.255 0.253 0.433 0.553 0.562 0.904C66.44 25.249 66.502 25.638 66.502 26.062zM65.092 26.062c0-0.576-0.124-1.023-0.379-1.346 -0.255-0.323-0.594-0.477-1.016-0.477 -0.276 0-0.518 0.072-0.733 0.218 -0.204 0.14-0.365 0.351-0.484 0.625 -0.106 0.281-0.164 0.609-0.164 0.981 0 0.361 0.054 0.69 0.161 0.964 0.119 0.274 0.279 0.478 0.484 0.628 0.208 0.14 0.45 0.218 0.737 0.218 0.422 0 0.765-0.161 1.016-0.482C64.963 27.071 65.092 26.63 65.092 26.062zM71.261 28.122v-0.178c-0.164 0.215-0.335 0.393-0.529 0.536 -0.187 0.141-0.393 0.253-0.611 0.321 -0.218 0.075-0.471 0.108-0.751 0.108 -0.335 0-0.644-0.07-0.915-0.211 -0.267-0.143-0.473-0.337-0.618-0.581 -0.18-0.297-0.265-0.73-0.265-1.288v-2.786c0-0.285 0.061-0.496 0.187-0.634 0.127-0.14 0.3-0.206 0.508-0.206 0.215 0 0.382 0.072 0.515 0.206 0.133 0.143 0.196 0.353 0.196 0.634v2.247c0 0.328 0.023 0.602 0.08 0.826 0.052 0.222 0.154 0.391 0.297 0.52 0.147 0.127 0.33 0.185 0.583 0.185 0.236 0 0.457-0.068 0.669-0.209 0.211-0.14 0.361-0.325 0.461-0.548 0.077-0.201 0.112-0.641 0.112-1.309v-1.709c0-0.281 0.068-0.491 0.196-0.634 0.127-0.133 0.302-0.204 0.513-0.204 0.209 0 0.375 0.065 0.506 0.204 0.124 0.138 0.182 0.349 0.182 0.634v4.075c0 0.269-0.058 0.473-0.182 0.602 -0.119 0.134-0.274 0.201-0.473 0.201 -0.192 0-0.347-0.066-0.471-0.208C71.326 28.573 71.261 28.377 71.261 28.122zM75.264 23.98v0.171c0.251-0.328 0.518-0.562 0.815-0.719 0.286-0.15 0.63-0.229 1.006-0.229 0.372 0 0.702 0.082 0.999 0.251 0.293 0.161 0.505 0.388 0.655 0.686 0.093 0.169 0.15 0.356 0.175 0.552 0.037 0.199 0.047 0.456 0.047 0.763v2.619c0 0.281-0.068 0.491-0.194 0.637 -0.124 0.148-0.297 0.218-0.505 0.218 -0.202 0-0.375-0.073-0.508-0.222 -0.127-0.148-0.189-0.361-0.189-0.634v-2.345c0-0.47-0.063-0.827-0.192-1.058 -0.126-0.253-0.391-0.368-0.768-0.368 -0.255 0-0.482 0.072-0.688 0.218 -0.208 0.157-0.361 0.361-0.454 0.618 -0.072 0.211-0.108 0.601-0.108 1.177v1.763c0 0.283-0.068 0.498-0.192 0.641 -0.127 0.143-0.304 0.213-0.511 0.213 -0.206 0-0.372-0.073-0.492-0.222 -0.136-0.148-0.204-0.361-0.204-0.632v-4.061c0-0.267 0.058-0.473 0.18-0.606 0.117-0.138 0.274-0.192 0.475-0.192 0.126 0 0.243 0.03 0.335 0.082 0.098 0.058 0.18 0.15 0.241 0.262C75.24 23.671 75.264 23.805 75.264 23.98zM80.437 23.325h0.154V22.48c0-0.225 0.009-0.4 0.023-0.534 0.016-0.127 0.042-0.241 0.108-0.332 0.054-0.096 0.133-0.176 0.236-0.232 0.103-0.061 0.211-0.091 0.344-0.091 0.18 0 0.34 0.063 0.482 0.196 0.098 0.089 0.159 0.197 0.182 0.33 0.028 0.12 0.037 0.314 0.037 0.545v0.958h0.513c0.203 0 0.353 0.042 0.461 0.141 0.108 0.094 0.154 0.215 0.154 0.361 0 0.187-0.072 0.328-0.218 0.4 -0.154 0.079-0.365 0.112-0.635 0.112h-0.264v2.582c0 0.225 0.007 0.393 0.024 0.508 0.014 0.12 0.058 0.215 0.122 0.286 0.068 0.075 0.178 0.112 0.328 0.112 0.08 0 0.197-0.014 0.333-0.044 0.143-0.026 0.255-0.044 0.328-0.044 0.108 0 0.209 0.047 0.307 0.136 0.091 0.103 0.14 0.204 0.14 0.344 0 0.222-0.124 0.393-0.375 0.518 -0.255 0.117-0.606 0.182-1.065 0.182 -0.44 0-0.773-0.073-0.999-0.222 -0.225-0.148-0.372-0.353-0.447-0.618 -0.068-0.257-0.108-0.609-0.108-1.046v-2.701H80.42c-0.201 0-0.358-0.049-0.466-0.145 -0.108-0.1-0.166-0.218-0.166-0.367 0-0.147 0.058-0.267 0.173-0.361C80.062 23.369 80.224 23.325 80.437 23.325zM87.65 28.122c-0.339 0.265-0.672 0.468-0.985 0.597 -0.319 0.134-0.674 0.201-1.07 0.201 -0.358 0-0.676-0.07-0.951-0.213 -0.269-0.143-0.484-0.335-0.627-0.585 -0.15-0.243-0.222-0.505-0.222-0.789 0-0.388 0.122-0.714 0.365-0.983 0.253-0.265 0.58-0.454 1.006-0.545 0.089-0.017 0.316-0.07 0.665-0.136 0.358-0.075 0.655-0.134 0.91-0.192 0.25-0.065 0.522-0.131 0.822-0.222 -0.017-0.372-0.089-0.644-0.225-0.826 -0.136-0.168-0.4-0.255-0.819-0.255 -0.361 0-0.63 0.044-0.814 0.147 -0.182 0.108-0.335 0.255-0.47 0.456 -0.124 0.192-0.218 0.328-0.267 0.398 -0.052 0.068-0.169 0.1-0.339 0.1 -0.159 0-0.299-0.049-0.409-0.15 -0.113-0.108-0.175-0.236-0.175-0.389 0-0.255 0.086-0.491 0.264-0.723 0.173-0.239 0.447-0.426 0.819-0.58 0.374-0.157 0.831-0.229 1.39-0.229 0.614 0 1.098 0.072 1.452 0.218 0.356 0.147 0.601 0.382 0.747 0.691 0.15 0.323 0.225 0.733 0.225 1.262 0 0.328 0 0.613 0 0.836 -0.004 0.234-0.01 0.484-0.017 0.765 0 0.264 0.049 0.545 0.136 0.836 0.089 0.279 0.131 0.473 0.131 0.545 0 0.147-0.068 0.276-0.208 0.4 -0.131 0.115-0.285 0.182-0.457 0.182 -0.148 0-0.286-0.066-0.433-0.199C87.952 28.583 87.806 28.388 87.65 28.122zM87.56 26.094c-0.208 0.07-0.511 0.155-0.91 0.236 -0.388 0.089-0.662 0.147-0.808 0.192 -0.159 0.037-0.302 0.113-0.436 0.227 -0.136 0.119-0.208 0.274-0.208 0.477 0 0.215 0.087 0.396 0.244 0.545C85.61 27.921 85.817 28 86.079 28c0.274 0 0.532-0.061 0.765-0.182 0.241-0.124 0.409-0.281 0.518-0.473 0.129-0.211 0.194-0.562 0.194-1.054L87.56 26.094 87.56 26.094zM91.646 23.98v0.171c0.248-0.328 0.52-0.562 0.81-0.719 0.293-0.15 0.628-0.229 1.016-0.229 0.372 0 0.693 0.082 0.986 0.251 0.297 0.161 0.508 0.388 0.655 0.686 0.096 0.169 0.154 0.356 0.182 0.552 0.026 0.199 0.037 0.456 0.037 0.763v2.619c0 0.281-0.061 0.491-0.185 0.637 -0.124 0.148-0.302 0.218-0.501 0.218 -0.206 0-0.384-0.073-0.512-0.222 -0.127-0.148-0.192-0.361-0.192-0.634v-2.345c0-0.47-0.068-0.827-0.197-1.058 -0.124-0.253-0.386-0.368-0.765-0.368 -0.251 0-0.473 0.072-0.684 0.218 -0.206 0.157-0.361 0.361-0.454 0.618 -0.068 0.211-0.108 0.601-0.108 1.177v1.763c0 0.283-0.065 0.498-0.196 0.641 -0.133 0.143-0.309 0.213-0.512 0.213 -0.208 0-0.374-0.073-0.501-0.222 -0.129-0.148-0.194-0.361-0.194-0.632v-4.061c0-0.267 0.058-0.473 0.176-0.606 0.113-0.138 0.279-0.192 0.475-0.192 0.129 0 0.241 0.03 0.337 0.082 0.096 0.058 0.178 0.15 0.239 0.262C91.61 23.669 91.646 23.805 91.646 23.98zM96.821 23.325h0.15V22.48c0-0.225 0.007-0.4 0.019-0.534 0.017-0.124 0.044-0.241 0.1-0.332 0.058-0.096 0.136-0.176 0.241-0.232 0.108-0.061 0.225-0.091 0.346-0.091 0.18 0 0.34 0.063 0.48 0.196 0.1 0.089 0.157 0.197 0.183 0.33 0.026 0.12 0.037 0.314 0.037 0.545v0.958h0.518c0.196 0 0.347 0.042 0.454 0.141 0.108 0.094 0.157 0.215 0.157 0.361 0 0.187-0.075 0.328-0.222 0.4 -0.154 0.079-0.365 0.112-0.639 0.112h-0.26v2.582c0 0.225 0.01 0.393 0.024 0.508 0.019 0.12 0.054 0.215 0.126 0.286 0.065 0.075 0.171 0.112 0.328 0.112 0.079 0 0.192-0.014 0.332-0.044 0.14-0.026 0.251-0.044 0.328-0.044 0.108 0 0.215 0.047 0.309 0.136 0.089 0.103 0.131 0.204 0.131 0.344 0 0.222-0.124 0.393-0.368 0.518 -0.255 0.117-0.609 0.182-1.065 0.182 -0.44 0-0.773-0.073-1.002-0.222 -0.225-0.148-0.372-0.353-0.443-0.618 -0.068-0.257-0.108-0.609-0.108-1.046v-2.701h-0.18c-0.201 0-0.358-0.049-0.47-0.145 -0.108-0.1-0.166-0.218-0.166-0.367 0-0.147 0.058-0.267 0.178-0.361C96.439 23.369 96.603 23.325 96.821 23.325zM105 27.082c0 0.384-0.094 0.712-0.283 0.992 -0.182 0.272-0.466 0.482-0.836 0.625 -0.368 0.143-0.819 0.213-1.344 0.213 -0.512 0-0.941-0.073-1.302-0.243 -0.358-0.15-0.627-0.34-0.801-0.573 -0.169-0.236-0.258-0.468-0.258-0.695 0-0.152 0.058-0.288 0.169-0.4 0.11-0.108 0.251-0.164 0.414-0.164 0.155 0 0.262 0.037 0.34 0.108 0.079 0.066 0.157 0.173 0.232 0.302 0.14 0.25 0.319 0.436 0.518 0.555 0.201 0.126 0.473 0.183 0.821 0.183 0.283 0 0.518-0.058 0.691-0.183 0.183-0.122 0.272-0.265 0.272-0.433 0-0.246-0.096-0.421-0.283-0.536 -0.182-0.112-0.492-0.227-0.922-0.328 -0.482-0.122-0.876-0.255-1.182-0.389 -0.307-0.133-0.545-0.307-0.73-0.522 -0.182-0.211-0.271-0.477-0.271-0.798 0-0.279 0.079-0.545 0.255-0.798 0.168-0.255 0.415-0.45 0.744-0.597 0.33-0.152 0.723-0.229 1.192-0.229 0.361 0 0.691 0.037 0.981 0.108 0.293 0.079 0.534 0.182 0.726 0.307 0.192 0.126 0.344 0.262 0.447 0.422 0.105 0.154 0.15 0.304 0.15 0.45 0 0.166-0.049 0.295-0.164 0.4 -0.108 0.106-0.257 0.154-0.459 0.154 -0.15 0-0.267-0.037-0.372-0.119 -0.108-0.089-0.218-0.199-0.346-0.372 -0.108-0.136-0.234-0.25-0.381-0.328 -0.143-0.086-0.335-0.119-0.587-0.119 -0.255 0-0.466 0.051-0.635 0.168 -0.166 0.108-0.253 0.241-0.253 0.4 0 0.15 0.065 0.271 0.187 0.363 0.12 0.098 0.286 0.176 0.501 0.237 0.206 0.061 0.492 0.136 0.861 0.229 0.436 0.108 0.791 0.236 1.061 0.386 0.279 0.148 0.487 0.328 0.627 0.522C104.932 26.593 105 26.825 105 27.082z"/></svg>