<svg version="1.1" xmlns="http://www.w3.org/2000/svg" x="0px" y="0px" viewBox="0 0 117.411 23.01" enable-background="new 0 0 117.411 23.01" xml:space="preserve"><path fill="#f1f1d3" d="M62.298 11.201c-0.468 0.447-0.868 0.511-1.017 0.466 -0.184-0.053-0.727-0.043-0.962-0.043 -0.817 0-1.643-0.037-2.442-0.01 -0.031 2.188-0.018 4.449 0.138 6.51 -0.477-0.046-1.046-0.034-1.492 0.034 0.277-3.611 0.163-7.742 0.163-11.607 0-1.295-0.018-2.557-0.207-3.718 0.928 0.022 1.764-0.009 2.653-0.054 1.371-0.06 2.698 0.091 3.603 0.546 0.911 0.446 1.532 1.281 1.842 2.279 0.356 1.149 0.129 2.514-0.325 3.438C63.801 9.958 63.103 10.609 62.298 11.201zM59.718 10.808c0.709 0.029 1.563 0.069 2.002-0.159 0.334-0.179 0.644-0.519 0.886-0.818 0.73-0.889 1.233-2.454 0.736-3.974 -0.555-1.724-2.066-2.428-4.489-2.313 -0.328 0.015-0.693 0.021-0.965 0.116 -0.043 2.292-0.043 4.746 0 7.019C58.422 10.768 59.054 10.792 59.718 10.808zM1.757 0.135c-0.224 3.937-0.16 8.427-0.16 12.705 0 1.049-0.006 2.086 0.04 3.156 0.015 0.293 0.018 0.824 0.121 0.95 0.094 0.115 0.525 0.16 0.784 0.179 0.905 0.06 1.869 0.041 2.828 0.041 1.273 0 2.541-0.041 3.402-0.419 -0.124 0.413-0.29 0.917-0.405 1.383 -2.79 0.14-5.609-0.113-8.297-0.087 0.153-2.872 0.141-5.94 0.141-8.991 0-3.035 0.066-6.101-0.21-8.895 0.534 0.046 1.209 0.056 1.716-0.026C1.739 0.135 1.754 0.112 1.757 0.135zM111.422 2.788c-0.202 3.368-0.144 7.209-0.144 10.868 0 0.895 0 1.782 0.034 2.7 0.018 0.252 0.018 0.697 0.103 0.812 0.078 0.094 0.446 0.141 0.664 0.153 0.778 0.052 1.604 0.035 2.422 0.035 1.095 0 2.173-0.035 2.912-0.358 -0.106 0.352-0.247 0.777-0.347 1.184 -2.385 0.118-4.799-0.093-7.089-0.075 0.124-2.461 0.115-5.077 0.115-7.686 0-2.604 0.051-5.222-0.178-7.609 0.459 0.034 1.043 0.04 1.468-0.029C111.4 2.795 111.41 2.767 111.422 2.788zM32.165 0.102c1.083 0.196 2.27 0.184 3.477 0.184 2.409 0 4.893 0 7.32 0 1.203 0 2.376 0.006 3.46-0.184 -0.1 0.483-0.153 1.006-0.181 1.561 -0.072 0.006-0.169-0.057-0.281-0.091 -0.756-0.246-1.839-0.221-2.77-0.284 -1.112-0.078-2.297-0.057-3.416-0.057 0.021 5.61-0.138 11.532 0.15 16.932 -0.549-0.043-1.224-0.05-1.73 0.04 0.337-5.385 0.124-11.316 0.19-16.971 -1.118-0.035-2.267 0.006-3.38 0.04 -1.109 0.034-2.192 0.05-3.118 0.315 -0.015-0.003-0.015 0.013-0.015 0.019C31.987 1.176 32.108 0.631 32.165 0.102zM74.295 0.001c1.193 5.328 2.922 10.106 4.393 15.15 1.761-4.664 3.457-9.404 5.222-14.126 0.051-0.137 0.118-0.275 0.199-0.452 0.06-0.146 0.157-0.39 0.232-0.396 0.094-0.003 0.215 0.274 0.265 0.377 0.19 0.48 0.305 0.937 0.462 1.417 1.442 4.37 2.912 8.803 4.351 13.178 1.318-3.709 2.538-7.359 3.772-11.164 0.408-1.264 0.817-2.554 1.023-3.95C94.792 0.066 95.417 0.066 95.947 0c-0.675 1.42-1.206 2.96-1.733 4.507 -0.521 1.549-1.086 3.091-1.618 4.639 -0.503 1.514-1.061 3.097-1.61 4.632 -0.399 1.118-0.787 2.298-1.203 3.485 -0.054 0.181-0.132 0.385-0.204 0.575 -0.069 0.163-0.213 0.453-0.322 0.453 -0.181 0-0.38-0.683-0.434-0.839 -1.592-4.751-3.1-9.575-4.682-14.323 -1.779 4.727-3.537 9.546-5.327 14.308 -0.054 0.143-0.262 0.859-0.455 0.859 -0.115 0-0.227-0.313-0.287-0.481 -0.477-1.289-0.862-2.75-1.258-4.065 -0.474-1.549-0.94-3.129-1.42-4.667 -0.949-3.096-1.805-6.352-3.084-9.043C72.965 0.072 73.755 0.069 74.295 0.001zM17.168 2.757c0.009 0 0.015 0 0.026 0 -0.081 0.374-0.141 0.778-0.141 1.236 -0.705-0.225-1.586-0.307-2.5-0.307 -0.905 0-1.86-0.072-2.728-0.018 -0.049 1.914-0.029 3.974-0.018 5.922 1.618 0.015 3.524 0.087 4.996-0.144 -0.031 0.371-0.115 0.811-0.132 1.249 -0.075 0.016-0.15-0.038-0.215-0.063 -0.572-0.174-1.368-0.146-2.098-0.177 -0.833-0.037-1.745-0.052-2.538-0.037 -0.031 1.911-0.06 4.015 0.015 5.957 0.009 0.247-0.018 0.65 0.078 0.769 0.084 0.115 0.452 0.138 0.646 0.157 0.742 0.069 1.501 0.077 2.297 0.077 1.074 0 2.069-0.062 2.795-0.372 -0.118 0.385-0.241 0.767-0.319 1.195 -2.285 0.144-4.629-0.153-6.859-0.052 0.16-2.428 0.138-5.058 0.138-7.676 0-2.609 0.06-5.241-0.166-7.637 1.583 0.046 3.4 0.019 5.069 0.019C16.09 2.854 16.683 2.848 17.168 2.757zM26.714 2.757c0.015 0 0.026 0 0.031 0 -0.084 0.374-0.141 0.778-0.144 1.236 -0.702-0.225-1.58-0.307-2.494-0.307 -0.902 0-1.869-0.072-2.728-0.018 -0.049 1.914-0.029 3.974-0.015 5.922 1.615 0.015 3.518 0.087 4.996-0.144 -0.037 0.371-0.115 0.811-0.127 1.249 -0.081 0.016-0.153-0.038-0.221-0.063 -0.569-0.174-1.365-0.146-2.101-0.177 -0.83-0.037-1.739-0.052-2.535-0.037 -0.031 1.911-0.063 4.015 0.015 5.957 0.009 0.247-0.021 0.65 0.078 0.769 0.09 0.115 0.446 0.138 0.644 0.157 0.742 0.069 1.502 0.077 2.298 0.077 1.073 0 2.066-0.062 2.79-0.372 -0.112 0.385-0.241 0.767-0.322 1.195 -2.285 0.144-4.627-0.153-6.862-0.052 0.166-2.428 0.144-5.058 0.144-7.676 0-2.609 0.06-5.241-0.163-7.637 1.583 0.046 3.391 0.019 5.072 0.019C25.637 2.854 26.24 2.848 26.714 2.757zM53.721 2.757c0.006 0 0.018 0 0.024 0 -0.084 0.374-0.141 0.778-0.144 1.236 -0.699-0.225-1.58-0.307-2.494-0.307 -0.905 0-1.86-0.072-2.728-0.018 -0.049 1.914-0.029 3.974-0.012 5.922 1.615 0.015 3.518 0.087 4.992-0.144 -0.031 0.371-0.112 0.811-0.127 1.249 -0.078 0.016-0.147-0.038-0.213-0.063 -0.581-0.174-1.368-0.146-2.104-0.177 -0.83-0.037-1.742-0.052-2.538-0.037 -0.031 1.911-0.06 4.015 0.015 5.957 0.012 0.247-0.015 0.65 0.081 0.769 0.091 0.115 0.449 0.138 0.644 0.157 0.742 0.069 1.502 0.077 2.307 0.077 1.07 0 2.057-0.062 2.788-0.372 -0.118 0.385-0.238 0.767-0.325 1.195 -2.285 0.144-4.629-0.153-6.862-0.052 0.163-2.428 0.144-5.058 0.144-7.676 0-2.609 0.066-5.241-0.163-7.637 1.583 0.046 3.397 0.019 5.066 0.019C52.642 2.854 53.237 2.848 53.721 2.757zM107.327 18.295c-0.512-0.031-1.086-0.047-1.558 0.035 -0.537-1.549-1.167-3.034-1.761-4.532 -0.199-0.497-0.38-1.008-0.618-1.48 -1.857-0.024-3.805-0.024-5.662 0 -0.227 0.465-0.359 0.974-0.543 1.468 -0.528 1.458-1.074 2.948-1.517 4.505 -0.428-0.046-0.977-0.037-1.365 0.032 1.563-3.739 3.112-7.839 4.632-11.753 0.428-1.115 0.862-2.288 1.333-3.428 0.051-0.122 0.207-0.521 0.299-0.481 0.109 0.05 0.202 0.28 0.271 0.438 1.635 3.743 3.169 7.571 4.758 11.341C106.16 15.759 106.718 17.105 107.327 18.295zM97.999 11.464c1.679 0.031 3.405 0.003 5.095 0.009 -0.072-0.285-0.196-0.561-0.307-0.83 -0.793-1.926-1.549-3.831-2.333-5.751 0-0.015 0-0.018-0.012-0.018C99.635 7.075 98.789 9.238 97.999 11.464z"/><path fill="#f1f1d3" d="M62.438 11.024c-0.124 0.031-0.359-0.091-0.277-0.009 0.781 0.721 1.149 1.339 1.788 2.469 0.477 0.836 0.956 2.098 2.843 4.813 1.598 2.325 2.584 2.985 4.049 3.494 1.04 0.365 2.765 0.419 3.587-0.106l0 0c0 1.354-2.213 1.533-3.6 1.146 -1.492-0.416-3.147-1.031-5.302-4.086 -1.201-1.695-2.601-4.632-3.147-5.56 -0.434-0.744-0.997-1.402-1.448-1.555"/></svg>