<svg version="1.1" xmlns="http://www.w3.org/2000/svg" x="0px" y="0px" viewBox="0 0 66.541 25.941" enable-background="new 0 0 66.541 25.941" xml:space="preserve"><path fill="#f1f1d3" d="M47.657 20.252c-1.614 0.146-3.004-0.373-4.24-1.662 -1.087 2.669-2.473 4.731-5.886 3.79 -0.535-0.445-1.187-0.994-1.84-1.54 -0.716-0.138-1.119 0.795-2.147 0.436 -2.085-1.819-3.215-4.872-5.784-6.699 -0.768 2.093-0.927 4.166-0.817 6.203 -1.313 1.201-1.313 1.201-2.957 0.256 -0.154-5.257 1.614-10.371 1.992-15.65 -0.952-0.003-0.616 1.231-1.475 1.33 -0.844-0.038-1.548-0.422-2.031-1.31 0.368-3.009 3.504-3.117 5.01-4.811 3.331 0.644 6.212 2.52 7.28 4.667 1.418 2.858 0.587 5.784-2.134 7.468 -0.476 0.295-0.994 0.53-1.648 0.873 1.393 1.178 1.882 3.006 3.771 3.82 0.507-4.215 0.763-8.354 3.594-11.331 1.07-0.427 1.808-0.412 2.535-0.087 1.089 0.872 1.07 2.205 1.48 3.436 -0.52 2.036-0.329 4.389-2.345 5.998 -0.662 0.572-1.614 0.026-2.576 0.474 -0.154 1.126-0.464 2.311 0.24 3.388 0.795 0.626 1.509 0.472 2.473-0.013 1.472-2.002 2.329-4.506 2.814-7.109 0.329-1.751 0.925-3.311 2.039-4.664 1.496-1.823 3.313-2.494 5.584-1.394 0.556 0.886 1.112 1.766 1.754 2.787 -0.214 3.982-0.7 8.043-1.806 12.014 -0.55 1.97-1.45 3.746-3.374 4.977 -2.098 0.173-4.06-0.124-5.233-2.218 0.085-1.3 0.695-1.858 1.71-1.814 1.141 0.118 1.148 1.391 2.139 1.642 1.033-0.834 1.872-1.806 1.833-3.295 0.144-0.072 0.548 0.041 0.245-0.344C47.794 19.998 47.725 20.124 47.657 20.252zM29.433 3.59c-0.729 2.539-1.21 4.894-1.187 7.364 1.853-0.085 1.869-0.041 3.377-1.006C33.454 6.703 32.95 5.029 29.433 3.59zM48.5 8.024c-2.399 1.484-2.556 3.987-3.045 6.217 -0.252 1.148-0.589 2.63 0.793 3.57 1.965-1.835 1.965-1.835 3.025-5.351C48.101 11.286 49.326 9.586 48.5 8.024zM38.446 12.667c0.68-0.93 1.197-1.923 0.925-3.252C38.499 10.391 38.301 11.467 38.446 12.667zM0 20.329c0.121-1.016 0.971-1.088 1.457-1.737 0.247-2.902 0.67-5.91 1.156-8.919C3.094 6.704 3.143 3.65 4.311 1.07 5.57 0.527 6.013 1.346 6.878 1.65 6.316 7.076 4.704 12.298 4.437 17.835c1.524 0.236 2.806 0 3.808-0.279 1.028-0.098 1.347 0.744 2.024 0.813 0.134-0.126 0.371-0.236 0.368-0.348 -0.023-3.367 0.633-6.636 1.31-9.91 0.142-0.698 0.388-1.273 1.055-1.597 0.979-0.235 1.614 0.352 2.375 0.941 -0.66 3.081-1.575 6.085-1.961 9.203 -0.093 0.759-0.067 1.268 0.513 1.698 0.925-0.392 0.646-1.365 1.023-1.921 0.507-0.417 0.927 0 1.462 0.015 0.299-2.816 0.402-5.692 0.96-8.477 0.53-2.647 0.407-5.473 1.555-7.845 1.31-0.271 1.938 0.244 2.487 1.134 -0.469 3.197-1.016 6.472-1.413 9.764 -0.386 3.182-0.616 6.381-0.898 9.401 -1.688 0.77-2.172-0.34-2.855-1.166 -0.584 0.492-1.163 0.975-1.629 1.367 -1.644 0.487-2.978 0.214-3.877-0.705 -2.108 0.371-3.97 0.7-5.993 1.055 -0.476 0.386-1.058 0.859-1.604 1.298C1.84 21.994 0.659 21.648 0 20.329zM55.929 18.695c1.234-0.783 1.398-1.76 1.563-2.8 0.327-2.066 0.646-4.142 1.138-6.17 0.405-1.671 1.099-3.257 2.453-4.279 0.974-0.368 1.801-0.355 2.755 0.197 1.83 3.194 0.965 6.226-0.533 8.878 -1.143 0.863-2.068 0.469-2.847 0.701 -0.844 0.707-0.862 1.741-0.008 3.867 3.791 0.384 3.218-3.456 4.688-5.155 1.097 0.118 1.436 0.768 1.398 1.604 -0.113 2.511-1.261 4.527-2.875 6.115 -1.23 0.497-2.265 0.462-2.922 0.335 -1.384-0.319-1.756-1.383-2.695-1.815 -1.55 0.688-3.158 1.256-5.017-0.059 -1.161-4.585 0.41-8.977 1.308-13.268 1.279-0.668 2.12-0.492 2.993 0.49C57.343 10.979 54.889 14.519 55.929 18.695zM61.725 8.425c-0.283 1.789-1.357 2.765-0.589 4.108C61.958 11.422 62.225 10.303 61.725 8.425zM13.478 5.146c-1.387-2.78-1.074-3.889 1.398-5.065 1.352 0.747 2.088 1.897 1.614 3.465C16.096 4.853 15.121 5.558 13.478 5.146zM56.403 5.315c-2.27-1.749-2.311-2.222-0.584-5.034 0.518-0.34 1.07-0.353 1.732-0.137 0.597 0.653 1.097 1.426 1.099 2.436C58.658 4.027 57.87 4.843 56.403 5.315zM47.657 20.252c0.069-0.128 0.137-0.254 0.206-0.384 0.299 0.388-0.101 0.275-0.245 0.343L47.657 20.252z"/></svg>