<svg version="1.1" xmlns="http://www.w3.org/2000/svg" x="0px" y="0px" viewBox="0 0 127.3 44.3" enable-background="new 0 0 127.3 44.3" xml:space="preserve"><path fill="none" stroke="#F1F1D3" stroke-miterlimit="10" d="M125.3 1.1c0.3 0.1 0.7 0.1 1 0.2 0 0.3 0.1 0.7 0.1 1"/><path fill="none" stroke="#F1F1D3" stroke-miterlimit="10" stroke-dasharray="1.9247,1.9247" d="M126.6 4.2c0.1 0.8 0.1 1.5 0.2 2.3 0 2-0.1 3.9-0.1 5.9 0 4.5-0.1 9.1-0.1 13.6 0 3.1 0.4 6.2 0.2 9.2 -0.1 2.2-0.1 4.3-0.2 6.5"/><path fill="none" stroke="#F1F1D3" stroke-miterlimit="10" d="M126.5 42.6c0 0.3-0.1 0.6-0.2 1 -0.3 0-0.7 0-1 0"/><path fill="none" stroke="#F1F1D3" stroke-miterlimit="10" stroke-dasharray="2.0199,2.0199" d="M123.3 43.6c-2.2 0-4.5 0-6.7 0 -1.8 0-3.5-0.1-5.3-0.1 -0.9 0-1.8-0.1-2.6-0.1 -6.5 0-13.1 0.1-19.6 0.2 -1.6 0-3.2 0.2-4.9 0.2 -2.3 0-4.5-0.1-6.8-0.2 -5-0.1-10-0.2-15.1-0.3 -2.7 0-5.4 0.1-8.1 0.1 -3.4 0-6.9 0-10.3 0.1 -2.8 0-5.5 0.1-8.3 0 -6-0.1-11.9-0.2-17.9-0.4 -2.1-0.1-4.2-0.3-6.3-0.3 -2.8-0.1-5.5-0.1-8.3-0.2"/><path fill="none" stroke="#F1F1D3" stroke-miterlimit="10" d="M2.2 42.7c-0.1 0-0.3 0-0.4 0 -0.1 0-0.3-0.1-0.6-0.1 0-0.3-0.1-0.7-0.2-1"/><path fill="none" stroke="#F1F1D3" stroke-miterlimit="10" stroke-dasharray="2.0908,2.0908" d="M0.9 39.5c-0.2-3.9-0.3-7.8-0.4-11.7 0-3.9 0.2-7.9 0.3-11.8 0-1.3-0.1-2.6-0.1-3.8 0-2.4 0.1-4.8 0.2-7.2 0-0.7 0-1.3 0-2"/><path fill="none" stroke="#F1F1D3" stroke-miterlimit="10" d="M0.8 1.8c0-0.3 0-0.7 0-1 0.3 0 0.6-0.1 1-0.1"/><path fill="none" stroke="#F1F1D3" stroke-miterlimit="10" stroke-dasharray="2.0259,2.0259" d="M3.8 0.7C11 0.6 18.1 0.5 25.2 0.5c3.8 0 7.7 0.3 11.5 0.3 6.6 0 13.1-0.2 19.7-0.2 5.9 0 11.8 0.2 17.7 0.3 5.8 0.1 11.5 0 17.3 0 5.4 0 10.8 0.1 16.3 0.2 1 0 2-0.1 2.9-0.1 2.7 0 5.4-0.1 8.1 0 1.9 0.1 3.7 0.3 5.6-0.1 0 0 0 0 0 0"/><path fill="#F1F1D3" d="M14.1 29.1c-0.1 0.1-0.2 0.1-0.3 0.1 -0.1 0-0.2 0-0.3 0 0 0-0.1 0-0.1 0v0c-0.1 0-0.3 0.1-0.4 0.1 -0.1 0-0.1 0-0.2 0 -0.3-0.3-0.2-2.5-0.2-3 0-1 0-2-0.2-3 -0.1-0.4-0.2-0.8-0.3-1.1 -0.8-1.7-1.3-3.6-2-5.3v0C10 16.6 9.9 16.3 9.7 16c0 0-0.2-0.4-0.2-0.4 0-0.4 1.3-0.6 1.6-0.6 0.1 0 0.4 0 0.5 0.1 0.1 0.4 1.3 4.5 1.4 4.6 0.3-0.7 1.4-4 1.4-4.6 0.1-0.2 0.3-0.3 0.5-0.3 0.2 0 1.1 0 1.2 0.1 0.1 0.1 0.2 0.2 0.2 0.4 0 0.4-0.2 1-0.4 1.4l0 0c-0.3 1-1.8 5.8-1.9 6.5 0 0.8 0 1.7 0 2.5C14.2 26.1 14.3 28.9 14.1 29.1z"/><path fill="#F1F1D3" d="M23.5 26.2c0 0.7-0.1 1.6-0.6 2.1h0l-0.1 0.1c-1 0.7-1 1-2.4 1 -0.5 0-1.2-0.1-1.6-0.4 -0.1-0.1-0.2-0.1-0.3-0.2h0c-0.1-0.1-0.3-0.1-0.4-0.2l0 0c-0.4-0.3-0.6-0.7-0.8-1.2l0 0 -0.1-0.1c-0.6-1.5-0.6-4.4-0.6-6.1 0-1.2-0.1-2.8 0.3-3.9 0.6-1.5 1.9-2.3 3.4-2.3 0.8 0 1.6 0.6 2.1 1.2h0c0.8 0.7 0.9 2.1 0.9 3.1C23.6 21.6 23.5 23.9 23.5 26.2zM19.8 27c0.2 0.2 0.6 0.2 0.8 0.2 0.2 0 0.5 0 0.6-0.3 0.2-0.6 0.5-3.6 0.5-4.4 0-0.7-0.1-1.3-0.1-2 0-0.4 0-0.8 0-1.3 0-0.8-0.1-2-1.2-2 -0.3 0-0.6 0.1-0.9 0.3 0 0.1-0.1 0.2-0.1 0.3v0c-0.4 1.3-0.5 2.7-0.5 4.1 0 0.8 0.1 1.6 0.1 2.4S19.2 26.5 19.8 27L19.8 27z"/><path fill="#F1F1D3" d="M32.2 16.8c0.2 2 0.3 4.1 0.3 6.1 0 1.9-0.1 4.7-1.9 5.9v0c-0.7 0.4-1.5 0.6-2.3 0.6 -1.2 0-2.9-1.6-2.8-2.8 -0.3-1.4-0.4-2.8-0.4-4.2 0-1.7 0.2-3.4 0.2-5.1v-0.9c0-0.2-0.1-0.4-0.1-0.6 0-0.3 0.1-0.5 0.3-0.7 0.2-0.1 0.5-0.1 0.7-0.1 0.4 0 0.8 0.1 1.1 0.2 0 0.3 0 0.5 0 0.8 0 1.1-0.2 2.2-0.2 3.3 0 0.6 0 1.2 0 1.7 0 1 0.1 4.9 0.5 5.7 0.2 0.4 0.7 0.6 1.2 0.6 1.2 0 1.6-1.1 1.6-2.1 0-2.4-0.1-4.9-0.2-7.3 0-0.4 0-0.8-0.1-1.3 0-0.3-0.1-0.5-0.1-0.8 0-0.2 0-0.3 0.1-0.5 0.3-0.2 0.7-0.5 2-0.1C32.2 15.6 32.2 16.3 32.2 16.8z"/><path fill="#F1F1D3" d="M35.4 29.1c-0.1 0-0.2 0-0.3-0.1l0.1 0.1h-0.1c-0.4 0-1 0-1.1-0.5v0c-0.1-0.6 0-2.3 0-2.9 0-1.2 0-10.3 0.5-10.8 0.3-0.2 1.5-0.3 1.9-0.3 0.9 0 2.6 0.2 3.2 0.8 0.8 0.8 1 3.9 1 5 0 1.1-0.1 2.2-1 3 0.2 0.3 0.4 0.6 0.5 0.8 0.4 0.8 0.4 3.4 0.4 4.4v0.3c-0.3 0.2-0.6 0.3-0.9 0.3 -0.4 0-1 0-1.3-0.2 -0.2-0.8 0-1.7 0-2.6 0-0.6 0-1.4-0.3-2 -0.2-0.2-0.6-0.2-0.9-0.2 -0.3 0-0.6 0-0.9 0.1 0 0.8-0.1 4.2-0.5 4.7C35.6 29.1 35.5 29.1 35.4 29.1zM36.1 16.8c0 1.1-0.1 2.2-0.1 3.2v1.2c0 0.4 0 0.8 0.1 1.1h0.7c0.8 0 1.7-0.1 1.8-1.1l0 0c0-1.1 0-2.3-0.1-3.4 -0.1-0.9-1-1.1-1.9-1.1C36.5 16.7 36.3 16.7 36.1 16.8z"/><path fill="#F1F1D3" d="M49.8 21.8c0 0.5-0.1 1-0.1 1.6 -0.1 1.1-0.1 2.2-0.2 3.3 0 0.5-0.1 1-0.1 1.5 0 0.3 0 0.6 0.1 0.8 -0.2 0.5-1 0.5-1.5 0.5 -0.4 0-0.6-0.2-0.8-0.6 0.2-0.4 0.2-3.5 0.2-4.1 0-2.9 0.2-5.8 0.2-8.7 0-0.2 0-0.5 0.2-0.7 0.3-0.3 0.8-0.3 1.1-0.3h0.5c0.5 0.6 1.1 3.5 1.6 4.7 0.3 0.7 0.5 1.4 0.8 2.1v0c0.1 0.3 0.3 0.6 0.4 0.9 0-0.4 0-0.8 0-1.3 0-1.7 0.3-3.5 0.3-5.2 0-0.3-0.1-0.5-0.1-0.7 0-0.3 0.1-0.5 0.2-0.7 0.6 0.1 2.2-0.1 2.2 0.8 0 0.5-0.1 0.9-0.1 1.4 -0.1 1.6-0.1 3.2-0.2 4.9 0 0.7-0.1 1.4-0.1 2.2 0 1.1-0.1 2.1-0.1 3.2 0 0.5 0.1 1.2 0 1.7 -0.1 0.5-0.6 0.6-1.1 0.6 -0.3 0-0.7 0-0.9-0.3 -0.2-0.2-2.1-5.8-2.2-6.4L49.8 21.8z"/><path fill="#F1F1D3" d="M63.2 28.6c0 0.3-0.1 0.6-0.3 0.8 -0.5 0-1.1 0.1-1.6-0.2 -0.2-0.9-0.6-2.6-0.7-3.5 -0.3 0-0.6 0-1 0 -0.3 0-0.5 0-0.8 0 -0.1 0.3-0.6 2.2-0.6 2.6 0 0.4-0.1 0.7-0.4 1 -0.2 0-0.3 0-0.5 0 -0.4 0-0.8 0-1.1-0.1 0-0.2 0-0.3 0-0.5 0-0.8 0.2-1.5 0.5-2.3v0c0.1-0.4 0.2-0.8 0.3-1.2l1-4.9c0.3-1.4 0.7-3.6 1.2-4.9 0.1-0.4 0.3-0.5 0.7-0.5 0.2 0 0.4 0.1 0.6 0.1 0.1 0 0.2 0 0.3 0 0.4 0.6 0.6 2.7 1.8 9.6v0C62.7 25.6 63.2 27.7 63.2 28.6zM60.2 23.7c-0.1-0.8-0.1-1.6-0.2-2.4 0-0.2 0-0.5-0.1-0.7 0 0 0-0.1-0.1-0.1l-0.6 3.2C59.6 23.8 59.9 23.7 60.2 23.7z"/><path fill="#F1F1D3" d="M72.7 15.5c0 3.7 0.2 7.4 0.2 11.1 0 0.8 0.1 1.8-0.1 2.6 -0.3 0.1-0.7 0.2-1 0.2 -1.3 0-1-0.8-1-1.8 0-1.6 0-3.2-0.1-4.7 -0.1 0.3-0.6 2.2-0.8 2.4 -0.2 0.2-0.4 0.4-0.7 0.4 -0.3 0-0.5-0.1-0.8 0 -0.5-0.8-0.8-1.9-1.1-2.8 0.1 1.2 0.1 2.4 0.1 3.6 0 0.8 0 2.2-0.2 2.9 -0.2 0.1-0.5 0.1-0.7 0.1 -0.4 0-0.9-0.1-1.3-0.3 0-0.5 0-1 0-1.5 0-1.1-0.1-11.7 0.4-12.2 0.3-0.1 0.6-0.2 0.9-0.2 0.4 0 0.7 0.5 0.7 0.9 0.6 1.6 1.2 3.5 1.8 5.2l0.5-1.5 1-2.8c0.1-0.4 0.3-0.9 0.5-1.3l0.1-0.1c0 0 1.1-0.2 1.1-0.2C72.4 15.3 72.5 15.4 72.7 15.5z"/><path fill="#F1F1D3" d="M80.3 27.3c0.2 0.3 0.2 0.7 0.2 1.1 0 0.3 0 0.6 0.1 1 -0.8 0.1-1.5 0.1-2.3 0.1 -0.4 0-3.1 0-3.3-0.2 -0.4-0.8-0.4-2.3-0.4-3.2 0-2.4-0.1-4.8-0.1-7.2 0-1.3 0-2.5 0-3.8 0.3-0.3 0.8-0.4 1.2-0.4 1 0 2.1-0.1 3.1-0.1 0.5 0 0.9 0.1 1.3 0.3 0 0.4 0 0.9 0.1 1.3 0 0.1 0 0.2 0 0.3 0 0.5-0.5 0.5-0.8 0.5 -1 0-1.9 0-2.8 0.1 0 1.4-0.2 2.8-0.2 4.1 0 0.1 0 0.2 0 0.3 0.7-0.1 1.4-0.2 2.1-0.2 0.3 0 0.5 0 0.8 0.1 0.1 0.3 0.3 1.4 0.3 1.7 0 0.1 0 0.3-0.1 0.3 -0.3 0.2-2.4 0.2-3 0.2v0.2c0 0.5 0.1 1.1 0.1 1.6 0 0.5 0 1 0.1 1.6 0.8 0.1 1.7 0.1 2.5 0.1C79.5 27.1 80 27 80.3 27.3z"/><path fill="#F1F1D3" d="M91.6 22.1c0.1-1.9 0.3-3.7 0.3-5.6 0-0.6 0-1 0.7-1 0.7 0 1.3 0.3 1.3 1.1 0 2.2-0.2 4.4-0.3 6.6 -0.1 2-0.1 4.1-0.3 6.1 -0.4 0-0.8 0.1-1.2 0.1 -0.2 0-0.3 0-0.5 0 -0.2-0.5-0.3-1-0.3-1.6 0-1.2 0-2.5 0.1-3.8 -0.7 0-1.4-0.1-2.2-0.1h-0.1c0 1.7 0 5.1-0.6 5.3 -0.2 0.1-0.6 0.1-0.8 0.1 -0.2 0-0.8 0-0.8-0.4 0-0.3 0.1-0.6 0.1-0.9 0.1-0.6 0.1-1.2 0.1-1.8 0-1 0-2.1 0-3.2 0.1-1 0.1-2.1 0.1-3.1 0-1 0.1-2 0.1-2.9 0-0.2 0-0.4 0-0.7 0-1 0.5-1 1.4-1 0.6 0 0.7 0.2 0.7 0.8 0 0.4 0 0.7 0 1 -0.1 1.4-0.1 2.9-0.1 4.3V22c0.7 0 1.4 0.1 2.2 0.1H91.6z"/><path fill="#F1F1D3" d="M101.3 27.3c0.2 0.3 0.2 0.7 0.2 1.1 0 0.3 0 0.6 0.1 1 -0.8 0.1-1.5 0.1-2.3 0.1 -0.4 0-3.1 0-3.3-0.2 -0.4-0.8-0.4-2.3-0.4-3.2 0-2.4-0.1-4.8-0.1-7.2 0-1.3 0-2.5 0-3.8 0.3-0.3 0.8-0.4 1.2-0.4 1 0 2.1-0.1 3.1-0.1 0.5 0 0.9 0.1 1.3 0.3 0 0.4 0 0.9 0.1 1.3 0 0.1 0 0.2 0 0.3 0 0.5-0.5 0.5-0.8 0.5 -1 0-1.9 0-2.8 0.1 0 1.4-0.2 2.8-0.2 4.1 0 0.1 0 0.2 0 0.3 0.7-0.1 1.4-0.2 2.1-0.2 0.3 0 0.5 0 0.8 0.1 0.1 0.3 0.3 1.4 0.3 1.7 0 0.1 0 0.3-0.1 0.3 -0.3 0.2-2.4 0.2-3 0.2v0.2c0 0.5 0.1 1.1 0.1 1.6 0 0.5 0 1 0.1 1.6 0.8 0.1 1.7 0.1 2.5 0.1C100.5 27.1 101 27 101.3 27.3z"/><path fill="#F1F1D3" d="M104.4 29.1c-0.1 0-0.2 0-0.3-0.1l0.1 0.1h-0.1c-0.4 0-1 0-1.1-0.5v0c-0.1-0.6 0-2.3 0-2.9 0-1.2 0-10.3 0.5-10.8 0.3-0.2 1.5-0.3 1.9-0.3 0.9 0 2.6 0.2 3.2 0.8 0.8 0.8 1 3.9 1 5 0 1.1-0.1 2.2-1 3 0.2 0.3 0.4 0.6 0.5 0.8 0.4 0.8 0.4 3.4 0.4 4.4v0.3c-0.3 0.2-0.6 0.3-0.9 0.3 -0.4 0-1 0-1.3-0.2 -0.2-0.8 0-1.7 0-2.6 0-0.6 0-1.4-0.3-2 -0.2-0.2-0.6-0.2-0.9-0.2 -0.3 0-0.6 0-0.9 0.1 0 0.8-0.1 4.2-0.5 4.7C104.5 29.1 104.5 29.1 104.4 29.1zM105.1 16.8c0 1.1-0.1 2.2-0.1 3.2v1.2c0 0.4 0 0.8 0.1 1.1h0.7c0.8 0 1.7-0.1 1.8-1.1l0 0c0-1.1 0-2.3-0.1-3.4 -0.1-0.9-1-1.1-1.9-1.1C105.4 16.7 105.3 16.7 105.1 16.8z"/><path fill="#F1F1D3" d="M116.9 27.3c0.2 0.3 0.2 0.7 0.2 1.1 0 0.3 0 0.6 0.1 1 -0.8 0.1-1.5 0.1-2.3 0.1 -0.4 0-3.1 0-3.3-0.2 -0.4-0.8-0.4-2.3-0.4-3.2 0-2.4-0.1-4.8-0.1-7.2 0-1.3 0-2.5 0-3.8 0.3-0.3 0.8-0.4 1.2-0.4 1 0 2.1-0.1 3.1-0.1 0.5 0 0.9 0.1 1.3 0.3 0 0.4 0 0.9 0.1 1.3 0 0.1 0 0.2 0 0.3 0 0.5-0.5 0.5-0.8 0.5 -1 0-1.9 0-2.8 0.1 0 1.4-0.2 2.8-0.2 4.1 0 0.1 0 0.2 0 0.3 0.7-0.1 1.4-0.2 2.1-0.2 0.3 0 0.5 0 0.8 0.1 0.1 0.3 0.3 1.4 0.3 1.7 0 0.1 0 0.3-0.1 0.3 -0.3 0.2-2.4 0.2-3 0.2v0.2c0 0.5 0.1 1.1 0.1 1.6 0 0.5 0 1 0.1 1.6 0.8 0.1 1.7 0.1 2.5 0.1C116.1 27.1 116.6 27 116.9 27.3z"/></svg>