<?xml version="1.0" encoding="UTF-8" standalone="no"?>
<svg width="218px" height="74px" viewBox="0 0 218 74" version="1.1" xmlns="http://www.w3.org/2000/svg" xmlns:xlink="http://www.w3.org/1999/xlink">
    <!-- Generator: Sketch 3.8.3 (29802) - http://www.bohemiancoding.com/sketch -->
    <title>edumaxi</title>
    <desc>Created with Sketch.</desc>
    <defs>
        <polygon id="path-1" points="14.3110897 0.218548218 0.289934817 0.218548218 0.289934817 26.2655932 14.3110897 26.2655932 14.3110897 0.218548218"></polygon>
        <polygon id="path-3" points="0 0.0962765985 0 25.876143 22.6903135 25.876143 22.6903135 0.0962765985 4.62367764e-21 0.0962765985"></polygon>
    </defs>
    <g id="Page-1" stroke="none" stroke-width="1" fill="none" fill-rule="evenodd">
        <g id="edumaxi" transform="translate(0.819149, 0.000000)">
            <g id="Page-1">
                <g id="Group-36" transform="translate(0.000000, 59.169555)" fill="#F1F1D3">
                    <path d="M1.3961585,6.59930778 C1.94543768,6.61254285 2.57489115,6.63901297 3.13747585,6.63901297 C3.72667159,6.63901297 4.35646623,6.61254285 4.91905093,6.59930778 C4.91905093,5.65317047 4.66454021,4.29403132 3.27155456,4.29403132 C1.9587432,4.29403132 1.46302727,5.6399354 1.3961585,6.59930778 M3.24460235,3.86779442 C5.11999841,3.86779442 6.01726812,5.10679992 6.01726812,6.58573336 C6.01726812,6.75914662 6.0039626,6.93222052 5.99065708,7.10529442 C5.02617743,7.09205936 4.0750033,7.06558923 3.12417033,7.06558923 C2.53463342,7.06558923 1.9587432,7.09205936 1.36920629,7.10529442 C1.35590077,7.23866313 1.35590077,7.35845742 1.35590077,7.47859106 C1.35590077,8.86420034 2.18630172,9.94336701 3.67310834,9.94336701 C4.38307727,9.94336701 5.21347822,9.53036517 5.68258311,8.99722969 L5.74945188,9.03727424 L5.66893642,9.69020401 C5.13330393,10.1164409 4.26264525,10.5029726 3.43224431,10.5029726 C1.503285,10.5029726 0.177168123,9.14383346 0.177168123,7.37169248 C0.177168123,5.21335915 1.27572648,3.86779442 3.24460235,3.86779442" id="Fill-1"></path>
                    <path d="M16.3838721,10.0101192 C17.7768577,10.0101192 18.3797002,8.50471567 18.3797002,7.051913 C18.3797002,5.37343553 17.6966834,4.42729822 16.4241298,4.42729822 C15.1382707,4.42729822 14.5354282,5.69311321 14.5354282,7.305076 C14.5354282,9.43727856 15.5132134,10.0101192 16.3838721,10.0101192 L16.3838721,10.0101192 Z M18.3660535,9.06398192 L18.3394424,9.06398192 C18.0716262,9.62358753 17.3882683,10.5028708 16.0757981,10.5028708 C14.722729,10.5028708 13.3566956,9.5170283 13.3566956,7.22532626 C13.3566956,4.9604337 14.8435022,3.86769261 16.2364879,3.86769261 C17.2275785,3.86769261 17.924242,4.33431342 18.2991847,5.20002227 L18.3261369,5.20002227 C18.3261369,3.52154481 18.3261369,1.42972615 18.2725737,0.283705451 C18.4868267,0.310514937 18.6877741,0.350220126 18.8750749,0.350220126 C19.0627169,0.350220126 19.2503588,0.310514937 19.4779174,0.283705451 C19.3574853,1.40291667 19.3172276,4.89391903 19.3172276,7.17204665 C19.3172276,8.38458202 19.3441798,9.30390985 19.3574853,10.3698415 C19.1565379,10.3433713 18.9958481,10.3029874 18.8348172,10.3029874 C18.6741274,10.3029874 18.5134377,10.3433713 18.3261369,10.3698415 L18.3660535,9.06398192 Z" id="Fill-3"></path>
                    <path d="M27.687867,6.11941798 C27.687867,5.49329769 27.6745615,4.74704376 27.6609148,4.00112919 C27.8485568,4.04117374 28.0495042,4.06764387 28.2234995,4.06764387 C28.3978359,4.06764387 28.5851367,4.04117374 28.7727787,4.00112919 C28.6926044,5.04025131 28.6390412,6.3990511 28.6390412,7.70491064 C28.6390412,8.62423847 28.8263419,9.06404979 29.0542416,9.31721279 C29.3084112,9.59684591 29.6836951,9.80996436 30.2060221,9.80996436 C30.9562487,9.80996436 31.4652702,9.43700708 31.6928287,8.95715121 C31.9606449,8.3846499 31.9739505,8.27775131 31.9739505,6.18593265 C31.9739505,5.46648821 31.9739505,4.6408239 31.9473394,4.00112919 C32.1349814,4.04117374 32.3089766,4.06764387 32.5099241,4.06764387 C32.7108716,4.06764387 32.8848669,4.04117374 33.0592033,4.00112919 C32.9786878,5.38673847 32.9653823,6.63897904 32.9653823,8.0513978 C32.9653823,8.83769628 32.9786878,9.6236554 33.0189456,10.36957 C32.8446091,10.3295254 32.6706139,10.3030553 32.4966186,10.3030553 C32.3222822,10.3030553 32.1482869,10.3295254 31.9739505,10.36957 C32.0009027,9.98337762 32.0009027,9.59684591 32.0009027,9.22388863 L31.9739505,9.22388863 C31.5188334,10.0498923 30.728349,10.5029387 29.8846426,10.5029387 C28.4913158,10.5029387 27.6476093,9.7037445 27.6476093,8.31813522 C27.6476093,7.38523297 27.687867,6.77234775 27.687867,6.11941798" id="Fill-5"></path>
                    <path d="M44.4436796,3.86782835 C45.4214647,3.86782835 46.2651712,4.14746148 46.6001974,4.45424345 C46.4794242,4.72064151 46.3722977,5.0135097 46.3054289,5.33318737 L46.1983024,5.33318737 C45.9437917,4.88014099 45.3276438,4.29406525 44.4839373,4.29406525 C42.863052,4.29406525 42.2066463,5.53307075 42.2066463,7.17184303 C42.2066463,8.99726363 43.0373884,9.94340094 44.5238539,9.94340094 C45.2338228,9.94340094 46.0645649,9.53039911 46.5333286,8.99726363 L46.6001974,9.03730818 C46.5599397,9.25042662 46.5333286,9.47678014 46.5196819,9.69023795 C45.9840494,10.1164748 45.1133908,10.5030066 44.2829898,10.5030066 C42.7293144,10.5030066 41.0279136,9.57044366 41.0279136,7.18507809 C41.0279136,4.88014099 42.7293144,3.86782835 44.4436796,3.86782835" id="Fill-7"></path>
                    <path d="M58.0112506,7.01224175 C57.0870287,7.31834499 55.2116326,7.22536019 55.2116326,8.67748415 C55.2116326,9.51706224 55.787864,9.9436385 56.3770597,9.9436385 C57.0600765,9.9436385 57.6496134,9.50382718 57.9576874,9.01073624 L58.0112506,7.01224175 Z M54.7029523,4.64078996 C55.5064011,4.04113981 56.1495012,3.86772655 56.8594702,3.86772655 C58.1453293,3.86772655 59.0292935,4.65402503 59.0292935,5.83975092 C59.0292935,6.83882849 58.9757303,7.82501035 58.9757303,8.94388221 C58.9757303,9.38369353 58.9757303,9.93006407 59.4980572,9.93006407 C59.5785727,9.93006407 59.6856992,9.93006407 59.7795202,9.87678446 L59.7795202,10.169992 C59.5918782,10.2497417 59.2701575,10.356301 58.922167,10.356301 C58.3462768,10.356301 58.0515083,9.98334368 57.9979451,9.5302973 C57.3548449,10.169992 56.8059069,10.5029047 55.8949905,10.5029047 C54.9977208,10.5029047 54.1134154,9.87678446 54.1134154,8.86413247 C54.1134154,7.79820086 54.8366899,7.22536019 56.002117,7.03871187 C57.9443818,6.73260862 58.0112506,6.62571004 58.0112506,6.10614898 C58.0112506,5.21329127 57.6093556,4.42733215 56.5380907,4.42733215 C55.8281217,4.42733215 55.1584105,4.76058425 54.8499954,5.33342492 L54.7029523,5.33342492 L54.7029523,4.64078996 Z" id="Fill-9"></path>
                    <path d="M68.806497,2.21578708 L68.8733658,2.21578708 C68.8198025,2.88195191 68.7928503,3.53488168 68.7662393,4.18781145 C68.9538812,4.18781145 69.5700292,4.17423703 70.1861771,4.14742754 C70.1725305,4.24109106 70.1725305,4.33407586 70.1725305,4.42740003 C70.1725305,4.52072419 70.1725305,4.61370899 70.1861771,4.70737251 C69.7170723,4.68056302 69.0876188,4.68056302 68.7662393,4.68056302 C68.7396282,4.81359237 68.6724183,6.90541103 68.6724183,8.0646668 C68.6724183,9.06408373 68.6993705,10.0767357 69.7576712,10.0767357 C69.9047142,10.0767357 70.1861771,10.0366912 70.3601724,9.98341156 L70.3601724,10.3030892 C70.0520984,10.4099878 69.6638502,10.5029726 69.328824,10.5029726 C68.2169601,10.5029726 67.6813276,9.87685233 67.6813276,8.83773021 C67.6813276,7.86478341 67.7615019,6.66582246 67.7751486,4.68056302 C67.5069912,4.68056302 67.2125639,4.68056302 66.8642322,4.70737251 C66.8775377,4.60047393 66.8911844,4.50748912 66.8911844,4.4009299 C66.8911844,4.30760574 66.8775377,4.22751664 66.8642322,4.13419248 C67.2661271,4.1606626 67.5608956,4.17423703 67.7481964,4.17423703 C67.7348909,3.82774987 67.7215853,3.25524856 67.6946331,2.68206853 L68.806497,2.21578708 Z" id="Fill-11"></path>
                    <path d="M78.1149709,6.49257888 C78.1149709,5.6933847 78.0883599,4.76048244 78.0078444,4.00099345 C78.2087919,4.041038 78.4097394,4.06750812 78.6106869,4.06750812 C78.8116343,4.06750812 79.0125818,4.041038 79.2135293,4.00099345 C79.1330138,4.76048244 79.1060616,5.6933847 79.1060616,6.49257888 L79.1060616,7.87818816 C79.1060616,8.67738234 79.1330138,9.60994523 79.2135293,10.3697736 C79.0125818,10.329729 78.8116343,10.3032589 78.6106869,10.3032589 C78.4097394,10.3032589 78.2087919,10.329729 78.0078444,10.3697736 C78.0883599,9.60994523 78.1149709,8.67738234 78.1149709,7.87818816 L78.1149709,6.49257888 Z M78.6106869,1.00308202 C78.9856296,1.00308202 79.2937036,1.30986399 79.2937036,1.68282128 C79.2937036,2.05577856 78.9856296,2.36222117 78.6106869,2.36222117 C78.2357441,2.36222117 77.9276701,2.05577856 77.9276701,1.68282128 C77.9276701,1.30986399 78.2357441,1.00308202 78.6106869,1.00308202 L78.6106869,1.00308202 Z" id="Fill-13"></path>
                    <path d="M90.5847342,10.0767357 C92.1653618,10.0767357 92.6607365,8.67755202 92.6607365,7.18538352 C92.6607365,5.69321502 92.1653618,4.29403132 90.5847342,4.29403132 C89.0041066,4.29403132 88.5083906,5.69321502 88.5083906,7.18538352 C88.5083906,8.67755202 89.0041066,10.0767357 90.5847342,10.0767357 M90.5847342,3.86779442 C92.1384096,3.86779442 93.8394692,4.76065212 93.8394692,7.18538352 C93.8394692,9.61011491 92.1384096,10.5029726 90.5847342,10.5029726 C89.0310588,10.5029726 87.329658,9.61011491 87.329658,7.18538352 C87.329658,4.76065212 89.0310588,3.86779442 90.5847342,3.86779442" id="Fill-15"></path>
                    <path d="M104.621205,4.56049725 C103.375604,4.56049725 102.813019,5.36003079 102.813019,6.74564007 L102.813019,7.87808635 C102.813019,8.67761989 102.83963,9.61018278 102.920146,10.3696718 C102.719198,10.3296272 102.518251,10.3031571 102.317303,10.3031571 C102.116356,10.3031571 101.915408,10.3296272 101.714461,10.3696718 C101.794976,9.61018278 101.821587,8.67761989 101.821587,7.87808635 L101.821587,6.49247707 C101.821587,5.69328289 101.794976,4.76071999 101.714461,4.00089164 C101.915408,4.04127555 102.116356,4.06774568 102.317303,4.06774568 C102.451382,4.06774568 102.65233,4.04127555 102.852936,4.00089164 C102.826325,4.36061386 102.813019,4.70744038 102.813019,5.06682324 L102.83963,5.06682324 C103.335346,4.30767361 104.018363,3.86786229 104.982843,3.86786229 C105.973933,3.86786229 107.126055,4.3473788 107.126055,6.18603446 C107.126055,6.94552345 107.072492,7.745057 107.072492,8.65114976 C107.072492,9.2372255 107.072492,9.79683111 107.099103,10.3696718 C106.898155,10.3296272 106.72416,10.3031571 106.536518,10.3031571 C106.349217,10.3031571 106.174881,10.3296272 105.987239,10.3696718 C106.014191,9.39706433 106.08106,8.42445689 106.08106,7.39856984 L106.08106,6.58580123 C106.08106,5.27994169 105.50517,4.56049725 104.621205,4.56049725" id="Fill-17"></path>
                    <path d="M118.992737,7.01224175 C118.068515,7.31834499 116.193119,7.22536019 116.193119,8.67748415 C116.193119,9.51706224 116.769009,9.9436385 117.358546,9.9436385 C118.041563,9.9436385 118.630759,9.50382718 118.939174,9.01073624 L118.992737,7.01224175 Z M115.684097,4.64078996 C116.487887,4.04113981 117.130646,3.86772655 117.840615,3.86772655 C119.126816,3.86772655 120.010439,4.65402503 120.010439,5.83975092 C120.010439,6.83882849 119.956875,7.82501035 119.956875,8.94388221 C119.956875,9.38369353 119.956875,9.93006407 120.479202,9.93006407 C120.559718,9.93006407 120.666844,9.93006407 120.760665,9.87678446 L120.760665,10.169992 C120.573364,10.2497417 120.251644,10.356301 119.903312,10.356301 C119.327422,10.356301 119.032653,9.98334368 118.97909,9.5302973 C118.336331,10.169992 117.787052,10.5029047 116.876477,10.5029047 C115.978866,10.5029047 115.094902,9.87678446 115.094902,8.86413247 C115.094902,7.79820086 115.817835,7.22536019 116.983262,7.03871187 C118.925868,6.73260862 118.992737,6.62571004 118.992737,6.10614898 C118.992737,5.21329127 118.590842,4.42733215 117.519236,4.42733215 C116.809267,4.42733215 116.139556,4.76058425 115.831482,5.33342492 L115.684097,5.33342492 L115.684097,4.64078996 Z" id="Fill-19"></path>
                    <path d="M128.984193,4.12102529 C128.984193,2.89525485 128.957241,1.17639347 128.876726,0.28353577 C129.077673,0.32391968 129.278621,0.350389806 129.479568,0.350389806 C129.680516,0.350389806 129.881463,0.32391968 130.082411,0.28353577 C130.001895,1.17639347 129.975284,2.89525485 129.975284,4.12102529 L129.975284,6.53286098 C129.975284,7.75829206 130.001895,9.47681407 130.082411,10.3696718 C129.881463,10.3296272 129.680516,10.3031571 129.479568,10.3031571 C129.278621,10.3031571 129.077673,10.3296272 128.876726,10.3696718 C128.957241,9.47681407 128.984193,7.75829206 128.984193,6.53286098 L128.984193,4.12102529 Z" id="Fill-21"></path>
                    <path d="M151.431937,10.0101192 C152.825264,10.0101192 153.428106,8.50471567 153.428106,7.051913 C153.428106,5.37343553 152.744748,4.42729822 151.472195,4.42729822 C150.186677,4.42729822 149.583493,5.69311321 149.583493,7.305076 C149.583493,9.43727856 150.561278,10.0101192 151.431937,10.0101192 L151.431937,10.0101192 Z M153.414118,9.06398192 L153.387507,9.06398192 C153.119691,9.62358753 152.436674,10.5028708 151.124204,10.5028708 C149.771135,10.5028708 148.405102,9.5170283 148.405102,7.22532626 C148.405102,4.9604337 149.891567,3.86769261 151.284553,3.86769261 C152.275985,3.86769261 152.972648,4.33431342 153.34725,5.20002227 L153.374202,5.20002227 C153.374202,3.52154481 153.374202,1.42972615 153.320639,0.283705451 C153.534892,0.310514937 153.735839,0.350220126 153.923481,0.350220126 C154.111123,0.350220126 154.298424,0.310514937 154.525982,0.283705451 C154.405891,1.40291667 154.365634,4.89391903 154.365634,7.17204665 C154.365634,8.38458202 154.392245,9.30390985 154.405891,10.3698415 C154.204603,10.3433713 154.043913,10.3029874 153.883223,10.3029874 C153.722534,10.3029874 153.561844,10.3433713 153.374202,10.3698415 L153.414118,9.06398192 Z" id="Fill-23"></path>
                    <path d="M163.365795,6.59930778 C163.914733,6.61254285 164.544186,6.63901297 165.106771,6.63901297 C165.696308,6.63901297 166.325761,6.61254285 166.888346,6.59930778 C166.888346,5.65317047 166.633835,4.29403132 165.24085,4.29403132 C163.928038,4.29403132 163.432664,5.6399354 163.365795,6.59930778 M165.214239,3.86779442 C167.089294,3.86779442 167.986904,5.10679992 167.986904,6.58573336 C167.986904,6.75914662 167.973258,6.93222052 167.959952,7.10529442 C166.995814,7.09205936 166.04464,7.06558923 165.093466,7.06558923 C164.50427,7.06558923 163.928038,7.09205936 163.338843,7.10529442 C163.325537,7.23866313 163.325537,7.35845742 163.325537,7.47859106 C163.325537,8.86420034 164.155938,9.94336701 165.642745,9.94336701 C166.352714,9.94336701 167.182773,9.53036517 167.651878,8.99722969 L167.719088,9.03727424 L167.638232,9.69020401 C167.102599,10.1164409 166.23194,10.5029726 165.401539,10.5029726 C163.47258,10.5029726 162.146804,9.14383346 162.146804,7.37169248 C162.146804,5.21335915 163.245022,3.86779442 165.214239,3.86779442" id="Fill-25"></path>
                    <path d="M175.714444,9.09082534 C175.902086,9.4502082 176.477976,10.0101532 177.228203,10.0101532 C177.897914,10.0101532 178.527367,9.59681198 178.527367,8.81085286 C178.527367,7.15884552 175.366112,8.13145296 175.366112,5.87979547 C175.366112,4.7205397 176.169902,3.86772655 177.58984,3.86772655 C178.246245,3.86772655 178.661446,4.10765448 179.076305,4.24102319 C178.929262,4.49384683 178.781878,4.98693776 178.755267,5.18682115 L178.594236,5.18682115 C178.460498,4.76058425 178.018346,4.36047812 177.415503,4.36047812 C176.893176,4.36047812 176.277028,4.69373021 176.277028,5.47968933 C176.277028,7.21212513 179.438284,6.14619353 179.438284,8.39785102 C179.438284,9.41016365 178.514062,10.5029047 177.027255,10.5029047 C176.21016,10.5029047 175.674527,10.2765512 175.299243,10.0630934 C175.406711,9.83673991 175.553754,9.3572234 175.553754,9.09082534 L175.714444,9.09082534 Z" id="Fill-27"></path>
                    <path d="M187.728919,6.49257888 C187.728919,5.6933847 187.701967,4.76048244 187.621452,4.00099345 C187.822399,4.041038 188.023347,4.06750812 188.224294,4.06750812 C188.425242,4.06750812 188.626189,4.041038 188.827137,4.00099345 C188.746621,4.76048244 188.72001,5.6933847 188.72001,6.49257888 L188.72001,7.87818816 C188.72001,8.67738234 188.746621,9.60994523 188.827137,10.3697736 C188.626189,10.329729 188.425242,10.3032589 188.224294,10.3032589 C188.023347,10.3032589 187.822399,10.329729 187.621452,10.3697736 C187.701967,9.60994523 187.728919,8.67738234 187.728919,7.87818816 L187.728919,6.49257888 Z M188.224294,1.00308202 C188.599578,1.00308202 188.907652,1.30986399 188.907652,1.68282128 C188.907652,2.05577856 188.599578,2.36222117 188.224294,2.36222117 C187.849693,2.36222117 187.541277,2.05577856 187.541277,1.68282128 C187.541277,1.30986399 187.849693,1.00308202 188.224294,1.00308202 L188.224294,1.00308202 Z" id="Fill-29"></path>
                    <g id="Group-33" transform="translate(196.853470, 3.732966)">
                        <path d="M2.86259744,0.521291798 C1.89845896,0.521291798 1.33587426,1.22750118 1.33587426,2.30666785 C1.33587426,3.39906958 1.81760233,4.11885338 2.84929192,4.11885338 C3.86699366,4.11885338 4.32245186,3.22599568 4.32245186,2.23981381 C4.32245186,1.14741208 3.73325612,0.521291798 2.86259744,0.521291798 M3.02362836,6.5700549 C1.710817,6.5700549 0.920673785,6.98305673 0.920673785,8.11584237 C0.920673785,9.32803839 1.77768577,9.79431984 2.88954965,9.79431984 C3.97446132,9.79431984 5.04606748,9.24828865 5.04606748,8.0493277 C5.04606748,7.00986622 4.44322505,6.5700549 3.02362836,6.5700549 M2.84929192,0.134760089 C3.18397694,0.134760089 3.45213435,0.161230215 3.9342036,0.188379062 C4.33609855,0.214849188 4.68443025,0.241658674 4.87207221,0.241658674 C5.39439918,0.241658674 5.78264744,0.214849188 5.95664271,0.174804638 C5.94333719,0.2681288 5.93003167,0.361113601 5.93003167,0.454777123 C5.93003167,0.547761923 5.94333719,0.641425445 5.95664271,0.734410246 C5.44762126,0.694365697 4.9522465,0.641425445 4.47017726,0.627511661 L4.44322505,0.654660508 C4.99216306,0.947528695 5.36744697,1.66697314 5.36744697,2.33313797 C5.36744697,3.665807 4.3896618,4.46500118 2.87590297,4.46500118 C2.63503893,4.46500118 2.39383372,4.43853105 2.139323,4.43853105 C1.81760233,4.43853105 1.48291732,4.70492911 1.48291732,5.05141627 C1.48291732,5.51769772 1.67055927,5.71724175 2.2734017,5.73081617 C2.76911763,5.74405123 3.25118688,5.75762566 3.74690281,5.77086072 C5.38075249,5.81056591 6.03715817,6.53001035 6.03715817,7.47614767 C6.03715817,8.70157875 5.11293625,10.1808515 2.86259744,10.1808515 C1.1482323,10.1808515 0.0633206309,9.44817204 0.0633206309,8.26244615 C0.0633206309,7.30273441 0.786595079,6.71665867 1.49622284,6.50354023 L1.49622284,6.4770701 C0.947284826,6.3168919 0.652857539,5.93036019 0.652857539,5.41079914 C0.652857539,4.8247234 1.16153782,4.38525144 1.6036905,4.30482298 L1.6036905,4.27835286 C0.786595079,3.91896999 0.290879148,3.27927529 0.290879148,2.30666785 C0.290879148,0.827395047 1.45630628,0.134760089 2.84929192,0.134760089" id="Fill-31"></path>
                    </g>
                    <path d="M213.485029,4.56049725 C212.239428,4.56049725 211.676502,5.36003079 211.676502,6.74564007 L211.676502,7.87808635 C211.676502,8.67761989 211.703113,9.61018278 211.78397,10.3696718 C211.583022,10.3296272 211.382075,10.3031571 211.181127,10.3031571 C210.98018,10.3031571 210.778891,10.3296272 210.577944,10.3696718 C210.6588,9.61018278 210.685412,8.67761989 210.685412,7.87808635 L210.685412,6.49247707 C210.685412,5.69328289 210.6588,4.76071999 210.577944,4.00089164 C210.778891,4.04127555 210.98018,4.06774568 211.181127,4.06774568 C211.315206,4.06774568 211.516154,4.04127555 211.71676,4.00089164 C211.689808,4.36061386 211.676502,4.70744038 211.676502,5.06682324 L211.703113,5.06682324 C212.19917,4.30767361 212.881846,3.86786229 213.846667,3.86786229 C214.837757,3.86786229 215.989879,4.3473788 215.989879,6.18603446 C215.989879,6.94552345 215.936316,7.745057 215.936316,8.65114976 C215.936316,9.2372255 215.936316,9.79683111 215.962927,10.3696718 C215.761979,10.3296272 215.587643,10.3031571 215.400342,10.3031571 C215.213041,10.3031571 215.038705,10.3296272 214.851063,10.3696718 C214.878015,9.39706433 214.944884,8.42445689 214.944884,7.39856984 L214.944884,6.58580123 C214.944884,5.27994169 214.368994,4.56049725 213.485029,4.56049725" id="Fill-34"></path>
                </g>
                <path d="M80.3360035,52.7726074 C80.3360035,54.3255215 87.6144644,55.5831918 96.5782912,55.5831918 L96.5782912,55.5831918 C105.553718,55.5831918 112.823649,54.3255215 112.823649,52.7726074 L112.823649,52.7726074 C112.823649,51.2200328 105.553718,49.9623624 96.5782912,49.9623624 L96.5782912,49.9623624 C87.6144644,49.9623624 80.3360035,51.2200328 80.3360035,52.7726074" id="Fill-37" fill="#F1F1D3"></path>
                <g id="Group-74" transform="translate(0.000000, 0.120812)">
                    <g id="Group-41" transform="translate(88.021136, 0.000000)">
                        <mask id="mask-2" fill="white">
                            <use xlink:href="#path-1"></use>
                        </mask>
                        <g id="Clip-40"></g>
                        <path d="M0.47149306,9.65592859 C0.908528233,9.89619589 1.3216817,10.1615759 1.70481246,10.4561409 C5.05029795,13.0291728 6.30033454,17.4992305 6.27679401,22.3680368 C6.26997066,23.648105 6.17273801,24.9566794 6.00522492,26.2655932 C6.42793107,25.9062103 6.86018991,25.5084797 7.29722508,25.068329 C7.34328265,25.0225153 7.38968139,24.97229 7.43608013,24.9257976 C7.60495789,21.5803809 8.61344811,18.5817907 10.8794806,16.5449485 C11.4754997,16.0043471 12.1670456,15.5360295 12.9462715,15.1457648 C13.2062409,15.0154503 13.4665514,14.8963348 13.726862,14.7829883 C14.5299696,12.1556587 14.5924032,9.59755857 13.3604484,7.60245768 L13.3573779,7.60245768 C13.069774,7.14567833 12.7180306,6.7119755 12.2878188,6.31288745 C11.6164017,5.69151821 10.9159855,5.19130071 10.1834995,4.80375092 C9.45681341,4.41925537 8.69805757,4.15048179 7.90450268,4.00014505 L7.31462461,3.88713797 L7.45416199,3.30615265 C7.47736136,3.20773808 7.49783139,3.10660862 7.50943107,2.99088666 L7.51216041,2.93591025 L7.51523091,2.85819667 L7.52103076,2.85819667 L7.52103076,2.8493733 L7.52103076,2.83172655 C7.54115962,2.42415448 7.45689132,2.03388981 7.29722508,1.68706329 C7.19248675,1.44985024 7.05022003,1.23876795 6.87861293,1.0480473 C6.45147161,0.576675445 5.84385284,0.264463705 5.16356546,0.227134041 L5.14616593,0.227134041 L5.1287664,0.22102555 C4.44267918,0.189465016 3.8091317,0.438216326 3.33252114,0.863095781 C2.85591057,1.28526035 2.54476609,1.8893222 2.50416719,2.57177634 L2.50416719,2.58602948 C2.48369716,2.9793484 2.55636577,3.35502057 2.69897366,3.69336308 C2.72217303,3.74867885 2.75424274,3.81485417 2.79484164,3.88713797 C2.82691136,3.95093776 2.86171041,4.00862906 2.90537981,4.07242885 L2.90810915,4.08396711 L3.22505347,4.56959211 L2.73070221,4.87908897 C2.70750284,4.89062723 2.64643391,4.93372602 2.55943628,4.98870244 C2.51576688,5.01754809 2.45776845,5.06098624 2.39089968,5.10713928 L2.38509984,5.10713928 C1.57414543,5.67964059 0.998596372,6.30134919 0.658452681,6.98074908 L0.658452681,6.97497995 C0.594654416,7.10224017 0.539385331,7.22950039 0.492645426,7.36524463 C0.443176183,7.49555909 0.405306625,7.63130333 0.373578076,7.76161779 L0.373578076,7.76704756 C0.263039905,8.24452791 0.263039905,8.74440605 0.367778233,9.26464583 C0.395412776,9.39394222 0.430552997,9.52425668 0.47149306,9.65592859" id="Fill-39" fill="#F1F1D3" mask="url(#mask-2)"></path>
                    </g>
                    <path d="M115.822918,21.7780584 C115.811319,21.5900527 115.788119,21.4051012 115.75332,21.2228645 C115.570114,20.2543294 115.078833,19.2600029 114.270608,18.2510839 L114.267878,18.2480296 L114.22455,18.1872841 L114.17201,18.1295928 L114.17474,18.1295928 C114.105142,18.0457707 114.026673,17.9531253 113.922276,17.8401182 L113.541533,17.4125238 L113.971404,17.0337974 L113.974475,17.0307432 L113.983004,17.0249741 C114.058743,16.9584594 114.128341,16.8946596 114.19521,16.82543 C114.262078,16.7531462 114.332018,16.6835773 114.390016,16.6112935 C114.706961,16.2298522 114.945095,15.7700186 115.067233,15.2497788 L115.067233,15.2440097 C115.276369,14.3447041 115.102373,13.4426837 114.651691,12.7140765 C114.20101,11.9854693 113.465794,11.4302754 112.558972,11.2164782 L112.555901,11.2164782 L112.553172,11.2164782 C111.649079,11.005396 110.742257,11.1788092 110.009771,11.6271046 C109.274555,12.0808297 108.716406,12.8094368 108.5042,13.7087424 L108.5042,13.7117966 L108.4984,13.7233349 L108.47793,13.8271792 L108.463601,13.8994631 C108.44006,14.0497998 108.419931,14.1885983 108.416861,14.3216276 L108.387862,14.9202597 L107.789113,14.8652833 C107.263034,14.8187909 106.731154,14.807592 106.205074,14.8391525 C105.684794,14.8652833 105.170314,14.9375671 104.652763,15.0444657 C103.997722,15.1795312 103.340975,15.3824688 102.68184,15.6386861 C102.443023,15.7313315 102.203524,15.8321216 101.964025,15.940717 C101.803335,16.0136795 101.642645,16.0832484 101.481614,16.1633375 C101.384723,16.2115267 101.293631,16.264467 101.19981,16.3157104 C100.631084,16.6265647 100.120016,16.987305 99.6679695,17.3921622 C97.9839682,18.9074072 97.0798752,21.0637044 96.7390491,23.5240687 C96.6940151,23.8498548 96.6588749,24.1810708 96.6332873,24.5166984 C96.6107703,24.8119421 96.5937119,25.1095613 96.5855239,25.4112529 C96.563348,26.205696 96.5879121,27.0201614 96.6568279,27.8468438 C96.6643335,27.9350776 96.6749097,28.02399 96.6834389,28.1122238 C96.7117558,28.0986494 96.7383668,28.0826994 96.767366,28.0694644 C97.4009135,27.7803291 98.0897301,27.566532 98.836545,27.4450409 C99.6127004,27.3204955 100.359857,27.25975 101.092343,27.2712883 C101.394617,27.2773968 101.691091,27.3004733 101.984495,27.3262647 C102.812849,27.4073719 103.606404,27.5835 104.370959,27.8526129 L104.385629,27.8264822 L104.391088,27.8149439 L104.434758,27.736891 L104.437828,27.736891 L104.440557,27.7280676 L104.440557,27.7253527 C104.995978,26.7944866 105.879259,26.1754929 106.852951,25.9240267 C107.832783,25.6752754 108.905412,25.7940516 109.841234,26.3461913 L109.843963,26.3461913 L109.849763,26.3492455 C110.570649,26.7734463 111.103553,27.3954942 111.427661,28.1040791 C111.808745,27.8034057 112.167653,27.516646 112.497903,27.2454969 C113.032512,26.8002558 113.462724,26.4242442 113.776598,26.1208559 L113.785468,26.1147474 C114.433686,25.5106855 114.933837,24.8889769 115.273639,24.249961 C115.602183,23.6313066 115.788119,22.9953449 115.828718,22.3420757 L115.828718,22.3274832 C115.837589,22.1483008 115.837589,21.96301 115.822918,21.7780584" id="Fill-42" fill="#F1F1D3"></path>
                    <path d="M101.879108,43.0270198 C102.202876,43.524183 102.528691,43.9829986 102.853482,44.3976972 C102.99916,43.9870709 103.158826,43.5058576 103.342033,42.967971 C103.441654,42.6717093 103.548439,42.3550858 103.658977,42.0286209 C103.628272,42.0401592 103.599614,42.0510187 103.568909,42.0628964 C103.025771,42.2661733 102.457387,42.6007829 101.879108,43.0270198" id="Fill-44" fill="#F1F1D3"></path>
                    <path d="M92.7180526,27.2969439 C92.9224118,26.0324864 93.0602433,24.7622597 93.1175594,23.5117159 C93.1353001,23.1275597 93.1479233,22.7444216 93.1499703,22.3650165 C93.1714638,18.2027589 92.2213132,14.3825768 89.7393219,11.9877091 C89.5127868,11.7691609 89.2780638,11.5580786 89.0256001,11.3639644 C88.83557,11.2176999 88.6349637,11.0809376 88.4292398,10.948587 C88.1532356,10.7714408 87.8646081,10.6051541 87.5585812,10.4548173 C87.366504,10.3601357 87.1689682,10.2705445 86.9646091,10.1870618 C85.7817824,9.70449109 84.6132848,9.39193999 83.4563868,9.24771174 C83.1629831,9.20698847 82.8603678,9.17814282 82.566964,9.16660456 C81.7239398,9.1231664 80.8928566,9.17542794 80.0641615,9.3169413 L79.4742834,9.41535587 L79.3985443,8.82520781 C79.3784154,8.67215618 79.3524867,8.51333543 79.3088173,8.35722956 L79.2825474,8.26458412 L79.2562775,8.17499292 L79.2504777,8.16616955 C78.8117367,6.78429324 77.6169692,5.84460377 76.2594649,5.65659801 C75.9981309,5.62198323 75.7248559,5.60773008 75.451581,5.63657573 C75.1783061,5.65659801 74.9023018,5.70852018 74.6375561,5.79539649 L74.6320974,5.79539649 C73.2455939,6.23486845 72.3036313,7.42025498 72.1118954,8.77057075 C72.0770963,9.03052096 72.0654966,9.30268816 72.088696,9.57451599 C72.1118954,9.8490587 72.1640939,10.1205472 72.2514327,10.383891 L72.2514327,10.3896601 C72.4257692,10.9360307 72.7222435,11.4189408 73.1029861,11.8119203 C73.1787252,11.8872584 73.2541231,11.9625964 73.3325916,12.0287718 C73.4083307,12.0925715 73.492599,12.1590862 73.5795966,12.2225466 L73.5826671,12.2256009 L74.0534779,12.5697125 L73.7017345,13.0292068 C73.6174662,13.1364447 73.5389977,13.2460582 73.4547294,13.364495 L73.4083307,13.4313491 L73.41106,13.4313491 L73.3646613,13.4978637 L73.3646613,13.5036329 C72.5711064,14.6656035 72.123495,15.7787062 72.0129569,16.8456559 C71.9897575,17.0540233 71.9812283,17.253228 71.9812283,17.4558263 C71.9870282,17.6492618 72.0013572,17.8488058 72.0306976,18.045635 L72.0306976,18.054119 C72.123495,18.7596496 72.3793704,19.4302262 72.7891122,20.0722964 C73.2135242,20.7286198 73.800673,21.3618666 74.5532878,21.9604987 L74.5648875,21.9659285 C74.9340304,22.2754253 75.4253111,22.6368443 76.0356592,23.0674929 C76.6521484,23.5011958 77.3846343,23.9929292 78.2245879,24.5481232 C79.7707577,25.5685805 81.2415294,27.4795199 82.566964,29.688418 C84.4621477,32.8414172 86.0635865,36.5944059 87.1594156,39.1643836 C87.4122204,39.7541923 87.6390966,40.2863097 87.8335619,40.7254423 C88.6765861,39.4738805 89.5080105,37.8720985 90.257896,36.047696 C91.1572127,33.852033 91.9289329,31.3509455 92.4492129,28.7782529 C92.5484925,28.2865194 92.6378783,27.7924104 92.7180526,27.2969439" id="Fill-46" fill="#F1F1D3"></path>
                    <path d="M110.547518,29.035047 C110.530801,28.9702292 110.509308,28.9067687 110.487814,28.8436477 C110.280726,28.2307624 109.865866,27.6888036 109.262683,27.3351899 L109.259612,27.3321356 L109.253812,27.3263665 L109.253812,27.3321356 C108.593995,26.9418709 107.83251,26.8549946 107.137893,27.0314621 C106.449077,27.2079296 105.832929,27.6474016 105.434787,28.3006707 L105.431716,28.3094941 L105.388047,28.3844928 L105.356318,28.4452383 L105.353248,28.4452383 C105.301049,28.549422 105.248851,28.6593749 105.210981,28.7747575 L105.004575,29.3357205 L104.449496,29.104616 C103.629671,28.7662735 102.769248,28.5521369 101.871295,28.4625457 C101.61542,28.4394692 101.353745,28.4194469 101.092411,28.4163927 C100.423723,28.4018002 99.7349065,28.4540617 99.0228906,28.5724986 C98.3832021,28.6793971 97.793324,28.8616338 97.2495035,29.1073308 C97.1045074,29.1741849 96.9639466,29.2481655 96.8250915,29.3245216 C96.6415436,29.4256511 96.4620896,29.532889 96.2898002,29.6499684 C96.1106874,29.7717989 95.9390803,29.9041495 95.7715672,30.0422693 C93.9422287,31.5514058 92.79386,34.0148243 92.1688417,36.8097981 C91.3636871,40.3832651 91.410427,44.4783293 91.9682354,47.8610756 C92.2067112,49.3040368 92.5352552,50.6020911 92.9275975,51.680579 C93.1251333,51.4118054 93.348939,51.1053628 93.5990145,50.7639661 C95.2297937,48.5224894 97.7909358,44.9965329 100.375277,42.772703 C100.523344,42.6454427 100.671069,42.5232729 100.819136,42.4051754 C100.910227,42.3322129 101.001319,42.2561961 101.092411,42.1869666 C101.154503,42.1404742 101.216254,42.1000903 101.278347,42.0552947 C101.918377,41.594443 102.552606,41.2252187 103.16466,40.993096 C103.514698,40.8614241 103.83983,40.7382362 104.144151,40.6208175 C104.39798,40.5227423 104.632703,40.4297575 104.852073,40.340845 C104.9418,40.3045334 105.033915,40.2675431 105.117842,40.2329283 C105.275462,40.1687892 105.422846,40.1077043 105.56443,40.0479768 C105.902527,39.905106 106.197295,39.772416 106.443277,39.6458345 L106.454877,39.6427803 C107.135164,39.315976 107.690243,38.9403039 108.126255,38.5154244 C108.541796,38.1017438 108.84987,37.6391954 109.044677,37.1274396 L109.047406,37.1159013 C109.105746,36.965904 109.152486,36.8182821 109.184214,36.6737145 C109.219013,36.5318618 109.248012,36.3845793 109.265753,36.2169351 C109.361621,35.3899134 109.219013,34.4733004 108.823942,33.4586123 L108.800742,33.3951519 L108.774472,33.3371212 C108.730803,33.2359917 108.687134,33.131808 108.649264,33.0422169 L108.642441,33.0266063 L108.408059,32.5104388 L108.94608,32.2820491 C109.024548,32.2453982 109.090052,32.214177 109.14498,32.1870282 C109.15078,32.1839739 109.158286,32.1805803 109.163744,32.1778654 L109.161015,32.1748112 C109.239483,32.1344273 109.306352,32.0967583 109.37015,32.0536595 C109.719164,31.8279847 110.018368,31.5215421 110.245244,31.1428156 L110.247974,31.1339923 L110.254115,31.1312774 L110.254115,31.1339923 C110.405934,30.8740421 110.509308,30.59916 110.570377,30.3198662 C110.631445,30.0409118 110.64748,29.7578851 110.622234,29.4806275 C110.608928,29.3299514 110.585388,29.1806327 110.547518,29.035047" id="Fill-48" fill="#F1F1D3"></path>
                    <g id="Group-52" transform="translate(0.000000, 26.809486)">
                        <mask id="mask-4" fill="white">
                            <use xlink:href="#path-3"></use>
                        </mask>
                        <g id="Clip-51"></g>
                        <path d="M11.5013943,10.8638487 C9.31553607,10.8638487 6.86970847,10.7603437 4.73570768,10.7087609 C4.99601825,6.98122419 6.92156588,1.75303498 12.0216742,1.75303498 C17.4342918,1.75303498 18.4229943,7.03314636 18.4229943,10.7087609 C16.2371361,10.7603437 13.7913085,10.8638487 11.5013943,10.8638487 M11.9176182,0.0962765985 C4.26762629,0.0962765985 -3.41167192e-05,5.32480516 -3.41167192e-05,13.711084 C-3.41167192e-05,20.5960316 5.15227282,25.876143 12.6463514,25.876143 C15.8727695,25.876143 19.2557834,24.3748117 21.3375856,22.718732 L21.6497536,20.1820117 L21.389443,20.0265845 C19.5679514,22.0970235 16.3411921,23.702199 13.5831965,23.702199 C7.80621241,23.702199 4.57979427,19.5090596 4.57979427,14.1251039 C4.57979427,13.6591618 4.57979427,13.1932197 4.63165169,12.6756948 C6.92156588,12.6237727 9.15962267,12.520607 11.4495369,12.520607 C15.1443776,12.520607 18.8392182,12.6237727 22.5865987,12.6756948 C22.6384561,12.0027428 22.6903135,11.3297907 22.6903135,10.6568387 C22.6903135,4.91078525 19.2035848,0.0962765985 11.9176182,0.0962765985" id="Fill-50" fill="#F1F1D3" mask="url(#mask-4)"></path>
                    </g>
                    <path d="M38.146245,50.7705157 C34.7635722,50.7705157 30.9643344,48.5443103 30.9643344,40.2615364 C30.9643344,33.9979581 33.3064472,29.0799444 38.3024995,29.0799444 C43.2463533,29.0799444 45.9006341,32.755559 45.9006341,39.2780694 C45.9006341,44.9209573 43.5585213,50.7705157 38.146245,50.7705157 M47.8261817,13.239271 C47.0974486,13.239271 46.316858,13.0841832 45.4840689,12.9806782 C45.6925221,17.4324104 45.6925221,25.5597571 45.6925221,32.0826069 L45.5884661,32.0826069 C44.1309998,28.7178467 41.4248617,26.9060005 37.5737664,26.9060005 C32.1614901,26.9060005 26.384506,31.1507227 26.384506,39.9510215 C26.384506,48.8548252 31.6930675,52.6858669 36.9494304,52.6858669 C42.0491976,52.6858669 44.7034784,49.2691845 45.7443795,47.0949012 L45.8484355,47.0949012 L45.6925221,52.1680026 C46.420914,52.0644976 47.0455912,51.9090705 47.6699271,51.9090705 C48.2946043,51.9090705 48.9189402,52.0644976 49.6995308,52.1680026 C49.6476733,48.0267854 49.5436174,44.4550152 49.5436174,39.7440115 C49.5436174,30.8917906 49.6995308,17.3292448 50.1679533,12.9806782 C49.2833068,13.0841832 48.5545737,13.239271 47.8261817,13.239271" id="Fill-53" fill="#F1F1D3"></path>
                    <path d="M73.5234746,44.8204387 C73.3624437,45.4587759 73.1331794,45.9803732 72.8056588,46.6808134 C71.9206712,48.5445818 69.9429249,49.9936515 67.0286748,49.9936515 C64.9990712,49.9936515 63.5419461,49.1656116 62.5532435,48.0786397 C61.668597,47.0948333 60.9398639,45.3864921 60.9398639,41.814722 C60.9398639,36.7412812 61.1479759,31.4615092 61.4601439,27.4234575 C60.7314107,27.5788847 60.0030188,27.6823897 59.3264842,27.6823897 C58.6499497,27.6823897 57.8693592,27.5788847 57.140626,27.4234575 C57.1928246,30.322615 57.244682,33.2214332 57.244682,35.6543092 C57.244682,38.1910296 57.0887686,40.5723229 57.0887686,44.1960152 C57.0887686,49.5796316 60.3673853,52.685799 65.7796617,52.685799 C69.0582784,52.685799 72.1287831,50.9255356 73.8984174,47.7162026 L74.0024734,47.7162026 C74.0024734,49.1656116 74.0024734,50.6669429 73.8984174,52.1679347 C74.5749519,52.0125076 75.2514865,51.909342 75.928021,51.909342 C76.6045555,51.909342 77.2810901,52.0125076 77.9576246,52.1679347 C77.8545921,50.253941 77.8000054,48.2696997 77.772712,46.2647573 C77.3725229,46.1565013 76.9791571,46.0462091 76.5997792,45.9311659 C75.4776803,45.5901085 74.4524729,45.2174906 73.5234746,44.8204387" id="Fill-55" fill="#F1F1D3"></path>
                    <path d="M77.7512867,43.553945 C77.7509455,43.4226124 77.7495809,43.2919586 77.7495809,43.160626 C77.7495809,37.6735047 77.8017794,32.8074133 78.1139474,27.4234575 C77.4374129,27.5788847 76.7608783,27.6823897 75.9799466,27.6823897 C75.1993561,27.6823897 74.5228216,27.5788847 73.7940884,27.4234575 C73.8984856,29.9082558 73.8984856,33.1179282 73.8984856,35.9132414 C73.8984856,38.0512131 73.8943916,39.6516376 73.8701687,40.8953941 C74.6415477,41.8618931 75.9741468,42.761538 77.7512867,43.553945" id="Fill-57" fill="#F1F1D3"></path>
                    <path d="M115.000262,46.4980338 C114.939534,48.4591986 114.829337,50.4302049 114.645448,52.1680705 C115.426039,52.0126433 116.206629,51.9091384 116.98722,51.9091384 C117.768151,51.9091384 118.548742,52.0126433 119.329332,52.1680705 C119.107915,50.0755731 118.992259,47.6460907 118.943131,45.3014484 C118.349841,45.5210147 117.723458,45.7314182 117.065688,45.9313016 C116.408259,46.1301669 115.718419,46.3191908 115.000262,46.4980338" id="Fill-59" fill="#F1F1D3"></path>
                    <path d="M142.800475,26.9059327 C139.105293,26.9059327 136.086646,28.7177788 134.421409,32.0309562 L134.317694,32.0309562 C133.588961,29.0802159 130.310344,26.9059327 126.771417,26.9059327 C123.440602,26.9059327 120.890377,28.4072639 119.017028,31.5650142 L118.912631,31.5650142 C118.912631,30.1671879 118.965171,28.8212838 119.068885,27.4234575 C118.288295,27.5788847 117.507704,27.6823897 116.987424,27.6823897 C116.206834,27.6823897 115.426243,27.5788847 114.645653,27.4234575 C114.957821,30.3741979 115.061536,33.9978902 115.061536,37.1040577 L115.061536,42.487674 C115.061536,42.9522586 115.058465,43.4307571 115.053348,43.9146853 C116.665021,43.2746512 117.974762,42.5541887 118.912631,41.7777317 L118.912631,38.0875246 C118.912631,32.7035689 121.09883,29.5977408 125.574261,29.5977408 C127.291697,29.5977408 129.165046,30.6847128 129.893779,31.9790341 C130.778767,33.5838703 130.830624,33.9978902 130.830624,40.4168957 C130.830624,44.1960152 130.67437,48.2856496 130.362202,52.1679347 C131.142792,52.0125076 131.923383,51.909342 132.652116,51.909342 C133.380849,51.909342 134.16144,52.0125076 134.94203,52.1679347 C134.785776,48.9582623 134.68172,46.9394062 134.68172,43.9370831 C134.68172,34.1013952 134.837974,33.5838703 135.930733,32.0309562 C136.867237,30.736635 138.636871,29.5977408 141.134897,29.5977408 C145.246303,29.5977408 146.599372,32.3414712 146.599372,35.8097364 C146.599372,45.0759772 146.287204,50.252923 146.078751,52.1679347 C146.807484,52.0125076 147.588075,51.909342 148.368665,51.909342 C149.149597,51.909342 149.877989,52.0125076 150.606722,52.1679347 C150.450467,49.9936515 150.450467,48.3891546 150.450467,46.5253863 C150.450467,40.4168957 150.762976,37.4661554 150.762976,35.0852015 C150.762976,29.2353037 147.328105,26.9059327 142.800475,26.9059327" id="Fill-61" fill="#F1F1D3"></path>
                    <path d="M171.473838,46.8877555 C170.276682,48.8031067 167.986768,50.5117872 165.332828,50.5117872 C163.042914,50.5117872 160.805199,48.8550288 160.805199,45.5937736 C160.805199,39.9512251 168.091165,40.3133229 171.68195,39.1228459 L171.473838,46.8877555 Z M175.428989,46.6288234 C175.428989,42.2805962 175.637101,38.4498939 175.637101,34.5672694 C175.637101,29.9601101 172.202571,26.9058648 167.206177,26.9058648 C164.447841,26.9058648 161.950156,27.5788168 158.827452,29.9081879 L158.827452,32.5999961 L159.399931,32.5999961 C160.596745,30.37413 163.199169,29.0801481 165.957164,29.0801481 C170.120769,29.0801481 171.68195,32.1343933 171.68195,35.6026585 C171.68195,37.6215147 171.42198,38.035874 163.875703,39.2263509 C159.348074,39.9512251 156.537879,42.1770912 156.537879,46.3183084 C156.537879,50.2528551 159.972409,52.6857311 163.459479,52.6857311 C166.998065,52.6857311 169.132066,51.3914099 171.629751,48.9066116 C171.837863,50.666875 172.983162,52.1162841 175.220536,52.1162841 C176.573946,52.1162841 177.822959,51.7022642 178.551351,51.3914099 L178.551351,50.2528551 C178.187326,50.4595257 177.770761,50.4595257 177.458593,50.4595257 C175.428989,50.4595257 175.428989,48.3371646 175.428989,46.6288234 L175.428989,46.6288234 Z" id="Fill-63" fill="#F1F1D3"></path>
                    <path d="M204.62403,27.4235594 C203.999353,27.5789865 203.426875,27.6824915 202.854396,27.6824915 C202.229719,27.6824915 201.657582,27.5789865 201.033246,27.4235594 C198.743332,30.6848146 196.34902,33.894487 193.851335,37.1038201 C191.457024,33.894487 189.219649,30.6848146 187.241903,27.4235594 C186.305058,27.5789865 185.420412,27.6824915 184.483566,27.6824915 C183.546721,27.6824915 182.662075,27.5789865 181.72523,27.4235594 C185.055704,31.6682816 188.230606,35.861421 191.30111,40.0545604 C188.178407,44.0922727 185.003846,48.1303243 181.673372,52.1680366 C182.24551,52.0126094 182.870187,51.9091044 183.442665,51.9091044 C184.015144,51.9091044 184.587622,52.0126094 185.160101,52.1680366 C187.501873,48.6478492 190.00024,45.1276618 192.550124,41.6078138 C195.04815,45.1276618 197.494318,48.6478492 199.783892,52.1680366 C200.668538,52.0126094 201.553526,51.9091044 202.438172,51.9091044 C203.32316,51.9091044 204.207465,52.0126094 205.092453,52.1680366 C201.553526,47.6643822 198.170512,43.1088057 195.04815,38.6051513 C198.118654,34.877954 201.293215,31.2026789 204.62403,27.4235594" id="Fill-65" fill="#F1F1D3"></path>
                    <g id="Group-69" transform="translate(210.841325, 15.610587)" fill="#F1F1D3">
                        <path d="M2.78498191,5.4456854 C4.24210699,5.4456854 5.43926267,4.25520846 5.43926267,2.80546004 C5.43926267,1.35605097 4.24210699,0.16523467 2.78498191,0.16523467 C1.32785683,0.16523467 0.131042319,1.35605097 0.131042319,2.80546004 C0.131042319,4.25520846 1.32785683,5.4456854 2.78498191,5.4456854" id="Fill-67"></path>
                    </g>
                    <path d="M215.968147,27.4235594 C215.187556,27.5789865 214.406966,27.6824915 213.626375,27.6824915 C212.845785,27.6824915 212.065194,27.5789865 211.284262,27.4235594 C211.596771,30.3742997 211.700827,33.997992 211.700827,37.1038201 L211.700827,42.4877758 C211.700827,45.5936039 211.596771,49.2172963 211.284262,52.1680366 C212.065194,52.0126094 212.845785,51.9091044 213.626375,51.9091044 C214.406966,51.9091044 215.187556,52.0126094 215.968147,52.1680366 C215.655979,49.2172963 215.551923,45.5936039 215.551923,42.4877758 L215.551923,37.1038201 C215.551923,33.997992 215.655979,30.3742997 215.968147,27.4235594" id="Fill-70" fill="#F1F1D3"></path>
                    <path d="M72.6366446,37.8098598 C72.3428997,37.5828276 72.0041206,37.2994615 71.6772825,37.0276336 C71.3910432,36.7778643 71.1088979,36.5233438 70.8925979,36.3312657 C70.3330837,36.7215304 69.8694375,37.1304599 69.5176941,37.5454979 C69.4405904,37.6333923 69.3709923,37.7246803 69.3024176,37.8200406 C68.9104165,38.360642 68.7040104,38.9175328 68.7040104,39.4839256 C68.7040104,41.7030045 71.7980557,43.751385 76.8029784,45.2707023 C81.9218509,46.8259919 89.0037995,47.7904547 96.8298337,47.7904547 L96.8325631,47.7904547 L96.8383629,47.7904547 C104.666103,47.7904547 111.744981,46.8259919 116.866242,45.2707023 C121.868776,43.751385 124.959751,41.7030045 124.965892,39.4839256 L124.959751,39.4839256 C124.959751,38.3837186 124.175067,37.3126965 122.76127,36.3224423 C122.471619,36.1201834 122.160815,35.9247117 121.832271,35.7370453 C121.586631,35.5979075 121.329732,35.4563941 121.052022,35.3175956 C120.845616,35.6688339 120.591105,36.0261806 120.290537,36.3007233 C120.250961,36.3411072 120.204904,36.3787762 120.159529,36.413391 C120.396299,36.6825039 120.59554,36.9567073 120.761348,37.2373585 C120.794782,37.3025157 120.836746,37.3819261 120.88178,37.4732141 C121.12162,37.9517125 121.248193,38.4560024 121.248193,38.9677581 L121.248193,38.9738666 C121.248193,41.377897 118.461881,43.527407 113.965638,45.046385 C109.573793,46.5297301 103.520805,47.4490579 96.8325631,47.4490579 L96.8298337,47.4490579 C90.1460273,47.4490579 84.0886038,46.5297301 79.7025583,45.046385 C75.2046101,43.527407 72.4213681,41.377897 72.4213681,38.9677581 L72.4142036,38.9677581 C72.4142036,38.622289 72.4752725,38.2798742 72.58854,37.9384775 C72.6045749,37.8980936 72.6175393,37.853298 72.6366446,37.8098598" id="Fill-72" fill="#F1F1D3"></path>
                </g>
            </g>
        </g>
    </g>
</svg>