<?xml version="1.0" encoding="UTF-8" standalone="no"?>
<svg width="239px" height="69px" viewBox="0 0 239 69" version="1.1" xmlns="http://www.w3.org/2000/svg" xmlns:xlink="http://www.w3.org/1999/xlink">
    <!-- Generator: Sketch 3.8.3 (29802) - http://www.bohemiancoding.com/sketch -->
    <title>koordinates</title>
    <desc>Created with Sketch.</desc>
    <defs></defs>
    <g id="Page-1" stroke="none" stroke-width="1" fill="none" fill-rule="evenodd">
        <g id="koordinates" transform="translate(0.000000, -1.000000)" fill="#F1F1D3">
            <path d="M81.48,35.14 C81.48,32.48 82.46,30.24 84.28,28.42 C86.24,26.6 88.48,25.62 91.14,25.62 C93.94,25.62 96.18,26.6 98.14,28.42 C99.96,30.24 100.94,32.62 100.94,35.28 C100.94,38.08 99.96,40.32 98.14,42.14 C96.18,43.96 93.94,44.94 91.14,44.94 C88.34,44.94 86.1,43.96 84.28,42.14 C82.46,40.32 81.48,37.94 81.48,35.14 L81.48,35.14 L81.48,35.14 Z M85.82,35.14 C85.82,36.96 86.24,38.36 87.22,39.48 C88.2,40.6 89.6,41.16 91.14,41.16 C92.82,41.16 94.08,40.6 95.06,39.62 C96.04,38.5 96.6,37.1 96.6,35.28 C96.6,33.46 96.04,32.06 95.06,30.94 C94.08,29.82 92.68,29.26 91.14,29.26 C89.46,29.26 88.2,29.82 87.22,30.94 C86.38,32.06 85.82,33.46 85.82,35.14 L85.82,35.14 L85.82,35.14 Z" id="Fill-1"></path>
            <path d="M102.2,35.14 C102.2,32.48 103.18,30.24 105,28.42 C106.96,26.6 109.2,25.62 111.86,25.62 C114.66,25.62 116.9,26.6 118.86,28.42 C120.68,30.24 121.66,32.62 121.66,35.28 C121.66,38.08 120.68,40.32 118.86,42.14 C116.9,43.96 114.66,44.94 111.86,44.94 C109.06,44.94 106.82,43.96 105,42.14 C103.18,40.32 102.2,37.94 102.2,35.14 L102.2,35.14 L102.2,35.14 Z M106.4,35.14 C106.4,36.96 106.82,38.36 107.8,39.48 C108.78,40.6 110.18,41.16 111.72,41.16 C113.4,41.16 114.66,40.6 115.64,39.62 C116.62,38.5 117.18,37.1 117.18,35.28 C117.18,33.46 116.62,32.06 115.64,30.94 C114.66,29.82 113.26,29.26 111.72,29.26 C110.04,29.26 108.78,29.82 107.8,30.94 C106.96,32.06 106.4,33.46 106.4,35.14 L106.4,35.14 L106.4,35.14 Z" id="Fill-2"></path>
            <path d="M122.92,26.04 L127.12,26.04 L127.12,27.72 C127.96,26.88 128.52,26.32 129.22,26.04 C129.78,25.76 130.62,25.62 131.46,25.62 C132.58,25.62 133.7,26.04 134.96,26.74 L133,30.66 C132.16,30.1 131.46,29.82 130.62,29.82 C128.38,29.82 127.12,31.5 127.12,35 L127.12,44.52 L122.92,44.52 L122.92,26.04" id="Fill-3"></path>
            <path d="M148.12,12.6 L152.32,12.6 L152.32,44.38 L148.12,44.38 L148.12,42.56 C146.44,44.24 144.62,44.94 142.52,44.94 C140,44.94 137.9,43.96 136.22,42.14 C134.54,40.32 133.7,37.94 133.7,35.14 C133.7,32.34 134.54,30.1 136.22,28.28 C137.9,26.46 139.86,25.48 142.38,25.48 C144.48,25.48 146.44,26.32 148.12,28.14 L148.12,12.6 L148.12,12.6 L148.12,12.6 Z M138.04,35.14 C138.04,36.96 138.46,38.36 139.44,39.48 C140.42,40.6 141.68,41.16 143.08,41.16 C144.62,41.16 145.88,40.6 146.86,39.48 C147.84,38.36 148.26,36.96 148.26,35.28 C148.26,33.6 147.84,32.2 146.86,31.08 C145.88,29.96 144.62,29.4 143.08,29.4 C141.68,29.4 140.42,29.96 139.44,31.08 C138.46,32.2 138.04,33.6 138.04,35.14 L138.04,35.14 L138.04,35.14 Z" id="Fill-4"></path>
            <path d="M153.58,18.48 C153.58,17.78 153.86,17.08 154.42,16.52 C154.98,15.96 155.54,15.68 156.38,15.68 C157.08,15.68 157.78,15.96 158.34,16.52 C158.9,17.08 159.18,17.64 159.18,18.48 C159.18,19.18 158.9,19.88 158.34,20.44 C157.78,21 157.22,21.28 156.38,21.28 C155.68,21.28 154.98,21 154.42,20.44 C153.86,19.88 153.58,19.18 153.58,18.48 L153.58,18.48 L153.58,18.48 Z M154.28,26.04 L158.48,26.04 L158.48,44.38 L154.28,44.38 L154.28,26.04 L154.28,26.04 Z" id="Fill-5"></path>
            <path d="M160.44,26.04 L164.64,26.04 L164.64,27.72 C166.18,26.32 167.72,25.48 169.68,25.48 C171.78,25.48 173.46,26.18 174.72,27.44 C175.7,28.56 176.26,30.38 176.26,33.04 L176.26,44.24 L172.06,44.24 L172.06,34.16 C172.06,32.34 171.78,31.08 171.36,30.38 C170.94,29.68 169.96,29.26 168.7,29.26 C167.3,29.26 166.32,29.68 165.76,30.66 C165.2,31.64 164.92,33.18 164.92,35.42 L164.92,44.24 L160.72,44.24 L160.72,26.04" id="Fill-6"></path>
            <path d="M192.08,26.04 L196.28,26.04 L196.28,44.38 L192.08,44.38 L192.08,42.56 C190.4,44.24 188.44,44.94 186.48,44.94 C183.96,44.94 181.86,43.96 180.18,42.14 C178.5,40.32 177.66,37.94 177.66,35.14 C177.66,32.34 178.5,30.1 180.18,28.28 C181.86,26.46 183.82,25.48 186.34,25.48 C188.44,25.48 190.4,26.32 192.08,28.14 L192.08,26.04 L192.08,26.04 L192.08,26.04 Z M182,35.14 C182,36.96 182.42,38.36 183.4,39.48 C184.38,40.6 185.64,41.16 187.04,41.16 C188.58,41.16 189.84,40.6 190.82,39.48 C191.8,38.36 192.22,36.96 192.22,35.28 C192.22,33.6 191.8,32.2 190.82,31.08 C189.84,29.96 188.58,29.4 187.04,29.4 C185.64,29.4 184.38,29.96 183.4,31.08 C182.42,32.2 182,33.6 182,35.14 L182,35.14 L182,35.14 Z" id="Fill-7"></path>
            <polyline id="Fill-8" points="203.7 30.1 203.7 44.52 199.5 44.52 199.5 30.1 197.68 30.1 197.68 26.18 199.5 26.18 199.5 19.46 203.7 19.46 203.7 26.18 207.06 26.18 207.06 30.1 203.7 30.1"></polyline>
            <path d="M224.7,36.26 L211.54,36.26 C211.68,37.8 212.1,38.92 212.94,39.9 C213.78,40.74 214.9,41.16 216.3,41.16 C217.42,41.16 218.26,40.88 218.96,40.46 C219.66,39.9 220.36,39.06 221.34,37.66 L224.98,39.62 C224.42,40.6 223.86,41.3 223.16,42 C222.6,42.7 221.9,43.26 221.2,43.68 C220.5,44.1 219.8,44.38 218.96,44.66 C218.12,44.8 217.28,44.94 216.3,44.94 C213.5,44.94 211.4,44.1 209.72,42.28 C208.04,40.46 207.2,38.22 207.2,35.28 C207.2,32.34 208.04,30.1 209.58,28.28 C211.26,26.46 213.36,25.62 216.02,25.62 C218.68,25.62 220.92,26.46 222.46,28.14 C224,29.82 224.84,32.2 224.84,35.28 L224.7,36.26 L224.7,36.26 L224.7,36.26 Z M220.5,32.76 C219.94,30.52 218.54,29.4 216.16,29.4 C215.6,29.4 215.18,29.54 214.76,29.68 C214.34,29.82 213.92,30.1 213.5,30.38 C213.08,30.66 212.8,31.08 212.52,31.5 C212.24,31.92 212.1,32.34 211.96,32.9 L220.5,32.9 L220.5,32.76 L220.5,32.76 Z" id="Fill-9"></path>
            <path d="M237.58,29.26 L234.08,31.08 C233.52,29.96 232.82,29.4 231.98,29.4 C231.56,29.4 231.28,29.54 231,29.82 C230.72,30.1 230.58,30.38 230.58,30.8 C230.58,31.5 231.42,32.2 232.96,32.9 C235.2,33.88 236.74,34.72 237.44,35.56 C238.28,36.4 238.56,37.52 238.56,38.92 C238.56,40.74 237.86,42.14 236.6,43.4 C235.34,44.52 233.8,45.08 231.98,45.08 C228.9,45.08 226.66,43.54 225.4,40.6 L229.04,38.92 C229.6,39.76 229.88,40.32 230.16,40.6 C230.72,41.02 231.28,41.3 231.98,41.3 C233.38,41.3 234.08,40.6 234.08,39.34 C234.08,38.64 233.52,37.94 232.4,37.24 C231.98,36.96 231.56,36.82 231.14,36.68 C230.72,36.54 230.3,36.26 229.88,36.12 C228.62,35.56 227.78,34.86 227.22,34.3 C226.52,33.6 226.24,32.48 226.24,31.36 C226.24,29.82 226.8,28.42 227.92,27.44 C229.04,26.46 230.44,25.9 231.98,25.9 C234.64,25.62 236.46,26.74 237.58,29.26" id="Fill-10"></path>
            <polygon id="Fill-11" points="66.64 12.6 70.84 12.6 70.84 44.38 66.64 44.38"></polygon>
            <polyline id="Fill-12" points="59.5 26.04 68.6 35.14 59.36 44.38 53.48 44.38 62.72 35.14 53.62 26.04 59.5 26.04"></polyline>
            <polyline id="Fill-13" points="77.7 26.04 68.6 35.14 77.84 44.38 83.72 44.38 74.48 35.14 83.58 26.04 77.7 26.04"></polyline>
            <polyline id="Fill-14" points="34.58 0.98 46.76 13.16 43.82 16.1 34.58 6.86 25.48 15.96 22.54 13.02 34.58 0.98"></polyline>
            <polyline id="Fill-15" points="0.56 35.28 12.74 23.1 15.68 26.04 6.44 35.28 15.54 44.38 12.6 47.32 0.56 35.28"></polyline>
            <polyline id="Fill-16" points="34.58 69.58 22.4 57.4 25.34 54.46 34.58 63.7 43.68 54.6 46.62 57.54 34.58 69.58"></polyline>
        </g>
    </g>
</svg>