<?xml version="1.0" encoding="UTF-8" standalone="no"?>
<svg width="248px" height="67px" viewBox="0 0 248 67" version="1.1" xmlns="http://www.w3.org/2000/svg" xmlns:xlink="http://www.w3.org/1999/xlink">
    <!-- Generator: Sketch 3.8.3 (29802) - http://www.bohemiancoding.com/sketch -->
    <title>safestack_colour</title>
    <desc>Created with Sketch.</desc>
    <defs>
        <polygon id="path-1" points="0 67.0156054 247.934942 67.0156054 247.934942 0 0 0"></polygon>
    </defs>
    <g id="Page-1" stroke="none" stroke-width="1" fill="none" fill-rule="evenodd">
        <g id="safestack_colour">
            <path d="M25.4801094,62.3960771 C25.2104233,61.7365973 24.9401812,61.0659964 24.680504,60.4065166 L24.6604861,60.4065166 C24.4102619,61.0359695 24.1605937,61.6565256 23.8608807,62.3860682 L23.1207731,64.1854583 L26.2102081,64.1854583 L25.4801094,62.3960771 L25.4801094,62.3960771 Z M24.380791,59.666409 L24.9607552,59.666409 L27.9901363,66.9051175 L27.3301004,66.9051175 L26.4398583,64.7454045 L22.8905668,64.7454045 L22.0008807,66.9051175 L21.3708717,66.9051175 L24.380791,59.666409 L24.380791,59.666409 Z" id="Fill-1" fill="#837F7E"></path>
            <path d="M34.4628251,59.5564771 C35.3024664,59.5564771 36.0225561,59.7861274 36.5925112,60.1164233 L36.5925112,60.8164951 C36.032565,60.4066834 35.2830045,60.1264323 34.4433632,60.1264323 C32.5433274,60.1264323 31.2833094,61.5260197 31.2833094,63.28593 C31.2833094,65.0252664 32.5133004,66.4554368 34.4533722,66.4554368 C35.102843,66.4554368 35.722843,66.2958493 36.1927085,66.0256072 L36.1927085,63.9960108 L34.3527265,63.9960108 L34.3527265,63.4360646 L36.8026996,63.4360646 L36.8026996,66.3358852 C36.1726906,66.7451408 35.2924574,67.015383 34.4033274,67.015383 C32.2436143,67.015383 30.6733184,65.4056072 30.6733184,63.295939 C30.6733184,61.1962798 32.2035785,59.5564771 34.4628251,59.5564771" id="Fill-3" fill="#837F7E"></path>
            <mask id="mask-2" fill="white">
                <use xlink:href="#path-1"></use>
            </mask>
            <g id="Clip-6"></g>
            <polygon id="Fill-5" fill="#837F7E" mask="url(#mask-2)" points="40.8966457 66.9049507 41.5066368 66.9049507 41.5066368 59.6662422 40.8966457 59.6662422"></polygon>
            <polygon id="Fill-7" fill="#837F7E" mask="url(#mask-2)" points="45.7459354 59.6663534 46.3553704 59.6663534 46.3553704 66.3451157 49.9446978 66.3451157 49.9446978 66.9050619 45.7459354 66.9050619"></polygon>
            <polygon id="Fill-8" fill="#837F7E" mask="url(#mask-2)" points="53.516287 59.6663534 57.525435 59.6663534 57.525435 60.2262996 54.125722 60.2262996 54.125722 62.865887 57.1356413 62.865887 57.1356413 63.4258332 54.125722 63.4258332 54.125722 66.3451157 57.6155157 66.3451157 57.6155157 66.9050619 53.516287 66.9050619"></polygon>
            <path d="M69.8078296,62.3960771 C69.5375874,61.7365973 69.2679013,61.0659964 69.0076682,60.4065166 L68.9876502,60.4065166 C68.737426,61.0359695 68.4877578,61.6565256 68.1880448,62.3860682 L67.4473812,64.1854583 L70.5373722,64.1854583 L69.8078296,62.3960771 Z M68.7079552,59.666409 L69.2873632,59.666409 L72.3173004,66.9051175 L71.6572646,66.9051175 L70.7675785,64.7454045 L67.2177309,64.7454045 L66.3280448,66.9051175 L65.6980359,66.9051175 L68.7079552,59.666409 Z" id="Fill-9" fill="#837F7E" mask="url(#mask-2)"></path>
            <path d="M77.6104879,63.3457614 C78.6402996,63.3457614 79.0806942,63.2162009 79.4399049,62.9659767 C79.8102368,62.7057435 80.0304341,62.3059408 80.0304341,61.7860305 C80.0304341,61.2166314 79.7802099,60.8262816 79.3904161,60.5766135 C78.9700395,60.3063713 78.4501291,60.2262996 77.6104879,60.2262996 L76.3704879,60.2262996 L76.3704879,63.3457614 L77.6104879,63.3457614 Z M75.7604969,59.6663534 L77.6505238,59.6663534 C78.5802457,59.6663534 79.2408377,59.776452 79.7702009,60.1267659 C80.3001202,60.4765238 80.649878,61.016452 80.649878,61.7665686 C80.649878,62.4961112 80.3201381,63.0660664 79.8002278,63.4163803 C79.2602996,63.7856 78.5302009,63.8862457 77.5404251,63.8862457 L76.3704879,63.8862457 L76.3704879,66.9050619 L75.7604969,66.9050619 L75.7604969,59.6663534 Z" id="Fill-10" fill="#837F7E" mask="url(#mask-2)"></path>
            <path d="M86.0756843,63.3457614 C87.105496,63.3457614 87.5458906,63.2162009 87.9051013,62.9659767 C88.2754332,62.7057435 88.4956305,62.3059408 88.4956305,61.7860305 C88.4956305,61.2166314 88.2454063,60.8262816 87.8556126,60.5766135 C87.4352359,60.3063713 86.9153256,60.2262996 86.0756843,60.2262996 L84.8356843,60.2262996 L84.8356843,63.3457614 L86.0756843,63.3457614 Z M84.2256933,59.6663534 L86.1157202,59.6663534 C87.0454422,59.6663534 87.7060341,59.776452 88.2353973,60.1267659 C88.7653166,60.4765238 89.1150744,61.016452 89.1150744,61.7665686 C89.1150744,62.4961112 88.7853345,63.0660664 88.2659803,63.4163803 C87.725496,63.7856 86.9953973,63.8862457 86.0056215,63.8862457 L84.8356843,63.8862457 L84.8356843,66.9050619 L84.2256933,66.9050619 L84.2256933,59.6663534 Z" id="Fill-11" fill="#837F7E" mask="url(#mask-2)"></path>
            <polygon id="Fill-12" fill="#837F7E" mask="url(#mask-2)" points="92.6910565 59.6663534 93.3010475 59.6663534 93.3010475 66.3451157 96.8909309 66.3451157 96.8909309 66.9050619 92.6910565 66.9050619"></polygon>
            <polygon id="Fill-13" fill="#837F7E" mask="url(#mask-2)" points="100.461686 66.9049507 101.071677 66.9049507 101.071677 59.6662422 100.461686 59.6662422"></polygon>
            <path d="M108.688169,59.5564771 C109.418267,59.5564771 110.067738,59.7366386 110.627684,60.0168897 L110.627684,60.6963874 C110.097765,60.3460735 109.418267,60.1264323 108.688169,60.1264323 C106.798142,60.1264323 105.528671,61.5160108 105.528671,63.28593 C105.528671,65.0558493 106.798142,66.4454278 108.728204,66.4454278 C109.48833,66.4454278 110.187846,66.2157776 110.757801,65.8159749 L110.757801,66.4954726 C110.187846,66.8352215 109.457747,67.015383 108.698178,67.015383 C106.468402,67.015383 104.91868,65.3955982 104.91868,63.295939 C104.91868,61.2363157 106.408348,59.5564771 108.688169,59.5564771" id="Fill-14" fill="#837F7E" mask="url(#mask-2)"></path>
            <path d="M118.072244,62.3960771 C117.802558,61.7365973 117.532316,61.0659964 117.272639,60.4065166 L117.252621,60.4065166 C117.002396,61.0359695 116.752728,61.6565256 116.452459,62.3860682 L115.712908,64.1854583 L118.802343,64.1854583 L118.072244,62.3960771 Z M116.972926,59.666409 L117.55289,59.666409 L120.582271,66.9051175 L119.922235,66.9051175 L119.031993,64.7454045 L115.482701,64.7454045 L114.593015,66.9051175 L113.963006,66.9051175 L116.972926,59.666409 Z" id="Fill-15" fill="#837F7E" mask="url(#mask-2)"></path>
            <polygon id="Fill-16" fill="#837F7E" mask="url(#mask-2)" points="124.952187 60.2262439 122.462734 60.2262439 122.462734 59.6662978 128.052187 59.6662978 128.052187 60.2262439 125.562178 60.2262439 125.562178 66.9050063 124.952187 66.9050063"></polygon>
            <polygon id="Fill-17" fill="#837F7E" mask="url(#mask-2)" points="131.589022 66.9049507 132.198457 66.9049507 132.198457 59.6662422 131.589022 59.6662422"></polygon>
            <path d="M139.69017,66.445539 C141.450081,66.445539 142.729561,65.0459516 142.729561,63.2860413 C142.729561,61.5261309 141.450081,60.1265435 139.69017,60.1265435 C137.93026,60.1265435 136.65078,61.5261309 136.65078,63.2860413 C136.65078,65.0459516 137.93026,66.445539 139.69017,66.445539 M139.69017,59.5565883 C141.769812,59.5565883 143.339552,61.196391 143.339552,63.2860413 C143.339552,65.3756915 141.769812,67.0154942 139.69017,67.0154942 C137.610529,67.0154942 136.040789,65.3756915 136.040789,63.2860413 C136.040789,61.196391 137.610529,59.5565883 139.69017,59.5565883" id="Fill-18" fill="#837F7E" mask="url(#mask-2)"></path>
            <path d="M147.190725,66.9052287 L147.190725,59.6665202 L147.770133,59.6665202 L151.079765,64.0760269 C151.559639,64.7154888 151.980016,65.2854439 152.439317,65.9154529 L152.459891,65.9054439 C152.449882,65.2059283 152.449882,64.4658206 152.449882,63.736278 L152.449882,59.6665202 L153.039299,59.6665202 L153.039299,66.9052287 L152.459891,66.9052287 L149.149702,62.496278 C148.669828,61.8562601 148.250563,61.2863049 147.790151,60.656296 L147.770133,60.6663049 C147.780698,61.3663767 147.780698,62.1059283 147.780698,62.8360269 L147.780698,66.9052287 L147.190725,66.9052287 Z" id="Fill-19" fill="#837F7E" mask="url(#mask-2)"></path>
            <path d="M162.082902,65.7357919 C162.712911,66.2251193 163.532535,66.4453166 164.202579,66.4453166 C165.172337,66.4453166 165.882418,65.9760072 165.882418,65.0357202 C165.882418,63.9658726 164.95214,63.7362224 164.012409,63.4759892 C162.972588,63.1857291 161.952786,62.8059444 161.952786,61.4964377 C161.952786,60.2564377 162.853037,59.5563659 164.162543,59.5563659 C164.842597,59.5563659 165.632194,59.7465363 166.19214,60.1263211 L166.19214,60.786357 C165.582149,60.3465184 164.802561,60.1263211 164.152535,60.1263211 C163.212248,60.1263211 162.562777,60.5767247 162.562777,61.4564018 C162.562777,62.4862135 163.472481,62.6964018 164.372732,62.94607 C165.402543,63.235774 166.491853,63.6161148 166.491853,65.0056933 C166.491853,66.2757202 165.562687,67.0158278 164.202579,67.0158278 C163.48249,67.0158278 162.662866,66.8056395 162.082902,66.4158457 L162.082902,65.7357919 Z" id="Fill-20" fill="#837F7E" mask="url(#mask-2)"></path>
            <polygon id="Fill-21" fill="#837F7E" mask="url(#mask-2)" points="170.251333 59.6663534 174.260481 59.6663534 174.260481 60.2262996 170.860768 60.2262996 170.860768 62.865887 173.870687 62.865887 173.870687 63.4258332 170.860768 63.4258332 170.860768 66.3451157 174.350561 66.3451157 174.350561 66.9050619 170.251333 66.9050619"></polygon>
            <path d="M181.309853,59.5564771 C182.039396,59.5564771 182.689422,59.7366386 183.249369,60.0168897 L183.249369,60.6963874 C182.720005,60.3460735 182.039396,60.1264323 181.309853,60.1264323 C179.419826,60.1264323 178.150355,61.5160108 178.150355,63.28593 C178.150355,65.0558493 179.419826,66.4454278 181.349889,66.4454278 C182.110014,66.4454278 182.80953,66.2157776 183.379485,65.8159749 L183.379485,66.4954726 C182.80953,66.8352215 182.079987,67.015383 181.319306,67.015383 C179.090086,67.015383 177.540364,65.3955982 177.540364,63.295939 C177.540364,61.2363157 179.030032,59.5564771 181.309853,59.5564771" id="Fill-22" fill="#837F7E" mask="url(#mask-2)"></path>
            <path d="M186.915265,63.4657578 L186.915265,59.6662422 L187.5247,59.6662422 L187.5247,63.4162691 C187.5247,64.5055785 187.645363,65.2356771 188.025148,65.7255605 C188.33487,66.1253632 188.874798,66.4456502 189.745022,66.4456502 C190.634709,66.4456502 191.224682,66.1053453 191.544413,65.5954439 C191.854135,65.1055605 191.934206,64.4255067 191.934206,63.4357309 L191.934206,59.6662422 L192.524735,59.6662422 L192.524735,63.4062601 C192.524735,64.5656323 192.42409,65.3457758 192.014278,65.9657758 C191.56443,66.6352646 190.784287,67.0156054 189.714996,67.0156054 C188.715211,67.0156054 188.004574,66.6853094 187.545274,66.1053453 C187.044825,65.4753363 186.915265,64.6256861 186.915265,63.4657578" id="Fill-23" fill="#837F7E" mask="url(#mask-2)"></path>
            <path d="M198.843119,63.1458045 C199.593236,63.1458045 200.07311,63.0162439 200.422868,62.7259839 C200.733146,62.4657507 200.882725,62.1159928 200.882725,61.6861632 C200.882725,61.1562439 200.653074,60.7964771 200.292752,60.5562619 C199.902958,60.2965848 199.423083,60.2259659 198.613469,60.2259659 L197.323424,60.2259659 L197.323424,63.1458045 L198.843119,63.1458045 Z M196.713989,59.6665758 L198.653505,59.6665758 C199.493146,59.6665758 200.143173,59.7666655 200.653074,60.0964054 C201.142958,60.4166924 201.492716,60.9366027 201.492716,61.6566924 C201.492716,62.3161722 201.193003,62.8561004 200.733146,63.1858404 C200.40285,63.4254996 200.013057,63.5456072 199.563209,63.616226 L201.982599,66.9052843 L201.242491,66.9052843 L198.883155,63.6657148 L197.323424,63.6657148 L197.323424,66.9052843 L196.713989,66.9052843 L196.713989,59.6665758 Z" id="Fill-24" fill="#837F7E" mask="url(#mask-2)"></path>
            <polygon id="Fill-25" fill="#837F7E" mask="url(#mask-2)" points="205.479677 66.9049507 206.089668 66.9049507 206.089668 59.6662422 205.479677 59.6662422"></polygon>
            <polygon id="Fill-26" fill="#837F7E" mask="url(#mask-2)" points="212.099387 60.2262439 209.609934 60.2262439 209.609934 59.6662978 215.199387 59.6662978 215.199387 60.2262439 212.709378 60.2262439 212.709378 66.9050063 212.099387 66.9050063"></polygon>
            <path d="M223.860536,59.6663534 L224.550599,59.6663534 L221.760877,63.6254565 L221.760877,66.9050619 L221.150886,66.9050619 L221.150886,63.6360215 L218.351711,59.6663534 L219.061236,59.6663534 L220.221164,61.316165 C220.630976,61.8961291 221.041343,62.4861022 221.451155,63.0860843 L221.471173,63.0860843 C221.860967,62.5161291 222.280787,61.9161471 222.700608,61.316165 L223.860536,59.6663534 Z" id="Fill-27" fill="#837F7E" mask="url(#mask-2)"></path>
            <path d="M41.773487,36.5142188 C45.2254691,38.9113668 49.492626,39.9662009 52.3696484,39.9662009 C55.8694511,39.9662009 58.3144197,38.4798691 58.3144197,35.3153668 C58.3144197,31.4797076 54.6705991,30.9525686 50.163783,29.6102547 C45.1776484,28.0761022 40.7670296,25.8707928 40.7670296,19.7814475 C40.7670296,13.452443 45.4173076,9.66516054 52.4652897,9.66516054 C55.8216305,9.66516054 59.8491283,10.5281561 62.7734152,12.2541471 L62.7734152,18.391313 C59.3214332,16.1376269 55.2461148,15.1311695 52.4174691,15.1311695 C49.1573256,15.1311695 46.8558188,16.4251067 46.8558188,19.3499498 C46.8558188,22.9937704 50.4996395,23.4730888 54.6705991,24.7675821 C59.8007516,26.3501112 64.403209,28.6032413 64.403209,34.9800664 C64.403209,41.5003534 59.5610924,45.4316538 52.3212717,45.4316538 C48.9176664,45.4316538 44.8417919,44.5686583 41.773487,42.8904879 L41.773487,36.5142188 Z" id="Fill-28" fill="#3F3A45" mask="url(#mask-2)"></path>
            <path d="M81.1111247,39.390852 L81.1111247,35.4111749 C80.0568466,35.1236951 78.6177794,34.9318565 77.467304,34.9318565 C75.0707121,34.9318565 72.7208287,35.6992108 72.7208287,38.0001614 C72.7208287,39.917991 74.3989991,40.8293632 76.4608466,40.8293632 C78.2346583,40.8293632 79.9606493,40.2054709 81.1111247,39.390852 M69.5568825,43.8492915 C67.9265327,42.6509955 66.9195193,40.7809865 66.9195193,38.4322152 C66.9195193,35.8432287 68.166748,33.9253991 69.9405596,32.7265471 C71.7138152,31.5282511 74.1115193,31.0961973 76.5564879,31.0961973 C78.1868377,31.0961973 79.6731695,31.2880359 81.1111247,31.6238924 L81.1111247,30.2332018 C81.1111247,28.7946906 80.7274475,27.7404126 79.9606493,27.021435 C79.0982099,26.2540807 77.7553399,25.8704036 75.9815283,25.8704036 C73.1528825,25.8704036 70.7073578,26.8295964 68.8857256,27.9800717 L68.8857256,22.7064574 C70.7551785,21.6516233 73.488183,20.7886278 76.8445238,20.7886278 C79.9128287,20.7886278 82.6452771,21.5076054 84.4196448,22.9939372 C86.002174,24.3362511 86.9124341,26.349722 86.9124341,29.274565 L86.9124341,38.3360179 C86.9124341,39.6305112 87.3923085,40.5413274 88.5427839,40.5413274 C88.9742816,40.5413274 89.4541561,40.3973094 89.8372771,40.2054709 L89.8372771,44.7606637 C89.1182996,45.0959641 88.1112861,45.3361794 86.9608108,45.3361794 C85.0429812,45.3361794 83.2207928,44.6650224 82.1181381,43.1781345 L82.0224969,43.1781345 C80.5839857,44.3291659 78.139017,45.4318206 75.0223354,45.4318206 C73.1045058,45.4318206 71.1388556,45.0003229 69.5568825,43.8492915" id="Fill-29" fill="#3F3A45" mask="url(#mask-2)"></path>
            <path d="M93.8638852,26.2540807 L90.3157058,26.2540807 L90.3157058,21.3157668 L93.8638852,21.3157668 L93.8638852,17.2882691 C93.8638852,14.1237668 94.4394009,11.4869596 96.1653919,9.80878924 C97.747365,8.27463677 100.096136,7.74749776 102.254181,7.74749776 C103.596495,7.74749776 104.987186,7.93933632 106.041464,8.32301345 L106.041464,13.2129507 C105.130648,12.9732915 103.644316,12.7814529 102.78132,12.7814529 C100.192334,12.7814529 99.6651946,14.5074439 99.6651946,16.76113 L99.6651946,21.3157668 L105.418127,21.3157668 L105.418127,26.2540807 L99.6651946,26.2540807 L99.6651946,44.9041256 L93.8638852,44.9041256 L93.8638852,26.2540807 Z" id="Fill-30" fill="#3F3A45" mask="url(#mask-2)"></path>
            <path d="M112.662007,30.6649776 L124.408088,30.6649776 C123.977146,27.1167982 121.387604,25.4870045 118.750796,25.4870045 C116.065613,25.4870045 113.380985,27.1167982 112.662007,30.6649776 L112.662007,30.6649776 Z M112.662007,34.6924753 C113.380985,38.6237758 116.497666,40.6372466 120.476787,40.6372466 C123.449451,40.6372466 126.230276,39.5345919 128.531227,37.9042422 L128.531227,43.2262332 C126.325917,44.6163677 122.970133,45.4320987 119.901272,45.4320987 C112.326151,45.4320987 106.7645,40.5416054 106.7645,33.1583229 C106.7645,25.678843 112.373971,20.7883498 118.798617,20.7883498 C124.647747,20.7883498 129.82572,24.7674709 129.82572,32.3425919 C129.82572,33.1099462 129.7779,34.068583 129.682258,34.6924753 L112.662007,34.6924753 Z" id="Fill-31" fill="#3F3A45" mask="url(#mask-2)"></path>
            <path d="M132.971205,36.5142188 C136.423187,38.9113668 140.690344,39.9662009 143.567367,39.9662009 C147.06717,39.9662009 149.512138,38.4798691 149.512138,35.3153668 C149.512138,31.4797076 145.868317,30.9525686 141.361501,29.6102547 C136.375367,28.0761022 131.964748,25.8707928 131.964748,19.7814475 C131.964748,13.452443 136.615026,9.66516054 143.663008,9.66516054 C147.019349,9.66516054 151.046291,10.5281561 153.97169,12.2541471 L153.97169,18.391313 C150.519152,16.1376269 146.443833,15.1311695 143.615187,15.1311695 C140.355044,15.1311695 138.054093,16.4251067 138.054093,19.3499498 C138.054093,22.9937704 141.697358,23.4730888 145.868317,24.7675821 C150.99847,26.3501112 155.600927,28.6032413 155.600927,34.9800664 C155.600927,41.5003534 150.758811,45.4316538 143.51899,45.4316538 C140.115385,45.4316538 136.03951,44.5686583 132.971205,42.8904879 L132.971205,36.5142188 Z" id="Fill-32" fill="#673A95" mask="url(#mask-2)"></path>
            <path d="M160.66819,36.3701453 L160.66819,26.2538583 L156.544495,26.2538583 L156.544495,21.3155444 L160.66819,21.3155444 L160.66819,15.0349166 L166.468943,14.0279031 L166.468943,21.3155444 L173.133804,21.3155444 L173.133804,26.2538583 L166.468943,26.2538583 L166.468943,35.5555265 C166.468943,38.1917776 166.948818,40.397643 169.585625,40.397643 C170.832298,40.397643 172.174612,39.9177686 173.133804,39.3906296 L173.133804,44.3289435 C172.078414,44.9522798 170.160585,45.4315982 168.339509,45.4315982 C166.277661,45.4315982 164.071796,44.8082619 162.58602,43.1306475 C161.387168,41.8355982 160.66819,39.870504 160.66819,36.3701453" id="Fill-33" fill="#673A95" mask="url(#mask-2)"></path>
            <path d="M189.717275,39.390852 L189.717275,35.4111749 C188.661885,35.1236951 187.22393,34.9318565 186.073455,34.9318565 C183.675751,34.9318565 181.326979,35.6992108 181.326979,38.0001614 C181.326979,39.917991 183.00515,40.8293632 185.066441,40.8293632 C186.840809,40.8293632 188.5668,40.2054709 189.717275,39.390852 M178.162477,43.8492915 C176.532127,42.6509955 175.52567,40.7809865 175.52567,38.4322152 C175.52567,35.8432287 176.771787,33.9253991 178.546154,32.7265471 C180.319966,31.5282511 182.717114,31.0961973 185.162083,31.0961973 C186.792432,31.0961973 188.278208,31.2880359 189.717275,31.6238924 L189.717275,30.2332018 C189.717275,28.7946906 189.333598,27.7404126 188.5668,27.021435 C187.703248,26.2540807 186.360935,25.8704036 184.587123,25.8704036 C181.757921,25.8704036 179.312952,26.8295964 177.49132,27.9800717 L177.49132,22.7064574 C179.361329,21.6516233 182.093778,20.7886278 185.450118,20.7886278 C188.518423,20.7886278 191.251428,21.5076054 193.025239,22.9939372 C194.607213,24.3362511 195.518585,26.349722 195.518585,29.274565 L195.518585,38.3360179 C195.518585,39.6305112 195.997903,40.5413274 197.148378,40.5413274 C197.580432,40.5413274 198.059195,40.3973094 198.442872,40.2054709 L198.442872,44.7606637 C197.723894,45.0959641 196.716881,45.3361794 195.565849,45.3361794 C193.64802,45.3361794 191.826943,44.6650224 190.723733,43.1781345 L190.628091,43.1781345 C189.18958,44.3291659 186.744056,45.4318206 183.62793,45.4318206 C181.7101,45.4318206 179.745006,45.0003229 178.162477,43.8492915" id="Fill-34" fill="#673A95" mask="url(#mask-2)"></path>
            <path d="M220.189747,43.6576753 C218.032258,44.8565274 215.29981,45.432043 212.807021,45.432043 C205.231343,45.432043 199.765891,40.25407 199.765891,33.2060879 C199.765891,25.8222493 205.711218,20.7882942 213.093944,20.7882942 C215.63511,20.7882942 217.984994,21.4116305 219.80607,22.3224466 L219.80607,27.9802942 C217.744778,26.6374242 215.443272,25.8222493 213.190142,25.8222493 C208.635505,25.8222493 205.614465,29.0345722 205.614465,33.1582673 C205.614465,37.3770475 208.779523,40.3497112 213.285783,40.3497112 C215.779128,40.3497112 218.320294,39.4867157 220.189747,38.0003839 L220.189747,43.6576753 Z" id="Fill-35" fill="#673A95" mask="url(#mask-2)"></path>
            <polygon id="Fill-36" fill="#673A95" mask="url(#mask-2)" points="224.825178 8.27463677 230.626488 8.27463677 230.626488 31.4798744 230.722685 31.5282511 240.119439 21.3157668 247.023959 21.3157668 237.147331 31.8635516 247.934775 44.9041256 240.791152 44.9041256 230.722685 32.4868879 230.626488 32.5347085 230.626488 44.9041256 224.825178 44.9041256"></polygon>
            <polygon id="Fill-37" fill="#9C85BD" mask="url(#mask-2)" points="31.7725812 9.54088251 2.13880538 9.54088251 2.13880538 7.31777937 22.7055677 7.31777937 22.7055677 0.000111210762 0.000222421525 0.000111210762 0.000222421525 16.8585507 29.6339982 16.8585507 29.6339982 19.0816538 14.3013704 19.0816538 14.3013704 26.3987659 31.7725812 26.3987659"></polygon>
            <polygon id="Fill-38" fill="#673A95" mask="url(#mask-2)" points="31.77247 28.6221471 2.13869417 28.6221471 2.13869417 26.3990439 12.015878 26.3990439 12.015878 19.0813758 0.000111210762 19.0813758 0.000111210762 35.9398152 29.633887 35.9398152 29.633887 38.1629184 9.06712466 38.1629184 9.06712466 45.4800305 31.77247 45.4800305"></polygon>
        </g>
    </g>
</svg>