<?xml version="1.0" encoding="UTF-8" standalone="no"?>
<svg width="360px" height="70px" viewBox="0 0 360 70" version="1.1" xmlns="http://www.w3.org/2000/svg" xmlns:xlink="http://www.w3.org/1999/xlink">
    <!-- Generator: Sketch 3.8.3 (29802) - http://www.bohemiancoding.com/sketch -->
    <title>trademe</title>
    <desc>Created with Sketch.</desc>
    <defs>
        <polygon id="path-1" points="0 69.6740146 359.426496 69.6740146 359.426496 0 0 0"></polygon>
    </defs>
    <g id="Page-1" stroke="none" stroke-width="1" fill="none" fill-rule="evenodd">
        <g id="trademe">
            <path d="M145.593971,19.0493504 L137.430029,19.2123431 L137.430029,24.6810292 L146.105431,24.6810292 L145.593971,19.0493504 L145.593971,19.0493504 Z M145.540832,29.7455547 C144.425942,29.7455547 143.092365,29.7910292 141.53908,29.8809562 C139.984774,29.9703723 138.004847,30.1139489 135.597766,30.312708 C135.597766,31.2462117 135.64273,32.1674526 135.732657,33.073365 C135.822073,33.9818321 135.947766,34.8744599 136.110248,35.7553358 L144.893971,35.8897153 L145.216891,32.8986204 L155.967766,32.5757007 C155.46346,35.7916131 153.964336,38.3054818 151.467839,40.1188394 C148.970832,41.9342409 145.745723,42.8421971 141.795066,42.8421971 C136.783168,42.8421971 132.818204,41.5070876 129.899664,38.8404453 C126.981124,36.173292 125.520832,32.5757007 125.520832,28.0486934 C125.520832,23.3070876 126.931051,19.5086934 129.751489,16.6514672 C132.571416,13.7957737 136.325358,12.3671606 141.013314,12.3671606 C145.772803,12.3671606 149.549737,13.8366496 152.342584,16.773073 C155.135942,19.7100073 156.532876,23.7020511 156.532876,28.7497153 L156.532876,29.7455547 L145.540832,29.7455547 L145.540832,29.7455547 Z M109.923095,21.7446058 L100.251343,22.013365 L100.142511,33.3835109 L110.300686,33.3835109 L109.923095,21.7446058 L109.923095,21.7446058 Z M121.670321,7.89635766 L121.670321,9.94219708 L121.616672,21.4753358 L121.616672,23.953438 C121.616672,27.0973066 121.657036,30.1057737 121.738277,32.9788394 C121.818496,35.853438 121.940102,38.5292774 122.102073,41.0089124 C121.562511,40.9910292 120.826745,40.973146 119.89273,40.9547518 C118.311854,40.9179635 117.305285,40.9011022 116.874555,40.9011022 C116.281854,40.9011022 115.67127,40.9108102 115.042803,40.9286934 C114.413314,40.9465766 113.749591,40.973146 113.048569,41.0089124 L112.240759,38.852708 C111.306234,39.7882555 110.039591,40.5291314 108.441343,41.0758467 C106.842584,41.6240949 105.145212,41.8979635 103.349226,41.8979635 C99.001562,41.8979635 95.7647007,40.6675985 93.6355766,38.2063577 C91.5079854,35.7456277 90.4436788,32.0095693 90.4436788,26.9976715 C90.4436788,22.4538029 91.6648467,18.8792044 94.1076934,16.2754088 C96.5505401,13.6716131 99.891635,12.3671606 104.130978,12.3671606 C105.872803,12.3671606 107.458277,12.6507372 108.886891,13.2168686 C110.313971,13.7824891 111.575504,14.623 112.670978,15.7358467 C112.670978,12.9511752 112.591781,10.2441679 112.429299,7.61227007 C112.267839,4.98088321 112.015431,2.4440219 111.675139,0.000153284671 C111.872365,0.0195693431 112.14981,0.0374525547 112.510029,0.0553357664 C115.096964,0.181029197 116.920029,0.244386861 117.979737,0.244386861 C118.572438,0.244386861 119.649518,0.207087591 121.212511,0.136576642 C121.535942,0.136576642 121.796015,0.126868613 121.994774,0.107963504 C121.885942,1.25913139 121.805723,2.44862044 121.751051,3.6789854 C121.697912,4.90935036 121.670321,6.31548175 121.670321,7.89635766 L121.670321,7.89635766 Z M74.6747737,29.692927 C73.3095182,29.782854 71.9488613,29.9489124 70.5933139,30.1905912 C69.2367445,30.4322701 67.8765985,30.7602993 66.511854,31.1741679 L66.592073,36.1584745 L74.2976934,35.592854 C74.441781,34.5873066 74.5444818,33.6982555 74.6073285,32.9262117 C74.6701752,32.153146 74.701854,31.3719051 74.701854,30.5809562 L74.6747737,29.692927 L74.6747737,29.692927 Z M87.5261606,41.7901533 C87.0238978,41.7543869 86.3678394,41.7043139 85.5605401,41.6419781 C84.7511971,41.5786204 84.2576204,41.5474526 84.0782774,41.5474526 C83.4850657,41.5474526 82.6772555,41.6194964 81.6538248,41.762562 C80.6293723,41.9066496 79.2283504,42.1314672 77.4502482,42.4375255 L76.021635,39.3646788 C74.441781,40.4606642 72.6764526,41.3057737 70.7271825,41.8979635 C68.7789343,42.4901533 66.7709051,42.7870146 64.7061606,42.7870146 C61.832073,42.7870146 59.5772555,42.1411752 57.9432409,40.8464307 C56.3087153,39.5537299 55.4911971,37.7659197 55.4911971,35.4850438 C55.4911971,33.6900803 55.8912701,31.9559197 56.6903942,30.2851168 C57.4890073,28.6148248 58.4460146,27.5014672 59.5603942,26.9440219 C60.6548467,26.4054818 62.7931679,25.8756277 65.972292,25.353438 C69.1514161,24.8343139 72.851708,24.4204453 77.0731679,24.1148978 L77.0731679,23.173219 C77.0731679,22.6157737 77.0547737,22.0808102 77.0195182,21.5683285 C76.9827299,21.0573796 76.9198832,20.5857737 76.8304672,20.1550438 C75.4647007,19.7048978 74.0733869,19.3559197 72.6544818,19.103 C71.2350657,18.853146 69.9863066,18.7264307 68.9092263,18.7264307 C68.6752117,18.7264307 68.4549927,18.7310292 68.2485693,18.7407372 C68.042146,18.7504453 67.8311241,18.7621971 67.6155036,18.7811022 L67.5082044,22.5248248 C66.3580584,22.4001533 65.3029489,22.3056277 64.342365,22.2422701 C63.3812701,22.1799343 62.4697372,22.1487664 61.6072555,22.1487664 C60.9067445,22.1487664 60.1704672,22.1620511 59.3979124,22.1896423 C58.6253577,22.2157007 57.8354307,22.2468686 57.0271095,22.283146 L57.0271095,21.6904453 C57.0271095,18.9967226 58.4690073,16.7684745 61.3512701,15.0082555 C64.2345547,13.2480365 67.8668905,12.3671606 72.2503212,12.3671606 C76.9198832,12.3671606 80.4541168,13.2786934 82.852,15.102781 C85.2503942,16.9263577 86.4490803,19.6154818 86.4490803,23.173219 C86.4490803,24.4480365 86.4041168,25.982927 86.3141898,27.7794234 C86.2242628,29.5754088 86.1792993,30.7337299 86.1792993,31.2543869 C86.1792993,32.5317591 86.2692263,33.9174526 86.4490803,35.4181095 C86.6284234,36.9187664 86.9876204,39.0417591 87.5261606,41.7901533 L87.5261606,41.7901533 Z M52.9405401,24.0745328 C52.8679854,24.9635839 52.7611971,25.9205912 52.6165985,26.9440219 L43.5099562,26.9440219 L43.671927,20.8550438 L38.4985693,20.8550438 L39.4954307,41.6823431 C36.5860876,40.8750438 33.0201752,40.3983285 28.7992263,40.2537299 C28.4395182,40.2537299 28.161562,40.2455547 27.9638248,40.2271606 L28.4487153,22.4170146 L28.2330949,14.2004453 L36.0204672,14.2004453 L36.5048467,18.3769416 C37.0612701,16.4716131 38.1076934,14.9949708 39.6441168,13.9444599 C41.1790073,12.893438 43.0613431,12.3671606 45.2885693,12.3671606 C47.8208321,12.3671606 49.7476204,13.1448248 51.0679124,14.6981095 C52.3876934,16.2513942 53.0483504,18.5286934 53.0483504,21.5289854 C53.0483504,22.3367956 53.011562,23.1849708 52.9405401,24.0745328 L52.9405401,24.0745328 Z M21.1094453,40.8065766 C19.4125839,42.1268686 16.9554307,42.7870146 13.7410511,42.7870146 C11.6747737,42.7870146 9.8879854,42.513146 8.37864234,41.9648978 C6.87032117,41.4161387 5.58579562,40.5878905 4.52608759,39.4719781 C4.02280292,38.9518321 3.66360584,38.3954088 3.44849635,37.8016861 C3.23287591,37.2105182 3.12506569,36.3475255 3.12506569,35.2157737 L3.12506569,34.0574526 C3.12506569,32.1710292 3.2149927,30.2263577 3.39433577,28.223438 C3.57418978,26.2210292 3.88842336,23.8098613 4.33805839,20.9904453 L0.000102189781,20.5321241 L0.323021898,14.6311752 L5.01148905,14.7389854 L8.91820438,5.73964234 L14.2259416,5.47037226 L13.9030219,13.5254818 L22.281562,13.8499343 L21.7966715,21.2586934 L13.4441898,21.3675255 L13.0129489,35.592854 L18.1326569,35.6480365 L17.9165255,31.9017591 L23.4403942,31.9017591 C23.511927,32.3687664 23.5660876,32.8664307 23.602365,33.3967956 C23.6376204,33.9266496 23.6560146,34.4973796 23.6560146,35.1089854 C23.6560146,37.5875985 22.8073285,39.4867956 21.1094453,40.8065766 L21.1094453,40.8065766 Z" id="Fill-1" fill="#F1F1D3"></path>
            <path d="M238.053292,19.2169927 L229.88935,19.3784526 L229.88935,24.8486715 L238.56373,24.8486715 L238.053292,19.2169927 Z M237.99862,29.9131971 C236.884241,29.9131971 235.551175,29.9586715 233.998401,30.0480876 C232.444606,30.1380146 230.463146,30.2815912 228.056066,30.4793285 C228.056066,31.413854 228.10154,32.334073 228.191467,33.2399854 C228.280372,34.1484526 228.407088,35.0421022 228.568036,35.9219562 L237.35227,36.0568467 L237.67519,33.0652409 L248.425555,32.7423212 C247.92227,35.9577226 246.422635,38.4721022 243.926139,40.2859708 C241.429642,42.1003504 238.204022,43.0072847 234.253876,43.0072847 C229.242489,43.0072847 225.276504,41.674219 222.357964,39.0080876 C219.438912,36.3394015 217.980153,32.7423212 217.980153,28.2163358 C217.980153,23.473708 219.389861,19.6753139 222.210299,16.8185985 C225.029715,13.9634161 228.783657,12.5348029 233.471613,12.5348029 C238.232124,12.5348029 242.008547,14.0027591 244.801905,16.9407153 C247.594241,19.8776496 248.991175,23.8696934 248.991175,28.9173577 L248.991175,29.9131971 L237.99862,29.9131971 Z M203.903,41.3369927 C203.957672,40.6548759 203.993949,39.8961168 204.01081,39.0607153 C204.029204,38.2253139 204.039423,36.9458978 204.039423,35.2219562 C204.039423,34.8796204 204.025628,34.1975036 203.998547,33.1730511 C203.971467,32.1496204 203.921905,30.6765547 203.849861,28.7548759 L203.363949,21.6414453 L195.79373,21.4799854 L195.740591,41.0687445 C193.81738,40.9057518 192.121029,40.7815912 190.647453,40.6906423 C189.174898,40.6022482 187.935847,40.5567737 186.930299,40.5567737 C186.606869,40.5567737 186.143949,40.5700584 185.542051,40.5961168 C184.940153,40.623708 184.477745,40.6369927 184.154825,40.6369927 L184.100153,22.2612263 L176.179934,22.5304964 C176.072124,23.6448759 175.994971,24.8307883 175.950518,26.0872117 C175.905044,27.3451679 175.883073,28.7548759 175.883073,30.3173577 L175.883073,32.5803504 C175.918839,33.1367737 175.94592,33.743781 175.964314,34.3998394 C175.981686,35.0553869 175.990883,36.0476496 175.990883,37.3771387 C175.990883,38.4000584 175.985774,39.1685255 175.977088,39.6804964 C175.967891,40.1929781 175.954095,40.6548759 175.937234,41.0687445 C173.224606,41.1402774 171.051029,41.2077226 169.417526,41.2700584 C167.781978,41.3329051 166.31862,41.3916642 165.025409,41.4453139 C165.186869,39.8455328 165.307964,38.1083066 165.389204,36.2315912 C165.469934,34.3553869 165.509788,31.9329781 165.509788,28.9699854 C165.509788,25.7367007 165.483219,22.9745109 165.428547,20.6854599 C165.374898,18.3958978 165.294679,16.2897664 165.186869,14.3680876 L174.132051,14.3680876 L174.347672,17.7352409 C175.514679,16.0828321 177.010737,14.8034161 178.833803,13.8949489 C180.655336,12.9895474 182.636285,12.5348029 184.774095,12.5348029 C186.786212,12.5348029 188.560226,13.0058978 190.096139,13.9491095 C191.632051,14.8918102 192.704022,16.1727591 193.315628,17.7894015 C194.285409,16.1007153 195.668036,14.8299854 197.464022,13.9767007 C199.260518,13.1234161 201.469861,12.6972847 204.093073,12.6972847 C207.415774,12.6972847 209.993,13.5587445 211.824752,15.2831971 C213.657015,17.0076496 214.590518,19.4586715 214.627307,22.6383066 L214.842927,41.6609343 L203.903,41.3369927 Z" id="Fill-3" fill="#F1F1D3"></path>
            <path d="M29.8316496,52.906 L32.357781,62.3887007 C32.5412117,63.1024964 32.6326715,63.7611095 32.6326715,63.7611095 L32.6694599,63.7611095 C32.6694599,63.7611095 32.7241314,63.0841022 32.907562,62.3887007 L35.2870511,52.906 L37.1540584,52.906 L33.7674891,65.8299416 L31.6623796,65.8299416 L29.4290219,57.445781 C29.2093139,56.6216204 29.0442774,55.6150511 29.0442774,55.6150511 L29.008,55.6150511 C29.008,55.6150511 28.8429635,56.6216204 28.6237664,57.445781 L26.3904088,65.8299416 L24.2852993,65.8299416 L20.9896788,52.906 L22.8571971,52.906 L25.1452263,62.3887007 C25.3102628,63.0841022 25.3833285,63.7611095 25.3833285,63.7611095 L25.4201168,63.7611095 C25.4201168,63.7611095 25.5115766,63.1024964 25.6944964,62.3887007 L28.2211387,52.906 L29.8316496,52.906 Z" id="Fill-5" fill="#F1F1D3"></path>
            <path d="M39.1295401,52.906 L40.9055985,52.906 L40.9055985,57.6470949 C40.9055985,58.0865109 40.8688102,58.416073 40.8688102,58.416073 L40.9055985,58.416073 C41.3082263,57.5188467 42.4798321,56.3472409 44.3284453,56.3472409 C46.5071314,56.3472409 47.5137007,57.5372409 47.5137007,59.8988467 L47.5137007,65.8299416 L45.7381533,65.8299416 L45.7381533,60.3014745 C45.7381533,59.0021314 45.4632628,57.9766569 43.981,57.9766569 C42.5891752,57.9766569 41.4364745,58.9285547 41.0517299,60.2646861 C40.9418759,60.6310365 40.9055985,61.0520584 40.9055985,61.4914745 L40.9055985,65.8299416 L39.1295401,65.8299416 L39.1295401,52.906 Z" id="Fill-7" fill="#F1F1D3"></path>
            <path d="M56.3543431,60.1181971 C56.2996715,58.5260803 55.3109854,57.7571022 54.1209854,57.7571022 C52.7664599,57.7571022 51.6679197,58.598635 51.4119343,60.1181971 L56.3543431,60.1181971 Z M54.1577737,56.3473942 C56.775365,56.3473942 58.1666788,58.2879781 58.1666788,60.6858613 C58.1666788,60.9239635 58.1114964,61.4548394 58.1114964,61.4548394 L51.3567518,61.4548394 C51.4482117,63.4868832 52.894708,64.5123577 54.5420073,64.5123577 C56.134635,64.5123577 57.2878467,63.4317007 57.2878467,63.4317007 L58.0200365,64.7315547 C58.0200365,64.7315547 56.6471168,66.049292 54.4321533,66.049292 C51.5217883,66.049292 49.5260219,63.9441825 49.5260219,61.1983431 C49.5260219,58.2511898 51.5217883,56.3473942 54.1577737,56.3473942 L54.1577737,56.3473942 Z" id="Fill-9" fill="#F1F1D3"></path>
            <path d="M60.3259489,56.567 L62.0468248,56.567 L62.0468248,58.1780219 C62.0468248,58.5622555 62.0100365,58.8739343 62.0100365,58.8739343 L62.0468248,58.8739343 C62.4673358,57.5188978 63.5479927,56.457146 64.9755839,56.457146 C65.2136861,56.457146 65.4333942,56.4934234 65.4333942,56.4934234 L65.4333942,58.2510876 C65.4333942,58.2510876 65.195292,58.1959051 64.9209124,58.1959051 C63.7855839,58.1959051 62.7422263,59.0021825 62.3212044,60.3745912 C62.1566788,60.9054672 62.1014964,61.4731314 62.1014964,62.0407956 L62.1014964,65.8299927 L60.3259489,65.8299927 L60.3259489,56.567 Z" id="Fill-11" fill="#F1F1D3"></path>
            <path d="M73.3224453,60.1181971 C73.2677737,58.5260803 72.2790876,57.7571022 71.0890876,57.7571022 C69.734562,57.7571022 68.6360219,58.598635 68.3800365,60.1181971 L73.3224453,60.1181971 Z M71.1258759,56.3473942 C73.7434672,56.3473942 75.134781,58.2879781 75.134781,60.6858613 C75.134781,60.9239635 75.0795985,61.4548394 75.0795985,61.4548394 L68.324854,61.4548394 C68.4163139,63.4868832 69.8628102,64.5123577 71.5101095,64.5123577 C73.1027372,64.5123577 74.2559489,63.4317007 74.2559489,63.4317007 L74.9881387,64.7315547 C74.9881387,64.7315547 73.615219,66.049292 71.4002555,66.049292 C68.4898905,66.049292 66.4941241,63.9441825 66.4941241,61.1983431 C66.4941241,58.2511898 68.4898905,56.3473942 71.1258759,56.3473942 L71.1258759,56.3473942 Z" id="Fill-13" fill="#F1F1D3"></path>
            <polygon id="Fill-15" fill="#F1F1D3" points="82.3640949 52.906 84.1764307 52.906 84.1764307 58.3430073 86.0986204 58.3430073 89.3569416 52.906 91.3521971 52.906 87.5997883 59.0384088 87.5997883 59.0746861 91.5902993 65.8299416 89.5398613 65.8299416 86.0986204 59.8988467 84.1764307 59.8988467 84.1764307 65.8299416 82.3640949 65.8299416"></polygon>
            <mask id="mask-2" fill="white">
                <use xlink:href="#path-1"></use>
            </mask>
            <g id="Clip-18"></g>
            <path d="M93.4014599,65.830146 L95.1770073,65.830146 L95.1770073,56.5671533 L93.4014599,56.5671533 L93.4014599,65.830146 Z M93.3830657,54.7185401 L95.1770073,54.7185401 L95.1770073,52.9062044 L93.3830657,52.9062044 L93.3830657,54.7185401 Z" id="Fill-17" fill="#F1F1D3" mask="url(#mask-2)"></path>
            <path d="M96.8787737,56.567 L98.7641752,56.567 L100.686365,63.0657591 C100.833007,63.5414526 100.906073,64.0539343 100.924467,64.0539343 L100.961255,64.0539343 C100.961255,64.0539343 101.052715,63.5414526 101.199358,63.0657591 L103.212496,56.5853942 L104.841912,56.5853942 L106.837168,63.0657591 C106.98381,63.5414526 107.093664,64.0539343 107.093664,64.0539343 L107.129942,64.0539343 C107.129942,64.0539343 107.203518,63.5414526 107.350161,63.0657591 L109.290745,56.567 L111.157752,56.567 L108.17381,65.8299927 L106.214832,65.8299927 L104.292642,59.8805036 C104.146511,59.4048102 104.036657,58.8739343 104.036657,58.8739343 L103.999869,58.8739343 C103.999869,58.8739343 103.890015,59.4048102 103.743883,59.8805036 L101.839577,65.8299927 L99.8627153,65.8299927 L96.8787737,56.567 Z" id="Fill-19" fill="#F1F1D3" mask="url(#mask-2)"></path>
            <path d="M112.858394,65.830146 L114.634453,65.830146 L114.634453,56.5671533 L112.858394,56.5671533 L112.858394,65.830146 Z M112.84,54.7185401 L114.633942,54.7185401 L114.633942,52.9062044 L112.84,52.9062044 L112.84,54.7185401 Z" id="Fill-20" fill="#F1F1D3" mask="url(#mask-2)"></path>
            <path d="M117.526015,63.431854 C117.526015,63.431854 118.569372,64.512 120.180394,64.512 C120.949372,64.512 121.71835,64.1088613 121.71835,63.3582774 C121.71835,61.6557956 116.95835,62.0037518 116.95835,58.9835328 C116.95835,57.2994453 118.459518,56.3475474 120.308642,56.3475474 C122.340175,56.3475474 123.292584,57.3725109 123.292584,57.3725109 L122.578277,58.7091533 C122.578277,58.7091533 121.754628,57.8855036 120.290248,57.8855036 C119.52127,57.8855036 118.770686,58.2145547 118.770686,59.0198102 C118.770686,60.6860146 123.530175,60.3196642 123.530175,63.3582774 C123.530175,64.8962336 122.212438,66.0494453 120.180394,66.0494453 C117.910248,66.0494453 116.665577,64.6949197 116.665577,64.6949197 L117.526015,63.431854 Z" id="Fill-21" fill="#F1F1D3" mask="url(#mask-2)"></path>
            <path d="M134.659051,64.5300876 C136.123431,64.5300876 137.331825,63.3222044 137.331825,61.2170949 C137.331825,59.2029343 136.251679,57.9030803 134.713723,57.9030803 C133.32292,57.9030803 132.04146,58.8738832 132.04146,61.2349781 C132.04146,62.8822774 132.901898,64.5300876 134.659051,64.5300876 L134.659051,64.5300876 Z M130.320584,52.906 L132.096131,52.906 L132.096131,57.1341022 C132.096131,57.5924234 132.059854,57.9214745 132.059854,57.9214745 L132.096131,57.9214745 C132.096131,57.9214745 132.883504,56.3472409 135.06219,56.3472409 C137.551533,56.3472409 139.125766,58.3241022 139.125766,61.1981898 C139.125766,64.145854 137.350219,66.0496496 134.915547,66.0496496 C132.846715,66.0496496 132.004672,64.4565109 132.004672,64.4565109 L131.967883,64.4565109 C131.967883,64.4565109 132.004672,64.7497956 132.004672,65.1529343 L132.004672,65.8299416 L130.320584,65.8299416 L130.320584,52.906 Z" id="Fill-22" fill="#F1F1D3" mask="url(#mask-2)"></path>
            <path d="M141.174876,56.567 L142.950423,56.567 L142.950423,62.0954672 C142.950423,63.376927 143.20692,64.4018905 144.689693,64.4018905 C146.575095,64.4018905 147.691518,62.7361971 147.691518,60.9054672 L147.691518,56.567 L149.467577,56.567 L149.467577,65.8299927 L147.746701,65.8299927 L147.746701,64.6037153 C147.746701,64.2189708 147.783489,63.9261971 147.783489,63.9261971 L147.746701,63.9261971 C147.362467,64.8413066 146.154073,66.0497007 144.341737,66.0497007 C142.255022,66.0497007 141.174876,64.9511606 141.174876,62.4980949 L141.174876,56.567 Z" id="Fill-23" fill="#F1F1D3" mask="url(#mask-2)"></path>
            <path d="M151.571511,67.7519781 C151.571511,67.7519781 152.083993,68.1367226 152.651657,68.1367226 C153.365453,68.1367226 153.969394,67.6237299 154.31735,66.7821971 L154.775161,65.7199343 L150.893993,56.5667956 L152.889759,56.5667956 L155.214066,62.6266496 C155.397496,63.1023431 155.562022,63.743073 155.562022,63.743073 L155.59881,63.743073 C155.59881,63.743073 155.744942,63.1207372 155.909978,62.6445328 L158.16173,56.5667956 L160.08392,56.5667956 L155.744942,67.4959927 C155.177788,68.9235839 154.04246,69.6741679 152.743117,69.6741679 C151.699248,69.6741679 150.949175,69.1065036 150.949175,69.1065036 L151.571511,67.7519781 Z" id="Fill-24" fill="#F1F1D3" mask="url(#mask-2)"></path>
            <path d="M169.070285,64.6219051 C170.571453,64.6219051 171.541745,63.0471606 171.541745,61.6742409 L171.541745,61.3814672 L171.083934,61.3814672 C169.747803,61.3814672 167.331526,61.472927 167.331526,63.1391314 C167.331526,63.8892044 167.917073,64.6219051 169.070285,64.6219051 M171.120723,60.0453358 L171.52335,60.0453358 L171.52335,59.8808102 C171.52335,58.3607372 170.662912,57.8482555 169.491307,57.8482555 C168.063715,57.8482555 166.909993,58.7454818 166.909993,58.7454818 L166.177803,57.4456277 C166.177803,57.4456277 167.514445,56.3475985 169.637949,56.3475985 C171.981161,56.3475985 173.298898,57.6285474 173.298898,59.9717591 L173.298898,65.8297883 L171.651599,65.8297883 L171.651599,64.9514672 C171.651599,64.5299343 171.688387,64.2187664 171.688387,64.2187664 L171.651599,64.2187664 C171.651599,64.2187664 170.901015,66.0494964 168.686051,66.0494964 C167.093423,66.0494964 165.537073,65.0797153 165.537073,63.2300803 C165.537073,60.1735839 169.564883,60.0453358 171.120723,60.0453358" id="Fill-25" fill="#F1F1D3" mask="url(#mask-2)"></path>
            <path d="M175.952613,56.567 L177.673489,56.567 L177.673489,57.7932774 C177.673489,58.1596277 177.636701,58.4713066 177.636701,58.4713066 L177.673489,58.4713066 C178.039328,57.6650292 179.137869,56.347292 181.151518,56.347292 C183.330204,56.347292 184.336774,57.537292 184.336774,59.8988978 L184.336774,65.8299927 L182.561226,65.8299927 L182.561226,60.3015255 C182.561226,59.0021825 182.286336,57.976708 180.804073,57.976708 C179.394365,57.976708 178.259547,58.9102117 177.874803,60.2463431 C177.764949,60.6126934 177.728672,61.0337153 177.728672,61.4915255 L177.728672,65.8299927 L175.952613,65.8299927 L175.952613,56.567 Z" id="Fill-26" fill="#F1F1D3" mask="url(#mask-2)"></path>
            <path d="M190.816015,64.5121533 C192.188934,64.5121533 193.488788,63.5418613 193.488788,61.1802555 C193.488788,59.5324453 192.62835,57.885146 190.870686,57.885146 C189.406307,57.885146 188.197912,59.0935401 188.197912,61.1986496 C188.197912,63.2122993 189.278058,64.5121533 190.816015,64.5121533 M190.577912,56.3477007 C192.71981,56.3477007 193.433606,57.8120803 193.433606,57.8120803 L193.470394,57.8120803 C193.470394,57.8120803 193.433606,57.5377007 193.433606,57.1892336 L193.433606,52.9059489 L195.209664,52.9059489 L195.209664,65.8298905 L193.525066,65.8298905 L193.525066,64.9510584 C193.525066,64.585219 193.54346,64.3292336 193.54346,64.3292336 L193.507182,64.3292336 C193.507182,64.3292336 192.756599,66.0495985 190.468058,66.0495985 C187.960321,66.0495985 186.386088,64.0727372 186.386088,61.1986496 C186.386088,58.2509854 188.124847,56.3477007 190.577912,56.3477007" id="Fill-27" fill="#F1F1D3" mask="url(#mask-2)"></path>
            <path d="M202.804869,63.431854 C202.804869,63.431854 203.848226,64.512 205.459248,64.512 C206.228226,64.512 206.997204,64.1088613 206.997204,63.3582774 C206.997204,61.6557956 202.237204,62.0037518 202.237204,58.9835328 C202.237204,57.2994453 203.738372,56.3475474 205.587496,56.3475474 C207.619029,56.3475474 208.571438,57.3725109 208.571438,57.3725109 L207.857131,58.7091533 C207.857131,58.7091533 207.033482,57.8855036 205.569102,57.8855036 C204.800124,57.8855036 204.04954,58.2145547 204.04954,59.0198102 C204.04954,60.6860146 208.809029,60.3196642 208.809029,63.3582774 C208.809029,64.8962336 207.491292,66.0494453 205.459248,66.0494453 C203.189102,66.0494453 201.944431,64.6949197 201.944431,64.6949197 L202.804869,63.431854 Z" id="Fill-28" fill="#F1F1D3" mask="url(#mask-2)"></path>
            <path d="M217.082723,60.1181971 C217.028051,58.5260803 216.039365,57.7571022 214.849365,57.7571022 C213.494839,57.7571022 212.396299,58.598635 212.140314,60.1181971 L217.082723,60.1181971 Z M214.886153,56.3473942 C217.503745,56.3473942 218.895058,58.2879781 218.895058,60.6858613 C218.895058,60.9239635 218.839876,61.4548394 218.839876,61.4548394 L212.085131,61.4548394 C212.176591,63.4868832 213.623088,64.5123577 215.270387,64.5123577 C216.863015,64.5123577 218.016226,63.4317007 218.016226,63.4317007 L218.748416,64.7315547 C218.748416,64.7315547 217.375496,66.049292 215.160533,66.049292 C212.250168,66.049292 210.254401,63.9441825 210.254401,61.1983431 C210.254401,58.2511898 212.250168,56.3473942 214.886153,56.3473942 L214.886153,56.3473942 Z" id="Fill-29" fill="#F1F1D3" mask="url(#mask-2)"></path>
            <path d="M220.944066,52.906 L222.720124,52.906 L222.720124,62.9921314 C222.720124,64.1090657 223.159029,64.3103796 223.708299,64.3103796 C223.872825,64.3103796 224.019467,64.2919854 224.019467,64.2919854 L224.019467,65.866219 C224.019467,65.866219 223.745088,65.9035182 223.43392,65.9035182 C222.426839,65.9035182 220.944066,65.6281168 220.944066,63.3038102 L220.944066,52.906 Z" id="Fill-30" fill="#F1F1D3" mask="url(#mask-2)"></path>
            <path d="M225.79481,52.906 L227.570869,52.906 L227.570869,62.9921314 C227.570869,64.1090657 228.009774,64.3103796 228.559044,64.3103796 C228.723569,64.3103796 228.870212,64.2919854 228.870212,64.2919854 L228.870212,65.866219 C228.870212,65.866219 228.595832,65.9035182 228.284664,65.9035182 C227.277584,65.9035182 225.79481,65.6281168 225.79481,63.3038102 L225.79481,52.906 Z" id="Fill-31" fill="#F1F1D3" mask="url(#mask-2)"></path>
            <path d="M302.671518,55.0994015 L302.671518,55.5597664 C302.613781,55.4851679 302.613781,55.174 302.671518,55.0994015" id="Fill-32" fill="#F1F1D3" mask="url(#mask-2)"></path>
            <path d="M310.098774,47.4246423 C310.498336,46.9847153 310.917825,46.5544964 311.361839,46.1615766 C310.951547,46.5917956 310.536146,47.0112847 310.098774,47.4246423" id="Fill-33" fill="#F1F1D3" mask="url(#mask-2)"></path>
            <path d="M307.816672,45.424073 C308.095139,45.1026861 308.385869,44.8150219 308.697547,44.5227591 C308.420613,44.8410803 308.121197,45.1425401 307.816672,45.424073" id="Fill-34" fill="#F1F1D3" mask="url(#mask-2)"></path>
            <path d="M296.675788,46.6053869 C296.801482,46.4464818 296.935861,46.323854 297.085058,46.1956058 C296.969584,46.3478686 296.831117,46.4802044 296.675788,46.6053869" id="Fill-35" fill="#F1F1D3" mask="url(#mask-2)"></path>
            <path d="M303.033015,56.4405401 C303.188854,56.562146 303.32119,56.7041898 303.449438,56.8401022 C303.290533,56.7307591 303.152066,56.5892263 303.033015,56.4405401" id="Fill-36" fill="#F1F1D3" mask="url(#mask-2)"></path>
            <path d="M314.617912,47.302781 C314.749737,47.1362117 314.916307,46.9773066 315.088496,46.8245328 C314.952584,47.0043869 314.79419,47.1638029 314.617912,47.302781" id="Fill-37" fill="#F1F1D3" mask="url(#mask-2)"></path>
            <path d="M315.492095,46.4252774 C315.637715,46.2530876 315.775672,46.1038905 315.94173,45.9761533 C315.809905,46.138635 315.664796,46.2873212 315.492095,46.4252774" id="Fill-38" fill="#F1F1D3" mask="url(#mask-2)"></path>
            <path d="M287.838058,11.3398978 C288.003606,11.258146 288.335212,11.3327445 288.575358,11.3025985 C288.396015,11.3940584 288.061343,11.3189489 287.838058,11.3398978" id="Fill-39" fill="#F1F1D3" mask="url(#mask-2)"></path>
            <path d="M289.160803,11.3025985 C289.32073,11.3327445 289.588467,11.258146 289.67635,11.3398978 C289.519489,11.3189489 289.26708,11.3940584 289.160803,11.3025985" id="Fill-40" fill="#F1F1D3" mask="url(#mask-2)"></path>
            <path d="M302.476387,55.0756934 L302.476387,55.5360584 C302.41865,55.4614599 302.41865,55.150292 302.476387,55.0756934" id="Fill-41" fill="#F1F1D3" mask="url(#mask-2)"></path>
            <path d="M354.518321,21.8198686 C354.100876,21.7503796 353.681898,21.6895766 353.26292,21.6282628 C349.915182,21.1367299 346.537299,20.8204526 343.152774,20.7627153 C339.760584,20.7054891 336.358686,20.9078248 332.997664,21.3702336 C331.434672,21.5853431 329.879343,21.8587007 328.334745,22.1816204 C327.588248,22.3374599 326.843796,22.5050511 326.101898,22.6833723 C325.735547,22.7707445 325.370219,22.8611825 325.005401,22.9536642 C324.816861,23.0016934 324.628321,23.0497226 324.439781,23.0987737 C324.348321,23.1227883 324.034599,23.1524234 323.969197,23.2208905 C324.344234,21.6543212 324.237956,19.6590657 323.769927,18.2590657 C323.675401,17.9780438 323.353504,17.4997956 323.587518,17.6290657 C323.587007,17.6188467 323.584453,17.6096496 323.584453,17.5994307 C323.585474,17.6009635 323.586496,17.6024964 323.587518,17.6035182 C324.501606,17.7026423 345.317664,18.2365839 349.397591,19.1542482 C351.820511,19.6989197 353.315547,20.2016934 354.798321,21.0519124 C355.195328,21.2792847 354.97,21.8914015 354.518321,21.8198686 M318.292044,22.7687007 C316.589051,22.9209635 315.096569,21.7534453 314.973942,19.9891387 L314.973942,19.5190657 C315.026058,17.1181168 317.940511,15.9531533 319.805985,17.3311825 C319.92708,17.416 320.138102,17.5043942 320.11,17.6597226 C318.722263,17.0435182 317.372336,18.1435912 317.372336,19.4035912 C317.372336,21.325781 319.877007,21.9051971 320.886131,20.5874599 C320.466131,21.7866569 319.653723,22.6465839 318.292044,22.7687007 M270.524453,56.6277518 C270.277153,56.7493577 269.965985,56.8443942 269.565912,56.8576788 C269.50562,56.9322774 269.17708,56.9322774 269.123431,56.8576788 C267.582409,56.7907445 266.498686,55.8970949 265.276496,55.1787007 C264.787007,54.8879708 264.289343,54.6100146 263.693066,54.2508175 C263.222482,53.9590657 262.535766,53.3438832 262.025839,53.3975328 C261.53635,53.4516934 261.420876,54.156292 261.177153,54.6508905 C259.620292,57.7451971 257.690438,60.7178978 254.819416,62.5016204 C254.726423,62.5593577 254.602774,62.4822044 254.613504,62.3738832 C254.777007,60.7480438 255.481095,59.5769489 256.265401,58.266365 C256.77635,57.3992847 257.396131,56.4305255 258.032263,55.5103066 C258.090511,55.4091387 258.648978,54.6912555 258.218759,54.5011825 C257.85292,54.346365 257.204015,55.3135912 257.074234,55.4694307 C256.691533,55.8970949 256.461095,56.2419854 256.112628,56.5741022 C255.996642,56.7089927 255.879635,56.8300876 255.744745,56.9465839 C255.705912,57.0411095 255.598613,57.0676788 255.557226,57.1627153 C255.124453,57.616438 254.684015,58.076292 254.227226,58.5034453 C253.016277,59.6372409 251.740949,60.7010365 250.280146,61.5711825 C250.171825,61.635562 250.033358,61.5303066 250.068102,61.4087007 C250.709343,59.166146 252.105766,57.395708 253.634526,55.9507445 C253.745912,55.8092117 253.864453,55.6865839 254.007518,55.5787737 C254.237445,55.3815474 254.517445,55.1250511 254.857226,54.8327883 C255.377883,54.4204526 256.207664,54.0750511 255.669635,53.1747591 C254.839854,52.9984818 254.545036,53.4920584 254.007518,53.9054161 C252.003577,55.4714745 249.832555,56.7917664 247.222628,57.6741752 C247.066277,57.7273139 246.923212,57.5479708 247.01365,57.4089927 C247.657956,56.4151971 248.433577,55.5424964 249.236788,54.6912555 C249.426861,54.4608175 249.63635,54.2508175 249.866788,54.0612555 C249.960803,54.0336642 249.987372,53.9192117 250.090073,53.8788467 C250.19073,53.7301606 250.313358,53.6141752 250.448759,53.5068759 C252.305036,51.7354161 255.309927,49.7212555 257.846788,48.1914745 C258.715912,47.666219 259.813431,47.0735182 260.876204,47.0035182 C262.40854,46.8900876 262.760073,48.0887737 262.641533,49.4836642 C262.60219,49.9465839 262.841314,50.3875328 263.249562,50.6092847 C264.278613,51.1682628 265.414453,51.7568759 266.498686,52.3347591 C266.92635,52.5381168 267.487372,52.9100876 267.975328,52.8426423 C268.601752,52.7338102 268.82146,51.8815474 269.052409,51.3225693 C269.322701,50.6522044 269.556715,50.1141752 269.789708,49.5076788 C271.066058,50.265927 272.393504,50.9500876 274.004526,51.3629343 C273.281022,53.2697956 272.237153,55.645708 270.524453,56.6277518 M359.285474,22.5602336 C358.944161,22.2199416 358.582409,21.9000876 358.204307,21.6011825 C356.797664,20.4888467 355.178978,19.6697956 353.502044,19.0495036 C351.612044,18.3505255 349.637226,17.8937372 347.650657,17.5692847 C345.449489,17.2100876 343.223796,17.0138832 340.99708,16.9030073 C339.824964,16.8447591 338.651825,16.8110365 337.478175,16.7946861 C336.238102,16.7773139 334.99854,16.6884088 333.757445,16.6822774 C331.296204,16.6700146 328.61781,16.5341022 326.362993,16.2776058 C325.560803,16.1784818 324.701387,16.1784818 324.06781,15.9383358 C323.536934,15.7385547 321.81708,12.0745401 316.72854,12.3141752 C312.454964,12.5149781 309.908394,15.6424964 309.903796,15.646073 C309.903796,15.646073 309.488905,15.615927 308.502263,15.2168759 C307.951971,14.9946131 307.397591,14.7810365 306.840146,14.576146 C304.836204,13.8408905 302.788321,13.2246861 300.709781,12.7367299 C298.459562,12.2078978 296.175109,11.8287737 293.87635,11.5922044 C292.115109,11.4113285 290.345182,11.2989197 288.575255,11.3081168 C287.816496,11.3122044 287.057737,11.3382628 286.299489,11.3914015 C284.16219,11.5400876 282.033577,11.8696496 279.968321,12.4444672 C278.145766,12.9518394 276.375328,13.6523504 274.718321,14.5679708 C273.939635,14.9981898 273.186496,15.4754161 272.465036,15.9965839 C271.790584,16.4840292 271.013942,17.0082628 270.459562,17.6341752 C270.247007,17.8748321 270.029343,18.1016934 269.789708,18.3050511 C267.430657,20.945635 265.568759,23.9985547 265.053212,28.3293577 C264.587737,32.2820584 265.348029,35.6308175 266.37708,38.4987737 C266.418978,38.1395766 266.457299,37.8927883 266.513504,37.5943942 C266.669854,36.7595036 266.866569,36.1478978 267.12,35.3375328 C267.25438,34.9083358 267.414818,34.5087737 267.58292,34.0918394 C267.727007,33.735708 268.073431,33.5543212 268.143942,33.5599416 C268.213942,33.5650511 268.280876,33.6447591 268.205766,33.916073 C268.02438,34.5711095 267.727007,35.9777518 267.630949,36.7584818 C267.537445,37.5218394 267.416861,38.2816204 267.326934,39.0454891 C267.041825,41.4704526 266.918175,43.9245401 267.543577,46.3081168 C267.735182,47.0382628 267.984526,47.7551241 268.306423,48.4382628 C267.957445,49.2941022 267.69073,50.246 267.352482,51.1028613 C266.227883,50.425854 265.047591,49.7953431 263.990438,49.0631533 C263.950073,47.0893577 263.245985,45.6898686 261.319197,45.6898686 L260.956934,45.6898686 C258.878394,45.6898686 257.764015,46.7444672 256.363504,47.6278978 C253.499124,49.4284818 250.906058,51.4799416 248.384015,53.5043212 C248.125985,53.7950511 247.851095,54.0602336 247.564453,54.3182628 C246.656496,55.3948321 245.780219,56.4918394 245.492555,58.2009635 C245.444015,58.4886277 245.632555,58.7665839 245.920219,58.8171679 C246.676423,58.9500146 248.152044,59.0573139 249.236788,58.3941022 C248.647153,59.6673869 248.121387,61.266146 248.228175,63.0892117 C248.242482,63.3324234 248.460146,63.5046131 248.700292,63.4632263 C250.549416,63.1413285 251.970365,62.2691387 253.224745,61.4950511 C253.000949,62.3621314 252.876788,63.5838102 253.126642,64.4841022 C253.194088,64.7278248 253.462847,64.8586277 253.687153,64.7431533 C255.568467,63.7779708 257.279124,62.3917664 258.739416,60.9340292 C258.842117,60.805781 258.959124,60.6693577 259.105255,60.575854 C260.430146,59.0854161 261.576715,57.4135912 262.43,55.4694307 C263.66854,56.0718394 264.864161,56.7227883 266.211022,57.3180438 C267.508321,57.8933723 269.189854,58.3067299 270.751314,57.6634453 C272.060876,57.0814745 272.798686,55.9911095 273.561022,54.8327883 C274.316204,53.6887737 275.023869,52.5243212 275.784672,51.4339562 C277.255182,51.096219 278.637299,50.4973869 279.845182,49.8515474 C280.160438,49.6395036 280.986131,48.9272409 281.070949,48.8429343 C281.316204,48.5976788 281.571168,48.3130803 281.808248,48.0606715 C282.755036,47.0515474 283.213358,46.3111825 283.899051,45.1104526 C284.301679,44.405854 284.602117,43.6506715 284.929124,42.9097956 C285.124818,42.4678248 285.320511,42.0253431 285.515693,41.5833723 C285.703723,41.1582628 285.861095,40.7009635 286.078248,40.2927153 C286.219781,39.9825693 286.386861,40.0290657 286.386861,40.0290657 C286.386861,40.0290657 286.195255,42.1367299 285.610219,43.8029343 C285.160073,45.0838832 284.541314,46.2580438 283.853577,47.4245401 C283.647664,47.7735182 283.161752,48.3866569 283.188321,48.4244672 C283.214891,48.4622774 284.451387,48.2727153 285.146788,48.1751241 C285.641898,48.1051241 286.021533,48.0218394 286.457372,47.9497956 C287.011241,47.6232993 287.921241,47.0474599 288.569124,46.6054891 C290.340584,45.3970949 291.350219,44.6495766 293.288759,42.9481168 C293.936131,42.3799416 295.098029,41.3626423 296.180219,40.1915474 C297.001825,39.3019854 297.804015,38.3914745 298.485109,37.3900146 C299.160073,36.3977518 299.96073,35.4974599 300.658175,34.5210365 C300.943796,34.1214745 301.212044,33.7096496 301.450146,33.2799416 C302.55073,31.2928613 304.858686,30.0338832 306.771679,28.896 C308.639708,27.7851971 310.911387,27.5230803 312.968978,28.2246131 C313.935182,28.5536642 315.007153,28.8285547 316.268175,28.8285547 L316.667226,28.8285547 C320.442628,28.8285547 322.15073,26.8777518 324.196569,25.005635 C324.493942,24.7246131 335.777226,21.486219 343.585547,22.1213285 C343.717372,22.1489197 343.93708,22.0712555 344.00146,22.1596496 C349.277007,22.2439562 354.114161,22.7794307 358.898175,23.366 C359.344745,23.4206715 359.603796,22.8780438 359.285474,22.5602336" id="Fill-42" fill="#F1F1D3" mask="url(#mask-2)"></path>
            <path d="M309.903642,47.4009343 C310.303204,46.9610073 310.722693,46.5307883 311.166708,46.1378686 C310.756416,46.5680876 310.341015,46.9875766 309.903642,47.4009343" id="Fill-43" fill="#F1F1D3" mask="url(#mask-2)"></path>
            <path d="M307.62154,45.400365 C307.900007,45.0789781 308.190737,44.7913139 308.502416,44.4990511 C308.225482,44.8173723 307.926066,45.1188321 307.62154,45.400365" id="Fill-44" fill="#F1F1D3" mask="url(#mask-2)"></path>
            <path d="M302.837883,56.4168321 C302.993723,56.538438 303.126058,56.6804818 303.254307,56.8163942 C303.095401,56.7070511 302.956934,56.5655182 302.837883,56.4168321" id="Fill-45" fill="#F1F1D3" mask="url(#mask-2)"></path>
            <path d="M314.422781,47.279073 C314.554606,47.1125036 314.721175,46.9535985 314.893365,46.8008248 C314.757453,46.9806788 314.599058,47.1400949 314.422781,47.279073" id="Fill-46" fill="#F1F1D3" mask="url(#mask-2)"></path>
            <path d="M315.296964,46.4015693 C315.442584,46.2293796 315.58054,46.0801825 315.747109,45.9524453 C315.614774,46.114927 315.469664,46.2636131 315.296964,46.4015693" id="Fill-47" fill="#F1F1D3" mask="url(#mask-2)"></path>
            <path d="M319.463956,47.9916934 C319.096584,48.5424964 318.584102,49.0672409 318.14673,49.5490657 C318.00162,49.7350511 317.825854,49.9077518 317.642934,50.0743212 C314.91038,52.5851241 311.295416,54.8603796 307.621693,56.6277518 C307.080599,56.8576788 306.508336,57.2168759 306.023956,57.345635 C305.025562,57.636365 303.870307,57.3047591 303.254102,56.7907445 C303.095197,56.6814015 302.957241,56.5398686 302.837679,56.3911825 C302.688993,56.126 302.48308,55.9093577 302.476438,55.5108175 C302.418701,55.435708 302.418701,55.1250511 302.476438,55.0504526 C302.488701,54.8491387 302.50965,54.6626423 302.547971,54.4919854 C302.647095,54.0546131 302.457022,53.6003796 302.098336,53.3300876 C299.658555,51.4927153 297.404248,49.7508905 294.895489,47.9273139 C295.229139,47.6115474 295.57965,47.3131533 295.931182,47.0178248 C296.543299,46.5032993 297.110453,45.9422774 297.672496,45.3751241 C299.256438,46.4312555 300.715708,47.5885547 302.333883,48.7775328 C302.777898,49.0948321 303.437022,49.7350511 304.070599,49.7013285 C304.412423,49.6803796 304.757825,49.4269489 304.946876,49.176073 C305.428701,48.6109635 305.755708,47.8389197 306.210453,47.1828613 C306.657533,46.536 307.131182,45.9269489 307.621693,45.3751241 C307.89965,45.0532263 308.190891,44.766073 308.502058,44.4738102 C309.314467,43.8351241 310.10746,43.1468759 311.536584,43.1172409 C311.670453,43.1146861 311.759869,43.2618394 311.700088,43.3819124 C310.933664,44.9249781 309.888774,46.2340292 308.843372,47.5548321 C308.502058,47.9712555 308.062131,48.526146 308.020745,49.0682628 C308.953226,48.8030803 310.723153,46.5053431 311.166657,46.1124234 C312.976949,44.4538832 315.008993,43.0145401 317.79673,42.3303796 C317.973518,42.2869489 318.129869,42.4703796 318.053737,42.635927 C317.493737,43.8494307 316.600599,44.9495036 315.746803,45.9269489 C315.614467,46.0894307 315.469869,46.2381168 315.297168,46.376073 C315.188336,46.5186277 315.049358,46.6576058 314.893518,46.775635 C314.757606,46.9549781 314.599212,47.1149051 314.422934,47.2533723 C313.339212,48.2389927 311.879942,49.3421314 310.418117,50.2526423 C310.191766,50.3844672 309.096803,50.8453431 309.313445,51.3629343 C309.520891,51.8473139 310.936219,51.0047591 311.085927,50.8831533 C313.298336,49.2874599 316.105489,48.3130803 319.206438,47.6278978 C319.414394,47.5819124 319.581985,47.8143942 319.463956,47.9916934 M321.123518,46.2018394 C320.325416,46.1798686 318.51308,46.2432263 316.379869,47.1828613 C316.379869,47.1481168 316.402861,47.1353431 316.417679,47.1149051 C316.518847,46.9692847 316.643518,46.8502336 316.78965,46.7424234 C318.133956,45.176365 319.497679,43.616438 319.999431,41.2027153 C320.046438,40.9768759 319.878847,40.755635 319.64892,40.7387737 C316.728336,40.5246861 314.70038,41.835781 313.118993,43.0043212 C313.158336,42.6175328 313.169066,42.2051971 313.196146,41.8097226 C313.211474,41.5838832 313.017314,41.396365 312.793007,41.4244672 C308.12038,42.0028613 305.694905,44.846292 303.917825,48.3268759 C302.117752,46.9079708 300.221109,45.5907445 298.487971,44.1187007 C298.857898,42.4606715 298.743956,40.4940292 298.407752,38.8727883 C297.567241,39.9473139 296.016,41.7606715 294.871985,42.7631533 C293.445416,44.0134453 291.835416,45.3444672 290.624467,46.1814015 C289.778336,46.765927 288.163737,47.7219124 287.267533,48.2446131 C287.393737,48.2931533 287.476511,48.4408175 287.611401,48.4602336 C288.721182,48.7075328 289.841182,48.755562 291.161985,48.755562 L291.568701,48.755562 C292.37038,48.755562 293.101547,48.7182628 293.819431,48.6538832 C296.17235,50.505562 298.548774,52.3429343 300.810745,54.2727883 C300.56038,56.1617664 301.047825,57.7017664 302.285854,58.4329343 C303.27454,58.9944672 305.09965,59.1247591 306.392861,58.7251971 C306.886949,58.5693577 307.435708,58.2377518 307.950234,57.9950511 C311.474759,56.2143942 314.930307,53.9192117 317.597971,51.4339562 C317.726219,51.2745401 317.883591,51.1166569 318.034832,50.9904526 C318.180453,50.8831533 318.29235,50.7641022 318.413956,50.6189927 C318.53965,50.4667299 318.692423,50.3073139 318.858482,50.1780438 C319.797606,49.0994307 320.749504,48.0238832 321.381036,46.6310365 C321.470453,46.4343212 321.33965,46.2079708 321.123518,46.2018394" id="Fill-48" fill="#F1F1D3" mask="url(#mask-2)"></path>
            <path d="M299.653343,61.0292701 C299.199109,61.2689051 298.742321,61.489635 298.285533,61.7047445 C299.007504,61.2970073 299.391226,61.0313139 299.391226,61.0313139 C294.031883,63.859927 288.455898,64.9370073 283.321372,65.0810949 C272.140277,65.3248175 263.115898,61.1871533 263.115898,61.1871533 C263.468453,61.3756934 263.819474,61.5565693 264.169474,61.7323358 C263.319255,61.4048175 262.851737,61.1907299 262.851737,61.1907299 C270.175168,64.7867883 276.522175,65.8541606 282.05473,65.7448175 C292.717212,65.6114599 299.653343,61.0292701 299.653343,61.0292701" id="Fill-49" fill="#F1F1D3" mask="url(#mask-2)"></path>
            <path d="M302.672336,63.6953504 C302.227299,63.9181241 301.782263,64.1281241 301.337737,64.3325036 C302.036204,63.9431606 302.410219,63.6979051 302.410219,63.6979051 C295.559927,67.1233066 288.74438,68.3613358 282.67073,68.4762993 C270.283796,68.6454234 261.049927,64.1730876 261.049927,64.1730876 C261.365182,64.3549854 261.679927,64.5297299 261.994161,64.7008978 C261.209854,64.3815547 260.786788,64.1766642 260.786788,64.1766642 C268.386642,68.0440365 275.987007,69.3551314 281.252847,69.3530876 C293.753723,69.3484891 302.672336,63.6953504 302.672336,63.6953504" id="Fill-50" fill="#F1F1D3" mask="url(#mask-2)"></path>
        </g>
    </g>
</svg>