<?xml version="1.0" encoding="UTF-8" standalone="no"?>
<svg width="262px" height="36px" viewBox="0 0 262 36" version="1.1" xmlns="http://www.w3.org/2000/svg" xmlns:xlink="http://www.w3.org/1999/xlink">
    <!-- Generator: Sketch 3.8.3 (29802) - http://www.bohemiancoding.com/sketch -->
    <title>trademe</title>
    <desc>Created with Sketch.</desc>
    <defs>
        <polygon id="path-1" points="12.7683953 0.377904671 0.046290803 0.377904671 0.046290803 9.61715107 12.7683953 9.61715107 12.7683953 0.377904671"></polygon>
    </defs>
    <g id="Page-1" stroke="none" stroke-width="1" fill="none" fill-rule="evenodd">
        <g id="trademe">
            <path d="M235.00002,28.4898006 C232.618006,28.1156902 230.20488,28.1210021 227.82704,28.5045981 L227.704107,28.5254663 C225.288325,28.9280334 222.964363,29.7138171 220.797102,30.8600521 C216.953175,32.6004625 219.623929,36.9763405 222.635783,35.2503482 C226.183003,33.1980527 230.032243,31.9296437 234.366764,32.1424997 C237.199531,32.3508025 237.32474,28.8096537 235.00002,28.4898006" id="Fill-1" fill="#F1F1D3"></path>
            <path d="M188.407599,34.8637548 C190.026215,33.0766755 191.345087,31.055872 192.32817,28.85674 L192.378633,28.7425338 C193.365511,26.5016654 193.982831,24.1276197 194.212761,21.6864162 C194.864609,17.5173233 189.740889,17.3518952 189.532966,20.8167802 C189.304553,24.9088503 188.254312,28.8233508 185.699661,32.3314899 C183.972531,34.5867765 186.865247,36.6326218 188.407599,34.8637548" id="Fill-3" fill="#F1F1D3"></path>
            <path d="M240.122753,13.2555375 C239.777478,14.4495797 238.529938,15.1382313 237.335516,14.7929569 C236.141474,14.4473032 235.453202,13.1997624 235.798476,12.0057203 C236.14375,10.8116781 237.39205,10.1230265 238.585713,10.4686803 C238.848652,10.5445648 239.081997,10.670533 239.2903,10.8238196 C239.187097,10.7904305 239.082377,10.7589384 238.96817,10.7589384 C238.380066,10.7589384 237.902752,11.2358723 237.902752,11.823977 C237.902752,12.4128405 238.379686,12.8893949 238.96817,12.8893949 C239.556655,12.8893949 240.033968,12.4128405 240.033968,11.823977 C240.033968,11.794382 240.01917,11.7697196 240.016894,11.740504 C240.217608,12.2041582 240.274142,12.7326935 240.122753,13.2555375 M238.117126,9.07544138 C237.761987,8.97261792 237.399638,8.92177533 237.039567,8.92177533 C236.395307,8.92177533 235.759016,9.08454752 235.179638,9.40364172 C234.275854,9.9022027 233.620971,10.7221344 233.334128,11.7131856 C233.047664,12.7046163 233.164526,13.7476483 233.662708,14.651053 C234.16051,15.554837 234.980821,16.2100994 235.972252,16.4969428 C238.0162,17.0877034 240.16411,15.9046644 240.755629,13.8588191 C241.042093,12.8677679 240.925231,11.8243564 240.427049,10.9209517 C239.929247,10.0171677 239.108936,9.36190526 238.117126,9.07544138" id="Fill-5" fill="#F1F1D3"></path>
            <path d="M241.743531,14.1445241 C241.125073,16.283328 239.164977,17.6777051 237.042109,17.6777051 C236.593632,17.6777051 236.138325,17.6154799 235.686053,17.485338 C234.430924,17.1222308 233.392445,16.2920547 232.761466,15.1477168 C232.130866,14.0037584 231.98327,12.6826098 232.345998,11.4274806 C232.708347,10.1727308 233.538523,9.13387243 234.682861,8.50289304 C235.827578,7.87229308 237.147588,7.72469778 238.403097,8.08704613 C239.658226,8.45015333 240.697084,9.27995003 241.328443,10.4239085 C241.959043,11.5682463 242.106259,12.8897744 241.743531,14.1445241 M261.105454,12.5259083 C261.082689,12.5190787 261.058785,12.513008 261.035261,12.5076961 C261.035261,12.5076961 260.666083,12.4242231 260.019168,12.2781455 C259.372253,12.1328268 258.445704,11.9321123 257.32451,11.7219123 C256.764862,11.6115004 256.155131,11.5075387 255.509354,11.3997828 C254.864336,11.2889914 254.179479,11.1945153 253.471097,11.0924506 C252.761198,11.0021481 252.027015,10.9065337 251.276897,10.8352023 C250.528297,10.7513499 249.76414,10.6997485 249.000363,10.6420763 C248.235448,10.5961662 247.469394,10.5536709 246.714344,10.535838 C245.959672,10.5058637 245.216764,10.5119344 244.497379,10.5081402 C244.443121,10.5088991 244.389623,10.5100373 244.335745,10.5104167 C243.596251,8.07528404 241.643364,6.04423614 238.817047,5.15411129 C227.987194,1.74462196 213.53234,1.23354004 204.155296,5.42008636 C200.262802,7.15784077 197.028227,10.3897604 195.752609,14.8028219 C193.525399,22.5069929 197.96502,30.557956 205.669191,32.7844064 C210.547045,34.1950988 215.540623,32.9756353 219.151586,29.8579218 C223.777124,25.8645014 227.483321,21.4992472 237.059183,20.6482028 C240.906146,20.3067227 243.386809,18.2756748 244.345989,14.9587645 C244.456022,14.5778245 244.53608,14.196505 244.588819,13.817462 C244.614241,13.8155649 244.638903,13.8136678 244.663945,13.8117707 C245.342352,13.7742079 246.043525,13.7245036 246.757977,13.7097061 C247.472429,13.6823877 248.198644,13.6785935 248.925617,13.6778346 C249.653349,13.6884584 250.38184,13.6918732 251.098948,13.7290566 C251.816057,13.7525808 252.522541,13.8015263 253.20626,13.8462981 C253.88922,13.9024527 254.550933,13.9525364 255.177359,14.0215913 C255.804165,14.0868519 256.396823,14.1509743 256.943191,14.2245822 C258.037445,14.3604154 258.948059,14.5004223 259.585109,14.6036252 C260.222159,14.7072075 260.586404,14.7667768 260.586404,14.7667768 L260.609929,14.770571 C261.218522,14.8680826 261.802453,14.4879014 261.934492,13.8918288 C262.068428,13.2938592 261.700389,12.6974072 261.105454,12.5259083" id="Fill-7" fill="#F1F1D3"></path>
            <g id="Group-11" transform="translate(236.759553, 0.001594)">
                <mask id="mask-2" fill="white">
                    <use xlink:href="#path-1"></use>
                </mask>
                <g id="Clip-10"></g>
                <path d="M10.0181162,0.512144302 C9.87810939,0.456748637 9.72520217,0.483687625 9.64552348,0.605861625 C9.56053287,0.737141762 9.58064225,0.909778936 9.72823755,0.997804923 C12.2885796,2.5280153 12.7894172,6.46528114 9.73886138,7.8680056 C9.74644983,7.8289251 9.75403827,7.78946518 9.76086788,7.74734929 C9.8189195,7.41421646 9.84472022,7.06894211 9.8394083,6.72177065 C9.83485524,6.32110064 9.78173611,5.91549814 9.68270687,5.51672524 C9.59619857,5.13882057 9.44101483,4.72828557 9.20653181,4.26007838 C8.78347588,3.45190875 8.1509788,2.70748208 7.3788543,2.10761533 C7.05634529,1.84884928 6.67882004,1.60450128 6.19202115,1.34004389 C5.74430277,1.09797243 5.28937536,0.926852942 4.94106563,0.803540675 C4.48348226,0.656324799 4.08167398,0.555398451 3.71477256,0.495070296 C3.36228919,0.432465606 2.9942495,0.394902793 2.58712931,0.379725898 C2.26879395,0.372896296 1.94742321,0.383899544 1.62984669,0.413494488 C1.33124129,0.446124811 1.09030809,0.484067047 0.897940958,0.526941774 C0.750725082,0.552742495 0.639174908,0.583855128 0.549251809,0.609655849 C0.510930151,0.620659097 0.476782138,0.630144656 0.443013548,0.638491948 L0.288588647,0.68060783 C0.120125119,0.726517936 0.0169222373,0.896119731 0.0537262062,1.06648037 C0.0719384795,1.15260925 0.123160498,1.22583776 0.196389014,1.27364498 C0.270755796,1.32107277 0.358402362,1.33700851 0.444531237,1.31879624 L0.597817871,1.28540707 C0.630068772,1.27971574 0.667252163,1.27098902 0.709368045,1.26150346 C0.797773455,1.24139408 0.908185362,1.21673163 1.03111821,1.20345184 C1.19844347,1.17537459 1.41243768,1.15374751 1.68334524,1.13781177 C1.96867086,1.12680853 2.25892897,1.13212044 2.54501342,1.15374751 C2.91077658,1.18637784 3.24011519,1.23797928 3.55237979,1.31158722 C3.87337111,1.38140093 4.22813102,1.49105399 4.63487179,1.64509947 C4.9422039,1.77296481 5.34287391,1.94901678 5.71850205,2.17970558 C6.13890202,2.43847163 6.45723738,2.66916042 6.72093592,2.90554055 C7.33673841,3.43824955 7.84592322,4.10337694 8.15363476,4.77609279 C8.32361597,5.17220973 8.42568059,5.49168336 8.4750055,5.78270031 C8.53571307,6.09496491 8.55923726,6.40798836 8.54557806,6.71228509 C8.53571307,6.97939844 8.50156506,7.24195871 8.44351344,7.49427458 C8.39494738,7.72154857 8.32930731,7.91657167 8.27011742,8.08465577 C8.23710768,8.18672039 8.19688891,8.27436695 8.16501743,8.34531893 C8.14604631,8.38629655 8.13011057,8.42272109 8.11910732,8.45117777 L8.04208458,8.62836801 C8.03829036,8.638233 8.03411671,8.64809798 8.03070191,8.65796296 C8.02804596,8.66441314 8.02652827,8.67162216 8.02539,8.67655465 C8.01476617,8.7061496 8.00641888,8.73802108 7.99731274,8.78355176 C7.99579505,8.79076078 7.99465679,8.79834923 7.99351852,8.80517883 C7.98744776,8.84350049 7.98517123,8.88333984 7.9863095,8.93721782 C7.98896545,9.00854922 7.99845101,9.06773911 8.01590444,9.12313477 C8.11038061,9.42439613 8.38963547,9.61638384 8.68975855,9.61714269 C8.76033111,9.61752211 8.84228634,9.60500117 8.90147623,9.58489178 C14.5222391,7.83992835 13.2193027,1.89817418 10.0181162,0.512144302" id="Fill-9" fill="#F1F1D3" mask="url(#mask-2)"></path>
            </g>
            <path d="M145.335914,11.444972 C141.784521,11.444972 139.05268,12.9474845 137.231452,15.31508 C135.683409,12.8108925 132.951568,11.444972 129.76442,11.444972 C126.804926,11.444972 124.573922,12.4921777 123.025879,14.2223436 L123.025879,12.1279322 L115.74097,12.1279322 L115.74097,34.9843352 L123.025879,34.9843352 L123.025879,23.7837871 C123.025879,19.9592097 124.756045,18.0013904 127.396825,18.0013904 C129.582298,18.0013904 131.266933,19.640495 131.266933,22.2357439 L131.266933,34.9843352 L138.551842,34.9843352 L138.551842,23.7837871 C138.551842,19.9592097 140.327539,18.0013904 143.013849,18.0013904 C145.153791,18.0013904 146.838426,19.640495 146.838426,22.2357439 L146.838426,34.9843352 L154.077805,34.9843352 L154.077805,20.6877007 C154.077805,15.1329573 150.207697,11.444972 145.335914,11.444972" id="Fill-12" fill="#F1F1D3"></path>
            <path d="M163.368417,25.4228917 L180.123708,25.4228917 L180.123708,23.5561337 C179.987116,16.0891017 174.796618,11.444972 168.331261,11.444972 C161.683782,11.444972 156.2201,16.3622858 156.2201,23.5561337 C156.2201,30.7955123 161.683782,35.6672955 168.285731,35.6672955 C173.300935,35.6672955 177.308394,33.5303887 179.358034,29.1097388 L172.806548,27.7533039 C171.575702,29.4952319 169.818597,29.839368 168.285731,29.839368 C165.827074,29.839368 163.960316,28.1547327 163.368417,25.4228917 L163.368417,25.4228917 Z M163.505009,20.9608848 C164.187969,18.6388199 166.282381,17.3639608 168.331261,17.3639608 C170.425673,17.3639608 172.2469,18.5022279 172.92986,20.9608848 L163.505009,20.9608848 Z" id="Fill-14" fill="#F1F1D3"></path>
            <path d="M13.659205,28.2457941 C12.7030606,28.7921623 11.3371401,29.1564078 10.3354651,29.1564078 C8.4231764,29.1564078 7.28490932,28.2002634 7.28490932,25.8326679 L7.28490932,17.910329 L14.0234504,17.910329 L14.0234504,12.1279322 L7.28490932,12.1279322 L7.28490932,5.38939109 L0,5.38939109 L0,26.5611588 C0,32.571209 3.41480124,35.6672955 9.10613665,35.6672955 C11.7013856,35.6672955 13.5681436,34.9388045 15.3438403,33.9826602 L13.659205,28.2457941 Z" id="Fill-16" fill="#F1F1D3"></path>
            <path d="M59.7708597,12.1279322 L52.4859504,12.1279322 L52.4859504,13.9491595 C50.7102538,12.3555856 48.3426583,11.444972 45.3831638,11.444972 C39.327583,11.444972 34.2281464,16.3622858 34.2281464,23.5561337 C34.2281464,30.7955123 39.327583,35.6672955 45.3831638,35.6672955 C48.3426583,35.6672955 50.7102538,34.7566818 52.4859504,33.1631079 L52.4859504,34.9843352 L59.7708597,34.9843352 L59.7708597,12.1279322 Z M46.8856764,29.4751225 C43.6985286,29.4751225 41.3764637,27.107527 41.3764637,23.5561337 C41.3764637,20.0502711 43.6985286,17.6371449 46.8856764,17.6371449 C49.8451708,17.6371449 52.4859504,20.0502711 52.4859504,23.5561337 C52.4859504,27.107527 49.8451708,29.4751225 46.8856764,29.4751225 L46.8856764,29.4751225 Z" id="Fill-18" fill="#F1F1D3"></path>
            <path d="M87.4792021,2.20224326 L80.1942927,2.20224326 L80.1942927,13.9491595 C78.4185961,12.3555856 76.0510006,11.444972 73.0915062,11.444972 C67.0359253,11.444972 61.9364888,16.3622858 61.9364888,23.5561337 C61.9364888,30.7955123 67.0359253,35.6672955 73.0915062,35.6672955 C76.0510006,35.6672955 78.4185961,34.7566818 80.1942927,33.1631079 L80.1942927,34.9843352 L87.4792021,34.9843352 L87.4792021,2.20224326 Z M74.5940187,29.4751225 C71.4068709,29.4751225 69.084806,27.107527 69.084806,23.5561337 C69.084806,20.0502711 71.4068709,17.6371449 74.5940187,17.6371449 C77.5535131,17.6371449 80.1942927,20.0502711 80.1942927,23.5561337 C80.1942927,27.107527 77.5535131,29.4751225 74.5940187,29.4751225 L74.5940187,29.4751225 Z" id="Fill-20" fill="#F1F1D3"></path>
            <path d="M96.8413729,25.4228917 L113.596664,25.4228917 L113.596664,23.5561337 C113.460072,16.0891017 108.269574,11.444972 101.804217,11.444972 C95.1567376,11.444972 89.6930556,16.3622858 89.6930556,23.5561337 C89.6930556,30.7955123 95.1567376,35.6672955 101.758687,35.6672955 C106.773891,35.6672955 110.78135,33.5303887 112.83099,29.1097388 L106.279504,27.7533039 C105.048658,29.4952319 103.291553,29.839368 101.758687,29.839368 C99.3000298,29.839368 97.4332718,28.1547327 96.8413729,25.4228917 L96.8413729,25.4228917 Z M96.977965,20.9608848 C97.6609252,18.6388199 99.7553366,17.3639608 101.804217,17.3639608 C103.898629,17.3639608 105.719856,18.5022279 106.402816,20.9608848 L96.977965,20.9608848 Z" id="Fill-22" fill="#F1F1D3"></path>
            <path d="M33.1297946,11.813429 C33.0565661,11.8119113 32.9882701,11.808876 32.910109,11.808876 C29.176593,11.808876 26.6724054,13.7666953 25.0333008,16.4985363 L25.0333008,12.1275907 L17.7483915,12.1275907 L17.7483915,34.9839937 L25.0333008,34.9839937 L25.0333008,27.8356765 C25.0333008,21.9569064 27.7757657,19.3149885 32.8095621,19.2793228 L33.1297946,11.813429 Z" id="Fill-24" fill="#F1F1D3"></path>
        </g>
    </g>
</svg>