<svg xmlns="http://www.w3.org/2000/svg" viewBox="0 0 489.595 60.119" enable-background="new 0 0 489.595 60.119"><path fill-rule="evenodd" clip-rule="evenodd" fill="#EFAD5F" d="M489.595 2.767c-15.954-3.799-24.54.184-40.682-.565-8.501-.395-124.628-.735-133.267-.809-39.965-.344-86.811-1.759-126.809-1.303-.85.01-1.761.034-2.448.411l-.195.149c-9.522-.057-18.869-.091-27.87-.09-30.033.003-60.075-.268-90.102-.268-11.039-.379-45.642-.438-59.679.121 9.788 8.095 26.153 21.118 37.798 27.872-2.314-1.336-41.136 30.328-46.341 29.067 15.953 3.799 24.54-.184 40.682.565 8.502.395 124.628.735 133.267.809 39.965.344 86.811 1.759 126.809 1.303.85-.01 1.761-.034 2.448-.411l.195-.149c9.522.057 18.869.091 27.87.09 30.033-.003 60.075.268 90.102.268 11.038.378 45.642.438 59.679-.122-9.789-8.095-26.153-21.118-37.798-27.872 2.313 1.337 41.136-30.326 46.341-29.066z"/></svg>