<svg xmlns="http://www.w3.org/2000/svg" viewBox="237.637 361.134 120 119.618" enable-background="new 237.637 361.134 120 119.618"><path fill="#6C100F" d="M304.674 361.134c-.513 0-1.03.018-1.548.056l-.55.04c-1.786.131-3.633.267-5.431.319l-.268.008c-2.965.085-6.031.173-9.108.552-3.674.453-6.583 1.112-9.157 2.075-10.756 4.023-19.475 10.228-25.913 18.44-1.234 1.574-2.431 3.179-3.439 4.542-2.947 3.982-5.942 8.317-7.356 13.66-.386 1.46-.78 2.918-1.174 4.376-.829 3.069-1.686 6.242-2.459 9.392-.407 1.66-.62 3.468-.631 5.374-.033 5.793.279 12.592 2.848 19.096.36.912.685 1.836 1.01 2.76.805 2.288 1.637 4.654 2.998 6.894.591.972 1.161 1.958 1.73 2.944 2.319 4.015 4.718 8.167 8.561 11.403.448.377.883.817 1.344 1.283.809.819 1.646 1.665 2.707 2.336 1.057.668 2.103 1.355 3.149 2.042 3.606 2.368 7.335 4.817 11.531 6.506l1.566.635c3.728 1.518 7.583 3.088 11.774 3.888 3.509.67 6.722.996 9.822.996 3.596 0 6.945-.435 10.24-1.33 2.005-.545 4.013-1.078 6.021-1.611 3.444-.914 7.006-1.86 10.499-2.853 2.581-.734 5.144-2.025 7.616-3.837.473-.347.936-.709 1.398-1.071.6-.471 1.167-.915 1.752-1.319 4.108-2.837 7.504-6.01 10.382-9.701 1.542-1.977 2.632-4.106 3.686-6.164.532-1.039 1.034-2.02 1.591-2.984.151-.262.321-.517.489-.773.436-.662.93-1.412 1.228-2.313.448-1.353.986-2.729 1.506-4.06 1.121-2.87 2.28-5.837 2.783-9.075.194-1.249.502-2.526.799-3.76.649-2.692 1.263-5.24.812-7.638-.079-7.064-.952-13.05-2.743-18.821-1.956-6.305-5.064-12.407-9.238-18.136-1.408-1.933-3.073-4.161-5.018-6.136-2.354-2.39-4.883-4.511-7.046-6.27-6.435-5.235-12.735-8.587-19.257-10.246-3.145-.801-6.239-1.519-9.506-1.519z"/><path fill="#F4F4DB" d="M296.402 476.56l-.259-.015c-.59-.069-1.197-.133-1.82-.199-1.44-.153-2.943-.313-4.434-.547-7.839-1.231-15.186-4.042-21.843-8.356-.808-.523-1.655-.992-2.501-1.461l-.522-.29c-4.167-2.331-7.886-5.712-11.369-10.336-1.842-2.444-3.066-5.242-4.251-7.949l-.091-.208c-1.793-4.094-3.675-8.476-5.234-13.052-1.593-4.671-2.247-9.623-1.945-14.714.161-2.669.681-5.355 1.633-8.456.407-1.32.736-2.665 1.063-4.008.428-1.748.87-3.555 1.481-5.328.982-2.86 2.183-5.42 3.564-7.608 3.35-5.301 7.181-10.811 12.493-15.189 2.769-2.28 5.963-4.434 10.052-6.775 3.865-2.212 8.034-4.435 12.769-5.195 2.595-.416 5.465-.774 9.025-1.126 2.126-.209 4.638-.423 7.16-.423 9.127.022 16.647 2.025 23.077 6.123 3.626 2.313 6.806 5.131 9.882 7.857l1.033.917c6.33 5.584 11.034 12.794 14.808 22.692.965 2.53 1.39 5.188 1.801 7.759.096.608.193 1.215.297 1.818.218 1.252.323 2.498.424 3.703.083.977.165 1.954.31 2.921.456 3.012.068 5.888-.331 8.347-.363 2.243-.832 4.552-1.39 6.867-.912 3.771-2.325 7.442-4.319 11.219-.418.795-.764 1.629-1.114 2.461-.501 1.193-1.018 2.427-1.733 3.613-1.721 2.856-3.301 5.056-4.971 6.924-4.756 5.318-10.52 9.469-17.129 12.339-3.161 1.372-6.511 2.214-9.752 3.029-3.613.909-7.05 1.52-10.376 2.112-1.203.214-2.37.3-3.606.391-.541.04-1.099.081-1.674.135l-.208.008z"/><path fill="#6C100F" d="M301.454 369.78c-2.408 0-4.784.203-6.802.402-3.467.342-6.252.689-8.757 1.091-3.997.641-7.608 2.571-11.261 4.662-3.865 2.213-6.863 4.23-9.432 6.348-4.828 3.977-8.409 9.142-11.558 14.13-1.199 1.896-2.249 4.144-3.119 6.679-.545 1.58-.944 3.21-1.366 4.935-.341 1.395-.694 2.838-1.133 4.261-.846 2.752-1.303 5.108-1.443 7.412-.269 4.511.308 8.889 1.716 13.012 1.502 4.411 3.341 8.693 5.098 12.701l.091.209c1.08 2.471 2.198 5.026 3.727 7.053 3.102 4.121 6.369 7.106 9.986 9.128l.511.285c.933.518 1.865 1.039 2.76 1.616 6.129 3.973 12.894 6.562 20.11 7.694 1.415.222 2.845.373 4.215.517l1.634.178c.524-.046 1.031-.084 1.528-.12 1.118-.083 2.175-.161 3.153-.335 3.248-.578 6.608-1.176 9.893-2.001 3.242-.815 6.413-1.613 9.239-2.839 6.016-2.611 11.259-6.388 15.582-11.222 1.479-1.654 2.902-3.641 4.476-6.253.549-.909.982-1.943 1.441-3.038.388-.923.789-1.877 1.283-2.816 1.82-3.447 3.104-6.779 3.927-10.187.533-2.205.98-4.403 1.326-6.534.344-2.125.683-4.591.323-6.965-.163-1.063-.253-2.139-.344-3.215-.098-1.16-.191-2.255-.375-3.317-.108-.623-.208-1.248-.308-1.874-.392-2.456-.762-4.776-1.563-6.875-3.507-9.196-7.828-15.85-13.594-20.939l-1.042-.922c-3.08-2.732-5.991-5.312-9.32-7.434-5.696-3.631-12.434-5.405-20.6-5.425h-.002v-.002z"/><path fill="#F4F4DB" d="M287.867 393.709c1.532.081 1.676 1.391 1.774 2.008.14.878.132 1.903.091 2.96 4.96.532 11.146.19 15.084-.045-.015-1.93-.859-3.551.749-4.72 2.894-.639 7.483-.042 8.694.039 1.211.081 1.407 1.221 1.453 1.938.072 1.068.216 2.215.579 3.223 2.716.097 3.904-.2 6.572.097 1.188 5.18 1.748 14.521 1.778 19.276.008.947 1.188 17.793-.151 28.735-3.904.237-17.157-.013-22.174.313-2.387.156-27.168-.315-30.165-.58-1.635-15.979-1.423-32.284-1.778-48.042 2.372-.297 5.535.331 8.452.124-.095-1.101-.117-2.308.083-3.39.125-.688.322-1.776 1.532-1.856 1.211-.08 6.193-.144 7.427-.08zm-6.863 2.583c0 3.955-.579 6.965-.159 10.331 2.516-.355 4.873-.031 7.264-.146 0-2.841.114-6.829-.651-10.401-1.763-.359-4.665-.424-6.454.216zm26.314 10.25c1.373.36 5.24-.032 7.022-.081-.163-3.955.095-7.198-.976-9.624-1.884-.742-3.356-.508-6.451-.546.212 4.141 0 6.135.405 10.251zm-11.442 14.909c-1.642.01-20.649-.197-22.537-.593.121 7.79.227 15.893 1.184 23.427 6.644-.063 16.431.199 23.131.297 7.43.107 20.99-.667 24.319-.297.863-7.092.912-16.082.242-23.388-1.909.206-21.802.524-26.339.554z"/></svg>