<svg xmlns="http://www.w3.org/2000/svg" viewBox="0 0 120 119.618" enable-background="new 0 0 120 119.618"><path fill="#6C1211" d="M67.581-.3c-.513 0-1.03.018-1.548.056l-.55.04c-1.786.131-3.633.267-5.431.319l-.268.008c-2.965.085-6.031.173-9.108.552-3.674.453-6.583 1.112-9.157 2.075-10.757 4.024-19.475 10.228-25.913 18.44-1.234 1.574-2.431 3.179-3.439 4.542-2.947 3.982-5.942 8.317-7.356 13.66-.386 1.46-.78 2.918-1.174 4.376-.829 3.069-1.686 6.242-2.459 9.392-.407 1.66-.62 3.468-.631 5.374-.033 5.792.279 12.592 2.849 19.096.36.912.685 1.836 1.01 2.76.805 2.288 1.637 4.654 2.998 6.894.591.972 1.161 1.958 1.73 2.944 2.319 4.015 4.718 8.167 8.561 11.403.448.377.883.817 1.344 1.283.809.819 1.646 1.665 2.707 2.336 1.057.668 2.103 1.355 3.149 2.042 3.606 2.368 7.335 4.817 11.531 6.506l1.566.635c3.728 1.518 7.583 3.088 11.774 3.888 3.509.67 6.722.996 9.822.996 3.596 0 6.945-.435 10.24-1.33 2.005-.545 4.013-1.078 6.021-1.611 3.444-.914 7.006-1.86 10.499-2.853 2.581-.734 5.144-2.025 7.616-3.837.473-.347.936-.709 1.398-1.071.6-.471 1.167-.915 1.752-1.319 4.108-2.837 7.504-6.01 10.382-9.701 1.542-1.977 2.632-4.106 3.686-6.164.532-1.039 1.034-2.02 1.591-2.984.151-.262.321-.517.489-.773.436-.662.93-1.412 1.228-2.313.448-1.353.986-2.729 1.506-4.06 1.121-2.87 2.28-5.837 2.783-9.075.194-1.249.502-2.526.799-3.76.649-2.692 1.263-5.24.812-7.638-.079-7.064-.952-13.05-2.743-18.821-1.956-6.305-5.064-12.407-9.238-18.136-1.408-1.933-3.073-4.161-5.018-6.136-2.354-2.39-4.883-4.511-7.046-6.27-6.436-5.236-12.736-8.587-19.258-10.246-3.145-.801-6.239-1.519-9.506-1.519z"/><path fill="#F4F4DB" d="M59.31 115.126l-.259-.015c-.59-.069-1.197-.133-1.82-.199-1.44-.153-2.943-.313-4.434-.547-7.839-1.231-15.186-4.042-21.843-8.356-.808-.523-1.655-.992-2.501-1.461l-.522-.29c-4.167-2.331-7.886-5.712-11.369-10.336-1.842-2.444-3.066-5.242-4.251-7.949l-.091-.208c-1.793-4.094-3.676-8.475-5.234-13.051-1.593-4.671-2.247-9.623-1.945-14.714.161-2.669.681-5.355 1.633-8.456.407-1.32.736-2.665 1.063-4.008.428-1.748.87-3.555 1.481-5.328.982-2.86 2.183-5.42 3.564-7.608 3.35-5.301 7.181-10.811 12.493-15.189 2.769-2.28 5.963-4.434 10.052-6.775 3.865-2.212 8.034-4.435 12.769-5.195 2.595-.416 5.465-.774 9.025-1.126 2.126-.209 4.638-.423 7.16-.423 9.127.022 16.647 2.025 23.077 6.123 3.626 2.313 6.806 5.131 9.882 7.857l1.033.917c6.33 5.584 11.034 12.794 14.808 22.692.965 2.53 1.39 5.188 1.801 7.759.096.608.193 1.215.297 1.818.218 1.252.323 2.498.424 3.703.083.977.165 1.954.31 2.921.456 3.012.068 5.888-.331 8.347-.363 2.243-.832 4.552-1.39 6.867-.912 3.771-2.325 7.442-4.319 11.219-.418.795-.764 1.629-1.114 2.461-.501 1.193-1.018 2.427-1.733 3.613-1.721 2.856-3.301 5.056-4.971 6.924-4.756 5.318-10.52 9.469-17.129 12.339-3.161 1.372-6.511 2.214-9.752 3.029-3.613.909-7.05 1.52-10.376 2.112-1.203.214-2.37.3-3.606.391-.541.04-1.099.081-1.674.135l-.208.007z"/><path fill="#6C1211" d="M64.361 8.346c-2.408 0-4.784.203-6.802.402-3.467.342-6.252.689-8.757 1.091-3.997.641-7.608 2.571-11.261 4.662-3.865 2.213-6.863 4.23-9.432 6.348-4.828 3.977-8.409 9.142-11.558 14.13-1.199 1.896-2.249 4.144-3.119 6.679-.545 1.58-.944 3.21-1.366 4.935-.341 1.395-.694 2.838-1.133 4.261-.846 2.752-1.303 5.108-1.443 7.412-.269 4.511.308 8.889 1.716 13.012 1.502 4.411 3.341 8.693 5.098 12.701l.091.209c1.08 2.471 2.198 5.026 3.727 7.053 3.102 4.121 6.369 7.106 9.986 9.128l.511.285c.933.518 1.865 1.039 2.76 1.616 6.129 3.973 12.894 6.562 20.11 7.694 1.415.222 2.845.373 4.215.517l1.634.178c.524-.046 1.031-.084 1.528-.12 1.118-.083 2.175-.161 3.153-.335 3.248-.578 6.608-1.176 9.893-2.001 3.242-.815 6.413-1.613 9.239-2.839 6.016-2.611 11.259-6.388 15.582-11.222 1.479-1.654 2.902-3.641 4.476-6.253.549-.909.982-1.943 1.441-3.038.388-.923.789-1.877 1.283-2.816 1.82-3.447 3.104-6.779 3.927-10.187.533-2.205.98-4.403 1.326-6.534.344-2.125.683-4.591.323-6.965-.163-1.063-.253-2.139-.344-3.215-.098-1.16-.191-2.255-.375-3.317-.108-.623-.208-1.248-.308-1.874-.392-2.456-.762-4.776-1.563-6.875-3.507-9.196-7.828-15.85-13.594-20.939l-1.042-.922c-3.08-2.732-5.991-5.312-9.32-7.434-5.696-3.631-12.434-5.405-20.6-5.425h-.002z"/><path fill="#F4F4DB" d="M83.426 26.153l-41.875.507.035 2.886 39.9-.482.648 53.743 1.975-.025zM37.67 31.51l.684 56.629 41.874-.505-.683-56.629-41.875.505zm3.165 4.341l34.606-.27.105 13.45-34.606.272-.105-13.452zm.562 18.406l34.443.289-.028 3.356-34.444-.287.029-3.358zm.446 7.647l34.445.274-.027 3.358-34.443-.276.025-3.356zm.484 7.511l34.444.053-.005 3.356-34.445-.053.006-3.356zm.494 10.798l-.003-3.356 34.445-.027.001 3.356-34.443.027zM51.39 39.659c.493.013 1.115.174 1.866.488l.576-1.428c-.703-.348-1.5-.533-2.391-.556-1.313-.03-2.325.327-3.037 1.073-.714.745-1.088 1.827-1.123 3.25-.034 1.392.272 2.469.918 3.231s1.607 1.158 2.884 1.188c.519.013.962-.017 1.327-.089.365-.074.711-.199 1.037-.38l.038-1.562c-.722.378-1.482.558-2.281.539-.703-.017-1.229-.267-1.581-.751-.353-.486-.517-1.203-.494-2.149.047-1.938.801-2.89 2.261-2.854zM60.263 42.748c-.31-.233-.811-.492-1.5-.778-.822-.342-1.354-.607-1.596-.796-.243-.189-.36-.416-.354-.681.013-.539.493-.796 1.439-.774.62.015 1.381.223 2.283.62l.613-1.335c-.876-.424-1.808-.647-2.801-.674-1.003-.023-1.8.157-2.392.543-.592.384-.897.938-.914 1.661-.015.602.145 1.093.478 1.477.335.386.984.779 1.946 1.177.494.206.878.39 1.155.549.276.159.473.312.592.458.118.146.175.323.169.537-.016.668-.576.988-1.679.961-.856-.023-1.773-.272-2.754-.755l-.038 1.548c.674.357 1.572.551 2.698.579 1.118.027 1.983-.172 2.594-.598.611-.424.926-1.05.947-1.875.009-.405-.059-.757-.203-1.054-.145-.296-.373-.559-.683-.79zM67.87 42.934c-.31-.231-.81-.49-1.5-.778-.821-.342-1.353-.605-1.596-.796-.242-.187-.36-.414-.354-.681.013-.539.493-.796 1.438-.774.621.015 1.382.223 2.283.62l.614-1.335c-.877-.424-1.809-.647-2.801-.672-1.003-.025-1.8.155-2.391.541-.593.384-.898.94-.916 1.661-.014.602.145 1.093.48 1.479.334.384.983.778 1.945 1.177.495.206.879.388 1.155.547.276.159.474.312.592.458.119.146.176.325.17.539-.016.666-.577.986-1.68.959-.856-.021-1.772-.272-2.754-.755l-.038 1.547c.674.359 1.573.551 2.698.579 1.119.028 1.984-.172 2.595-.598.611-.424.927-1.05.948-1.875.009-.405-.059-.757-.203-1.054-.146-.295-.374-.557-.685-.789z"/></svg>