<svg xmlns="http://www.w3.org/2000/svg" viewBox="0 0 351.77 164.18" enable-background="new 0 0 351.77 164.18"><path fill="#6C100F" d="M335.532 86.26c-10.535-1.625-12.301-7.285-12.301-7.285s-1.721.861-2.02 1.138c-4.908 3.46-6.14 11.417-2.268 16.542-2.976 6.45-7.217 13.479-11.533 18.585-.223.204-.443.397-.666.613-5.306 5.135-10.293 6.994-17.81 4.138-3.68-1.295-5.433-5.938-5.831-11.157.353-.057.577-.02.948-.188 32.051-9.595 39.123-26.064 18.492-33.596-13.847-4.922-30.109 3.387-35.846 18.703-1.642 4.572-1.762 8.953-.916 12.935-3.317 5.5-7.683 9.355-10.547 8.647-3.476-.909-.568-10.083 2.148-20.28 4.368-15.683 1.158-24.497-3.541-26.01-5.602-1.545-14.434 2.231-21.681 16.121 1.156-7.537 2.333-13.554 4.397-21.173 16.433-4.538 31.935-17.185 38.205-35.63 9.275-27.164-19.238-29.926-35.277-13.503-7.492 7.665-15.816 27.042-20.222 40.463-3.751-.249-7.276-.273-10.549-.928 2.116-6.115 5.348-11.798 5.348-11.798s-11.332-6.571-19.243 1.796c-.831 1.078-3.042 4.551-3.728 6.071-14.25-4.555-35.521-5.125-46.24-2.905-14.955 3.195-14.743 20.85-8.819 26.214 0 0 8.907-9.666 20.729-12.303 7.916-1.798 19.466-.226 30.573 1.492-1.324 7.002-1.982 15.429-2.212 23.487-.276 6.592.506 13.703 2.083 19.865-1.765 5.837-4.434 10.204-7.241 10.095-3.457-.073-3.584-9.805-3.459-20.042.196-15.644-4.204-20.368-15.883-21.501-13.466-1.502-27.438 11.548-27.546 28.324-.136 15.977 9.347 26.682 18.572 24.349 8.446-2.194 9.379-11.772 10.041-19.005 2.313 9.113 6.466 15.03 12.528 15.556 6.753.484 11.872-4.336 15.045-11.417 2.002 4.946 4.624 8.571 7.652 9.651 4.917 1.802 10.073-1.339 14.097-6.694-.039 2.715.328 3.891.328 3.891 8.026 3.435 15.021.502 18.776-20.515 7.222-16.492 10.08-20.806 12.208-20.169 2.243.526 1.091 4.559-2.972 17.878-4.576 15.11 1.763 25.045 9.521 26.323 6.066.93 13.484-3.666 18.637-11.128 3.092 6.77 8.801 11.732 13.445 13.405 14.045 4.9 24.192-.688 30.332-8.273l.006-.008.202-.21c4.65-5.268 8.856-11.107 12.077-16.721.961.35 2.06.616 3.321.689l1.015.13c-16.969 26.347-16.285 45.581-2.429 51.732 8.192 3.614 15.93-2.881 16.003-7.979 0 0-3.77 1.644-7.63-1.617-4.964-4.46 3.03-24.961 14.964-42.53 5.778-8.483 3.948-11.485-13.283-14.268zm-50.163 8.858c3.278-7.361 8.964-18.906 13.333-16.924 3.607 1.741-2.259 17.838-15.419 25.399.274-3.047.976-5.909 2.086-8.475zm-29.436-78.465c9.627-10.645 16.56-4.986 12.064 7.753-4.375 12.516-15.737 23.179-27.584 25.835 3.92-12.419 9.88-27.218 15.52-33.588zm-96.266 77.319c-.994 15.672-1.745 24.987-5.128 24.672-3.627-.386-4.124-11.545-3.407-20.396.798-11.619 2.043-18.153 6.592-18.39 2.749-.031 1.556 2.936 1.658 8.657.115 1.929.098 3.769.285 5.457zm51.763 12.894c-2.316 5.343-5.23 9.258-7.751 8.528-3.243-1.019-1.667-19.025-.634-30.198.576-7.968 1.505-14.149 2.608-19.437 4.382.503 8.275.584 11.118.051-3.127 13.984-4.587 27.958-5.341 41.056zM125.408 86.75c-7.516-1.738-12.405 1.799-16.005 20.199-2.278 13.21-9.709 23.9-18.367 24.035-9.462.147-14.762-9.799-16.81-25.008 14.688-9.074 27.977-20.71 35.115-33.776 17.828-31.918 10.273-55.111-6.802-55.989-19.825-1.022-52.163 24.473-52.53 70.789.025 3.057.133 5.978.299 8.706-5.075.342-10.629-.266-14.065-2.251-15.71-9.246-6.657-26.629 4.059-30.743 0 0-15.801-23.306-29.266-10.094-12.979 12.749-11.514 37.568 12.398 51.804 9.422 5.616 19.113 8.007 29.866 6.603l1.07 5.13.038-.02c6.079 16.924 17.828 24.377 29.765 24.569 15.857.256 25.685-6.628 31.045-24.358-.47 37.247-15.261 36.11-19.072 34.227-5.608-2.771 3.794 20.653 23.31 11.453 9.999-4.714 11.894-36.857 7.315-68.687-.582-4.89-1.363-6.589-1.363-6.589zm-53.85-6.75c1.922-37.479 13.434-58.49 26.497-57.633 13.005.581 14.316 26.794 3.417 45.243-6.076 9.999-17.228 17.62-30.187 22.755-.111-3.271.027-6.735.273-10.365z"/><path fill="#EFAD5F" d="M332.627 81.567c-10.535-1.625-12.301-7.285-12.301-7.285s-1.721.861-2.02 1.138c-4.908 3.46-6.14 11.417-2.268 16.542-2.976 6.45-7.217 13.479-11.533 18.585-.223.204-.443.397-.666.613-5.306 5.135-10.293 6.994-17.81 4.138-3.68-1.295-5.433-5.938-5.831-11.157.353-.057.577-.02.948-.188 32.051-9.595 39.123-26.064 18.492-33.596-13.847-4.922-30.109 3.387-35.846 18.703-1.642 4.572-1.762 8.953-.916 12.935-3.317 5.5-7.683 9.355-10.547 8.647-3.476-.909-.568-10.083 2.148-20.28 4.368-15.683 1.158-24.497-3.541-26.01-5.602-1.545-14.434 2.231-21.681 16.121 1.156-7.537 2.333-13.554 4.397-21.173 16.433-4.538 31.935-17.185 38.205-35.63 9.275-27.164-19.238-29.926-35.277-13.503-7.492 7.665-15.816 27.042-20.222 40.463-3.751-.249-7.276-.273-10.549-.928 2.116-6.115 5.348-11.798 5.348-11.798s-11.332-6.571-19.243 1.796c-.831 1.078-3.042 4.551-3.728 6.071-14.25-4.555-35.521-5.125-46.24-2.905-14.955 3.195-14.743 20.85-8.819 26.214 0 0 8.907-9.666 20.729-12.303 7.916-1.798 19.466-.226 30.573 1.492-1.324 7.002-1.982 15.429-2.212 23.487-.276 6.592.506 13.703 2.083 19.865-1.765 5.837-4.434 10.204-7.241 10.095-3.457-.073-3.584-9.805-3.459-20.042.196-15.644-4.204-20.368-15.883-21.501-13.466-1.502-27.438 11.548-27.546 28.324-.136 15.977 9.347 26.682 18.572 24.349 8.446-2.194 9.379-11.772 10.041-19.005 2.313 9.113 6.466 15.03 12.528 15.556 6.753.484 11.872-4.336 15.045-11.417 2.002 4.946 4.624 8.571 7.652 9.651 4.917 1.802 10.073-1.339 14.097-6.694-.039 2.715.328 3.891.328 3.891 8.026 3.435 15.021.502 18.776-20.515 7.222-16.492 10.08-20.806 12.208-20.169 2.243.526 1.091 4.559-2.972 17.878-4.577 15.11 1.763 25.045 9.521 26.323 6.066.93 13.484-3.666 18.637-11.128 3.092 6.77 8.801 11.732 13.445 13.405 14.045 4.9 24.192-.688 30.332-8.273l.006-.008.202-.21c4.65-5.268 8.856-11.107 12.077-16.721.961.35 2.06.616 3.321.689l1.015.13c-16.969 26.347-16.285 45.581-2.429 51.732 8.192 3.614 15.93-2.881 16.003-7.979 0 0-3.77 1.644-7.63-1.617-4.964-4.46 3.03-24.961 14.964-42.53 5.777-8.483 3.947-11.485-13.283-14.268zm-50.163 8.859c3.278-7.361 8.964-18.906 13.333-16.924 3.607 1.741-2.259 17.838-15.419 25.399.274-3.048.975-5.91 2.086-8.475zm-29.436-78.466c9.627-10.645 16.56-4.986 12.064 7.753-4.375 12.516-15.737 23.179-27.584 25.835 3.92-12.418 9.88-27.218 15.52-33.588zm-96.266 77.319c-.994 15.672-1.745 24.987-5.128 24.672-3.627-.386-4.124-11.545-3.407-20.396.798-11.619 2.043-18.153 6.592-18.39 2.749-.031 1.556 2.936 1.658 8.657.115 1.93.098 3.769.285 5.457zm51.762 12.894c-2.316 5.343-5.23 9.258-7.751 8.528-3.243-1.019-1.667-19.025-.634-30.198.577-7.968 1.505-14.149 2.608-19.437 4.382.503 8.275.584 11.118.051-3.126 13.984-4.587 27.958-5.341 41.056zM122.503 82.057c-7.516-1.738-12.405 1.799-16.005 20.199-2.278 13.21-9.709 23.9-18.367 24.035-9.462.147-14.762-9.799-16.81-25.008 14.688-9.074 27.977-20.71 35.115-33.776 17.828-31.918 10.273-55.111-6.802-55.989-19.827-1.022-52.165 24.473-52.531 70.79.025 3.057.133 5.978.299 8.706-5.075.342-10.629-.266-14.065-2.251-15.71-9.246-6.657-26.629 4.059-30.743 0 0-15.801-23.306-29.266-10.094-12.978 12.749-11.514 37.568 12.398 51.803 9.422 5.616 19.113 8.007 29.866 6.603l1.07 5.13.038-.02c6.079 16.924 17.828 24.377 29.765 24.569 15.857.256 25.685-6.628 31.045-24.358-.47 37.247-15.261 36.11-19.072 34.227-5.608-2.771 3.794 20.653 23.31 11.453 9.999-4.714 11.894-36.857 7.315-68.687-.582-4.889-1.362-6.589-1.362-6.589zm-53.851-6.75c1.922-37.479 13.434-58.49 26.497-57.633 13.005.581 14.316 26.794 3.417 45.243-6.076 9.999-17.228 17.62-30.187 22.755-.11-3.271.028-6.735.273-10.365z"/><path fill="#F2F2D4" d="M199.006 148.504c-.388-.441-3.243-8.39-3.564-9.378-.062 3.069-.247 6.159-.186 9.207-.005.537-.129.747-.599.95l.026-.036c-.262.138-.538.183-.814.229-.215.036-.553.092-.814.04-.615-.088-4.383-8.612-4.837-9.83-.728-1.93-1.349-3.972-2.02-5.942-.259-.809-.829-2.166-.966-2.994-.041-.246 1.556-.509 1.801-.549.553-.092 1.106-.182 1.699-.217.284.962.385 1.955.634 2.892.183.726.519 1.428.795 2.139l1.592 4.31c.285.773.545 1.581.743 2.401.099-1.31-.115-9.505.222-9.939.21-.255.635-.357.912-.403.43-.071 1.151-.095 1.534.125.557.318 3.733 9.256 3.986 10.412.026-2.337-.37-4.922-.457-7.367-.034-.783-.285-6.702.192-7.064.189 0 .348.006.532-.025l.209-.066c.43-.071 1.632.141 2.087.224.16 2.686.236 5.448.205 8.134-.027.982-.093 11.683-.18 11.918-.257.547-1.04.77-1.593.862-.366.06-.807.07-1.139-.033zm16.596-6.401c.102 1.022.139 2.332-.592 3.156l.031-.003-.114.105c-1.298 1.099-1.252 1.564-3.264 1.764-1.207.121-2.205-.155-3.239-.802l.034.028c-.6-.378-.969-.935-1.282-1.561l.034.028-.114-.208c-1.399-2.737-1.825-8.574-1.999-10.308-.451-4.52 1.182-7.279 4.711-7.632 1.115-.112 2.409.635 3.202 1.369l-.031.003c1.247.908 1.573 2.908 1.718 4.363.321 3.221.583 6.478.905 9.698zm-5.172 1.768c.335.217.839.26 1.211.223.309-.031.709-.102.83-.458.232-.805.165-5.239.06-6.292l-.377-2.839-.12-1.833c-.118-1.177-.504-2.858-2.022-2.707-2.322.232-1.641 4.855-1.438 6.899l.498 3.421c.111 1.115.381 2.87 1.362 3.617l-.004-.031zm10.236 2.153c-.124.006-.249.011-.375-.045l.127.056-.156.007c-.559.026-1.397.096-1.585-.611l.001.031c-.08-.37-.145-1.083-.179-1.829-.042-.901-.056-1.867-.078-2.364-.079-1.679-.66-14.796-.035-15.448.356-.36 2.156-.506 2.623-.528 1.243-.058 3.677.047 4.656.998 1.175 1.129 1.721 5.495 1.797 7.143.071 1.523-.039 3.179-1.169 4.322.268.392.598.782.803 1.177.551 1.127.728 4.919.791 6.286l.022.467c-.331.265-.76.409-1.226.431-1.43.067-2.046.22-2.129-1.583l-.017-2.367c-.061-1.305.097-3.244-1.829-3.154-.435.02-.898.104-1.329.218.052 1.119.157 6.036-.433 6.748-.094.036-.187.041-.28.045zm.17-17.732l.154 4.634.078 1.678c.025.529.08 1.056.138 1.614l1.088-.051c1.057-.049 2.449-.27 2.478-1.642l-.03.032c-.075-1.616-.155-3.326-.445-4.87-.28-1.326-1.536-1.548-2.717-1.493-.25.013-.498.024-.744.098zm16.529-1.582c.877-.866.785-1.053 1.874-1.047.591.004 1.15.163 1.146.879-.005.871-3.077 4.494-3.736 5.33-.283.403-.846.959-1.035 1.394 1.198 2.683 2.332 5.521 3.342 8.297v-.031c.277.655 1.319 3.213 1.316 3.773l-.001.125c-.251.403-1.248.521-1.683.519-.28-.002-1.027-.037-1.243-.257-.465-.438-3.247-8.67-3.613-9.855l-.126.124c-.02 3.267-.288 6.502-.307 9.8-.872.275-1.589.24-2.46.234-.245-.717-.297-2.398-.288-3.923l.181-14.593c.004-.622.101-1.275.385-1.834l1.401-.085c1.431.009 1.145 1.158 1.139 2.092l-.148 3.982c1.347-1.578 2.663-3.251 3.856-4.924zm16.124 13.69c.042.346.052.689.032 1.031-.216 3.634-2.712 5.231-5.569 5.061-2.33-.138-4.603-2.269-4.457-4.723.071-1.211.946-1.222 1.908-1.164.466.028.923.18 1.344.454-.059.994.421 2.363 1.601 2.433 1.087.065 1.914-.727 1.976-1.783.118-1.988-2.584-4.767-3.942-6.033l.029.033c-1.773-1.633-2.576-2.803-2.428-5.288.173-2.92 2.351-4.941 5.333-4.763 1.397.083 3.157.905 3.698 2.278.271.702.799 1.762.753 2.539-.056.932-1.463 1.004-2.177.961-1.988-.119-.339-2.67-2.98-2.827-.341-.02-.766.297-.998.533l.031.002c-.464.471-.783 1.107-.822 1.759-.009.155.013.312.035.469.252 2.041 5.978 5.344 6.63 9.061l.003-.033zm9.563-3.093c.396-2.679 1.094-5.263 1.392-7.922.094-.835.198-1.481 1.188-1.369.989.111 1.745.635 1.623 1.717-.354 3.154-.957 6.28-1.466 9.417-.447 2.862-.836 5.761-1.377 8.613-.556-.063-1.103.064-1.69-.003-1.083-.122-.895-1.509-.795-2.406.198-1.762.466-3.579.757-5.332l-3.078-.472-.216-.024c-.296 2.346-.793 7.332-1.626 7.489-.258.065-.88.026-1.128-.002-.309-.035-1.136-.191-1.084-.655.129-1.144.468-2.484.62-3.844l.251-2.226 1.472-10.857.042-.935c.154-1.36.868-1.312 1.92-1.193 1.082.122 1.116.376 1.012 1.304l-.708 5.18-.278 2.474-.063.557 3.048.468.184.021zm14.98 8.101c-.166 1.013-.47 2.288-1.39 2.894l.031.005-.137.072c-1.538.725-1.614 1.186-3.61.857-1.198-.196-2.088-.721-2.919-1.614l.026.036c-.482-.521-.693-1.155-.833-1.84l.026.036-.057-.231c-.642-3.006.46-8.753.743-10.473.736-4.483 3.027-6.725 6.528-6.149 1.105.181 2.161 1.238 2.736 2.152l-.03-.005c.969 1.2.765 3.216.527 4.659-.526 3.194-1.117 6.408-1.641 9.601zm-5.453.366c.267.296.743.469 1.112.529.307.05.71.085.92-.227.434-.717 1.517-5.017 1.689-6.061l.372-2.84.358-1.802c.192-1.167.254-2.891-1.25-3.138-2.303-.378-2.845 4.263-3.177 6.289-.192 1.167-.22 2.298-.406 3.434-.181 1.105-.377 2.871.377 3.846l.005-.03zm10.627-1.393l-.381 2.114c-.25 1.188-.53 2.369-.84 3.544-.184.724-.495.691-1.53.473-.67-.14-1.352-.379-1.185-1.171l3.354-13.987.657-3.424c.396-1.888 2.101-1.371 4.019-.968 4.873 1.024 4.256 4.711 3.393 8.823-.564 2.679-1.456 5.259-5.232 4.465l-2.076-.564c-.083.238-.134.482-.179.695zm5.252-9.708l.031.007c-.458-.542-1.255-.836-1.895-.971-.335-.07-.714-.086-1.055-.126-.206 1.133-.406 2.236-.637 3.332l-.952 4.379.275.058c.578.122 1.759.402 2.267.254.912-.253 1.586-2.401 1.753-3.193.242-1.158.508-3.328.213-3.74zm12.974 14.323c-.025.347-.08.686-.165 1.018-.905 3.526-3.659 4.618-6.432 3.906-2.26-.58-4.086-3.105-3.475-5.486.302-1.175 1.161-1.019 2.095-.779.452.116.874.353 1.233.702-.247.965-.037 2.4 1.108 2.694 1.055.271 2.018-.35 2.281-1.375.494-1.929-1.628-5.172-2.721-6.673l.022.038c-1.429-1.941-1.995-3.243-1.375-5.654.727-2.833 3.25-4.402 6.143-3.66 1.356.348 2.927 1.49 3.197 2.941.131.74.449 1.882.255 2.636-.232.904-1.627.707-2.32.529-1.929-.495.175-2.686-2.386-3.343-.332-.085-.809.146-1.082.333l.03.008c-.545.374-.98.937-1.142 1.57-.039.151-.047.309-.056.467-.141 2.052 4.851 6.385 4.782 10.158l.008-.03z"/></svg>