<svg xmlns="http://www.w3.org/2000/svg" viewBox="0 318.939 595.28 204.006" enable-background="new 0 318.939 595.28 204.006"><path fill="#EFAD5F" d="M592.938 322.516c.858 8.854 2.069 16.649 2.262 24.466.226 9.26-.561 18.538-.655 27.807-.217 21.352-.462 42.708-.353 64.059.075 14.528 1.748 29.122.801 43.561-.759 11.555-.311 23.072-.994 34.584-.09 1.56-.542 3.101-.924 5.169-15.419 0-30.621.061-45.823-.024-8.331-.047-16.658-.311-24.985-.532-4.151-.108-8.298-.509-12.445-.476-30.809.231-61.618.481-92.423.858-7.639.094-15.273.971-22.907.957-10.664-.019-21.323-.603-31.987-.815-23.656-.471-47.307-1.018-70.963-1.221-12.752-.108-25.503.514-38.255.646-16.22.17-32.444.179-48.664.259-12.973.066-25.946.372-38.914.151-28.071-.481-56.143-1.15-84.205-1.927-9.948-.273-19.872-1.305-29.815-1.612-15.277-.467-30.569-.603-45.851-.905-.669-.014-1.329-.269-2.601-.542-.424-3.025-1.14-6.168-1.258-9.33-.763-20.155-1.824-40.309-1.951-60.469-.118-18.548.905-37.105 1.23-55.657.108-6.013-.613-12.035-.565-18.053.094-11.347.523-22.695.721-34.042.089-6.168 0-12.346 0-18.92 1.805-.16 3.841-.476 5.881-.499 36.436-.415 72.871-1.037 109.302-1.07 18.067-.019 36.134 1.513 54.201 1.546 30.88.057 61.76-.806 92.635-.745 27.864.057 55.723 1.008 83.592 1.258 27.157.245 54.314 0 81.471.165 25.541.155 51.077.598 76.618.834 4.632.042 9.264-.434 13.901-.457 12.723-.066 25.461-.386 38.165.108 8.798.339 17.506 1.178 26.314-.297 3.012-.512 6.32.727 9.444 1.165z"/></svg>