<?xml version="1.0" encoding="utf-8"?>
<!-- Generator: Adobe Illustrator 17.1.0, SVG Export Plug-In . SVG Version: 6.00 Build 0)  -->
<!DOCTYPE svg PUBLIC "-//W3C//DTD SVG 1.1//EN" "http://www.w3.org/Graphics/SVG/1.1/DTD/svg11.dtd">
<svg version="1.1" id="Layer_1" xmlns="http://www.w3.org/2000/svg" xmlns:xlink="http://www.w3.org/1999/xlink" x="0px" y="0px"
	 viewBox="0 0 63.035 35.543" enable-background="new 0 0 63.035 35.543" xml:space="preserve">
<g>
	<path fill="#DCE3B2" d="M53.836,26.055c0.34-1.064,0.51-2.71,0.51-4.92c0-2.229-0.17-3.875-0.51-4.945
		c-0.34-0.994-0.888-1.488-1.644-1.488c-0.806,0-1.373,0.475-1.72,1.418c-0.327,0.88-0.491,2.52-0.491,4.927
		c0,2.413,0.158,4.103,0.479,5.06c0.327,0.963,0.907,1.444,1.732,1.444C52.947,27.549,53.495,27.049,53.836,26.055L53.836,26.055z
		 M63.035,29.771V5.772c0,0-0.001-5.555-5.452-5.765v30.31h-3.351v-2.362c-0.479,1.007-0.958,1.697-1.437,2.077
		c-0.479,0.374-1.115,0.564-1.909,0.564c-1.493,0-2.589-0.779-3.294-2.337c-0.699-1.558-1.046-4.002-1.046-7.339
		c0-1.615,0.088-3.001,0.258-4.173c0.176-1.178,0.441-2.14,0.8-2.9c0.353-0.754,0.812-1.317,1.373-1.678
		c0.561-0.361,1.222-0.538,1.997-0.538c0.731,0,1.342,0.177,1.821,0.532c0.233,0.165,0.473,0.405,0.718,0.709
		c0.246,0.31,0.485,0.69,0.719,1.14V0H5.772C5.772,0,0,0,0,5.772v23.999c0,0,0,5.772,5.772,5.772h51.491
		C57.263,35.543,63.035,35.543,63.035,29.771L63.035,29.771z M17.363,11.946l-4.737,18.37h-2.261l-4.913-18.37h3.597l1.316,5.826
		c0.271,1.184,0.498,2.438,0.687,3.761c0.183,1.317,0.34,2.761,0.454,4.325c0.069-0.367,0.107-0.583,0.107-0.64l0.403-2.736
		c0.151-1.045,0.447-2.615,0.894-4.711l1.209-5.826H17.363L17.363,11.946z M29.678,21.787h-7.666c0,3.92,0.769,5.883,2.306,5.883
		c1.399,0,2.098-1.184,2.098-3.552h3.124c-0.246,4.319-1.997,6.478-5.253,6.478c-0.97,0-1.802-0.184-2.501-0.551
		c-0.693-0.367-1.266-0.937-1.72-1.703c-0.46-0.773-0.794-1.748-1.008-2.932c-0.214-1.184-0.328-2.59-0.328-4.224
		c0-3.248,0.447-5.648,1.342-7.212c0.894-1.564,2.274-2.343,4.145-2.343c3.641,0,5.462,3.242,5.462,9.727V21.787L29.678,21.787z
		 M43.423,30.316h-3.351l-0.019-12.298c0-1.241-0.145-2.121-0.435-2.647c-0.29-0.519-0.787-0.779-1.493-0.779
		c-0.384,0-0.705,0.07-0.97,0.202c-0.258,0.139-0.472,0.355-0.636,0.659c-0.157,0.304-0.277,0.697-0.353,1.184
		c-0.076,0.481-0.113,1.083-0.113,1.792v11.886h-3.357v-18.37h3.357v2.115c0.951-1.621,2.186-2.432,3.704-2.432
		c1.467,0,2.513,0.582,3.143,1.76c0.353,0.659,0.523,1.944,0.523,3.85V30.316L43.423,30.316z M22.012,19.336h4.246
		c-0.145-1.931-0.359-3.198-0.655-3.806c-0.302-0.678-0.794-1.013-1.468-1.013c-0.693,0-1.184,0.335-1.474,1.013
		C22.365,16.138,22.151,17.405,22.012,19.336L22.012,19.336z"/>
</g>
</svg>
