<svg xmlns="http://www.w3.org/2000/svg" viewBox="1.1 298.9 595 243.7" enable-background="new 1.1 298.9 595 243.7"><g fill="#F0F1D1"><path d="M61.2 299.4c9 0 17.3 1.4 25.1 4.3 7.7 2.8 14.4 7.1 20.1 12.9 5.7 5.7 10.1 12.9 13.3 21.5 3.2 8.6 4.8 18.7 4.8 30.3 0 10.2-1.3 19.5-3.9 28.1-2.6 8.6-6.5 16-11.8 22.3-5.3 6.2-11.8 11.2-19.7 14.7-7.9 3.6-17.2 5.4-27.8 5.4h-60.2v-139.5h60.1zm-2.1 113.7c4.4 0 8.7-.7 12.9-2.1 4.2-1.4 7.9-3.8 11.1-7.1 3.2-3.3 5.9-7.7 7.8-13 2-5.3 2.9-11.8 2.9-19.5 0-7-.7-13.4-2.1-19-1.4-5.7-3.6-10.5-6.7-14.5s-7.3-7.1-12.4-9.3c-5.1-2.1-11.5-3.2-19-3.2h-21.9v87.9h27.4zM508.8 299.4l58.2 93.5h.4v-93.5h28.7v139.4h-30.7l-58-93.4h-.4v93.4h-28.7v-139.4h30.5zM197.1 509.9l11.9 32h-7.3l-2.4-7.1h-11.9l-2.5 7.1h-7l12-32h7.2zm.4 19.6l-4-11.7h-.1l-4.1 11.7h8.2zM233.8 539.5c-2.4 2.1-5.7 3.1-10 3.1s-7.6-1-10-3.1c-2.4-2.1-3.5-5.3-3.5-9.7v-19.9h7v19.9c0 .9.1 1.7.2 2.5.2.8.5 1.6.9 2.2.5.6 1.1 1.2 2 1.6.8.4 2 .6 3.4.6 2.5 0 4.2-.6 5.2-1.7.9-1.1 1.4-2.9 1.4-5.3v-19.9h7v19.9c0 4.4-1.2 7.7-3.6 9.8zM262.5 518.5c-.4-.7-.9-1.3-1.6-1.8-.6-.5-1.3-.9-2.1-1.2-.8-.3-1.6-.4-2.5-.4-1.6 0-2.9.3-4 .9-1.1.6-2 1.4-2.7 2.5-.7 1-1.2 2.2-1.5 3.5-.3 1.3-.5 2.7-.5 4.1 0 1.3.2 2.6.5 3.9.3 1.3.8 2.4 1.5 3.4s1.6 1.8 2.7 2.4c1.1.6 2.4.9 4 .9 2.1 0 3.8-.7 5-2 1.2-1.3 1.9-3 2.2-5.2h6.8c-.2 2-.6 3.8-1.4 5.4-.7 1.6-1.7 3-2.9 4.1-1.2 1.1-2.6 2-4.3 2.6-1.6.6-3.4.9-5.4.9-2.4 0-4.6-.4-6.6-1.3-1.9-.8-3.6-2-4.9-3.5-1.3-1.5-2.4-3.2-3.1-5.3-.7-2-1.1-4.2-1.1-6.5 0-2.4.4-4.6 1.1-6.7.7-2 1.7-3.8 3.1-5.3 1.3-1.5 3-2.7 4.9-3.6 1.9-.9 4.1-1.3 6.6-1.3 1.8 0 3.4.3 5 .8s3 1.2 4.2 2.2c1.2 1 2.2 2.2 3.1 3.6.8 1.4 1.3 3.1 1.5 4.9h-6.8c-.1-.6-.4-1.4-.8-2zM280.7 509.9v13.3l12.4-13.3h8.7l-12.4 12.6 13.6 19.3h-8.8l-9.6-14.4-4 4.1v10.3h-7v-32h7.1zM311.5 509.9v26.1h15.5v5.9h-22.5v-32h7zM345.4 509.9l11.9 32h-7.3l-2.4-7.1h-11.9l-2.5 7.1h-7l12-32h7.2zm.4 19.6l-4-11.7h-.1l-4.1 11.7h8.2zM365.7 509.9l13.3 21.4h.1v-21.4h6.5v32h-7l-13.2-21.4h-.1v21.4h-6.5v-32h6.9zM404.1 509.9c2.1 0 4 .3 5.7 1 1.8.7 3.3 1.6 4.6 3 1.3 1.3 2.3 3 3 4.9.7 2 1.1 4.3 1.1 6.9 0 2.3-.3 4.5-.9 6.5-.6 2-1.5 3.7-2.7 5.1-1.2 1.4-2.7 2.6-4.5 3.4-1.8.8-3.9 1.2-6.3 1.2h-13.7v-32h13.7zm-.5 26.1c1 0 2-.2 2.9-.5 1-.3 1.8-.9 2.5-1.6.7-.8 1.3-1.8 1.8-3 .4-1.2.7-2.7.7-4.5 0-1.6-.2-3.1-.5-4.4-.3-1.3-.8-2.4-1.5-3.3-.7-.9-1.7-1.6-2.8-2.1-1.2-.5-2.6-.7-4.3-.7h-5v20.1h6.2zM1.1 474.1h595v2.5h-595zM312 298.9zM315 307.1l-15 40.4 34 91.4h30.3zM312 298.9h-30.1l-52.3 140h30.3l37-99.5 15.1-40.5z"/></g></svg>