<svg version="1.1" xmlns="http://www.w3.org/2000/svg" x="0px" y="0px" viewBox="0 0 136.101 27.422" enable-background="new 0 0 136.101 27.422" xml:space="preserve"><path fill="#f1f1d3" d="M10.686 21.951c-1.51 0-2.737 1.229-2.737 2.737 0 1.504 1.227 2.734 2.737 2.734 1.507 0 2.732-1.23 2.737-2.734C13.423 23.18 12.193 21.951 10.686 21.951zM10.686 25.795c-0.614 0-1.116-0.5-1.116-1.107 0-0.614 0.501-1.108 1.116-1.108 0.61 0 1.103 0.494 1.107 1.108C11.793 25.295 11.296 25.795 10.686 25.795zM10.686 0C6.608 0 3.295 3.321 3.295 7.395c0 4.077 3.318 7.389 7.392 7.389 4.071 0 7.388-3.312 7.392-7.389C18.078 3.316 14.76 0 10.686 0zM10.686 11.534c-2.279 0-4.135-1.85-4.135-4.135s1.857-4.135 4.135-4.135c2.275 0 4.133 1.85 4.135 4.135C14.821 9.68 12.961 11.534 10.686 11.534zM9.843 18.924c0-2.716-2.207-4.92-4.922-4.92C2.208 14.004 0 16.208 0 18.924c0 2.714 2.208 4.924 4.922 4.924C7.637 23.849 9.848 21.636 9.843 18.924zM4.922 21.673c-1.518 0-2.756-1.229-2.756-2.75 0-1.52 1.233-2.757 2.756-2.757 1.52 0 2.756 1.237 2.754 2.757C7.676 20.437 6.44 21.673 4.922 21.673zM36.784 7.7c2.015 0 3.524 0.468 5.1 1.573l1.279-1.947c-1.04-0.721-1.476-0.977-2.386-1.294 -1.229-0.467-2.548-0.694-3.902-0.694 -5.94 0-10.433 4.594-10.433 10.655 0 6.385 4.432 10.885 10.689 10.885 0.974 0 1.826-0.091 2.861-0.343 1.039-0.254 1.54-0.44 2.802-1.007l-0.727-2.01c-1.663 0.694-3.016 0.974-4.781 0.974 -4.869 0-8.045-3.428-8.045-8.645C29.241 11.098 32.382 7.7 36.784 7.7zM54.5 24.153v-1.042 -7.702c0-2.201-1.785-3.548-4.652-3.548 -3.048 0-5.124 1.292-5.124 3.17 0 0.345 0.033 0.509 0.255 0.878l2.388-0.501c-0.093-0.258-0.125-0.384-0.125-0.535 0-0.819 0.694-1.226 2.167-1.226 1.824 0 2.702 0.593 2.702 1.76v2.57l-4.935 1.171C45.1 19.65 44 21.037 44 23.104c0 2.263 1.513 3.742 3.806 3.742 1.007 0 2.138-0.316 3.019-0.814 0.469-0.259 0.781-0.51 1.508-1.127 0.128 1.349 0.816 1.849 2.766 1.973l0.568-1.97C54.94 24.778 54.569 24.528 54.5 24.153zM48.279 24.749c-1.169 0-1.915-0.721-1.915-1.854 0-0.567 0.062-0.877 0.403-1.539l5.345-1.379 0.001 2.948C50.069 24.404 49.346 24.749 48.279 24.749zM63.952 24.715c-3.048 0-4.968-2.041-4.968-5.314 0-3.203 1.918-5.406 4.784-5.406 1.289 0 2.099 0.313 3.203 1.227l1.35-1.918c-0.971-0.694-1.413-0.908-2.353-1.16 -0.694-0.193-1.385-0.283-2.109-0.283 -4.367 0-7.45 3.171-7.45 7.673 0 4.375 2.953 7.353 7.29 7.353 1.415 0 2.801-0.339 3.964-0.974 0.219-0.096 0.532-0.284 0.94-0.536l-1.226-1.853C66.211 24.404 65.34 24.715 63.952 24.715zM75.137 24.528c-0.506 0-0.788-0.222-0.816-0.694 -0.03-0.156-0.03-0.436-0.064-0.878l-0.03-0.629v-8.113H78v-1.979h-3.773V8.083h-2.359v4.152l-2.389 0.595v1.384h2.389v9.497c0 1.888 1.103 3.171 2.732 3.171 1.134 0.003 1.92-0.41 3.587-1.786l-0.977-1.573C76.207 24.275 75.734 24.528 75.137 24.528zM89.492 20.944c-1.63 2.263-3.897 3.867-5.403 3.867 -1.195 0-1.701-0.726-1.701-2.483V12.235h-2.357v10.689c0 2.608 1.318 3.996 3.805 3.996 2.135 0 3.993-1.103 5.655-3.397v2.95h2.391V12.235h-2.389V20.944zM100.236 18.33c-2.58-1.066-2.961-1.287-3.523-1.852 -0.222-0.214-0.346-0.532-0.346-0.882 0-1.063 1.039-1.785 2.637-1.785 0.538 0 1.069 0.09 1.637 0.251 0.724 0.194 1.132 0.387 2.043 0.945l1.166-1.917c-1.197-0.664-1.701-0.848-2.769-1.063 -0.597-0.093-1.227-0.155-1.821-0.155 -3.337 0-5.408 1.539-5.408 4.018 0 1.73 0.94 2.706 3.709 3.871 2.551 1.039 3.211 1.449 3.776 2.263 0.151 0.216 0.283 0.627 0.283 0.977 0 1.1-1.071 1.886-2.518 1.886 -1.003 0-2.263-0.314-3.268-0.787 -0.255-0.128-0.6-0.314-1.069-0.564l-0.974 1.982c1.414 0.722 2.014 0.937 3.364 1.19 0.721 0.125 1.381 0.187 1.979 0.187 3.113-0.009 4.968-1.547 4.968-4.096C104.1 20.566 103.254 19.591 100.236 18.33z"/><rect x="105.721" y="3.555" fill="#f1f1d3" width="2.36" height="22.917"/><path fill="#f1f1d3" d="M120.644 24.153v-1.042 -7.702c0-2.201-1.792-3.548-4.652-3.548 -3.05 0-5.123 1.292-5.123 3.17 0 0.345 0.03 0.509 0.246 0.878l2.391-0.501c-0.09-0.258-0.123-0.384-0.123-0.535 0-0.819 0.691-1.226 2.165-1.226 1.828 0 2.705 0.593 2.705 1.76v2.57l-4.938 1.171c-2.072 0.501-3.17 1.888-3.17 3.955 0 2.263 1.508 3.742 3.803 3.742 1.007 0 2.141-0.316 3.018-0.814 0.471-0.259 0.784-0.51 1.508-1.127 0.126 1.349 0.819 1.849 2.766 1.973l0.569-1.97C121.084 24.778 120.706 24.528 120.644 24.153zM118.256 22.924c-2.043 1.479-2.764 1.824-3.838 1.824 -1.162 0-1.912-0.721-1.912-1.854 0-0.567 0.062-0.877 0.407-1.539l5.343-1.379V22.924zM130.125 11.857c-0.878 0-1.954 0.125-2.672 0.311 -0.569 0.158-0.882 0.285-1.637 0.662V3.555h-2.36v22.51c0.662 0.317 0.943 0.407 1.45 0.507 0.753 0.187 2.043 0.314 2.861 0.314 5.064-0.001 8.333-3.209 8.333-8.179C136.101 14.592 133.712 11.857 130.125 11.857zM131.384 23.611c-0.662 0.507-1.446 0.814-2.263 1.004 -0.411 0.062-0.819 0.126-1.232 0.126 -0.846 0-1.417-0.126-2.076-0.442v-9.086c1.168-0.787 2.202-1.127 3.525-1.127 2.643 0.003 4.183 1.765 4.183 4.72C133.521 21.195 132.957 22.516 131.384 23.611z"/></svg>