<?xml version="1.0" encoding="UTF-8" standalone="no"?>
<svg width="247px" height="21px" viewBox="0 0 247 21" version="1.1" xmlns="http://www.w3.org/2000/svg" xmlns:xlink="http://www.w3.org/1999/xlink">
    <!-- Generator: Sketch 3.8.3 (29802) - http://www.bohemiancoding.com/sketch -->
    <title>sitehost</title>
    <desc>Created with Sketch.</desc>
    <defs></defs>
    <g id="Page-1" stroke="none" stroke-width="1" fill="none" fill-rule="evenodd">
        <path d="M223.523192,0 L223.523192,5.18608664 L226.702807,9.9408992 L223.523192,14.6957118 L223.523192,20.4521727 L229.120863,9.9408992 L223.523192,0 Z M241.40487,9.9408992 L223.523192,0 L229.120863,9.9408992 L247,20.4521727 L241.40487,9.9408992 Z M229.120863,9.9408992 L223.523192,20.4521727 L234.794753,13.8223659 L229.120863,9.9408992 Z M247,0 L247,5.18608664 L243.819751,9.9408992 L247,14.6957118 L247,20.4521727 L241.40487,9.9408992 L247,0 Z M247,0 L236.080318,6.38908089 L241.40487,9.9408992 L247,0 Z M0,16.5287854 L2.32913407,14.2218819 C4.43723224,15.7424565 6.54596557,16.6075453 9.28350794,16.6075453 C11.6748878,16.6075453 13.1859349,15.6897382 13.1859349,14.3000067 L13.1859349,14.2479235 C13.1859349,12.9363168 12.3043319,12.2281127 8.21389742,11.4417838 C3.5245064,10.4972999 0.88096781,9.34321304 0.88096781,5.96034746 L0.88096781,5.90762913 C0.88096781,2.76104331 4.02818879,0.58371263 8.40254013,0.58371263 C11.6120069,0.58371263 14.1609065,1.39671825 16.3954016,2.8918864 L14.3184263,5.33090327 C12.33609,4.09805646 10.3531185,3.44257068 8.33902406,3.44257068 C6.07404122,3.44257068 4.75163676,4.41246098 4.75163676,5.6192662 L4.75163676,5.67198453 C4.75163676,7.0877576 5.75900154,7.7172018 9.97583304,8.55688416 C14.633466,9.50073288 17.0566039,10.8904644 17.0566039,13.9328838 L17.0566039,13.9856022 C17.0566039,17.4211861 13.814744,19.4664033 9.188869,19.4664033 C5.82188244,19.4664033 2.64353859,18.4958779 0,16.5287854 Z M52.1066736,3.83573511 L45.1205417,3.83573511 L45.1205417,0.846033975 L62.9945973,0.846033975 L62.9945973,3.83573511 L56.0084654,3.83573511 L56.0084654,19.204082 L52.1066736,19.204082 L52.1066736,3.83573511 Z M75.270347,0.846033975 L91.6028677,0.846033975 L91.6028677,3.73093361 L79.1416511,3.73093361 L79.1416511,8.50416583 L90.1870947,8.50416583 L90.1870947,11.3890655 L79.1416511,11.3890655 L79.1416511,16.3191824 L91.7603876,16.3191824 L91.7603876,19.204082 L75.270347,19.204082 L75.270347,0.846033975 Z M103.904659,0.846033975 L107.775963,0.846033975 L107.775963,8.47812424 L118.285966,8.47812424 L118.285966,0.846033975 L122.15727,0.846033975 L122.15727,19.204082 L118.285966,19.204082 L118.285966,11.4678254 L107.775963,11.4678254 L107.775963,19.204082 L103.904659,19.204082 L103.904659,0.846033975 Z M133.136657,10.0774587 L133.136657,10.0253756 C133.136657,4.85834375 137.920687,0.531629457 144.686418,0.531629457 C151.45215,0.531629457 156.172663,4.80626058 156.172663,9.97265723 L156.172663,10.0253756 C156.172663,15.1917722 151.389269,19.5184865 144.622902,19.5184865 C137.857171,19.5184865 133.136657,15.2444906 133.136657,10.0774587 Z M152.112717,10.0774587 L152.112717,10.0253756 C152.112717,6.4583134 148.997254,3.49528901 144.622902,3.49528901 C140.249186,3.49528901 137.196604,6.40623023 137.196604,9.97265723 L137.196604,10.0253756 C137.196604,13.5918026 140.312067,16.5554621 144.686418,16.5554621 C149.06077,16.5554621 152.112717,13.6438857 152.112717,10.0774587 Z M165.506349,16.5287854 L167.834848,14.2218819 C169.943581,15.7424565 172.051679,16.6075453 174.789222,16.6075453 C177.181237,16.6075453 178.691649,15.6897382 178.691649,14.3000067 L178.691649,14.2479235 C178.691649,12.9363168 177.810681,12.2281127 173.719611,11.4417838 C169.030855,10.4972999 166.387317,9.34321304 166.387317,5.96034746 L166.387317,5.90762913 C166.387317,2.76104331 169.534538,0.58371263 173.908889,0.58371263 C177.118356,0.58371263 179.667256,1.39671825 181.901751,2.8918864 L179.824775,5.33090327 C177.841804,4.09805646 175.859467,3.44257068 173.845373,3.44257068 C171.579755,3.44257068 170.257986,4.41246098 170.257986,5.6192662 L170.257986,5.67198453 C170.257986,7.0877576 171.265351,7.7172018 175.481547,8.55688416 C180.13918,9.50073288 182.562953,10.8904644 182.562953,13.9328838 L182.562953,13.9856022 C182.562953,17.4211861 179.321093,19.4664033 174.695218,19.4664033 C171.327596,19.4664033 168.149252,18.4958779 165.506349,16.5287854 Z M199.615746,3.83573511 L192.629614,3.83573511 L192.629614,0.846033975 L210.50494,0.846033975 L210.50494,3.83573511 L203.518173,3.83573511 L203.518173,19.204082 L199.615746,19.204082 L199.615746,3.83573511 Z M29.389518,19.204082 L33.260187,19.204082 L33.260187,2.9515915 L29.389518,0.848574617 L29.389518,19.204082 Z" id="sitehost" fill="#F1F1D3"></path>
    </g>
</svg>