<svg version="1.1" xmlns="http://www.w3.org/2000/svg" x="0px" y="0px" viewBox="0 0 142.424 24.715" enable-background="new 0 0 142.424 24.715" xml:space="preserve"><path fill="#f1f1d3" d="M83.825 1.663c-5.65 0-8.825 3.931-8.825 8.505 0 0.758 0.088 1.471 0.24 2.146 -0.786-0.963-1.967-1.592-3.304-1.592 -1.033 0-1.983 0.369-2.724 0.983 0.088-0.628 0.136-1.279 0.136-1.955 0-2.805-1.011-5.323-2.846-7.09C64.721 0.945 62.238 0 59.51 0c-4.585 0-7.877 1.956-9.447 5.422C48.974 1.976 45.974 0 41.586 0c-5.04 0-7.618 2.181-8.151 4.599C32.026 1.602 29.07 0 24.775 0c-4.006 0-7.054 1.648-8.616 4.437C15.719 2.146 13.658 0 8.932 0 4.493 0 0 2.544 0 7.408c0 1.329 0.333 2.852 1.532 4.033 -0.109 0.031-0.216 0.074-0.319 0.129 -0.513 0.275-0.833 0.81-0.833 1.392v1.708c0 2.067 0.981 5.534 7.555 5.534 3.392 0 6.011-1.172 7.453-3.173 0.72 1.74 2.409 2.704 4.875 2.704h1.874c0.873 0 1.58-0.708 1.58-1.58v-9.02c0-1.466 0.526-1.466 0.911-1.466 0.746 0 1.025 0 1.025 1.554v5.653c0 3.361 1.481 4.86 4.803 4.86h2.341c0.873 0 1.58-0.708 1.58-1.58V17.65c1.646 1.716 4.295 2.526 6.826 2.526 3.915 0 6.41-0.824 7.822-2.792v1.855c0 4.765 3.119 5.477 4.978 5.477h2.021c0.873 0 1.58-0.708 1.58-1.58v-3.383c0.768 0.298 1.624 0.453 2.548 0.453 3.311 0 6.009-1.61 7.607-4.267 0.428 1.914 2.137 3.348 4.175 3.348 2.362 0 4.283-1.92 4.283-4.282 0-0.097-0.022-0.189-0.029-0.284 1.411 2.352 3.976 3.75 7.14 3.75 2.914 0 5.097-1.719 5.097-3.845v-1.661H88.37c-0.963 0.555-2.155 0.903-3.874 0.903 -2.447 0-3.96-1.282-3.96-4.019 0-2.243 1.513-3.612 4.223-3.612 1.543 0 3.059 0.583 3.552 1.108h0.147V5.392C88.458 3.324 86.359 1.663 83.825 1.663zM15.005 8.727c0 0.009 0 0.019-0.001 0.028 -0.007-0.007-0.014-0.015-0.021-0.022C14.991 8.731 14.998 8.728 15.005 8.727zM7.936 18.624c-4.393 0-5.974-1.612-5.974-3.954v-1.708l0.146 0.097c1.054 0.792 2.666 1.407 4.95 1.407 2.021 0 2.665-0.47 2.665-1.26 0-0.732-0.381-1.026-3.719-1.493 -2.9-0.411-4.423-1.728-4.423-4.305 0-3.865 3.66-5.827 7.351-5.827 3.573 0 5.739 1.434 5.739 3.836v1.767l-0.145-0.098c-1.083-0.79-2.782-1.347-4.95-1.347 -2.08 0-2.754 0.556-2.754 1.229 0 0.615 0.352 0.82 3.719 1.376 2.695 0.439 4.511 1.904 4.511 4.627C15.051 16.427 12.358 18.624 7.936 18.624zM32.799 18.155h-2.341c-2.461 0-3.223-0.819-3.223-3.279V9.223c0-2.167-0.731-3.134-2.605-3.134 -1.612 0-2.491 1.084-2.491 3.047v9.02h-1.874c-2.37 0-3.689-0.938-3.689-3.279V9.223c0-4.627 3.074-7.643 8.2-7.643 5.711 0 8.024 3.016 8.024 7.789V18.155zM48.937 11.068c0 5.857-1.874 7.527-7.732 7.527 -3.104 0-6.881-1.465-6.881-5.126 0-3.572 2.577-5.389 8.433-5.389h0.793V7.408c0-1.319-1.027-1.641-3.222-1.641 -3.018 0-4.13 0.702-5.273 1.757h-0.145V5.563c0-1.991 2.08-3.982 6.677-3.982 4.453 0 7.351 2.254 7.351 6.999V11.068zM60.154 18.624c-2.167 0-3.426-0.995-4.129-2.197v6.708h-2.021c-2.226 0-3.398-1.172-3.398-3.897v-8.522c0-5.768 3.193-9.136 8.903-9.136 4.714 0 8.258 3.192 8.258 8.17C67.768 15.257 64.548 18.624 60.154 18.624zM71.936 18.12c-1.718 0-3.115-1.399-3.115-3.116 0-1.719 1.397-3.117 3.115-3.117 1.718 0 3.117 1.398 3.117 3.117C75.053 16.721 73.654 18.12 71.936 18.12z"/><path fill="#f1f1d3" d="M118.864 1.635c-5.096 0-8.154 3-8.154 7.601v5.056c-0.324-1.375-1.553-2.405-3.026-2.405 -0.914 0-1.729 0.403-2.3 1.032 0.262-0.908 0.404-1.904 0.404-2.983 0-4.952-3.931-8.272-8.302-8.272 -5.038 0-8.708 3.495-8.708 8.797 0 4.72 3.727 8.099 8.301 8.099 3.544 0 6.114-1.391 7.509-3.765 -0.005 0.071-0.021 0.139-0.021 0.211 0 1.717 1.4 3.116 3.118 3.116 1.566 0 2.852-1.165 3.071-2.67 0.216 1.888 1.482 2.67 3.627 2.67h1.861V9.149c0-1.951 0.875-3.029 2.477-3.029 1.865 0 2.592 0.961 2.592 3.116v5.623c0 2.447 0.758 3.261 3.205 3.261h2.329V9.383C126.846 4.635 124.545 1.635 118.864 1.635zM97.427 14.247c-1.949 0-3.175-1.342-3.175-4.429 0-2.185 1.37-3.785 2.883-3.785 1.924 0 3.177 1.514 3.177 4.399C100.312 12.646 99.176 14.247 97.427 14.247z"/><path fill="#f1f1d3" d="M135.055 13.897c0.176-0.379 0.553-0.874 0.757-1.079l3.962-3.844c1.371-1.34 2.389-2.795 2.389-3.931 0-1.808-1.311-2.941-3.204-2.941h-8.097c-1.339 0-2.943 0.843-2.943 2.561v1.544h7.543c-0.114 0.263-0.551 0.817-0.784 1.049l-4.776 4.661c-1.371 1.34-1.954 2.535-1.954 3.495 0 2.011 1.575 2.708 3.235 2.708h8.564c1.513 0 2.678-1.077 2.678-2.242v-1.981H135.055z"/><path fill="#f1f1d3" d="M39.594 13.148c0 1.025 0.644 1.553 2.197 1.553 0.995 0 1.874-0.498 1.874-1.963v-1.2h-1.115C40.444 11.538 39.594 12.064 39.594 13.148z"/><path fill="#f1f1d3" d="M58.866 5.826c-1.523 0-2.753 1.464-2.753 3.837 0 3.426 1.463 4.627 3.368 4.627 1.757 0 2.722-1.552 2.722-3.953C62.203 6.88 61.15 5.826 58.866 5.826zM59.482 12.709c-0.58 0-1.788 0-1.788-3.047 0-1.286 0.504-2.257 1.172-2.257 1.096 0 1.757 0 1.757 2.931C60.623 11.05 60.512 12.709 59.482 12.709z"/></svg>