<svg version="1.1" xmlns="http://www.w3.org/2000/svg" x="0px" y="0px" viewBox="0 0 272.1 165.6" enable-background="new 0 0 272.1 165.6" xml:space="preserve"><path fill="#FFFFFF" d="M135 82"/><path fill-rule="evenodd" clip-rule="evenodd" fill="#8FC199" d="M9.1 126.7c0 0-0.5-166.3 260.7-11.6V22.2c0 0-249.1-93.8-269.7 104.5H9.1z"/><rect x="0" y="131.5" fill-rule="evenodd" clip-rule="evenodd" fill="#010101" width="9.2" height="33.4"/><path fill-rule="evenodd" clip-rule="evenodd" fill="#010101" d="M25.5 141.7h-8.9c0.2 2.5 0.3 3.9 0.3 6v17.2h8.8v-13.3c0-0.3-0.6-5 3.8-5 2.7 0 3.3 2.4 3.4 4.7v13.6h8.8v-15.5c0-5.1-3.7-8.4-8.7-8.4 -3 0-5.3 0.9-7.3 3.2L25.5 141.7z"/><path fill-rule="evenodd" clip-rule="evenodd" fill="#010101" d="M44.8 141.7v5.5h4.5v10.4c-0.5 7.1 3.1 7.9 9.1 7.9 1.3 0 2.7-0.1 4.7-0.5v-5.2c-1 0.1-2.2 0.1-3.4 0.1 -2 0-1.7-3-1.7-3.6v-9.2h5.1v-5.5h-5.1v-6.8l-8.8 3.3v3.5H44.8z"/><path fill-rule="evenodd" clip-rule="evenodd" fill="#010101" d="M76.3 150.4c0.2-2.6 1-4.8 4-4.9 1.3-0.1 2.4 0.5 3.1 1.5 0.7 1 1.1 2.2 1.1 3.5H76.3zM92.7 155.1c0-8.6-3-14-12.4-14 -7 0-12.5 4.2-12.5 11.5 0 9.1 3.7 13.1 13 13.1 2.7 0 5.3-0.5 7.3-1.8 2.2-1.3 4.1-3.5 4.4-6.5h-8.1c-0.3 2.2-1.8 3.3-4.3 3.3 -3.3 0-4.1-2.6-4-5.6H92.7z"/><path fill-rule="evenodd" clip-rule="evenodd" fill="#010101" d="M107.6 141.7h-8.9c0.2 2.5 0.3 3.9 0.3 6v17.2h8.8v-9.3c-0.1-4.4 1.4-7.2 6-7.2 0.6 0 1.2 0 1.8 0V141c-3.9-0.1-6.7 1.2-7.8 5h-0.1L107.6 141.7z"/><path fill-rule="evenodd" clip-rule="evenodd" fill="#010101" d="M130.6 141.7h-8.9c0.2 2.5 0.3 3.9 0.3 6v17.2h8.8v-13.3c0-0.3-0.6-5 3.8-5 2.7 0 3.3 2.4 3.4 4.7v13.6h8.8v-15.5c0-5.1-3.7-8.4-8.7-8.4 -3 0-5.3 0.9-7.3 3.2L130.6 141.7z"/><path fill-rule="evenodd" clip-rule="evenodd" fill="#010101" d="M160.3 150.4c0.2-2.6 1-4.8 4-4.9 1.3-0.1 2.4 0.5 3 1.5 0.7 1 1.1 2.2 1.1 3.5H160.3zM176.8 155.1c0-8.6-3-14-12.4-14 -7 0-12.5 4.2-12.5 11.5 0 9.1 3.7 13.1 13 13.1 2.7 0 5.3-0.5 7.3-1.8 2.2-1.3 4.1-3.5 4.4-6.5h-8.1c-0.3 2.2-1.8 3.3-4.3 3.3 -3.3 0-4.1-2.6-4-5.6H176.8z"/><path fill-rule="evenodd" clip-rule="evenodd" fill="#010101" d="M180.1 141.7v5.5h4.5v10.4c-0.5 7.1 3.1 7.9 9.1 7.9 1.3 0 2.7-0.1 4.7-0.5v-5.2c-1 0.1-2.2 0.1-3.4 0.1 -2 0-1.7-3-1.7-3.6v-9.2h5.1v-5.5h-5.1v-6.8l-8.8 3.3v3.5H180.1z"/><polygon fill-rule="evenodd" clip-rule="evenodd" fill="#010101" points="205.5,164.9 213.8,164.9 213.8,139.4 213.9,139.4 225.2,164.9 238,164.9 238,131.5 229.7,131.5 229.7,156.3 229.6,156.4 218.4,131.5 205.5,131.5 "/><polygon fill-rule="evenodd" clip-rule="evenodd" fill="#010101" points="272.1,164.9 272.1,158.4 253.6,158.4 269.7,139.9 269.7,131.5 244.6,131.5 244.6,138 261.2,138 243.6,158.4 243.6,164.9 "/></svg>