<?xml version="1.0" encoding="UTF-8"?>
<svg width="739px" height="338px" viewBox="0 0 739 338" version="1.1" xmlns="http://www.w3.org/2000/svg" xmlns:xlink="http://www.w3.org/1999/xlink">
    <!-- Generator: Sketch 41.2 (35397) - http://www.bohemiancoding.com/sketch -->
    <title>logo</title>
    <desc>Created with Sketch.</desc>
    <defs></defs>
    <g id="Page-1" stroke="none" stroke-width="1" fill="none" fill-rule="evenodd">
        <g id="logo" fill="#EFA773">
            <path d="M441.58387,216.430623 C436.679028,227.747785 430.509403,236.042311 425.169871,234.495826 C418.302808,232.336555 421.63941,194.196088 423.827658,170.52897 C425.048603,153.649472 427.013955,140.556884 429.349947,129.356754 C438.629009,130.421724 446.873584,130.594284 452.894897,129.46496 C446.273502,159.084523 443.181146,188.685293 441.58387,216.430623 M331.968763,189.118115 C329.864207,222.315581 328.274332,242.046865 321.108936,241.379408 C313.428004,240.561886 312.375299,216.924666 313.894861,198.174921 C315.585224,173.562712 318.22211,159.721512 327.854446,159.21978 C333.675352,159.154003 331.15034,165.438468 331.366404,177.556921 C331.607803,181.645667 331.572789,185.542491 331.968763,189.118115 M535.827151,25.3353319 C556.212847,2.78700166 570.89606,14.7738997 561.374745,41.7586579 C552.109063,68.2718677 528.048863,90.8580699 502.960439,96.4841895 C511.262233,70.1777093 523.883305,38.8285653 535.827151,25.3353319 M598.162199,191.546761 C605.1047,175.953485 617.145618,151.498744 626.396782,155.69655 C634.036152,159.385505 621.612355,193.481647 593.743571,209.498348 C594.324865,203.044171 595.810551,196.981812 598.162199,191.546761 M704.390887,172.781354 C682.081115,169.338993 678.341137,157.348963 678.341137,157.348963 C678.341137,157.348963 674.695954,159.17365 674.063136,159.759099 C663.668457,167.088887 661.059753,183.942757 669.260205,194.798907 C662.95764,208.460714 653.976057,223.351507 644.836767,234.168077 C644.365356,234.599475 643.898499,235.008948 643.426803,235.465404 C632.190929,246.343765 621.630573,250.280739 605.711898,244.230055 C597.919092,241.487044 594.206158,231.652867 593.364108,220.597391 C594.111933,220.476941 594.585337,220.556102 595.371876,220.199878 C663.244586,199.874887 678.221576,164.98856 634.53119,149.034505 C605.207181,138.608614 570.769667,156.208818 558.621429,188.652262 C555.14477,198.336375 554.889707,207.617564 556.681412,216.052757 C549.656927,227.703364 540.410886,235.868897 534.346589,234.369965 C526.986764,232.445045 533.143294,213.012181 538.895595,191.412073 C548.144766,158.190688 541.347731,139.521243 531.397705,136.316365 C519.535275,133.043716 500.831971,141.041531 485.483772,170.464616 C487.931923,154.499455 490.425336,141.754264 494.795286,125.614835 C529.59376,116.00191 562.422041,89.2130606 575.701268,50.1400328 C595.342271,-7.40112133 534.961188,-13.2521946 500.99594,21.5361777 C485.131352,37.7718525 467.502388,78.8193471 458.171801,107.248365 C450.228405,106.720436 442.762968,106.669465 435.832708,105.282156 C440.312539,92.3285265 447.157399,80.2906579 447.157399,80.2906579 C447.157399,80.2906579 423.160395,66.3705821 406.407925,84.0943681 C404.648103,86.3775055 399.967011,93.7334903 398.514346,96.9540295 C368.337754,87.3043715 323.29263,86.0978795 300.594284,90.7999806 C268.924605,97.5685231 269.373527,134.966928 281.918593,146.328227 C281.918593,146.328227 300.781027,125.854026 325.816502,120.266917 C342.580643,116.458936 367.039949,119.78882 390.559564,123.42652 C387.756431,138.2578 386.362123,156.109724 385.874486,173.177728 C385.290346,187.141371 386.94541,202.204724 390.284574,215.257162 C386.547158,227.62221 380.893922,236.873216 374.949754,236.641997 C367.629783,236.487947 367.359632,215.872794 367.625798,194.186976 C368.041414,161.048454 358.722783,151.041148 333.991334,148.642687 C305.474076,145.462013 275.887601,173.105116 275.657304,208.640676 C275.370358,242.484813 295.45089,265.160712 314.986566,260.218281 C332.873155,255.571421 334.847333,235.282309 336.249611,219.960402 C341.148475,239.265128 349.942461,251.798179 362.779313,252.912981 C377.07993,253.937802 387.920685,243.728323 394.63972,228.728754 C398.880146,239.20533 404.432609,246.884793 410.842779,249.172486 C421.255392,252.989864 432.174145,246.336077 440.695134,234.992432 C440.61258,240.743273 441.389726,243.233994 441.389726,243.233994 C458.385587,250.509679 473.198324,244.297541 481.151399,199.778072 C496.445795,164.843052 502.497852,155.705377 507.002735,157.055099 C511.752148,158.169901 509.313675,166.711876 500.708994,194.924767 C491.017447,226.931118 504.441855,247.977099 520.872079,250.683947 C533.71804,252.654712 549.426914,242.918205 560.339405,227.111366 C566.88707,241.452589 578.977235,251.96362 588.811401,255.507922 C618.554158,265.886828 640.042662,254.050848 653.044905,237.983462 C653.04946,237.977482 653.053445,237.971502 653.058,237.965807 C653.200619,237.816028 653.34153,237.683049 653.485857,237.52131 C663.331979,226.362754 672.239833,213.994004 679.061634,202.101644 C681.097584,202.843706 683.423613,203.406944 686.09409,203.561564 L688.243339,203.837204 C652.308183,259.646784 653.757147,300.389595 683.098806,313.420392 C700.446517,321.075081 716.832334,307.317313 716.987763,296.517544 C716.987763,296.517544 709.003375,300.000624 700.829112,293.092553 C690.31715,283.645923 707.246684,240.218761 732.518434,203.002597 C744.754919,185.035918 740.87887,178.677133 704.390887,172.781354" id="Fill-810"></path>
            <path d="M145.382507,159.520506 C149.453555,80.1306561 173.830307,35.6222921 201.494698,37.4375828 C229.035827,38.6688482 231.812201,94.1936771 208.729838,133.274108 C195.86395,154.454208 172.24641,170.599047 144.803206,181.475984 C144.570632,174.54855 144.862702,167.211359 145.382507,159.520506 M259.419374,173.82044 C243.502976,170.139173 233.149859,177.631839 225.526716,216.607482 C220.703574,244.58944 204.966802,267.235155 186.631859,267.519622 C166.593743,267.830855 155.370963,246.762948 151.034889,214.545312 C182.138363,195.324872 210.280428,170.67593 225.397191,142.998656 C263.151096,75.387266 247.152714,26.2579552 210.993239,24.3976738 C169.00688,22.2335626 100.526403,76.2389577 99.7501113,174.349793 C99.8024903,180.824757 100.031649,187.013546 100.38236,192.791723 C89.6349776,193.51613 77.8741741,192.228769 70.5974722,188.024129 C37.3285234,168.438638 56.5012465,131.61714 79.1921902,122.902321 C79.1921902,122.902321 45.7313747,73.5349577 17.2158243,101.520333 C-10.2669481,128.525593 -7.16548234,181.098973 43.4719591,211.254154 C63.4252438,223.150216 83.9470119,228.215376 106.717948,225.241431 L108.983057,236.108971 L109.063902,236.067682 C121.936622,271.917039 146.817238,287.70423 172.095251,288.111424 C205.675058,288.653022 226.487473,274.071753 237.83693,236.513888 C236.842013,315.413111 205.519629,313.004968 197.449555,309.015315 C185.573461,303.144594 205.484614,352.764531 246.812819,333.275001 C267.986763,323.289906 272.000023,255.201558 262.303637,187.77668 C261.071876,177.419984 259.419374,173.82044 259.419374,173.82044" id="Fill-811"></path>
        </g>
    </g>
</svg>