<svg xmlns="http://www.w3.org/2000/svg" viewBox="-297.64 -133.966 595.28 267.931" enable-background="new -297.64 -133.966 595.28 267.931"><path fill="#EFAD5F" d="M270.128 7.567c-17.947-3.091-20.795-12.811-20.795-12.811s-2.965 1.419-3.485 1.883c-8.488 5.764-10.829 19.318-4.367 28.188-5.257 10.888-12.676 22.724-20.172 31.31-.412.363-.825.734-1.237 1.119-9.216 8.614-17.789 11.64-30.544 6.537-6.247-2.322-9.103-10.304-9.628-19.231.605-.087.986-.016 1.625-.292 55.033-15.434 67.605-43.354 32.588-56.835-23.506-8.82-51.532 4.888-61.787 30.878-2.941 7.759-3.277 15.24-1.951 22.067-5.83 9.296-13.402 15.751-18.273 14.456-5.91-1.656-.67-17.24 4.273-34.577 7.929-26.658 2.708-41.809-5.272-44.534-9.522-2.806-24.722 3.38-37.515 26.89 2.199-12.839 4.391-23.082 8.142-36.034 28.204-7.262 55.061-28.401 66.323-59.722 16.653-46.123-31.969-51.692-59.855-24.118-13.025 12.869-27.823 45.72-35.749 68.513-6.4-.537-12.421-.684-17.991-1.9 3.796-10.383 9.486-19.993 9.486-19.993s-19.16-11.563-32.922 2.493c-1.452 1.816-5.331 7.683-6.549 10.258-24.205-8.206-60.522-9.813-78.897-6.341-25.64 5.012-25.805 35.175-15.846 44.514 0 0 15.502-16.245 35.776-20.397 13.576-2.834 33.258.195 52.178 3.459-2.47 11.92-3.845 26.295-4.48 40.053-.668 11.252.456 23.422 2.965 33.994-3.189 9.919-7.879 17.299-12.671 17.029-5.903-.227-5.83-16.855-5.31-34.338.801-26.716-6.574-34.918-26.489-37.2-22.958-2.966-47.211 18.907-47.898 47.56-.707 27.287 15.17 45.856 30.998 42.145 14.494-3.495 16.371-19.828 17.717-32.163 3.68 15.636 10.597 25.866 20.935 26.946 11.521 1.026 20.409-7.053 26.039-19.054 3.273 8.507 7.643 14.779 12.782 16.713 8.344 3.224 17.247-1.98 24.279-11.005-.146 4.629.444 6.646.444 6.646 13.606 6.107 25.643 1.306 32.684-34.483 12.828-27.955 17.839-35.239 21.454-34.087 3.815.966 1.728 7.82-5.609 30.448-8.267 25.673 2.264 42.832 15.479 45.247 10.334 1.77 23.142-5.86 32.167-18.453 5.079 11.657 14.684 20.302 22.566 23.299 23.845 8.788 41.344-.453 52.059-13.227l.012-.015.35-.351c8.099-8.86 15.458-18.708 21.128-28.202 1.632.627 3.5 1.114 5.652 1.276l1.729.253c-29.771 44.498-29.176 77.373-5.692 88.294 13.885 6.416 27.296-4.446 27.573-13.153 0 0-6.49 2.696-12.985-2.99-8.346-7.765 5.92-42.546 26.829-72.2 10.122-14.312 7.085-19.495-22.263-24.762zm-85.95 13.637c5.819-12.476 15.876-32.027 23.279-28.512 6.11 3.082-4.391 30.402-27.096 42.925.56-5.196 1.844-10.065 3.817-14.413zm-47.94-134.908c16.761-17.896 28.435-8.023 20.375 13.603-7.846 21.25-27.572 39.124-47.888 43.307 7.067-21.096 17.689-46.197 27.513-56.91zm-166.741 129.201c-2.165 26.74-3.725 42.629-9.495 41.989-6.184-.768-6.701-19.843-5.21-34.941 1.709-19.823 4.032-30.947 11.808-31.216 4.697.029 2.571 5.061 2.574 14.836.138 3.302.054 6.443.323 9.332zm74.539 37.903c-5.508-1.838-2.28-32.547-.182-51.601 1.222-13.594 2.992-24.123 5.034-33.122 7.469.989 14.118 1.244 18.991.419-5.758 23.792-8.669 47.617-10.348 69.968-4.117 9.058-9.21 15.659-13.495 14.336zm-132.843-51.26c-12.786-3.193-21.243 2.703-27.94 34.025-4.284 22.496-17.296 40.535-32.089 40.507-16.168-.031-24.924-17.178-27.968-43.218 25.36-15.061 48.406-34.541 60.988-56.646 31.404-53.988 19.191-93.831-9.949-95.839-33.837-2.337-89.834 40.249-91.841 119.352-.049 5.222.049 10.215.25 14.88-8.679.433-18.148-.771-23.958-4.264-26.56-16.261-10.576-45.684 7.849-52.391 0 0-26.294-40.28-49.689-18.115-22.547 21.389-20.786 63.827 19.634 88.857 15.927 9.873 32.409 14.246 50.818 12.17l1.675 8.795.066-.032c9.879 29.089 29.726 42.17 50.109 42.854 27.078.909 44.071-10.555 53.754-40.681-1.913 63.609-27.144 61.226-33.598 57.895-9.497-4.902 5.866 35.392 39.476 20.257 17.22-7.754 21.416-62.602 14.543-117.109-.848-8.371-2.13-11.297-2.13-11.297zm-91.782-13.137c4.401-63.961 24.69-99.509 46.979-97.654 22.197 1.38 23.656 46.194 4.487 77.382-10.676 16.897-29.953 29.584-52.243 37.969-.089-5.59.249-11.503.777-17.697z"/></svg>