<svg xmlns="http://www.w3.org/2000/svg" viewBox="0 0 126.324 43.293" enable-background="new 0 0 126.324 43.293"><path fill="#B84F2D" d="M125.827.759c.182 1.879.439 3.533.48 5.192.048 1.965-.119 3.934-.139 5.901-.046 4.531-.098 9.063-.075 13.594.016 3.083.371 6.18.17 9.244-.161 2.452-.066 4.896-.211 7.339-.019.331-.115.658-.196 1.097-3.272 0-6.498.013-9.724-.005-1.768-.01-3.535-.066-5.302-.113-.881-.023-1.761-.108-2.641-.101-6.538.049-13.076.102-19.613.182-1.621.02-3.241.206-4.861.203-2.263-.004-4.525-.128-6.788-.173-5.02-.1-10.039-.216-15.059-.259-2.706-.023-5.412.109-8.118.137-3.442.036-6.885.038-10.327.055-2.753.014-5.506.079-8.258.032-5.957-.102-11.914-.244-17.869-.409-2.111-.058-4.217-.277-6.327-.342-3.242-.099-6.487-.128-9.73-.192-.142-.003-.282-.057-.552-.115-.09-.642-.242-1.309-.267-1.98-.162-4.277-.387-8.554-.414-12.832-.025-3.936.192-7.874.261-11.811.023-1.276-.13-2.554-.12-3.831.02-2.408.111-4.816.153-7.224.019-1.309 0-2.62 0-4.015.383-.034.815-.101 1.248-.106 7.732-.088 15.464-.22 23.195-.227 3.834-.004 7.668.321 11.502.328 6.553.012 13.106-.171 19.658-.158 5.913.012 11.825.214 17.739.267 5.763.052 11.526 0 17.289.035 5.42.033 10.839.127 16.259.177.983.009 1.966-.092 2.95-.097 2.7-.014 5.403-.082 8.099.023 1.867.072 3.715.25 5.584-.063.639-.109 1.341.154 2.004.247z"/></svg>