<svg xmlns="http://www.w3.org/2000/svg" viewBox="0 0 60 51.693" enable-background="new 0 0 60 51.693"><path fill="#fff" d="M1.205 13.171c-.043-.474-.172-1.463-.818-1.55h-.387v-1.119h.344l.818.173c.043.086.517.43.387.517.172-.044.473.86.473.989.215.56.215 1.077.086 1.722-.086.387-.732.774-1.205.774-.344-.042-.387.086-.689-.171-.215-.129-.086-.474 0-.646.259-.431 1.034 0 .991-.689zm-1.205 24.06v-1.033c.129-.042.301-.042.387-.042.517-.129.646.215 1.033.43.646.345.774 1.722.646 2.368-.043.43 0 1.205-.56 1.291-.344.129-.99.345-1.205-.042-.258-.517.215-.861.688-.904.172-.129.086-.818.043-.99 0-.345-.129-.732-.345-.947-.214-.26-.472-.174-.687-.131zm.646-13.041c0-.173.172-.43.172-.56-.086-.129.043-.345.086-.345.258-.215.301-.473.43-.688.215-.473.689-.904.775-1.378.172-.517.517-1.248.904-1.592.344-.345.473-.904.775-1.248.344-.43.517-1.119.775-1.506.129-.216.258-.345.301-.56.129-.172.344-.86.517-.99.215-.043.344-.646.517-.861.301-.258.387-.86.904-.774.172.042.344.258.344.43.086.344-.086.559-.258.86-.344.646-.775 1.163-1.033 1.722-.43.818-.818 1.592-1.291 2.41-.387.645-.775 1.291-1.205 1.98-.086.173-.732 1.678-.904 1.636 0 0-.603 1.076-.603 1.204-.129.216-.172.56-.344.776-.258.301-.689 0-.861-.215.041 0-.001-.301-.001-.301zm1.377-22.64c.344.517.688.99.99 1.463.473.818.861 1.678 1.291 2.496.43.732.947 1.463 1.42 2.239.172.344.301.903.517 1.119.215.215.344.56.473.775.172.301.258.43.258.774 0 .517-.559.56-.947.259-.43-.345-.602-1.033-.817-1.464-.516-.904-1.033-1.808-1.549-2.669-.302-.516-.517-1.033-.775-1.506-.344-.56-.646-1.076-.947-1.679-.215-.387-.517-.774-.732-1.118-.301-.388-.861-.818-.129-1.206.43-.215.775.215.947.517zm.172 25.825l.56.817c.172.216.258.474.387.689.473.904 1.033 1.765 1.42 2.755.516.947 1.334 1.85 1.808 2.97.172.388 1.377 1.98.775 2.324-.387.301-.904-.043-1.033-.431-.215-.517-.603-.947-.775-1.463-.172-.43-.473-.904-.774-1.42-.172-.345-.387-.861-.689-1.163-.387-.517-.603-1.119-.904-1.678-.258-.603-.603-1.205-.947-1.722l-1.033-1.506c-.129-.172-.086-.43.086-.603.172-.171.431-.171.689-.129.172.172.301.388.43.56zm2.324 16.011c.129-.043.473-.732.473-.818 0 0 .172-.43.215-.473.172-.473.474-.86.689-1.248.172-.344.172-.645.473-.818.258-.215.56-.172.732.173.129.387-.215.989-.387 1.248-.344.688-.688 1.377-.99 2.066-.559 1.033-1.162 2.065-1.765 2.969-.517.689-.947 1.507-1.334 2.281-.172.474-.517 1.206-.861 1.421-.603.301-.775-.603-.56-.947.172-.388.517-.861.689-1.206.172-.215.215-.559.387-.818.086-.042.258-.258.258-.258.086-.345.344-.991.603-1.206.172-.172.387-.817.646-.817.087-.559.603-.989.732-1.549zm1.335-18.551c.043-.301 0-.388.172-.645.172-.173.344-.259.517-.345.215-.086 1.722-.732 1.722-.345.387-.086.99.259 1.162.474.043.042.172.129.215.129 0 .086 0 .173.129.215.172.215.129.56.301.86-.129.173.043.474 0 .732 0 .345-.086.516-.258.861-.043.086-.517.602-.603.602-.129 0-.129.086-.258.129-.258 0-.603.042-.818 0-.517 0-.818-.345-.688-.861.172-.56.732-.172 1.076-.216.688-.086.732-.732.559-1.248-.344-.989-1.592-.903-2.281-.344-.258.215-.215.904-.215 1.291-.129.172-.129.387-.387.387l-.473-.215c-.131-.557-.002-.988.128-1.461zm3.228 26.858h-.99c.043-.732 0-1.894-.645-2.023-.345-.043-.818.473-.732.818 0 .344.043 1.205-.603.86-.215-.172-.215-.344-.344-.645-.172-.388 0-.56.129-.861.215-.602.818-1.162 1.55-1.162.99 0 1.42.904 1.635 1.765.043.43.043.861 0 1.248zm-.99-51.219v-.474h.99v.215c-.043.345 0 .947-.387 1.119-.689.258-1.42.86-2.066.258-.215-.172-.215-.56.086-.775.172-.129.345-.129.56-.086.343.13.516-.171.817-.257zm1.162 39.899c-.043.129.473.861.56.99.258.173.172.517.43.732.172.129.431.645.431.86.775.646.947 1.679 1.377 2.496.258.388.43.818.646 1.163.172.258.301.602.473.904.344.517.732 1.206 1.033 1.765.172.345-.086.646-.431.646-.517.043-.688-.301-.904-.688-.344-.689-.646-1.593-1.205-2.195-.129-.689-.861-1.248-.904-1.937-.086-.129-.258-.473-.301-.559-.129-.129-.129-.259-.172-.345-.129-.171-.215-.258-.301-.43-.086-.258-.258-.43-.387-.688l-.688-1.162c-.129-.216-.215-.473-.387-.688l-.431-.689c-.473-.473.043-1.076.689-.86.084.039.472.642.472.685zm0-28.408c-.129.215-.172.388-.473.388-.129.042-.344-.129-.473-.215-.301-.474.043-.861.344-1.291 0-.043.301-.732.43-.602 0-.086.345-.776.387-.818l.431-.647c.431-.947 1.076-1.808 1.463-2.711.301-.56.517-1.076.861-1.593.301-.473.517-.989.861-1.463.129-.129.172-.388.344-.559.129-.173.172-.345.301-.431.215-.301.387-.817.861-.517.775.517-.129 1.291-.473 1.808-.559.904-1.076 1.894-1.592 2.798-.344.688-.818 1.506-1.205 2.152-.474.775-.732 1.679-1.335 2.368-.172.473-.517.861-.732 1.333zm2.798 9.212c-.086.042-.172-.474-.172-.517-.043-.086-.086-.129-.172-.173 0-.172-.086-.301-.215-.473-.129-.044-.387-.345-.344-.431 0 0-.215-.646-.043-.473 0-.301-.603-.818-.688-1.033-.258-.388-.431-.732-.646-1.076-.301-.689-.904-1.292-1.033-2.024 0 0-.301-.473-.387-.517-.043-.215 0-.517.301-.688.387-.215.646.345.775.603l.99 1.765c.344.602.603 1.42 1.119 1.937.129.173 0 .56.258.645.215.086.344.345.387.517.301.43.387.947.688 1.421.387.559.689 1.119 1.033 1.722.215.43.861 1.119.861 1.593.043.688-.688.645-.99.301-.086-.129-.732-1.033-.603-1.163-.301-.301-.431-.646-.603-1.033-.043-.129-.387-1.033-.517-1.033l.001.13zm1.205 10.2c-.172.258-.086.129-.172.344-.043.215-.345.732-.56.861-.344.215-.301.56-.56.861-.258.172-.603.989-.603 1.162.086.173-.172.388-.215.517-.172.173-.172.215-.301.388-.258.473-.559.904-.904 1.377-.215.301-.215.775-.646.947-.258.086-1.033-.473-.603-.645-.258-.129.215-.345.215-.603.043-.086.043-.258.172-.388.129-.129.387-.215.387-.387 0-.258.172-.345.345-.516.258-.259.344-.776.517-.991.43-.645.603-1.162 1.033-1.851.129-.171.431-.904.646-.817-.043-.301.301-.473.387-.775.129-.43.473-.947.775-1.421.086-.215.258-.43.387-.688.129-.259.129-1.033.646-.947.904 0 .559 1.033.172 1.42-.301.215-.344.861-.517 1.119-.086.173-.172.173-.258.43-.043.215-.172.388-.387.388.001.043.13.043.044.215zm2.625-19.412c-.172-.344-.344-.774-.732-.947-.301.129-.732.345-.947.645-.129.216-.086.474-.172.689-.086.215.043.388 0 .645-.086.086-.172.086-.172.215-.086.173-.43.129-.517.044-.258-.086-.172-.173-.172-.388-.086-.129-.129-.215-.086-.388 0 0 .086-.602.086-.517.043-.086.172-.645.172-.818.172-.129.215-.387.431-.387l.258-.258c.215-.086.258-.215.43-.344.99-.56 2.023.344 2.281 1.291.172.603.301 1.206.129 1.894-.043.387-.172.602-.344.947l-.172.216c-.043.171-.215.301-.387.301-.301.043-.516.345-.861.301-.258-.086-.646-.301-.732-.517-.172-.301-.086-.517 0-.818.129-.043.258-.172.431-.172.344-.043.301.172.473.344.732-.04.862-1.547.603-1.978zm-1.42 26.686c.043.172.215.473.215.688 0 .129-.086.387-.301.345-.129 0-.603 0-.344-.215-.344.086-.646-1.206-.603-1.463.258-.732.947-1.292 1.592-1.507 1.808-.602 2.496 2.024 2.066 3.314-.043.258 0 .689-.215.904-.301.344-.559.517-1.033.559-1.033.129-.861-1.248-.129-1.076.688.172.603-1.678.473-2.023-.129-.258-.473-.732-.732-.775-.474-.043-.646.388-.99.603.001.302-.085.302.001.646zm6.758-26.987c-.129-.215-.172-.559-.387-.817-.172-.172-.689-.947-.603-1.119-.129-.086-.387-.603-.43-.689-.043-.172-.129-.517-.215-.688-.345-.56-.646-1.248-.99-1.894-.345-.517-.646-.947-.861-1.463l-1.033-1.55c-.172-.301-.345-.473-.517-.688-.043-.172-.387-.387-.473-.56 0-.172-.086-.43-.043-.602.129-.086.688-.345.732-.172l.301.301c.129.171.301.473.387.559.129.129.258.344.344.603.646.947 1.334 1.937 1.894 2.97.172.258.344.602.517.947.387.646.559 1.334.904 1.98.345.646.689 1.163 1.033 1.722.301.517.689 1.291 0 1.55-.216-.089-.431-.089-.56-.39zm.516 24.233c.215.43.732 1.85-.344 1.378-.301-.086-.688-.431-.646-.861.086-.172-.559-.861-.517-.904-.129.171 0-.215 0-.173 0-.129-.387-.301-.387-.473-.172-.345-.431-.56-.431-.861h-.129c.043-.344-.517-1.076-.688-1.291-.301-.517-.56-1.163-.904-1.593-.129-.172-.517-.688-.431-.947-.258-.215-.215-.43-.344-.645 0 0-.258-.517-.086-.344-.172-.259-.345-.345-.474-.603-.129-.215-.215-.517-.387-.688-.473-.517.517-1.205.689-.603-.086.345.688.947.775 1.205.172.259.258.689.473.904.172.172.043.688.387.774-.086.129.344.689.473.862 0 .129.387.602.344.645-.043-.043 0 .258.215.258-.043.129.473 1.033.645 1.292.172.215.345 1.033.689 1.076.045.473.734 1.161 1.078 1.592zm-1.636 9.339c-.301.517-.688.947-.947 1.463-.387.776-.904 1.55-1.291 2.239-.344.645-.861 2.281-1.722 2.066 0-.173.172-.129-.129-.173-.172-.042.172-.172-.129-.215-.043-.344.172-.86.431-1.291.086-.215.344-.43.517-.645.172-.258.172-.473.344-.688.258-.474.517-.689.688-1.292.043-.215.345-.559.431-.774.129-.173.301-.603.517-.603-.086-.215.517-.86.688-1.033l.603-1.291c.258-.388.301-1.033.646-1.292.129-.129.345-.774.345-.774.172-.388.301-.388.603-.689-.129 0-.129 0-.086-.042.99-.043.345 1.076.301 1.506-.517.216-.344 1.378-.861 1.507-.045.688-.647 1.419-.949 2.021zm-3.443-21.822c.172-.473.603-.817.861-1.334.086-.215 1.076-1.937 1.119-1.937-.172-.173.99-2.239 1.162-2.54.344-.775.732-1.722 1.248-2.453.043-.129.129-.215.172-.388 0-.172.215-.344.301-.517.56-.042.732-.129.904.43.129.301-.344.776-.473 1.033-.258.474-.517.947-.732 1.463-.904 1.55-1.42 3.314-2.41 4.778-.344.646-.732 1.292-1.119 1.894-.129.258-.345.646-.603.861-.086.129-.345.172-.56.129-.172-.129-.129-.388-.215-.388.043 0-.129-.171-.129-.171-.128-.257.345-.687.474-.86zm6.93 2.153c0-.344-.345-1.119-.818-1.119-.387 0-.861.215-1.033.56-.043.215-.172.387-.215.645l-.086.774c-.043.431-.689.689-.904.173-.129-.301-.043-.688.043-1.076.086-.216 0-.474.172-.646.129-.086.129-.387.258-.56.172-.388.603-.732 1.076-.86.172-.044.517-.173.861-.173.301 0 .861.388 1.033.645.516.861.904 1.981.516 2.884-.344.732-1.377 1.421-2.109.904-.603-.388.086-1.206.732-.776.474-.342.517-.772.474-1.375zm-1.808 26.126h-.904c-.043-.301-.129-.646-.043-.818.043-.258.258-.688.43-.861.129-.172.431-.258.603-.344.172-.043.258-.086.387-.173h.172c.043-.086.129-.172.129 0 .043-.042.043-.172.172-.172h.345c.43-.043.775.258 1.076.473.387.345.517 1.206.56 1.678v.216h-1.033c0-.473-.086-.861-.344-1.248-.517-.129-1.033.043-1.42.387-.302.216-.173.517-.13.862zm1.894-51.693h1.033c0 .689-.086 1.678-.689 2.023-.688.387-1.894.172-1.592-.861.215-.086.473-.258.688-.129.345.215.517-.129.56-.388v-.645zm.301 14.29c.172.216.215.517.473.732.215.301.387.688.688 1.033.172.172.431.646.56.947.43.602.861 1.248 1.205 1.894.344.517.689 1.205.861 1.807.172.56.646 1.033.947 1.593.258.646.603 1.291.947 1.894.129.301.301.517 0 .818-.215.171-.517.171-.732-.044-.301-.344-.56-.947-.732-1.334-.172-.646-.646-1.335-.99-1.851-.129-.215-.215-.732-.344-.861-.129-.042-.301-.43-.345-.602-.129-.301-.215-.517-.344-.732l-.344-.473c-.086-.215-.129-.043-.172-.173l-.688-1.248-.474-.817-.473-.732c-.215-.172-.43-.603-.559-.775-.301-.345-.689-.947-.129-1.248 0-.173.645.129.645.172zm5.51-12.095c-.345.43-.56.904-.861 1.335-.344.645-.559 1.335-.904 1.894-.387.689-.818 1.335-1.205 1.98-.344.603-.818 1.292-1.119 1.894-.215.517-.603.947-.775 1.463l-.43.688c-.086.345-.043.56-.431.689-.818.258-.775-1.162-.301-1.119l-.129-.042c0-.044.258-.388.258-.474l.344-.559c.344-.517.559-1.033.904-1.636.301-.473.473-.904.818-1.421.344-.473.646-.947.904-1.377.258-.344.688-.947.688-1.335.086 0 .129-.215.172-.215l.431-.947c.258-.43.43-.99.861-1.42.086-.086.387-.387.344-.517-.086-.258.732-.043.775-.043.172.56-.086.732-.344 1.162zm-1.636 46.054c0-.042.043-.086-.086-.172-.086-.086-.043-.172-.172-.258-.172-.129 0-.172-.086-.301-.129-.129-.517-.559-.517-.818.043-.042-.516-1.032-.603-1.076-.215-.173-.215-.517-.387-.732-.043 0-.258-.344-.172-.301-.258-.129-1.033-1.765-.99-1.807-.129-.044-.345-.474-.215-.388l-.301-.301c-.043 0-.473-.818-.517-.86-.129-.215-1.076-1.678-.301-1.55.431 0 .818.387.947.818.215.344.775.947.775 1.377.603.603.947 1.506 1.42 2.238.258.345.431.99.775 1.291.129.086.172.388.301.559.129.216.215.517.387.732l.645 1.033c.172.345.387.861.646 1.163.258.345.387.688.431 1.033-.043 0-.344.215-.431.215-.603.129-.688-.473-.861-.818-.129-.258-.517-.602-.473-.904l-.215-.173zm1.808-19.885c-.258.301-.43.818-.688 1.205-.56 1.076-.947 2.066-1.593 2.97-.344.517-.559 1.033-.99 1.463-.043.345-.172.474-.344.776-.301.344-.344.688-.56.947-.344.43-.645.947-.947 1.377-.215.344-.387.99-.861.904-1.248-.215.473-2.325.818-2.798.301-.517.56-.947.861-1.421l.861-1.42c.603-.99 1.205-2.023 1.678-3.013.215-.473.344-.817.56-1.163.301-.473.43-1.032 1.033-1.076.43.389.645.733.172 1.249zm1.592-15.882c-.043-.301-.215-.473-.387-.645-.387-.344-.387-.173-.861.043-.559.301-1.033.817-1.205 1.506-.043.344.258.473.301.732.172.344-.043.645-.387.732-.603.086-.775-.818-.861-1.162-.129-.689.387-1.033.516-1.678.086-.044.345-.301.345-.388.043-.129.387-.173.387-.345 0 .043.301-.258.215-.258.258 0 .344-.344.646-.258-.172-.345.732-.301.904-.258.215 0 .473.345.688.517.603.517.775 1.377.732 2.152-.043.517-.129.86-.301 1.291-.043.215-.043.388-.172.646-.086.215-.258.258-.473.387-.345.215-1.162.301-1.119-.387 0-.345.517-.646.861-.688.171-.648.3-1.25.171-1.939zm1.033 26.471c-.043.258 0 .688-.172.904 0 .172-.043.517-.172.688-.517.474-1.765.904-2.152.043-.344-.904 1.248-.258 1.42-.904.215-.904.215-1.937-.861-2.324-.387.129-.732.301-.904.732-.043.172-.043.345 0 .387h.043l.086.129v.043c.172.344-.301.732-.646.688-.387-.129-.517-.646-.473-.904 0-.086-.172-.086-.043-.173.129-.086 0-.129.043-.258 0 0 .129-.259.172-.215-.086-.431.258-.861.603-.947.258-.172.559-.345.904-.517.172-.086.431.043.689.043.258.043.517.344.732.517.559.346.946 1.422.731 2.068zm3.444-28.193c-.345-.516-.603-.99-.861-1.549-.258-.689-.732-1.248-.904-1.894-.172-.345-.473-.688-.603-1.033 0-.086-.215-.688-.215-.732-.172-.129-.215-.345-.344-.517-.215-.345-.473-.688-.688-1.076-.215-.344-.387-.818-.732-1.162-.129-.173-.301-.258-.344-.517-.129-.042-.172-.086-.301-.172.086-.043 0-.086-.043-.172-.172-.173-.172-.56.043-.689.344-.258.645 0 .861.301.344.344.646.818.904 1.205 1.119 1.722 1.98 3.616 2.97 5.424.215.559.559 1.248.904 1.765.301.344 1.205 1.334.818 1.85-.863.217-.992-.472-1.465-1.032zm-3.142 17.948l.43.689.258.344c.086.173.043.345.215.517.043.043.129.259.172.345.043.258.215.517.344.732.258.517.474.904.775 1.42.56.861 1.033 1.722 1.55 2.583l.947 1.593c.129.301.345.688.301.99-.086.387-.56.387-.818.172-.344-.345-.43-.861-.688-1.205-.387-.517-.603-1.076-.947-1.592-.431-.474-.689-1.119-.99-1.636-.301-.603-.645-1.248-.99-1.894l-1.549-2.884c-.258-.388-.431-.86-.732-1.248-.172-.258-.129-.43.043-.645.301-.345.689-.129.904.129.258.557.473 1.074.775 1.59zm4.088 13.215c-.172.301-.301.56-.473.904-.301.56-.56 1.076-.904 1.593-.301.517-.603 1.032-.861 1.506-.301.559-.473 1.205-.904 1.722-.559.775-1.205 1.506-1.549 2.367-.086.301-.301.776-.603.776-.818 0-.559-.818-.301-1.206.344-.517.646-1.076 1.033-1.678.301-.43.732-.86.861-1.421.387-.473.646-1.076.99-1.592.086-.258.301-.473.301-.689.043-.171.345-.301.345-.473 0-.173.387-.818.517-.991.172-.129.215-.43.344-.602.172-.345.258-.688.517-.947.215-.344.603-1.291 1.119-1.162.258.043.387.388.387.646-.043.258-.387.387-.431.688-.129.042-.344.429-.388.559zm-.086-27.978c-.043-.042.861-.387.904.173 0 .344-.215.559-.387.86l-.56 1.076c-.344.517-.559 1.119-.861 1.679-.646 1.204-1.334 2.281-1.894 3.529-.603 1.162-1.463 2.151-1.894 3.357-.301.775-1.42.215-.861-.645.129-.215.473-.56.473-.818l.301-.603c0-.086.172-.344.258-.344l.43-.689c.172-.43.431-.774.646-1.162.043-.215.301-.732.474-.904.258-.215.387-.86.645-1.204.172-.301.345-.646.517-.904l.517-.947c0-.043.086-.258.172-.345.215-.258.344-.688.43-.947.174-.171.776-.989.69-1.162zm-.86 12.913c-.043-.345-.043-.688 0-.947 0-.258.086-.56.129-.775.043-.086.129-.173.215-.173-.043-.172 0-.301.086-.473.215-.301.344-.517.689-.732.215-.173.603-.173.775-.301.172-.173.818.042.99.172.344.129.517.301.688.646.431.774.431 2.496-.301 3.099-.301.258-1.55 1.163-1.722.301-.043-.171 0-.344.129-.516.215-.216.387-.172.603-.301.517-.345.517-.56.603-1.119.172-.776-.474-1.463-1.335-1.077-.387.173-.43.818-.559 1.249-.129.215-.129.345-.043.602.043.301-.129.474-.301.646-.302-.043-.56-.043-.646-.301zm1.119 24.835h-.947v-.301c0-.431.431-.775.689-1.119.818-.861 2.626-.086 2.884 1.119v.301h-.99c-.172-.517-.818-1.076-1.248-.646-.216.173-.346.43-.388.646zm.559-49.971c-.043-.345.215-.818.56-.689.559.129.517-.388.517-.818v-.215h.99c.043.474-.086 1.033-.258 1.377-.043.129-.086.173-.172.301-.387.173-.861.388-1.291.388-.131-.173-.303-.301-.346-.344zm5.811 47.733c-.129-.215-.56-.603-.56-.861-.344-.258-.603-1.032-.774-1.378-.301-.517-.603-.903-.818-1.377-.301-.559-.517-1.076-.732-1.636-.301-.602-.775-1.204-1.119-1.807l-1.076-1.722c-.301-.517.345-1.033.818-.646l.344.646c.043.043.172.215.172.258.258.603.732 1.162 1.076 1.678.301.56.517 1.076.861 1.592l.345.776c.172.258.344.774.516.947.215.172.517.86.689 1.119l.431.774c.043.086.215.56.344.603.172.086.344.517.387.645.172.258.344.56.517.775.129.258.258.431.258.688-.129.43-.43.345-.774.345-.389-.343-.604-.902-.905-1.419zm1.334-47.174c0 .258-.301.517-.43.732-.172.258-.258.517-.431.818-.603 1.033-1.076 2.195-1.722 3.142-.215.345-.431.991-.775 1.291-.172.172-.301.646-.473.861-.043.172-.387.603-.387.688.043.086-.301.517-.344.646-.129.215-.345.387-.431.645-.043.086-.387.775-.559.732l.129.043c.086.301-1.162.473-1.033-.086.043-.43.258-.817.559-1.205.387-.645.732-1.335 1.162-1.937.344-.559.56-1.204.947-1.678.129-.215.258-.43.431-.688.172-.258.344-.56.517-.904.086-.215.215-.474.344-.689 0 0 .344-.688.344-.645-.129-.215.689-1.291.861-1.506.43-.473.645-1.463 1.463-1.163.086.215.215.861-.172.903zm-.473 26.642l-.646 1.033c-.086.345-.172.56-.344.818-.301.517-.689 1.162-.861 1.678-.172.603-.775 1.119-.947 1.679-.172.517-.517 1.248-.861 1.722-.172.173-.258.344-.344.56-.043.129-.086.258-.258.301 0 .044-.129.345-.172.388-.258.258-.43.689-.774.86-.215.129-.387-.171-.56-.129-.172-.344-.129-.603.129-.904.775-.947 1.291-2.066 1.894-3.142l.559-.99.517-1.032c.172-.216.345-.388.387-.646.086-.431.431-.688.517-1.163.129-.387.431-.732.646-1.119.215-.301.431-.517.559-.861.172-.344.603-1.334 1.205-.774.171.603-.474 1.291-.646 1.721zm-5.122-12.954c-.258-.431-.344-.818-.603-1.206-.258-.517.258-1.076.775-.688l.258.732c.258.301.301.56.474.861l1.765 3.27c.129.301.301.56.473.904.129.173.215.388.344.645.301.345.301.689.473 1.033.431.56.646 1.206 1.033 1.765.258.301 1.033 1.248.689 1.678-.732.732-1.291-.86-1.55-1.291-.689-1.033-1.119-2.109-1.722-3.142l-.947-1.722c-.172-.388-.559-.904-.688-1.291-.43-.429-.43-1.118-.774-1.548zm6.37 21.778c-.431-.258-.688-.086-.947.345-.129.172-.301.258-.258.517.086.215.129.431.129.688 0 .259-.387.43-.56.259-.301 0-.258-.388-.344-.431-.344-.129-.172-1.119-.086-1.291.301-.344.516-.645.818-.947.473-.388 1.205-.344 1.765-.129.301.172.818.473.861.86 0 .388.344.818.431 1.205.043.904-.258 2.066-1.335 2.023-.387 0-1.076 0-.99-.603.129-.559.689-.43 1.162-.43.516-.516-.13-1.851-.646-2.066zm-.775-25.954c-.172.086-.172.387-.258.56-.086.388.301 1.033-.043 1.335-.387.258-.861-.173-.904-.603 0-.258-.129-.388 0-.689.086-.344.215-.732.258-1.119.301-.258.473-.345.775-.517.086-.129.172-.129.387-.129h.474c.861.043 1.205.645 1.377 1.42.172.86.344 2.023-.129 2.755-.172.387-.344.688-.818.688-.258.043-.904 0-1.076-.215-.215-.301-.129-.818.215-.904.431-.129.689.301.947-.172.215-.646.086-2.066-.474-2.496-.3-.043-.516.001-.731.086zm2.583 10.072c.344-.517.861-1.291.904-1.894.172-.129.689-.86.689-1.033-.043-.129.387-.645.43-.732.603-.688.775-1.721 1.291-2.496.086-.172.431-1.291.732-1.119.129-.517.904 0 .818.43-.172.603-.689 1.163-.947 1.679-.258.645-.559 1.162-.861 1.721-.258.474-.603.904-.775 1.421-.301.56-.645 1.335-.99 1.851-.215.258-.387.602-.559.947-.043.129-.301.688-.473.774l-.215.431-.517.99c-.129.173-.172.473-.473.473-.258 0-.688-.258-.688-.517 0-.258.301-.602.344-.775.172-.344.473-.603.517-.947.428-.3.471-.859.773-1.204zm3.701-10.674c-.301-.388-.517-.861-.732-1.248-.301-.388-.517-.818-.775-1.206-.258-.473-.473-.989-.732-1.506-.517-.991-1.291-1.894-1.636-2.927-.258-.602-.431-1.205-.775-1.722l-.387-.86c-.129-.173-.129-.56.043-.732.473-.345.947.215 1.033.602.129.646.603 1.162.818 1.722.172.388.344.86.56 1.335.129.215.344.774.603.947.258.301.559.947.732 1.291.258.603.732 1.206 1.033 1.851.215.56.559 1.076.861 1.593.258.473.904 1.119.387 1.55-.689-.001-.689-.217-1.033-.69zm-.301 25.222c-.387-.603-.732-1.291-1.119-1.937-.301-.345-.43-.732-.645-1.076 0-.086-.215-.603-.258-.603-.086 0-.345-.56-.345-.602-.086-.129-.517-.861-.43-.861-.215-.129-.517-.732-.603-1.033-.172-.387-.431-.775-.603-1.119-.258-.603-1.033-1.335-.688-1.98.172-.388.646 0 .861.129.129.344.258.689.473.99.215.258.344.56.56.904-.043.173.344.947.517.947-.043.301.301.689.43.991.172.301.387.559.473.904l1.335 2.238c.043.173.172.301.301.474.086.171.086.43.258.559.258.129.345.645.474.86.215.301.732.818.688 1.206-.043.215-.172.388-.344.517-.172.172-.215 0-.473.042-.217-.517-.561-1.033-.862-1.55zm1.635 3.917c0 .258-.172.388-.258.603-.172.645-.559 1.205-.861 1.807-.215.517-.344.991-.688 1.463-.387.56-.732 1.378-1.076 2.066-.344.732-.732 1.55-1.205 2.239-.344.473-.431 1.076-.775 1.506-.172.259-.258.646-.603.689-.258.129-.603-.043-.688-.345-.086-.43.473-1.033.645-1.42.172-.43.56-.775.732-1.248.172-.474.516-.904.688-1.335.172-.388.431-.732.646-1.119.172-.43.387-.86.688-1.204.345-.474.431-1.119.732-1.636.172-.301.301-.603.473-.947.172-.259.258-.56.43-.775.172-.258.258-.517.517-.646.302-.128.517.13.603.302zm2.11 11.363h-1.076v-.043c-.172-.344-.301-.517-.688-.645-.474-.173-.689.042-.99.387-.043.086-.129.129-.129.129-.258.172-.732.215-.861-.129l-.043-.086c.172-.301.517-.947.646-.861.043-.172.086-.258.215-.345h.215c.086-.129.344-.172.431-.129.086-.173.43-.173.603-.043.172.086.473.086.603.258.215.086.258-.086.517.129.344.345.431.904.56 1.335v.043zm-.689-26.385c-.043-.473-.517-.817-.99-.817-.431-.044-.947.129-1.076.688-.043.388.129.818 0 1.248-.172.345-.818.388-.861-.129-.129-.344-.129-.818-.129-1.248l.172-.603c.129-.171.431-.43.517-.602.086-.043.688-.387.861-.387.172.042.689-.129.861.129.517-.258.947.43 1.335.56-.043.129.301.345.215.56l.129.989c0 .904-.517 2.368-1.722 2.024-.345-.086-1.076-.388-.861-.776.301-.602.732-.301 1.162-.129.559-.172.43-1.248.387-1.507zm-.388-25.308h1.076c.301 1.377-1.894 3.099-2.97 1.937-.258-.259 0-.603.258-.732.172-.129.344-.044.517.042l.431-.042c.559.001.861-.817.688-1.205zm1.98 9.555c-.129.215-.301.344-.387.56-.043.301-.215.56-.344.861-.129.215-.344.387-.344.645 0 .086-.043.344-.172.388-.172.129-.473.129-.559 0-.129-.044-.258-.216-.301-.216.043-.129-.129-.301 0-.473.129-.301.301-.56.473-.86.215-.388.517-.818.732-1.248.172-.474.387-.776.603-1.248.344-.56.603-1.248.99-1.851.646-.904 1.076-1.98 1.722-2.927.043-.086 1.162-2.024 1.377-1.809-.043-.215.387 0 .473.044.215.344 0 .774-.258.989-.215.301-.344.56-.517.904-.172.215-.387.517-.516.818-.086.344-.431.603-.56.947-.172.43-.559.818-.646 1.205-.086.258-.387.602-.517.861-.172.301-.603.818-.559 1.162-.345.173-.518.904-.69 1.248zm-.774 5.294c.344.603.904 1.291 1.076 1.894.086.301.258.517.43.818.129.301.172.517.345.818.43.43.688 1.076.947 1.636.431.817.904 1.377 1.248 2.237.172.474.387.904.689 1.378.043.129.172.215.301.387.043.129.172.301.172.474 0 .559-.086.042-.172.215-.086.129 0 .258-.301.258-.043 0-.56-.086-.517-.258 0-.044-.473-.732-.517-.861l-1.377-2.626c-.172-.172-.473-.688-.473-.989-.172-.086-.258-.388-.387-.56-.129-.344-.344-.602-.473-.903-.431-.904-.947-1.851-1.335-2.712-.301-.517-1.549-1.678-.775-2.195.645-.259.86.646 1.119.989zm4.175 35.251c-.129-.344-.344-.603-.473-.86-.129-.301-.344-.474-.387-.818-.129-.043-.344-.517-.431-.603l-1.076-1.98c-.301-.388-.646-.732-.861-1.205-.301-.56-.517-1.119-.861-1.722-.258-.517-.56-1.033-.861-1.55-.215-.344-.56-.688-.517-1.119.086-.517.646-.517.861-.172.172.301.431.603.517.861.172.258.344.603.517.818.172.215.301.517.473.817.172.172.086.387.258.646.258.387.473.86.688 1.248.603.947 1.162 1.894 1.808 2.84.258.517.559 1.076.861 1.593.215.43.861 1.119.603 1.635-.431.518-.904-.041-1.119-.429zm.516-21.219c-.258.473-.473.99-.688 1.42-.646 1.205-1.291 2.583-2.023 3.659-.689.989-1.162 1.937-1.722 2.97-.215.43-.387 1.248-1.033 1.162-.56-.258-.387-.817-.172-1.205.172-.301.301-.56.431-.818.172-.344.258-.603.43-.904.344-.473.646-1.205.99-1.593.431-.43.517-1.291.947-1.636.258-.171.344-.602.43-.774.172-.345.387-.732.603-1.033.086-.173.474-1.248.646-1.248 0-.215.215-.56.345-.818.129-.172.172-.388.301-.688.043-.172.215-.172.344-.258.172-.173.387.043.56.086.171.645-.174 1.161-.389 1.678zm.904-18.379v1.119c-.387.172-.689.559-.861.904.043.473.517 1.076.043 1.506-.517.043-.603-.086-.774-.517-.086-.258-.431-.818-.345-1.033.215-.602.517-1.033.947-1.463.258-.215.646-.43.99-.516zm-.215 25.739c.043-.044.172-.044.215-.044v1.033l-.215.173c-.474.172-.431.732-.258 1.119.086.258.086.43.086.645 0 .129-.129 0-.129.042-.043.173-.344.129-.473.129-.345-.129-.345-.301-.431-.646-.258-.387-.129-1.076 0-1.463.043-.129.431-.645.431-.732.257.002.472-.17.774-.256z" opacity=".04"/></svg>