<?xml version="1.0" encoding="UTF-8" standalone="no"?>
<svg width="160px" height="70px" viewBox="0 0 160 70" version="1.1" xmlns="http://www.w3.org/2000/svg" xmlns:xlink="http://www.w3.org/1999/xlink">
    <!-- Generator: Sketch 3.8.3 (29802) - http://www.bohemiancoding.com/sketch -->
    <title>vend</title>
    <desc>Created with Sketch.</desc>
    <defs></defs>
    <g id="Page-1" stroke="none" stroke-width="1" fill="none" fill-rule="evenodd">
        <g id="vend" transform="translate(0.819149, 0.000000)" fill="#F1F1D3">
            <path d="M134.919355,0 L6.77419355,0 C3.02580645,0 0,3.02580645 0,6.77419355 L0,63.2258065 C0,66.9741935 3.02580645,70 6.77419355,70 L134.919355,70 C137.448387,70 139.774194,68.5774194 140.925806,66.3419355 L157.748387,38.116129 C158.764516,36.1741935 158.764516,33.8483871 157.748387,31.9064516 L140.925806,3.68064516 C139.774194,1.42258065 137.448387,0 134.919355,0 Z M147.225806,35 C147.225806,36.8741935 145.712903,38.3870968 143.83871,38.3870968 C141.964516,38.3870968 140.451613,36.8741935 140.451613,35 C140.451613,33.1258065 141.964516,31.6129032 143.83871,31.6129032 C145.712903,31.6129032 147.225806,33.1258065 147.225806,35 Z M33.1709677,27.8193548 L38.1612903,27.8193548 C38.5,27.8193548 38.7032258,28.1580645 38.5677419,28.4741935 L25.6064516,55.1419355 C25.3580645,55.6387097 24.6354839,55.6612903 24.3870968,55.1419355 L11.3354839,28.4741935 C11.1774194,28.1806452 11.4032258,27.8193548 11.7419355,27.8193548 L16.7548387,27.8193548 C16.9354839,27.8193548 17.0935484,27.9322581 17.1612903,28.0903226 L24.9967742,45.0709677 L32.7645161,28.0903226 C32.8322581,27.9322581 32.9903226,27.8193548 33.1709677,27.8193548 Z M60.6741935,38.5451613 C60.3806452,36.5129032 59.6129032,34.8870968 58.3483871,33.6225806 C57.016129,32.2903226 55.3225806,31.6354839 53.3129032,31.6354839 C51.1677419,31.6354839 49.383871,32.2451613 47.9387097,33.4870968 C46.4935484,34.7290323 45.5903226,36.4 45.2290323,38.5225806 L60.6741935,38.5225806 L60.6741935,38.5451613 Z M62.1870968,46.6967742 L65.5516129,48.6612903 C65.7774194,48.7967742 65.8451613,49.0903226 65.7096774,49.2935484 C62.683871,54.0354839 58.4387097,56.383871 52.9290323,56.383871 C48.9096774,56.383871 45.6580645,54.9387097 43.1741935,52.0258065 C40.7580645,49.1806452 39.5612903,45.3870968 39.5612903,40.6225806 C39.5612903,38.9290323 39.9225806,37.1677419 40.6451613,35.316129 C41.9774194,31.883871 44.2354839,29.5129032 47.3967742,28.1580645 C49.0677419,27.4580645 50.8967742,27.0967742 52.9290323,27.0967742 C58.7096774,27.0967742 62.616129,29.5354839 64.6032258,34.3903226 C65.5516129,36.6709677 65.9806452,38.8387097 65.8903226,40.916129 L65.8451613,42.1129032 C65.8451613,42.3612903 65.6419355,42.5419355 65.3935484,42.5419355 L44.9806452,42.5419355 C44.9806452,45.1387097 45.7483871,47.3064516 47.2612903,49.0451613 C48.8645161,50.8516129 50.9645161,51.7548387 53.5387097,51.7548387 C56.7677419,51.7548387 59.9290323,49.6322581 61.5548387,46.8774194 C61.6903226,46.6290323 61.9612903,46.5612903 62.1870968,46.6967742 Z M71.2193548,27.8193548 L75.5774194,27.8193548 C75.8258065,27.8193548 76.0290323,28.0225806 76.0290323,28.2709677 L76.0290323,31.7483871 C78.0612903,28.6322581 80.9064516,27.0741935 84.5645161,27.0741935 C90.9774194,27.0741935 94.2064516,31.0032258 94.2064516,38.883871 L94.2064516,54.983871 C94.2064516,55.2322581 94.0032258,55.4354839 93.7548387,55.4354839 L89.3741935,55.4354839 C89.1258065,55.4354839 88.9225806,55.2322581 88.9225806,54.983871 L88.9225806,38.7709677 C88.9225806,36.4225806 88.516129,34.7064516 87.6806452,33.6225806 C86.7322581,32.3806452 85.1290323,31.7483871 82.8483871,31.7483871 C78.3096774,31.7483871 76.0290323,34.616129 76.0290323,40.3516129 L76.0290323,54.983871 C76.0290323,55.2322581 75.8258065,55.4354839 75.5774194,55.4354839 L71.2193548,55.4354839 C70.9709677,55.4354839 70.7677419,55.2322581 70.7677419,54.983871 L70.7677419,28.2709677 C70.7677419,28.0225806 70.9709677,27.8193548 71.2193548,27.8193548 Z M120.987097,41.7741935 C120.987097,37.8 119.609677,34.9548387 116.854839,33.3064516 C115.5,32.4935484 113.964516,32.0870968 112.248387,32.0870968 C108.703226,32.0870968 106.241935,33.8258065 104.796774,37.2806452 C104.187097,38.7709677 103.870968,40.3064516 103.870968,41.8870968 C103.870968,45.1612903 105,47.7806452 107.280645,49.7225806 C108.545161,50.8064516 110.148387,51.3258065 112.112903,51.3258065 C115.929032,51.3258065 118.570968,49.6774194 120.03871,46.3580645 C120.670968,44.9354839 120.987097,43.4225806 120.987097,41.7741935 Z M122.070968,13.4806452 L126.451613,13.4806452 C126.7,13.4806452 126.903226,13.683871 126.903226,13.9322581 L126.903226,54.983871 C126.903226,55.2322581 126.7,55.4354839 126.451613,55.4354839 L122.070968,55.4354839 C121.822581,55.4354839 121.619355,55.2322581 121.619355,54.983871 L121.619355,50.9419355 C119.225806,54.5548387 116.087097,56.383871 112.180645,56.383871 C107.845161,56.383871 104.458065,54.7580645 102.019355,51.5290323 C99.8741935,48.683871 98.7903226,45.4548387 98.7903226,41.9096774 C98.7903226,39.1322581 99.3322581,36.6258065 100.393548,34.3903226 C101.590323,31.9064516 103.306452,30.0322581 105.541935,28.7677419 C107.506452,27.6612903 109.651613,27.0967742 111.932258,27.0967742 C113.829032,27.0967742 115.703226,27.616129 117.532258,28.6548387 C119.383871,29.6935484 120.716129,31.0258065 121.596774,32.6741935 L121.596774,13.9322581 C121.619355,13.683871 121.822581,13.4806452 122.070968,13.4806452 Z" id="Combined-Shape"></path>
        </g>
    </g>
</svg>