<svg xmlns="http://www.w3.org/2000/svg" viewBox="0 0 30 28" enable-background="new 0 0 30 28"><path fill="#DCE2B1" d="M2.547 25.117c1.553-.055 3.05 0 4.603.056 2.995.111 6.046-.61 8.874-1.664 1.608-.554 12.591-6.933 13.201-4.548-.389.555-.389 2.052-.499 2.774-2.052.056-3.994 1.386-5.713 2.329-2.052 1.11-8.652 3.55-13.478 3.882-3.05.223-6.102-.333-9.207-.055-.222-.167-.222-.499-.333-.777.498-.498.277-1.497.388-2.273.278-.167 1.997.276 2.164.276zm4.936-20.299c2.107-.499 3.938-1.664 5.88-2.496 4.88-2.107 10.315-2.939 15.529-1.83-.333.831.111 2.108-.222 3.106-2.496-.222-4.714-.943-7.376-.776-2.441.222-4.438.943-6.712 1.83-2.385.888-4.603 2.219-7.043 3.051-1.165.388-5.38 1.22-6.212.554-.056-.943.11-1.775.166-2.829.389-.499 5.103-.388 5.99-.61zm-1.83 4.936c.832.056 1.497-.222 2.44.056 1.442 3.715 3.106 7.986 3.938 11.924-.999.167-2.052.665-3.161.61-.943-.888-1.055-3.161-1.055-3.161s-1.497-.223-2.773.277c-.111.888-.333 1.942-.554 3.161-.499.721-2.385.056-3.162-.055 0-.776 1.72-5.713 2.441-8.042.499-1.609.887-3.605 1.886-4.77zm1.442 7.21s-.389-1.054-.777-1.775c.111.444-.222.61-.278.999 0 .055-.443 1.054-.443 1.054l1.498-.278zm3.383-7.764c1.942-.056 2.662-1.608 3.882 0 .443.61 2.44 4.049 3.05 4.049 0-2.496-.832-5.103-.665-7.599.887-.222 1.775-.333 2.718-.443.721.665.333 4.326.389 5.269.055 2.44.498 4.992.776 7.432-.055 0-.055.056-.055.111-2.995.223-3.772-2.329-6.267-3.272.776 1.775 1.997 4.659 1.83 5.602-.61.222-2.274.443-2.884.388-.443-3.715-.998-8.042-2.939-11.147 0-.167.111.111 0 0-.002-.168.165-.168.165-.39zm11.425-4.16c1.11-.887 4.327-.111 5.159.333 1.109.499 2.662 1.775 2.883 3.273.666 4.104-4.493 9.539-7.875 7.487.056-.222.333-3.383.333-5.047 0-1.886-.998-4.05-.5-6.046zm4.77 7.266c2.218-1.664-.499-3.495-1.386-3.661 0 .832.166 3.272 0 3.771 0 .944 1.054-.11 1.386-.11z"/></svg>