<svg version="1.1" xmlns="http://www.w3.org/2000/svg" x="0px" y="0px" viewBox="0 0 135.984 29.035" enable-background="new 0 0 135.984 29.035" xml:space="preserve"><path fill="#f1f1d3" d="M47.998 16.73l-0.815 2.281h-0.046c-0.146-0.535-0.39-1.293-0.772-2.256L42.002 5.812h-4.265V23.21h2.813V12.514c0-0.66-0.014-1.458-0.042-2.371 -0.014-0.462-0.067-0.832-0.08-1.114h0.062c0.143 0.655 0.291 1.155 0.399 1.489L46.12 23.21h1.968l5.192-12.806c0.118-0.292 0.243-0.862 0.357-1.374h0.062c-0.068 1.267-0.125 2.426-0.133 3.124V23.21h3.001V5.812H52.47L47.998 16.73z"/><rect x="59.391" y="10.742" fill="#f1f1d3" width="2.933" height="12.468"/><path fill="#f1f1d3" d="M60.888 5.443c-0.483 0-0.904 0.165-1.25 0.49 -0.347 0.326-0.523 0.738-0.523 1.223 0 0.477 0.174 0.881 0.518 1.199 0.342 0.317 0.764 0.478 1.255 0.478 0.491 0 0.915-0.161 1.261-0.477 0.348-0.319 0.524-0.722 0.524-1.199 0-0.468-0.172-0.875-0.51-1.21C61.825 5.612 61.396 5.443 60.888 5.443zM72.707 10.617c-0.564-0.117-1.115-0.176-1.639-0.176 -1.346 0-2.546 0.288-3.567 0.857 -1.023 0.57-1.814 1.384-2.352 2.419 -0.537 1.032-0.809 2.238-0.809 3.583 0 1.178 0.264 2.259 0.785 3.212 0.522 0.955 1.26 1.701 2.195 2.219 0.934 0.517 2.012 0.779 3.206 0.779 1.394 0 2.584-0.278 3.538-0.828l0.039-0.023v-2.687l-0.123 0.09c-0.433 0.315-0.916 0.566-1.435 0.747 -0.519 0.181-0.991 0.272-1.405 0.272 -1.151 0-2.074-0.36-2.745-1.07 -0.672-0.711-1.013-1.708-1.013-2.964 0-1.264 0.355-2.288 1.055-3.044 0.699-0.753 1.624-1.135 2.751-1.135 0.965 0 1.904 0.326 2.792 0.971l0.123 0.089v-2.831l-0.039-0.022C73.73 10.889 73.273 10.734 72.707 10.617zM82.371 10.525c-0.736 0-1.396 0.237-1.961 0.703 -0.496 0.409-0.854 0.971-1.128 1.672H79.25v-2.159h-2.933V23.21h2.933v-6.378c0-1.085 0.246-1.975 0.731-2.648 0.479-0.665 1.117-1.002 1.897-1.002 0.264 0 0.561 0.044 0.882 0.129 0.318 0.086 0.548 0.179 0.684 0.276l0.123 0.089V10.72L83.52 10.7C83.247 10.584 82.86 10.525 82.371 10.525zM90.337 10.441c-2.056 0-3.689 0.603-4.853 1.791 -1.164 1.188-1.754 2.833-1.754 4.888 0 1.952 0.576 3.522 1.712 4.666 1.136 1.144 2.682 1.724 4.594 1.724 1.993 0 3.593-0.611 4.757-1.815 1.163-1.204 1.753-2.832 1.753-4.84 0-1.984-0.554-3.565-1.645-4.701C93.809 11.017 92.273 10.441 90.337 10.441zM92.669 20.041c-0.551 0.691-1.38 1.041-2.464 1.041 -1.077 0-1.927-0.357-2.526-1.061 -0.602-0.708-0.908-1.716-0.908-2.998 0-1.322 0.305-2.357 0.908-3.076 0.599-0.715 1.441-1.078 2.502-1.078 1.029 0 1.849 0.347 2.436 1.031 0.59 0.688 0.889 1.714 0.889 3.051C93.505 18.306 93.224 19.345 92.669 20.041zM103.051 15.893c-0.924-0.372-1.517-0.679-1.76-0.915 -0.236-0.228-0.355-0.551-0.355-0.96 0-0.363 0.148-0.653 0.451-0.888 0.305-0.237 0.73-0.357 1.263-0.357 0.495 0 1.001 0.078 1.504 0.231 0.502 0.153 0.944 0.358 1.314 0.609l0.121 0.083v-2.711l-0.047-0.02c-0.34-0.146-0.788-0.27-1.333-0.372 -0.543-0.1-1.035-0.151-1.463-0.151 -1.399 0-2.555 0.358-3.439 1.063 -0.889 0.709-1.34 1.64-1.34 2.766 0 0.585 0.097 1.105 0.289 1.546 0.192 0.443 0.491 0.833 0.887 1.16 0.392 0.324 1 0.664 1.805 1.009 0.676 0.278 1.18 0.514 1.501 0.699 0.313 0.182 0.535 0.364 0.66 0.542 0.122 0.174 0.184 0.412 0.184 0.707 0 0.838-0.627 1.245-1.918 1.245 -0.479 0-1.025-0.1-1.623-0.297 -0.599-0.197-1.158-0.48-1.662-0.843l-0.123-0.089v2.859l0.045 0.021c0.42 0.194 0.95 0.357 1.574 0.486 0.624 0.129 1.19 0.194 1.681 0.194 1.518 0 2.74-0.36 3.632-1.069 0.897-0.714 1.352-1.667 1.352-2.833 0-0.84-0.244-1.561-0.727-2.142C105.043 16.89 104.212 16.361 103.051 15.893zM114.136 10.441c-2.056 0-3.689 0.603-4.853 1.791 -1.164 1.188-1.754 2.833-1.754 4.888 0 1.952 0.576 3.522 1.712 4.666 1.136 1.144 2.681 1.724 4.594 1.724 1.992 0 3.593-0.611 4.757-1.815 1.164-1.204 1.754-2.832 1.754-4.84 0-1.984-0.554-3.565-1.645-4.701C117.609 11.017 116.073 10.441 114.136 10.441zM116.468 20.041c-0.551 0.691-1.38 1.041-2.464 1.041 -1.077 0-1.927-0.357-2.526-1.061 -0.602-0.708-0.907-1.716-0.907-2.998 0-1.322 0.305-2.357 0.908-3.076 0.599-0.715 1.44-1.078 2.502-1.078 1.029 0 1.849 0.347 2.436 1.031 0.59 0.688 0.889 1.714 0.889 3.051C117.305 18.306 117.023 19.345 116.468 20.041zM135.984 13.133v-2.392h-2.97V7.023l-0.1 0.031 -2.79 0.854 -0.055 0.017v2.817h-4.401V9.172c0-0.731 0.164-1.29 0.486-1.663 0.32-0.37 0.777-0.557 1.36-0.557 0.419 0 0.854 0.099 1.291 0.294l0.109 0.049V4.776l-0.051-0.018c-0.407-0.147-0.962-0.221-1.65-0.221 -0.867 0-1.654 0.189-2.34 0.562 -0.687 0.375-1.228 0.909-1.606 1.588 -0.378 0.678-0.569 1.461-0.569 2.328v1.726h-2.068v2.392h2.068V23.21h2.969V13.133h4.401v6.403c0 2.637 1.244 3.973 3.697 3.973 0.403 0 0.828-0.047 1.261-0.14 0.441-0.095 0.741-0.19 0.918-0.291l0.039-0.022v-2.415l-0.121 0.081c-0.161 0.108-0.362 0.195-0.597 0.261 -0.236 0.066-0.434 0.099-0.586 0.099 -0.575 0-1-0.155-1.264-0.46 -0.267-0.309-0.402-0.847-0.402-1.603v-5.886H135.984z"/><rect x="0" y="0" fill="#f1f1d3" width="13.797" height="13.797"/><rect x="15.233" y="0" fill="#f1f1d3" width="13.796" height="13.796"/><rect x="0" y="15.238" fill="#f1f1d3" width="13.796" height="13.796"/><rect x="15.233" y="15.238" fill="#f1f1d3" width="13.796" height="13.796"/></svg>