<svg version="1.1" xmlns="http://www.w3.org/2000/svg" x="0px" y="0px" viewBox="0 0 105.526 20.842" enable-background="new 0 0 105.526 20.842" xml:space="preserve"><rect x="17.172" y="5.82" fill-rule="evenodd" clip-rule="evenodd" fill="#f1f1d3" width="3.914" height="14.641"/><path fill-rule="evenodd" clip-rule="evenodd" fill="#f1f1d3" d="M21.46 2.09c0 1.717-1.305 2.091-2.237 2.091 -1.305 0-2.424-0.374-2.424-2.091 0-1.708 1.119-2.09 2.237-2.09C20.714 0 21.46 0.766 21.46 2.09z"/><path fill-rule="evenodd" clip-rule="evenodd" fill="#f1f1d3" d="M14.365 1.256c-0.186 0.952-0.372 2.09-0.372 3.228 -2.237-0.569-3.543-0.952-5.406-0.952 -1.306 0-3.925 0-3.925 2.472 0 4.563 11.02 0.383 11.02 8.753 0 5.318-5.231 6.084-8.4 6.084 -0.373 0-4.671-0.568-7.281-0.952 0.186-1.334 0.372-2.276 0.559-3.229 2.423 0.57 6.349 1.139 6.722 1.139 1.678 0 4.288-0.952 4.288-2.856 0-4.563-11.01-0.951-11.01-8.939 0-4.749 3.915-5.702 7.28-5.702C8.399 0.303 12.314 0.873 14.365 1.256zM42.874 11.369h-5.768c0 0 0.027-1.471 1.411-2.164 0.745-0.373 2.124-0.473 2.945 0C42.877 10.019 42.874 11.369 42.874 11.369zM47.145 11.75v3.03L36.92 14.966c0.371 2.464 2.414 2.845 4.097 2.845 0.371 0 2.786-0.185 5.015-0.567 0.186 0.753 0.371 1.701 0.557 3.032 -1.858 0.38-5.387 0.566-5.954 0.566 -5.572 0-7.801-2.081-7.801-7.772 0-4.917 2.044-7.762 7.058-7.762C43.987 5.308 47.145 7.575 47.145 11.75zM27.138 0.928V5.86h4.461v3.032h-4.461v7.582c0 0.793 0.484 1.34 1.483 1.326 0.564-0.007 1.678-0.378 2.605-0.564 0.186 0.949 0.559 2.085 0.753 3.034 0 0-2.352 0.497-4.283 0.566 -1.487 0.053-4.471-0.185-4.471-3.033V0.928H27.138z"/><polygon fill="#f1f1d3" points="53.131,1.212 53.131,9.106 60.877,9.106 60.877,1.212 65.116,1.212 65.116,20.567 60.877,20.567 60.877,12.306 53.131,12.306 53.131,20.567 49.067,20.567 49.067,1.212 "/><path fill="#f1f1d3" d="M94.041 5.906c-0.182 0.941-0.182 2.075-0.367 3.005 -1.474-0.368-3.872-0.562-4.423-0.562 -1.104 0-2.578-0.184-2.578 1.319 0 2.628 7.931 0.185 7.931 6.392 0 4.324-4.246 4.508-6.456 4.508 -0.555 0-3.88-0.378-5.907-0.562 0.184-0.94 0.369-2.065 0.553-3.2 1.657 0.377 4.431 0.755 4.984 0.755 0.37 0 2.951 0 2.951-1.501 0-3.007-8.119-0.758-8.119-6.392 0-3.762 3.88-4.509 6.091-4.509C89.251 5.159 92.384 5.538 94.041 5.906zM81.11 12.948c0-4.264-1.649-7.609-7.11-7.609 -0.517 0-1.035-0.009-1.466 0.086 -0.944 0.209-1.238 1.36-1.238 2.27 0 1.763 1.275 2.55 4.122 3.653 2.932 1.082 4.752 2.463 5.384 4.57C81.005 15.046 81.11 14.06 81.11 12.948zM67.608 8.808c-0.498 1.13-0.718 2.521-0.718 4.14 0 4.648 2.002 7.619 7.111 7.619 0 0 1.651 0.012 2.241-0.201 0.867-0.312 1.074-1.372 1.074-2.292 0-1.849-1.129-2.818-4.024-3.871C69.697 12.92 67.886 11.07 67.608 8.808zM100.684 0.744v4.932h4.461v3.032h-4.461v7.582c0 0.793 0.484 1.34 1.483 1.326 0.564-0.007 1.678-0.378 2.605-0.564 0.186 0.949 0.559 2.085 0.753 3.034 0 0-2.352 0.497-4.283 0.566 -1.487 0.053-4.472-0.185-4.472-3.033V0.744H100.684z"/></svg>