<svg version="1.1" xmlns="http://www.w3.org/2000/svg" x="0px" y="0px" viewBox="0 0 77.7 34.8" enable-background="new 0 0 77.7 34.8" xml:space="preserve"><path fill="#f1f1d3" d="M9.6 34.8H0v-1.1c2.3 0 2.4-0.6 2.4-3.1v-14c0-1.9-0.5-2.8-2.3-2.8v-1c2.3-0.4 3.9-0.9 5.6-2h0.8v3.4c1.1-1.8 3.3-3.1 5.7-3.1 4.7 0 7 3.7 7 7.6 0 4.6-3.2 7.6-7.3 7.6 -2.8 0-4.6-1.4-5.4-2.7v6.9c0 2.5 0.1 3 3.1 3.1V34.8zM6.5 20.2c0 2.2 1.3 4 3.9 4 3.1 0 4.4-2.8 4.4-5.5 0-2.9-1.1-5.4-4.3-5.4 -2.4 0-4 2-4 3.5V20.2zM21.3 26v-1.1c2.3 0 2.4-0.6 2.4-3.1v-5.2c0-1.8-0.5-2.7-2.3-2.7v-1c2.3-0.4 3.9-0.9 5.6-2h0.8v11c0 2.5 0.2 3.1 2.4 3.1V26H21.3zM23 5.8c0-1.4 1.1-2.6 2.6-2.6C27 3.2 28 4.3 28 5.8c0 1.4-1.2 2.5-2.6 2.5C24.1 8.2 23 7 23 5.8zM37.4 13.1v9.1c0 1.5 0.6 2.2 1.7 2.2 0.8 0 1.4-0.6 2.1-1.3l0.8 0.7c-1.1 1.7-2.6 2.7-4.5 2.7 -2.8 0-4.2-1.6-4.2-4.5v-8.8h-1.9v-1c2.6-0.5 4.3-2.5 5-4.9h1v4.6h3.7v1.3H37.4zM57.1 22.9c-1.5 2.2-3.4 3.5-6.5 3.5 -4.4 0-7.6-3-7.6-7.5 0-4.8 4-7.8 8.6-7.8 1.9 0 5.3 0.8 5.3 3.2 0 1-0.8 1.8-1.8 1.8 -2.7 0-1.8-3.7-4.1-3.7 -2.2 0-3.5 2.8-3.5 6 0 3.2 1.4 6.1 4.7 6.1 1.8 0 2.8-1.1 3.9-2.4L57.1 22.9zM64.6 14.4c1-1.8 2.9-3.3 5.7-3.3 2.9 0 5 1.6 5 4.9v5.7c0 2.5 0.2 3.1 2.4 3.1V26h-8.6v-1.1c1.9 0 2.1-0.6 2.1-3.1v-5.4c0-2.2-1.4-3-2.8-3 -2.2 0-3.8 2-3.8 4.5v3.8c0 2.5 0.2 3.1 2.1 3.1V26h-8.6v-1.1c2.3 0 2.4-0.6 2.4-3.1v-16C60.5 3.9 60 3 58.2 3V2c2.3-0.4 3.9-0.9 5.6-2h0.8V14.4z"/></svg>