<svg version="1.1" xmlns="http://www.w3.org/2000/svg" x="0px" y="0px" viewBox="0 0 146.094 36.783" enable-background="new 0 0 146.094 36.783" xml:space="preserve"><path fill="#f1f1d3" d="M14.837 24.572c2.879-1.973 3.616-5.905 1.644-8.785l-5.216 3.567 -0.001-0.002c-1.438 0.988-3.406 0.62-4.393-0.821 -0.985-1.44-0.618-3.407 0.825-4.393 0 0 0.002-0.001 0.004-0.003l4.756-3.256 3.061-2.094C18.398 6.813 19.133 2.88 17.161 0l-5.214 3.571L4.134 8.918c-0.002 0.004-0.005 0.005-0.01 0.007 -4.319 2.959-5.423 8.858-2.465 13.176 2.957 4.322 8.857 5.424 13.176 2.468L14.837 24.572zM21.694 12.215L21.694 12.215l-0.004 0.002c-0.012 0.01-0.022 0.018-0.033 0.026l0.037-0.026C18.816 14.189 18.079 18.12 20.05 21l5.215-3.57 -0.002-0.002c1.44-0.985 3.408-0.62 4.392 0.822 0.987 1.438 0.62 3.407-0.822 4.393l0 0 -4.76 3.258 -3.062 2.098c-2.881 1.97-3.615 5.905-1.644 8.784l5.214-3.57 7.823-5.356v-0.001c4.319-2.956 5.425-8.855 2.468-13.175C31.914 10.361 26.014 9.257 21.694 12.215z"/><path fill="#f1f1d3" d="M50.194 21.986c0-0.462-0.171-0.839-0.509-1.129 -0.342-0.289-0.769-0.555-1.283-0.791 -0.513-0.241-1.072-0.486-1.672-0.74 -0.6-0.251-1.157-0.563-1.67-0.934 -0.514-0.369-0.944-0.828-1.283-1.378 -0.34-0.549-0.51-1.254-0.51-2.106 0-0.739 0.123-1.378 0.37-1.922 0.246-0.543 0.597-0.994 1.053-1.356 0.454-0.361 0.995-0.629 1.618-0.804 0.622-0.172 1.319-0.259 2.084-0.259 0.883 0 1.716 0.076 2.496 0.226 0.782 0.154 1.427 0.375 1.931 0.665l-0.931 2.497c-0.319-0.202-0.798-0.387-1.434-0.554 -0.637-0.165-1.325-0.251-2.062-0.251 -0.695 0-1.226 0.139-1.596 0.413 -0.369 0.275-0.553 0.644-0.553 1.109 0 0.433 0.17 0.795 0.509 1.084 0.343 0.289 0.767 0.557 1.284 0.804 0.512 0.244 1.07 0.498 1.67 0.76 0.602 0.259 1.157 0.573 1.673 0.943 0.512 0.368 0.941 0.825 1.281 1.367 0.339 0.543 0.509 1.22 0.509 2.031s-0.133 1.508-0.4 2.094c-0.27 0.586-0.645 1.075-1.13 1.465 -0.486 0.392-1.072 0.681-1.759 0.869 -0.686 0.187-1.443 0.284-2.268 0.284 -1.087 0-2.041-0.103-2.866-0.305 -0.826-0.203-1.434-0.405-1.823-0.608l0.956-2.541c0.157 0.086 0.364 0.181 0.618 0.281 0.253 0.103 0.539 0.196 0.858 0.282 0.316 0.088 0.654 0.159 1.008 0.217 0.355 0.059 0.721 0.088 1.097 0.088 0.883 0 1.56-0.149 2.031-0.447C49.958 23.046 50.194 22.592 50.194 21.986zM54.255 12.151c0-0.42 0.155-0.778 0.466-1.075 0.312-0.295 0.742-0.444 1.292-0.444 0.55 0 0.996 0.149 1.337 0.444 0.341 0.297 0.509 0.655 0.509 1.075s-0.167 0.77-0.509 1.052c-0.341 0.283-0.786 0.425-1.337 0.425 -0.55 0-0.98-0.142-1.292-0.425C54.409 12.921 54.255 12.571 54.255 12.151zM54.667 15.211h2.821v10.857h-2.821V15.211zM62.526 22.421c0 0.505 0.065 0.876 0.195 1.106 0.131 0.232 0.341 0.349 0.631 0.349 0.174 0 0.342-0.015 0.509-0.045 0.166-0.028 0.373-0.093 0.619-0.196l0.304 2.215c-0.232 0.116-0.586 0.234-1.064 0.349 -0.477 0.115-0.971 0.175-1.476 0.175 -0.825 0-1.455-0.192-1.889-0.578 -0.435-0.383-0.652-1.016-0.652-1.899V10.869h2.823V22.421zM69.105 20.9l0.369 1.672h0.109l0.304-1.715 1.844-5.646h3.04l-4.537 10.965h-1.717l-4.711-10.965h3.278L69.105 20.9zM83.586 25.134c-0.433 0.347-1.024 0.639-1.77 0.879 -0.745 0.24-1.539 0.36-2.377 0.36 -1.752 0-3.034-0.512-3.843-1.531 -0.811-1.022-1.216-2.421-1.216-4.202 0-1.91 0.456-3.344 1.368-4.3 0.912-0.954 2.194-1.432 3.842-1.432 0.552 0 1.087 0.073 1.608 0.218 0.521 0.144 0.985 0.383 1.389 0.716 0.406 0.332 0.731 0.782 0.978 1.346 0.246 0.564 0.369 1.267 0.369 2.107 0 0.303-0.018 0.629-0.053 0.975 -0.037 0.349-0.091 0.712-0.163 1.086h-6.492c0.042 0.913 0.278 1.6 0.703 2.063 0.425 0.464 1.114 0.694 2.066 0.694 0.591 0 1.121-0.088 1.589-0.27 0.469-0.181 0.826-0.367 1.072-0.553L83.586 25.134zM79.557 17.167c-0.733 0-1.279 0.22-1.631 0.662 -0.353 0.441-0.564 1.03-0.638 1.77h4.018c0.058-0.782-0.061-1.381-0.357-1.801C80.655 17.376 80.191 17.167 79.557 17.167zM91.272 17.86c-0.45-0.159-0.855-0.237-1.218-0.237 -0.506 0-0.931 0.133-1.269 0.4 -0.341 0.269-0.57 0.613-0.685 1.032v7.014h-2.822V15.211h2.192l0.325 1.433h0.088c0.246-0.534 0.578-0.947 0.999-1.236 0.42-0.289 0.912-0.435 1.475-0.435 0.377 0 0.806 0.079 1.282 0.238L91.272 17.86zM99.716 22.203c0-0.607-0.179-1.104-0.542-1.488 -0.362-0.382-0.815-0.723-1.358-1.019 -0.542-0.298-1.131-0.576-1.769-0.837 -0.637-0.259-1.227-0.575-1.768-0.944 -0.543-0.369-0.997-0.826-1.358-1.367 -0.361-0.542-0.542-1.234-0.542-2.075 0-1.185 0.413-2.126 1.237-2.821 0.825-0.695 1.999-1.042 3.516-1.042 0.883 0 1.688 0.064 2.412 0.194 0.722 0.13 1.287 0.296 1.691 0.499l-0.542 1.585c-0.332-0.16-0.823-0.31-1.464-0.455 -0.646-0.145-1.374-0.217-2.182-0.217 -0.955 0-1.673 0.214-2.15 0.64 -0.477 0.427-0.716 0.931-0.716 1.51 0 0.563 0.18 1.033 0.542 1.41 0.362 0.377 0.814 0.713 1.358 1.009 0.542 0.298 1.132 0.59 1.769 0.879 0.636 0.29 1.226 0.627 1.77 1.009 0.542 0.384 0.995 0.844 1.357 1.378 0.362 0.537 0.541 1.203 0.541 1.998 0 0.65-0.116 1.239-0.348 1.759 -0.231 0.52-0.571 0.97-1.02 1.346 -0.448 0.376-0.991 0.665-1.629 0.869 -0.636 0.203-1.359 0.303-2.169 0.303 -1.086 0-1.984-0.084-2.693-0.25 -0.71-0.165-1.259-0.35-1.651-0.553l0.608-1.628c0.333 0.187 0.825 0.372 1.477 0.553 0.65 0.181 1.383 0.272 2.193 0.272 0.477 0 0.926-0.048 1.346-0.142 0.419-0.094 0.782-0.247 1.085-0.455 0.305-0.209 0.545-0.473 0.727-0.793C99.626 23.014 99.716 22.637 99.716 22.203zM102.127 15.211h1.694v-2.149l1.737-0.499v2.648h2.951v1.521h-2.951v6.013c0 0.753 0.093 1.285 0.282 1.596 0.188 0.312 0.506 0.468 0.956 0.468 0.376 0 0.694-0.04 0.955-0.12 0.259-0.078 0.55-0.184 0.868-0.315l0.391 1.325c-0.391 0.188-0.816 0.34-1.279 0.455 -0.466 0.117-0.965 0.174-1.502 0.174 -0.881 0-1.503-0.25-1.865-0.748 -0.363-0.501-0.542-1.335-0.542-2.508v-6.339h-1.694V15.211zM115.392 16.885c-0.433-0.146-0.847-0.218-1.239-0.218 -0.621 0-1.114 0.17-1.475 0.51 -0.363 0.341-0.586 0.77-0.674 1.291v7.6h-1.735V15.211h1.214l0.326 1.325h0.088c0.273-0.492 0.604-0.872 0.987-1.139 0.384-0.268 0.871-0.402 1.466-0.402 0.419 0 0.891 0.073 1.41 0.216L115.392 16.885zM116.998 11.913c0-0.333 0.112-0.619 0.336-0.858 0.226-0.239 0.511-0.359 0.858-0.359 0.348 0 0.644 0.12 0.891 0.359 0.247 0.239 0.368 0.525 0.368 0.858 0 0.332-0.121 0.607-0.368 0.824 -0.247 0.218-0.542 0.326-0.891 0.326 -0.348 0-0.633-0.108-0.858-0.326C117.11 12.52 116.998 12.245 116.998 11.913zM117.368 15.211h1.735v10.857h-1.735V15.211zM122.165 15.211h1.194l0.326 1.304h0.087c0.333-0.506 0.764-0.895 1.291-1.161 0.53-0.268 1.133-0.403 1.813-0.403 1.448 0 2.527 0.427 3.236 1.282 0.708 0.854 1.062 2.251 1.062 4.19 0 0.912-0.119 1.732-0.357 2.464 -0.24 0.731-0.575 1.349-1.01 1.856 -0.434 0.507-0.96 0.899-1.574 1.172 -0.614 0.276-1.298 0.413-2.052 0.413 -0.536 0-0.959-0.033-1.269-0.097 -0.313-0.066-0.647-0.178-1.01-0.338v4.517h-1.737V15.211zM126.551 16.471c-0.737 0-1.321 0.193-1.747 0.576 -0.427 0.383-0.728 0.966-0.901 1.749v5.384c0.26 0.202 0.558 0.359 0.89 0.466 0.333 0.109 0.773 0.164 1.324 0.164 1 0 1.793-0.373 2.379-1.117 0.585-0.746 0.878-1.842 0.878-3.29 0-0.593-0.052-1.132-0.152-1.618 -0.1-0.484-0.265-0.898-0.49-1.238 -0.224-0.339-0.513-0.603-0.867-0.792C127.51 16.565 127.073 16.471 126.551 16.471zM141.184 25.2c-0.434 0.347-0.981 0.621-1.639 0.825 -0.658 0.203-1.357 0.303-2.096 0.303 -0.825 0-1.542-0.133-2.149-0.401 -0.607-0.269-1.108-0.652-1.499-1.152 -0.389-0.499-0.679-1.096-0.866-1.791 -0.189-0.695-0.282-1.476-0.282-2.345 0-1.852 0.41-3.264 1.236-4.235 0.825-0.969 2.006-1.454 3.539-1.454 0.492 0 0.984 0.055 1.475 0.163 0.493 0.11 0.935 0.315 1.325 0.619 0.39 0.303 0.709 0.735 0.956 1.293 0.247 0.557 0.369 1.291 0.369 2.202 0 0.477-0.044 1.007-0.131 1.585h-6.968c0 0.637 0.064 1.201 0.193 1.693 0.132 0.492 0.334 0.908 0.609 1.248 0.275 0.341 0.633 0.6 1.075 0.783 0.44 0.18 0.981 0.271 1.617 0.271 0.493 0 0.985-0.087 1.476-0.259 0.491-0.176 0.862-0.377 1.108-0.608L141.184 25.2zM137.449 16.471c-0.854 0-1.538 0.225-2.052 0.673 -0.512 0.45-0.821 1.216-0.923 2.301h5.385c0-1.099-0.208-1.869-0.63-2.311C138.809 16.694 138.216 16.471 137.449 16.471z"/><path fill="#f1f1d3" d="M141.553 12.821c0-0.365 0.06-0.689 0.18-0.972 0.12-0.283 0.284-0.52 0.493-0.71 0.209-0.192 0.45-0.338 0.724-0.437 0.274-0.1 0.566-0.15 0.874-0.15 0.314 0 0.61 0.05 0.887 0.15 0.277 0.099 0.518 0.245 0.724 0.437 0.205 0.191 0.367 0.427 0.484 0.71 0.117 0.283 0.175 0.607 0.175 0.972 0 0.366-0.06 0.689-0.18 0.973 -0.12 0.282-0.284 0.52-0.493 0.71 -0.209 0.192-0.45 0.338-0.724 0.437 -0.274 0.1-0.566 0.15-0.874 0.15 -0.32 0-0.617-0.05-0.891-0.15 -0.274-0.099-0.514-0.245-0.72-0.437 -0.205-0.19-0.367-0.428-0.484-0.71C141.612 13.51 141.553 13.187 141.553 12.821zM142.093 12.821c0 0.297 0.046 0.556 0.137 0.775 0.092 0.22 0.216 0.403 0.373 0.549 0.157 0.145 0.342 0.256 0.553 0.33 0.21 0.073 0.433 0.112 0.668 0.112 0.246 0 0.474-0.036 0.686-0.108 0.211-0.071 0.393-0.179 0.548-0.325 0.154-0.146 0.276-0.329 0.364-0.549 0.088-0.221 0.133-0.482 0.133-0.784 0-0.296-0.046-0.555-0.137-0.774 -0.091-0.221-0.216-0.403-0.373-0.55 -0.157-0.145-0.34-0.255-0.549-0.33 -0.208-0.073-0.432-0.111-0.673-0.111 -0.251 0-0.482 0.038-0.694 0.111 -0.211 0.075-0.394 0.185-0.548 0.33 -0.154 0.146-0.274 0.329-0.36 0.55C142.135 12.266 142.093 12.525 142.093 12.821zM142.941 11.707c0.091-0.029 0.22-0.05 0.385-0.064 0.165-0.014 0.323-0.021 0.471-0.021 0.24 0 0.446 0.049 0.617 0.15 0.171 0.099 0.257 0.273 0.257 0.518 0 0.182-0.059 0.323-0.176 0.419 -0.117 0.098-0.261 0.152-0.432 0.163l0.239 0.12 0.634 0.934h-0.523l-0.617-0.891 -0.411-0.13v1.021h-0.445V11.707zM143.703 12.007c-0.062 0-0.122 0.003-0.179 0.005 -0.057 0.002-0.103 0.012-0.137 0.03v0.607h0.291c0.166 0 0.294-0.025 0.386-0.076 0.091-0.052 0.137-0.14 0.137-0.266C144.201 12.107 144.035 12.007 143.703 12.007z"/></svg>