<svg baseProfile="tiny" xmlns="http://www.w3.org/2000/svg" viewBox="0 0 140.1 32.7"><path fill="#F1F2D3" d="M9.8 16.5c0-.8.7-1.5 1.5-1.5s1.5.7 1.5 1.5v14.5c0 .8-.7 1.5-1.5 1.5-.9 0-1.5-.7-1.5-1.5v-14.5zM16.8 20.7c0-.8.6-1.5 1.5-1.5.8 0 1.5.7 1.5 1.5v.6c.8-1.2 2.1-2.3 4.1-2.3 2.9 0 4.6 2 4.6 5v7c0 .8-.6 1.5-1.5 1.5-.8 0-1.5-.6-1.5-1.5v-6c0-2-1-3.2-2.8-3.2-1.7 0-2.9 1.2-2.9 3.2v6c0 .8-.7 1.5-1.5 1.5s-1.5-.6-1.5-1.5v-10.3zM32.5 28.8v-6.9h-.5c-.7 0-1.3-.6-1.3-1.3 0-.7.6-1.3 1.3-1.3h.5v-2.2c0-.8.7-1.5 1.5-1.5s1.5.7 1.5 1.5v2.2h2.3c.7 0 1.3.6 1.3 1.3 0 .7-.6 1.3-1.3 1.3h-2.3v6.4c0 1.2.6 1.6 1.6 1.6.3 0 .6-.1.7-.1.7 0 1.3.5 1.3 1.2 0 .5-.4 1-.8 1.2-.6.2-1.3.3-2.1.3-2.2.1-3.7-.8-3.7-3.7zM47 32.7c-3.8 0-6.7-2.7-6.7-6.8 0-3.7 2.6-6.8 6.4-6.8 4.2 0 6.2 3.4 6.2 6.4 0 .8-.6 1.4-1.4 1.4h-8.2c.3 2.1 1.8 3.3 3.8 3.3 1.3 0 2.2-.4 3.1-1.1.2-.2.4-.3.8-.3.7 0 1.2.5 1.2 1.2 0 .4-.2.7-.4.9-1.3 1.1-2.8 1.8-4.8 1.8zm3-7.7c-.2-1.9-1.3-3.4-3.3-3.4-1.8 0-3.1 1.4-3.4 3.4h6.7zM55.9 20.7c0-.8.6-1.5 1.5-1.5.8 0 1.5.7 1.5 1.5v1.3c.7-1.6 2-2.9 3.3-2.9.9 0 1.5.6 1.5 1.5 0 .8-.5 1.3-1.2 1.4-2.1.4-3.6 2-3.6 5.1v3.9c0 .8-.7 1.5-1.5 1.5s-1.5-.6-1.5-1.5v-10.3zM66.2 20.7c0-.8.6-1.5 1.5-1.5.8 0 1.5.7 1.5 1.5v.6c.8-1.2 2.1-2.3 4.1-2.3 2.9 0 4.6 2 4.6 5v7c0 .8-.6 1.5-1.5 1.5-.8 0-1.5-.6-1.5-1.5v-6c0-2-1-3.2-2.8-3.2-1.7 0-2.9 1.2-2.9 3.2v6c0 .8-.7 1.5-1.5 1.5s-1.5-.6-1.5-1.5v-10.3zM87.1 32.7c-3.8 0-6.7-2.7-6.7-6.8 0-3.7 2.6-6.8 6.4-6.8 4.2 0 6.2 3.4 6.2 6.4 0 .8-.6 1.4-1.4 1.4h-8.2c.3 2.1 1.8 3.3 3.8 3.3 1.3 0 2.2-.4 3.1-1.1.2-.2.4-.3.8-.3.7 0 1.2.5 1.2 1.2 0 .4-.2.7-.4.9-1.2 1.1-2.7 1.8-4.8 1.8zm3-7.7c-.2-1.9-1.3-3.4-3.3-3.4-1.8 0-3.1 1.4-3.4 3.4h6.7zM96.7 28.8v-6.9h-.5c-.7 0-1.3-.6-1.3-1.3 0-.7.6-1.3 1.3-1.3h.5v-2.2c0-.8.7-1.5 1.5-1.5s1.5.7 1.5 1.5v2.2h2.3c.7 0 1.3.6 1.3 1.3 0 .7-.6 1.3-1.3 1.3h-2.3v6.4c0 1.2.6 1.6 1.6 1.6.3 0 .6-.1.7-.1.7 0 1.3.5 1.3 1.2 0 .5-.4 1-.8 1.2-.6.2-1.3.3-2.1.3-2.1.1-3.7-.8-3.7-3.7zM107.2 16.5c0-.8.7-1.5 1.5-1.5h.3c.7 0 1.2.4 1.6.9l8.6 11.2v-10.6c0-.8.7-1.5 1.5-1.5s1.5.7 1.5 1.5v14.5c0 .8-.6 1.5-1.5 1.5h-.1c-.7 0-1.2-.4-1.6-.9l-8.9-11.5v11c0 .8-.7 1.5-1.5 1.5s-1.5-.7-1.5-1.5v-14.6zM125.7 31.1c0-.6.2-1.1.6-1.5l9.7-11.8h-8.7c-.7 0-1.3-.6-1.3-1.3 0-.7.6-1.4 1.3-1.4h11.4c.7 0 1.4.6 1.4 1.3v.1c0 .5-.2 1-.5 1.4l-9.8 11.8h9c.7 0 1.4.6 1.4 1.4 0 .7-.6 1.3-1.4 1.3h-11.7c-.7 0-1.4-.6-1.4-1.3zM21 7.1c-.4 0-.8-.1-1.1-.4-1.7-1.5-4.9-3.2-8.5-3.2-3.6 0-6.8 1.7-8.5 3.2-.8.6-1.8.5-2.5-.2-.6-.7-.6-1.8.1-2.4 2.3-2 6.3-4.1 10.8-4.1 4.6 0 8.6 2.1 10.8 4.1.7.6.8 1.7.1 2.4-.3.4-.7.6-1.2.6zM17.9 12.6c-.4 0-.9-.2-1.2-.5-1.1-1-3.1-2.2-5.4-2.2s-4.3 1.2-5.3 2.2c-.7.7-1.8.6-2.4 0-.7-.7-.6-1.8 0-2.4 1.6-1.6 4.4-3.3 7.7-3.3s6.2 1.7 7.8 3.2c.7.7.7 1.7 0 2.4-.3.4-.7.6-1.2.6z"/></svg>